<svg version="1.1" id="Layer_1" xmlns="http://www.w3.org/2000/svg" xmlns:xlink="http://www.w3.org/1999/xlink" x="0px" y="0px"
	 width="100%" viewBox="0 0 1180 1250" enable-background="new 0 0 1180 1250" xml:space="preserve">
<path fill="#010101" opacity="1.000000" stroke="none" 
	d="
M1181.000000,338.000000 
	C1181.000000,338.750000 1181.000000,339.500000 1180.592041,340.569336 
	C1179.529419,341.435822 1178.387451,341.910248 1178.293213,342.541107 
	C1176.945068,351.567230 1168.960327,355.738037 1164.093750,362.172241 
	C1159.783569,367.870911 1153.420288,372.252411 1154.022095,380.867310 
	C1154.553833,388.478729 1154.153442,396.158539 1154.065796,403.807007 
	C1154.049561,405.224304 1154.058960,407.226898 1153.204346,407.944366 
	C1150.125366,410.529175 1150.427490,413.847290 1150.189087,417.264313 
	C1149.450195,427.854187 1152.349854,438.887207 1146.464233,448.892059 
	C1146.097778,449.514984 1146.390015,450.525909 1146.377197,451.356293 
	C1146.236572,460.493744 1146.162720,469.633179 1145.886597,478.766541 
	C1145.843018,480.205200 1145.124390,481.775543 1144.305542,483.011993 
	C1140.994873,488.011108 1138.021118,493.026031 1138.815552,499.432983 
	C1139.077759,501.547821 1139.588501,504.637329 1138.468018,505.742096 
	C1133.883789,510.262329 1135.498901,515.808105 1134.645264,521.115234 
	C1130.389038,523.839966 1129.414551,527.610840 1129.877563,532.044434 
	C1129.991211,533.132385 1129.661377,534.303833 1129.366821,535.391235 
	C1127.595703,541.930237 1125.775391,548.455933 1123.827393,555.403442 
	C1122.677246,564.550354 1121.682861,573.281250 1120.640869,582.006592 
	C1120.569580,582.604370 1120.272705,583.284119 1119.860474,583.715210 
	C1116.306519,587.432739 1116.807739,592.067932 1116.938232,596.583862 
	C1117.148193,603.869568 1113.201416,609.874451 1110.821655,616.332520 
	C1109.860474,618.940857 1108.193115,620.952393 1111.009888,623.429382 
	C1111.936035,624.243896 1112.824219,626.253723 1112.447388,627.213196 
	C1109.719360,634.157715 1106.518799,640.915771 1103.755859,647.847717 
	C1101.544556,653.395386 1099.638550,659.072205 1097.796265,664.756287 
	C1096.863281,667.634399 1096.403320,670.663330 1095.667358,673.608582 
	C1095.133057,675.746521 1093.933716,677.883362 1094.024292,679.977722 
	C1094.209473,684.255981 1091.677002,686.598511 1088.899536,689.024292 
	C1086.725952,690.922546 1084.576294,692.865479 1082.586914,694.951416 
	C1081.151489,696.456543 1080.213745,698.472778 1078.678467,699.838989 
	C1073.132568,704.773865 1069.971924,710.824219 1068.836670,718.162598 
	C1068.498779,720.346375 1067.084106,722.455872 1065.828125,724.381104 
	C1064.380615,726.599670 1062.244141,728.398499 1060.963379,730.690552 
	C1056.609985,738.481323 1052.665283,746.502197 1048.245117,754.253052 
	C1045.141479,759.695190 1041.639771,764.924988 1038.080566,770.087280 
	C1035.989258,773.120483 1033.897827,776.489136 1030.985718,778.543457 
	C1026.466431,781.731506 1023.061340,784.921082 1023.959656,790.985718 
	C1024.091675,791.876953 1023.407776,793.051025 1022.795776,793.864258 
	C1018.808228,799.163391 1013.871643,803.952637 1010.877930,809.751404 
	C1005.214478,820.721497 999.897034,831.606140 987.835266,837.082947 
	C986.877136,837.518005 986.324280,838.910522 985.655457,839.906616 
	C983.223877,843.527771 981.215515,847.528625 978.306519,850.708313 
	C975.025513,854.294800 970.548096,856.794800 967.312500,860.412659 
	C963.326355,864.869751 960.915710,870.431091 956.754333,875.050232 
	C952.166077,880.143311 948.807251,886.278015 942.543884,889.841248 
	C941.277344,890.561829 940.345764,891.971741 939.433289,893.193481 
	C937.527710,895.744812 935.811462,898.438477 933.883850,900.972046 
	C930.876221,904.925415 927.906067,908.925049 924.626648,912.646606 
	C922.843994,914.669617 920.460571,916.164917 918.338684,917.886536 
	C917.248413,918.771118 915.940491,919.469910 915.075867,920.533264 
	C913.160950,922.888611 911.838196,925.862488 909.585510,927.772095 
	C906.630615,930.277039 903.053223,932.069275 899.670654,934.043213 
	C894.084229,937.303040 888.387390,940.376221 882.843567,943.705322 
	C880.402771,945.171021 878.143066,946.975464 875.946960,948.801514 
	C873.648560,950.712585 871.860107,953.702637 869.263672,954.704163 
	C860.838562,957.953857 854.051514,963.391235 847.309692,969.106323 
	C845.576782,970.575378 842.949890,970.978943 840.750244,971.910889 
	C837.089233,973.461792 833.399109,974.953064 829.798340,976.634583 
	C824.261841,979.219849 818.240112,980.989563 813.961487,985.786560 
	C813.711609,986.066650 812.984436,985.874390 812.508179,986.006104 
	C805.916626,987.828857 798.532898,988.365540 792.919861,991.796570 
	C783.272339,997.693665 772.270264,995.748901 762.366516,999.231873 
	C758.006836,1000.765137 753.498413,1001.875610 748.880371,1002.809448 
	C744.381592,1002.010132 740.015686,1001.070007 735.763123,1001.438049 
	C734.362366,1001.559326 733.254456,1005.063477 732.007568,1007.009155 
	C732.002441,1006.997559 732.022705,1007.014954 731.556274,1006.946899 
	C722.468811,1006.922974 713.845093,1006.871155 705.229248,1007.107605 
	C703.833984,1007.145935 702.473816,1008.464172 701.069519,1009.497314 
	C701.050232,1010.214355 701.058899,1010.624756 701.032471,1011.029053 
	C700.997314,1011.023010 701.042236,1011.078308 700.724365,1011.271179 
	C700.126221,1017.467346 699.763184,1023.468994 699.640015,1029.475464 
	C699.617126,1030.593262 700.558533,1031.730835 701.082275,1033.272949 
	C704.122070,1035.669922 704.536682,1038.638550 704.374023,1041.920410 
	C704.105042,1047.345825 704.234070,1052.649902 706.793945,1057.755371 
	C707.809021,1059.780029 707.635132,1062.479980 707.691040,1064.879883 
	C707.731750,1066.625854 706.998413,1068.394043 707.065002,1070.134888 
	C707.324341,1076.920044 707.978394,1083.694946 708.088684,1090.479980 
	C708.259216,1100.976196 708.051514,1111.478149 708.169006,1121.975952 
	C708.180847,1123.027466 709.328125,1124.066528 709.974243,1125.505737 
	C710.554565,1127.389160 711.108948,1128.878296 711.155884,1129.004272 
	C709.764954,1132.971924 708.690674,1136.036377 707.616394,1139.100830 
	C708.089539,1139.713745 708.562683,1140.326782 709.035828,1140.939697 
	C713.493713,1140.072144 719.286804,1140.630005 722.093933,1138.000244 
	C726.222839,1134.132446 731.000916,1132.129395 735.697632,1129.920044 
	C742.563843,1126.690430 748.838867,1121.822021 757.125549,1121.947266 
	C760.717651,1122.001587 764.331604,1120.582764 767.936340,1119.836792 
	C770.611755,1119.282959 773.281067,1118.305908 775.965820,1118.259766 
	C786.625549,1118.076538 797.316772,1117.720947 807.944763,1118.329712 
	C816.708557,1118.831665 824.536377,1122.668701 830.241211,1129.452759 
	C832.156250,1131.730103 833.499329,1135.023193 831.263367,1138.866455 
	C826.598694,1146.883789 822.784424,1155.390747 818.357178,1163.553589 
	C816.446350,1167.076782 814.378540,1170.770752 811.519409,1173.475220 
	C803.231812,1181.314697 794.730774,1188.967651 785.878357,1196.157837 
	C779.582153,1201.271729 772.811279,1205.908936 765.817749,1210.019653 
	C760.804504,1212.966431 754.818176,1214.235596 749.729126,1217.081543 
	C744.038696,1220.263672 739.044678,1224.676880 733.410278,1227.978760 
	C730.120789,1229.906616 726.157898,1230.671875 722.522278,1232.025757 
	C715.378906,1234.685913 708.252502,1237.391724 700.715637,1239.983154 
	C696.534851,1240.628784 692.784424,1241.684326 688.971497,1242.011230 
	C685.943298,1242.270996 686.081726,1244.050903 685.788391,1246.356689 
	C683.357422,1247.187988 681.188416,1248.134521 678.994812,1248.195312 
	C672.189331,1248.384277 665.372009,1248.117188 658.564331,1248.262451 
	C654.237244,1248.354736 652.486572,1246.346680 652.246765,1242.210449 
	C652.120056,1240.024414 651.639099,1237.755249 650.804932,1235.735596 
	C649.010681,1231.391602 646.327148,1227.348511 645.014648,1222.886108 
	C642.614380,1214.725342 640.944458,1206.349731 639.035889,1197.594482 
	C639.059021,1187.514282 639.003479,1177.903564 638.982971,1168.292725 
	C638.978271,1166.093750 639.321899,1163.730835 635.677612,1163.701660 
	C634.364258,1156.315674 633.278076,1149.253906 632.204407,1142.190308 
	C631.931091,1140.391602 631.798950,1138.565674 631.429382,1136.788208 
	C629.563843,1127.816284 626.941711,1118.933105 625.945862,1109.869263 
	C625.045837,1101.677612 625.901062,1093.293091 626.291382,1084.803589 
	C629.070435,1079.016846 629.397888,1073.292969 627.912659,1067.360718 
	C626.935913,1063.459595 625.800415,1059.501099 625.598633,1055.524414 
	C625.228088,1048.224243 625.726135,1040.882202 625.426514,1033.575562 
	C625.159973,1027.077271 625.860779,1020.946350 628.635986,1014.948730 
	C630.701660,1010.484558 629.500427,1009.048279 624.402588,1009.030579 
	C608.433960,1008.975342 592.464966,1009.007874 576.496277,1008.959045 
	C574.703125,1008.953613 572.606689,1009.186584 571.173828,1008.380005 
	C566.366577,1005.673828 561.365417,1004.639099 555.902588,1005.010986 
	C554.424316,1005.111633 552.523010,1004.662048 551.429443,1003.738525 
	C547.389893,1000.327209 542.994324,998.781921 537.640747,999.106079 
	C533.553284,999.353516 529.236389,999.400757 525.333496,998.363342 
	C517.088196,996.171570 509.047150,993.211243 500.539856,990.367432 
	C498.436035,990.119873 496.714691,990.070984 494.819031,989.714294 
	C490.420380,987.621643 486.196045,985.836792 481.977661,984.022522 
	C481.983643,983.993103 481.939697,984.034180 481.829102,983.686157 
	C478.455383,982.065002 475.192322,980.791809 471.588745,979.346008 
	C470.485199,979.166565 469.722107,979.159607 468.776886,978.855347 
	C466.767090,977.629822 464.939453,976.701599 462.975037,975.489197 
	C462.230988,975.157898 461.623810,975.110840 460.706116,974.872314 
	C459.237000,973.746521 458.118774,972.755981 456.912354,971.888184 
	C453.021362,969.089417 449.125610,966.295471 445.176422,963.579956 
	C442.875336,961.997681 440.540710,960.435913 438.089722,959.107422 
	C435.498230,957.702820 432.735931,956.616638 430.077545,955.330872 
	C428.683014,954.656250 427.351196,953.851868 425.698364,952.939758 
	C417.434021,952.308350 415.523438,954.289612 415.155670,962.150024 
	C415.002838,965.415649 413.682312,968.626587 412.533630,972.027588 
	C411.509125,973.621033 410.390747,975.008484 410.257385,976.484863 
	C409.699951,982.657043 409.438202,988.855896 409.027161,995.430542 
	C407.934052,997.783691 406.854309,999.737305 405.841492,1001.724915 
	C405.338654,1002.711670 404.732361,1003.725464 404.564819,1004.788818 
	C404.001129,1008.366150 402.948029,1012.083130 403.523163,1015.504395 
	C403.721588,1016.684509 408.196472,1017.964050 410.625305,1017.802979 
	C419.210938,1017.233582 427.742706,1015.897888 436.321960,1015.172241 
	C442.102325,1014.683289 448.074829,1016.082153 453.510620,1012.751892 
	C454.939667,1011.876343 456.823395,1011.641296 458.538788,1011.350952 
	C472.429993,1008.999329 485.309113,1016.098328 499.012268,1015.802490 
	C500.303833,1015.774597 501.628204,1017.267029 502.916931,1018.423706 
	C507.676208,1024.265015 507.615417,1030.842163 508.080353,1037.663208 
	C508.840149,1048.811523 498.738007,1061.743530 489.716064,1064.924316 
	C488.377747,1065.396240 487.038300,1066.133423 485.970062,1067.060059 
	C478.280762,1073.729736 470.661316,1080.479980 462.674133,1087.263672 
	C461.634521,1087.391479 460.940430,1087.460205 459.875061,1087.486572 
	C453.335419,1091.285034 447.167114,1095.125977 440.617249,1099.005493 
	C439.438690,1099.572510 438.690643,1100.202637 437.837128,1100.614014 
	C428.414917,1105.154907 418.997681,1109.707397 409.532349,1114.157227 
	C405.286530,1116.153320 401.092957,1118.625488 396.595642,1119.637939 
	C389.524933,1121.229614 382.216797,1121.764526 375.011078,1122.760864 
	C374.191132,1122.874146 373.370483,1123.028687 372.572113,1123.245117 
	C365.341095,1125.204590 358.208160,1127.714844 350.860352,1128.999268 
	C343.960876,1130.205444 336.452576,1127.940796 330.188812,1132.815552 
	C329.849243,1133.079834 329.220947,1133.031494 328.727325,1133.030396 
	C320.578796,1133.010742 312.429840,1132.911255 304.282043,1132.971924 
	C300.489838,1133.000122 298.075226,1131.159546 297.137482,1127.730957 
	C295.999329,1123.569336 295.390747,1119.266113 294.418549,1115.055176 
	C292.632538,1107.319214 292.348450,1099.677124 294.820801,1091.979858 
	C295.923859,1088.545654 296.408936,1084.908081 297.105743,1081.349487 
	C297.780426,1077.903564 298.366913,1074.440552 299.413391,1070.938110 
	C303.248749,1071.393799 303.067169,1068.916016 303.116486,1066.798340 
	C303.224823,1062.149292 301.615417,1056.611084 303.593262,1053.029419 
	C307.864166,1045.295166 306.700073,1036.185181 311.167603,1028.733398 
	C312.025391,1027.302612 312.408783,1025.587402 313.169006,1023.581665 
	C314.707275,1015.505310 315.930328,1007.816589 317.578247,1000.220032 
	C317.991455,998.315308 319.769440,996.706543 321.329620,994.904175 
	C322.181580,993.044006 322.734436,991.260315 323.044769,989.435364 
	C323.800232,984.992249 324.249817,980.487488 325.217957,976.094604 
	C325.662720,974.076538 327.674805,972.322327 327.858154,970.344788 
	C328.268890,965.914124 327.979370,961.418518 327.981476,956.554871 
	C328.594757,952.834045 329.189941,949.505493 329.811401,946.181946 
	C330.596405,941.983765 330.874390,937.598999 332.305389,933.631714 
	C335.737335,924.116821 332.810852,917.401062 323.051697,915.790833 
	C315.774353,914.590088 308.247253,914.982666 300.880280,914.203430 
	C298.214325,913.921448 295.626068,912.432800 293.116119,911.252808 
	C288.913269,909.276855 285.006775,906.280396 280.609344,905.188965 
	C271.187744,902.850708 262.434753,899.697998 255.528152,892.517517 
	C254.375885,891.319641 252.685394,890.576782 251.145340,889.825073 
	C243.304382,885.998108 235.118362,882.714844 229.229630,875.849792 
	C227.395355,873.711365 225.936951,871.201355 223.900970,869.294312 
	C217.644470,863.433777 211.173309,857.803040 204.837921,852.025574 
	C204.042480,851.300171 203.516983,850.257629 202.940460,849.316711 
	C199.601852,843.867981 197.311203,837.575928 190.978867,834.551147 
	C190.542374,834.342651 189.875854,834.187988 189.739578,833.841797 
	C186.869156,826.549011 181.339172,820.931519 177.494492,814.357849 
	C174.060913,808.487000 171.688980,802.135864 165.884323,797.649414 
	C163.857803,792.842346 161.612411,788.503296 159.851425,783.975891 
	C156.862366,776.291138 150.167801,770.197815 150.181870,761.192871 
	C150.183929,759.872803 149.022507,758.549377 148.393951,757.230164 
	C146.174652,752.572388 143.189865,748.540466 142.601578,742.841797 
	C141.900162,736.047607 137.532471,730.227539 133.023468,724.552063 
	C131.925201,721.553406 130.447678,719.026062 129.829910,716.303589 
	C128.242493,709.307983 127.036514,702.225891 125.677094,695.178528 
	C125.645592,695.015137 125.657082,694.769714 125.556351,694.704224 
	C120.264275,691.261292 122.322540,685.857788 122.089577,681.162598 
	C121.901176,677.365601 120.904480,672.432190 122.809563,669.973206 
	C125.964180,665.901184 125.522453,661.891296 125.961281,657.586975 
	C126.264854,654.609314 127.489258,651.732361 128.217316,648.789368 
	C129.091782,645.254456 129.971313,641.713989 130.599411,638.132141 
	C130.696411,637.578979 129.430649,636.181274 128.845215,636.209595 
	C123.990410,636.444580 118.787804,635.942078 114.384201,637.555847 
	C107.604744,640.040222 100.445053,640.489990 96.383728,636.153687 
	C92.186707,631.672363 87.866341,627.710999 82.281631,624.850159 
	C74.813271,621.024414 67.705063,616.744385 58.801987,617.621216 
	C56.038136,617.893372 53.012997,617.982727 50.433319,617.148376 
	C44.802097,615.326965 42.888474,610.319946 41.893227,605.058044 
	C41.121906,600.980042 40.646255,597.123169 37.053104,594.066589 
	C34.435593,591.839966 31.602270,588.668640 30.990082,585.507019 
	C29.126045,575.880249 28.181015,566.065552 27.170788,556.293701 
	C27.011415,554.752197 29.209032,552.862427 28.889265,551.458984 
	C26.901436,542.734497 33.206760,536.092041 34.403042,528.206604 
	C34.570400,527.103394 35.594582,525.566162 36.560524,525.243774 
	C41.240353,523.681885 44.321018,520.591064 46.389694,516.251160 
	C46.635033,515.736389 47.305916,515.310242 47.875332,515.081726 
	C54.611423,512.378662 61.365742,509.721100 68.571320,507.125916 
	C73.176559,507.160492 77.344025,507.347626 81.469643,507.015228 
	C85.376381,506.700562 88.202629,505.097961 88.002014,500.286407 
	C87.746391,494.155304 87.905891,488.005371 87.949165,481.863983 
	C87.971344,478.715668 87.967224,475.552826 88.264725,472.424103 
	C88.721275,467.622650 89.427727,462.844971 89.999405,457.682983 
	C90.554558,456.398468 90.985207,455.326202 91.747726,454.604645 
	C96.019875,450.561981 101.780457,447.337982 104.338585,442.430115 
	C107.497818,436.369019 113.034042,433.841705 117.839378,432.810669 
	C128.309875,430.564026 139.327744,430.293488 149.124756,436.555511 
	C149.889236,437.044189 150.803177,437.965973 150.879684,438.760468 
	C151.614471,446.390076 158.056931,449.595642 162.984848,453.465332 
	C170.321625,459.226715 178.525909,463.883362 186.150253,469.207428 
	C188.610291,470.870148 191.281097,472.335541 193.951904,473.800934 
	C194.550522,473.308014 195.149155,472.815125 195.747772,472.322205 
	C195.087097,470.290283 194.824753,467.990021 193.676895,466.286316 
	C191.718811,463.379944 188.914139,461.038177 186.998917,458.110107 
	C184.669800,454.549194 182.856750,450.645691 180.895508,446.851624 
	C180.094604,445.302338 179.490494,443.651306 178.873444,441.632538 
	C178.610703,439.115051 180.291245,435.857666 175.840546,435.644409 
	C175.074265,432.877533 174.119904,430.518616 173.898682,428.092804 
	C173.540100,424.160980 174.896606,419.572235 173.304001,416.366089 
	C170.655487,411.034271 169.695145,405.811890 169.830627,400.080261 
	C169.860733,398.806152 169.409683,396.764221 168.566467,396.361847 
	C165.534592,394.915009 165.850632,392.569611 166.572845,390.052795 
	C172.503189,389.476990 169.915665,385.360077 169.804855,382.816162 
	C169.623398,378.650299 168.158524,374.530914 168.061249,370.372589 
	C167.800323,359.219452 168.033859,348.055481 167.905991,336.897675 
	C167.890701,335.563110 166.855698,334.240204 166.195282,332.531525 
	C170.211243,327.486908 170.267609,321.881012 169.976135,316.121277 
	C169.852081,313.669952 169.382309,310.632538 170.558228,308.835602 
	C173.697754,304.038055 173.756393,298.937683 173.940826,293.602203 
	C174.040985,290.704529 175.260330,287.845551 176.395905,284.953094 
	C177.558060,283.589325 178.854843,282.275116 178.938538,280.887695 
	C179.215942,276.289825 179.056259,271.665558 179.255951,266.761597 
	C181.327637,263.155701 183.231888,259.853119 185.081650,256.520264 
	C187.502274,252.158798 189.328140,247.324036 192.426178,243.520706 
	C195.730515,239.464081 200.258133,236.414841 204.178848,232.845779 
	C207.136978,230.152969 210.236099,227.551147 212.810852,224.517105 
	C216.121338,220.616074 219.103531,216.765030 225.012085,216.858032 
	C226.904327,216.887833 229.258682,215.857422 230.652802,214.527267 
	C238.278839,207.251068 248.173721,206.755356 257.628265,205.680283 
	C269.627808,204.315857 281.065735,207.135498 291.767059,212.851303 
	C294.676575,214.405350 297.666931,216.095398 300.827881,216.833130 
	C308.055573,218.520004 314.995117,226.578644 315.023285,233.999268 
	C315.047302,240.328049 313.136353,247.607025 315.622589,252.755585 
	C319.077087,259.909271 317.826202,267.012756 318.482666,273.918701 
	C319.706909,286.798492 318.664825,299.881622 318.926514,312.872833 
	C318.998932,316.468109 320.346924,320.037079 321.103210,323.619476 
	C321.629730,326.113617 322.546295,328.602386 322.594238,331.106873 
	C322.776001,340.600891 322.401428,350.112762 322.832947,359.590729 
	C322.977356,362.762543 324.909546,365.852997 325.776917,369.329865 
	C325.381134,377.624329 325.145599,385.570374 325.219086,393.513580 
	C325.226471,394.313141 327.104004,395.095367 328.417511,396.138306 
	C329.235352,399.557556 329.738403,402.725983 330.265320,405.890411 
	C331.641144,414.152679 333.024109,422.413727 334.422577,430.672150 
	C334.473602,430.973419 334.648743,431.327606 334.881042,431.513123 
	C338.469604,434.378998 337.888336,438.409149 337.960571,442.279114 
	C337.988281,443.762909 337.792542,445.448517 338.408569,446.689819 
	C341.207611,452.329651 344.259766,457.843872 346.867828,462.740479 
	C351.802734,461.986389 356.885132,461.176819 361.978088,460.440552 
	C367.444519,459.650330 372.917358,458.901459 378.395752,458.199890 
	C379.536865,458.053741 380.738464,458.045898 381.871307,458.228271 
	C386.142181,458.915771 390.441040,459.516815 394.646729,460.502899 
	C402.236694,462.282471 409.851257,464.042633 417.295166,466.332214 
	C422.952637,468.072327 428.238434,471.037872 433.909943,472.711304 
	C442.464996,475.235565 451.410034,476.535797 459.815552,479.438538 
	C466.615662,481.786926 473.635956,484.762360 479.187927,489.181580 
	C488.963440,496.962646 500.633728,501.258759 510.767761,508.219666 
	C515.812439,511.684814 522.706604,513.147095 523.687927,521.037476 
	C523.915283,522.865845 526.183533,524.972046 528.039673,525.972839 
	C535.516663,530.004150 541.944031,534.588684 545.716980,542.852051 
	C548.083923,548.035950 552.552490,547.180786 555.218811,541.893616 
	C555.475037,541.385559 556.238159,541.156860 556.599365,540.673950 
	C558.506226,538.124573 560.406494,535.567810 562.222778,532.953613 
	C567.433350,525.454163 568.096436,515.190979 576.512756,509.578094 
	C577.570557,508.872650 578.015076,507.136993 578.569031,505.805939 
	C581.055420,499.831818 582.782349,493.409058 586.096985,487.945068 
	C590.449097,480.770782 592.986938,472.278107 600.110413,466.917603 
	C600.536621,466.596832 600.663818,465.876617 600.926086,465.340271 
	C603.212891,460.664154 605.440918,455.958160 607.805054,451.321472 
	C609.419434,448.155334 612.542664,445.144653 612.684814,441.961487 
	C613.050903,433.761414 617.740967,427.699158 621.284302,421.058075 
	C624.378540,415.258728 627.286621,409.656128 628.551147,402.924316 
	C629.724487,396.677856 632.771790,390.796997 632.399048,384.119171 
	C632.330505,382.890564 633.730042,381.635437 634.236511,380.310211 
	C637.196533,372.565735 643.129700,366.096191 643.213440,357.036133 
	C643.247925,353.304626 645.589294,349.594482 647.271606,345.777222 
	C648.260254,345.463531 649.322693,345.340424 649.387756,345.016937 
	C650.325500,340.349518 651.129211,335.655121 652.025391,330.557678 
	C652.683289,327.849487 653.199951,325.525787 653.903259,323.259979 
	C654.494446,321.355316 655.566101,319.572906 655.968323,317.641266 
	C657.526428,310.159119 661.444275,303.100189 660.113892,295.084503 
	C660.067383,294.804474 660.239319,294.443451 660.404480,294.179565 
	C665.041565,286.766388 665.107361,278.216614 666.578918,269.989410 
	C667.361633,265.613403 668.890198,261.370880 670.475586,257.015656 
	C671.547058,255.624878 672.707764,254.322845 672.811584,252.941406 
	C673.108887,248.983215 672.977722,244.992844 673.119751,240.717163 
	C673.769958,239.916473 674.315369,239.413742 675.275024,238.884705 
	C676.454163,237.848862 677.750610,236.901886 677.878235,235.817383 
	C678.185425,233.207504 677.945007,230.533157 677.946045,227.492035 
	C678.632751,224.668549 679.475342,222.268982 679.911133,219.797684 
	C680.283325,217.686798 679.336609,214.755844 680.451843,213.468201 
	C684.615540,208.660843 683.697998,203.115219 683.866455,197.633667 
	C683.919922,195.893173 683.877991,193.734375 684.832092,192.507797 
	C689.319763,186.738281 690.904968,180.375015 690.610962,173.130508 
	C690.469177,169.636078 690.713318,165.184830 692.709900,162.741913 
	C696.787048,157.753220 699.350342,152.909180 699.348389,146.251923 
	C699.347107,141.942917 701.255432,137.623230 702.413696,133.336853 
	C702.557495,132.804642 703.498108,132.535751 703.819580,131.995987 
	C706.463318,127.557587 711.191040,123.101547 711.227722,118.617599 
	C711.319031,107.476089 719.724670,101.060326 723.843323,92.330902 
	C725.243591,89.363022 730.289429,88.073364 731.585449,85.106499 
	C734.482727,78.473564 740.157776,74.380341 744.215637,68.886520 
	C746.813843,65.368912 748.545105,61.027340 751.653625,58.107731 
	C758.486755,51.689770 765.960571,45.955559 773.144775,39.908913 
	C775.876953,37.609322 778.664612,35.352020 781.197815,32.843929 
	C788.876587,25.241125 799.078491,22.654917 808.583557,18.580111 
	C814.621887,15.991446 820.278259,12.511823 826.346802,9.561695 
	C826.954102,10.017056 827.320679,10.342452 827.687195,10.667846 
	C830.493103,6.708526 834.685730,7.121048 838.808105,6.897740 
	C840.529663,6.804482 842.192993,5.636266 844.360474,4.938120 
	C846.977722,4.689978 849.135315,4.156495 851.254028,4.281750 
	C862.700562,4.958462 874.059937,3.451228 885.662476,6.471235 
	C896.271973,9.232756 908.136841,4.956857 919.064453,10.438976 
	C920.778625,11.181254 922.257935,11.878504 923.759460,11.929963 
	C929.461975,12.125411 935.171753,12.112016 941.104126,12.495072 
	C948.419861,14.325440 955.557495,15.649055 962.585999,17.408373 
	C968.321228,18.843967 973.993958,20.607782 979.572327,22.572495 
	C987.202454,25.259848 994.772278,28.142296 1002.240845,31.247040 
	C1004.036743,31.993626 1005.403809,33.875374 1006.836914,35.361588 
	C1008.245605,36.822536 1009.295410,38.678452 1010.842224,39.947094 
	C1014.095276,42.615101 1017.548096,45.043354 1020.965149,47.505733 
	C1022.468750,48.589260 1024.223022,49.353519 1025.625122,50.543667 
	C1030.364258,54.566334 1036.527954,57.893208 1039.280273,63.023926 
	C1042.689941,69.380264 1046.352661,74.507454 1052.372559,78.510017 
	C1055.858765,80.827950 1058.398315,84.678604 1061.075928,88.066978 
	C1062.983765,90.481339 1064.087036,93.568802 1066.131958,95.828880 
	C1069.092285,99.101097 1072.954102,101.587067 1075.751465,104.970573 
	C1079.696899,109.742867 1082.700195,115.298897 1086.685181,120.032700 
	C1092.709106,127.188843 1096.924927,135.209946 1100.289795,143.857025 
	C1101.928955,148.069901 1104.560303,151.885513 1106.469727,156.007309 
	C1108.784058,161.003433 1111.568726,165.971191 1112.698242,171.261139 
	C1113.471558,174.883179 1114.895508,177.561310 1116.855713,180.500717 
	C1119.493164,184.455353 1122.927246,188.896698 1123.104980,193.248215 
	C1123.414673,200.827179 1125.734985,207.100876 1129.899902,213.457062 
	C1130.208740,217.269806 1130.597656,220.635529 1131.077759,224.343674 
	C1138.657959,231.182999 1137.208618,243.105576 1145.849487,248.941589 
	C1146.213013,249.187134 1145.847778,250.348404 1146.187134,250.820786 
	C1147.882446,253.180603 1149.225830,256.354797 1151.564697,257.583405 
	C1158.082642,261.007355 1162.537476,266.424744 1166.175049,272.280060 
	C1170.001953,278.440094 1171.266479,286.106384 1177.229614,291.131195 
	C1178.004028,291.783661 1177.811523,293.558319 1178.113525,294.801819 
	C1178.768921,297.501587 1179.454346,300.194031 1180.052856,303.360229 
	C1179.999268,313.716583 1179.980591,323.602661 1180.083984,333.487396 
	C1180.099731,334.994629 1180.680420,336.495941 1181.000000,338.000000 
M1081.296509,318.020294 
	C1081.372314,311.542053 1081.589233,305.020691 1075.320312,299.690521 
	C1075.033569,297.120117 1074.921997,294.514404 1074.412476,291.988953 
	C1073.868286,289.292389 1072.948608,286.671661 1073.047729,284.095306 
	C1073.993042,279.697083 1074.938232,275.298859 1076.050781,270.209381 
	C1076.714722,268.496246 1077.378662,266.783081 1078.889282,265.002930 
	C1083.022461,263.738251 1080.634521,260.431519 1080.859253,258.045746 
	C1080.909180,257.515625 1078.963501,256.797516 1077.057007,255.859680 
	C1074.574219,255.818527 1072.076172,255.581985 1069.611694,255.774979 
	C1063.631104,256.243317 1058.937378,258.955627 1054.862671,263.502808 
	C1050.084106,268.835419 1046.948486,274.955078 1043.403931,281.039337 
	C1040.629028,285.802307 1039.999023,289.919922 1039.800171,295.582367 
	C1037.836670,303.365326 1038.371704,304.913849 1044.665039,308.396423 
	C1045.141724,309.421051 1045.546509,310.487183 1046.108398,311.462708 
	C1047.910278,314.590179 1049.383179,318.025116 1051.727051,320.686157 
	C1053.703735,322.930237 1056.763550,324.197418 1059.263062,326.008667 
	C1064.543091,329.834900 1066.775757,337.697632 1075.338867,337.333649 
	C1078.283081,337.208496 1081.324219,339.134155 1084.305786,340.166809 
	C1090.862671,342.437805 1097.410034,344.736755 1104.363281,347.681030 
	C1107.931030,348.417175 1111.475220,349.368896 1115.080322,349.763641 
	C1116.225830,349.889038 1117.533691,348.531647 1118.767334,347.852783 
	C1117.505615,347.249603 1116.243774,346.646423 1114.271851,345.744690 
	C1109.028564,344.325531 1103.244507,343.680573 1102.004761,336.726990 
	C1101.906128,336.173035 1100.755615,335.845947 1100.161255,335.334991 
	C1093.808838,329.873505 1087.469849,324.396210 1081.296509,318.020294 
M861.883850,303.991516 
	C867.086975,302.885986 872.482727,302.306976 877.428284,300.497498 
	C880.970520,299.201447 883.909790,296.257629 887.118103,294.048981 
	C881.423950,292.962463 876.284790,292.988403 871.145996,292.956482 
	C863.163574,292.906860 854.822388,294.251556 847.894714,288.913513 
	C843.405640,285.454498 839.139221,281.597412 835.325317,277.415100 
	C833.274475,275.166290 832.520325,271.779480 830.946350,269.041077 
	C828.535034,264.846008 825.080322,261.481781 824.388794,256.068176 
	C823.676697,250.493637 821.120605,245.151978 819.344238,239.717285 
	C818.572327,237.355286 817.720093,235.019653 816.926758,232.664490 
	C815.616638,228.775620 814.324646,224.880661 813.225281,220.078430 
	C813.147095,215.717514 813.068909,211.356598 813.336914,206.417419 
	C815.758057,201.528854 818.324646,196.701645 820.441406,191.684647 
	C820.754578,190.942474 818.979126,188.292389 818.105042,188.259720 
	C814.891296,188.139557 811.611450,188.539749 808.427246,189.127518 
	C800.835266,190.528931 795.962341,196.467239 790.022888,200.593170 
	C782.563477,205.775070 776.952820,212.218979 777.041016,222.049118 
	C777.051392,223.198669 777.028931,224.390564 776.748291,225.493256 
	C775.627258,229.898560 774.319397,234.256882 773.226135,238.668640 
	C771.241455,246.678024 777.222595,253.220154 777.513062,260.870544 
	C777.556885,262.024139 779.480774,263.122833 780.565613,264.216583 
	C782.162537,265.826569 784.190063,267.166656 785.323608,269.049530 
	C788.567078,274.437439 790.990356,279.970856 797.874878,282.489380 
	C804.616882,284.955811 810.442627,289.861450 817.129395,292.559479 
	C827.158936,296.606293 837.588989,299.660309 847.805786,303.997498 
	C850.170349,306.985718 857.801941,307.051483 861.883850,303.991516 
M472.269592,691.917114 
	C472.711212,683.570801 473.407593,675.228577 473.542786,666.877258 
	C473.849945,647.904907 473.970306,628.927551 473.868317,609.953857 
	C473.859436,608.299744 471.988525,606.143738 470.403656,605.098999 
	C463.699615,600.679749 456.879883,602.919800 450.644836,606.088745 
	C446.131470,608.382690 442.508331,612.375916 438.091003,614.922302 
	C429.623840,619.803101 420.197083,623.282593 414.349915,631.759338 
	C412.624573,634.260559 410.550232,637.023560 410.193268,639.862549 
	C409.427216,645.954773 414.716125,648.498962 418.468140,652.042725 
	C421.826599,655.214722 425.679749,655.975891 429.344147,654.614380 
	C433.139832,653.204041 436.364777,650.257690 440.461792,647.575684 
	C440.461792,680.627197 440.461792,712.506226 440.461792,743.999146 
	C433.282837,745.022034 426.332642,745.687683 419.526733,747.065735 
	C411.328278,748.725586 407.069061,759.380188 411.335510,766.530334 
	C414.620941,772.036377 420.259308,773.622192 425.761108,773.771362 
	C442.736420,774.231750 459.732239,774.091248 476.717224,773.912354 
	C480.319458,773.874390 484.022064,773.039734 487.479462,771.944153 
	C492.985901,770.199341 495.155792,766.471863 495.161987,760.048950 
	C495.169250,752.517578 493.302063,748.682068 487.547272,747.134521 
	C482.626282,745.811340 477.402771,745.612976 472.211487,743.992859 
	C472.143829,726.927307 472.076202,709.861694 472.269592,691.917114 
M541.077271,759.014893 
	C542.523010,766.769653 551.226196,773.730652 560.388062,773.788269 
	C589.378784,773.970642 618.371094,773.889343 647.362427,774.005005 
	C652.115479,774.023926 658.299316,769.305298 659.918457,764.400635 
	C661.725464,758.926880 659.523682,751.919067 654.228760,749.662842 
	C647.327698,746.722229 639.948425,744.003296 632.572205,743.292358 
	C621.846313,742.258667 610.931213,742.857727 600.112549,743.224548 
	C591.833191,743.505310 583.578125,744.504211 575.071594,745.203491 
	C575.549377,731.421082 585.127319,724.477112 593.793274,717.136841 
	C598.626465,713.043152 604.039734,709.580261 609.424988,706.205627 
	C616.405212,701.831604 623.773743,698.068481 630.677551,693.584351 
	C635.496033,690.454651 639.988770,686.749146 644.266663,682.900269 
	C645.830872,681.492981 646.169556,678.809875 647.392883,676.919495 
	C650.094971,672.743958 653.927673,669.051392 655.635559,664.533020 
	C659.186279,655.139038 659.234924,645.027588 657.573181,635.286011 
	C656.742188,630.413879 655.339417,624.864197 650.253906,621.754211 
	C644.808960,618.424438 639.711914,614.418579 634.006470,611.647949 
	C626.112000,607.814209 617.736877,605.113037 608.757568,604.989502 
	C599.975037,604.868652 591.299011,604.876404 583.050842,608.819092 
	C575.701538,612.332153 567.879517,614.895813 560.679321,618.667358 
	C555.915466,621.162720 551.898010,625.073792 547.516602,628.310669 
	C541.338928,632.874634 540.235596,641.133423 545.075012,646.856689 
	C549.407410,651.980225 558.350037,653.608459 564.080383,650.293945 
	C571.199890,646.176025 578.394592,642.179260 585.400452,637.875732 
	C595.880920,631.437927 606.635315,629.269531 617.542297,636.243896 
	C621.221436,638.596436 627.122986,640.500488 625.527283,646.651123 
	C624.325439,651.283264 621.865112,655.622192 619.712585,659.966492 
	C616.535706,666.378174 610.389526,669.570862 604.817383,673.446716 
	C597.911621,678.250305 591.734680,684.296326 584.403259,688.247986 
	C573.195007,694.289246 562.496216,700.393005 554.720398,710.992798 
	C548.456299,719.531921 544.686340,729.060486 541.018921,739.660828 
	C541.023621,745.861145 541.028320,752.061523 541.077271,759.014893 
M762.684204,770.100769 
	C763.397522,769.610779 764.464600,769.278503 764.765198,768.604431 
	C766.401978,764.933533 767.837463,761.173279 769.365662,757.453491 
	C771.938965,751.189819 774.575195,744.951599 777.096680,738.667175 
	C778.616028,734.880432 779.802856,730.953552 781.449097,727.226562 
	C782.716736,724.356873 784.735840,721.813293 785.948547,718.926392 
	C788.634216,712.533447 791.020386,706.014832 793.532898,699.549072 
	C796.098694,692.946350 798.675598,686.347961 801.235779,679.743042 
	C802.623596,676.162598 803.680542,672.413879 805.437622,669.026733 
	C807.663757,664.735352 811.326965,661.026306 812.816223,656.549133 
	C816.156067,646.508850 820.519897,637.084473 826.251953,628.230896 
	C829.212830,623.657654 831.047729,618.016235 828.282837,613.544922 
	C825.134766,608.453918 820.224365,604.775085 812.996216,604.801147 
	C803.500488,604.835449 798.322388,611.345093 793.711975,617.354614 
	C788.410889,624.264404 784.738953,632.579651 781.219971,640.659241 
	C777.378662,649.479004 774.465759,658.707825 771.257080,667.796814 
	C768.986877,674.227661 767.299011,680.894348 764.622803,687.143738 
	C761.520691,694.387573 757.583740,701.271301 754.089661,708.351135 
	C752.968933,710.621948 752.220093,713.076660 751.093933,715.344421 
	C749.551208,718.451355 747.810913,721.460205 746.155273,724.511108 
	C745.622803,724.376160 745.090393,724.241272 744.557983,724.106323 
	C743.462158,719.948059 742.487366,715.753296 741.244568,711.639465 
	C738.891907,703.851868 736.329407,696.127747 733.966064,688.343262 
	C732.763428,684.381836 732.018005,680.273865 730.687073,676.361023 
	C728.331543,669.435791 725.228210,662.736816 723.267395,655.711670 
	C720.095093,644.346436 717.935852,632.694885 714.654724,621.365234 
	C713.179077,616.269958 712.649536,609.666992 705.670166,608.263855 
	C701.733215,607.472412 697.592407,606.915771 693.624329,607.241028 
	C687.684814,607.727844 681.187744,614.988342 682.129456,620.743347 
	C683.873413,631.401611 686.191528,642.011353 689.058350,652.424438 
	C690.954224,659.310608 694.612061,665.694824 696.790771,672.523926 
	C700.329956,683.617310 703.264832,694.902405 706.526062,706.085815 
	C709.994019,717.977905 713.435791,729.879639 717.097046,741.712769 
	C719.643127,749.941345 721.993164,758.298706 725.411011,766.173035 
	C730.353088,777.559204 737.212646,782.004272 748.248657,780.986023 
	C753.594666,780.492798 760.679688,775.485962 762.684204,770.100769 
z"/>
<path fill="#FEFEFE" opacity="1.000000" stroke="none" 
	d="
M165.883316,798.032654 
	C171.688980,802.135864 174.060913,808.487000 177.494492,814.357849 
	C181.339172,820.931519 186.869156,826.549011 189.739578,833.841797 
	C189.875854,834.187988 190.542374,834.342651 190.978867,834.551147 
	C197.311203,837.575928 199.601852,843.867981 202.940460,849.316711 
	C203.516983,850.257629 204.042480,851.300171 204.837921,852.025574 
	C211.173309,857.803040 217.644470,863.433777 223.900970,869.294312 
	C225.936951,871.201355 227.395355,873.711365 229.229630,875.849792 
	C235.118362,882.714844 243.304382,885.998108 251.145340,889.825073 
	C252.685394,890.576782 254.375885,891.319641 255.528152,892.517517 
	C262.434753,899.697998 271.187744,902.850708 280.609344,905.188965 
	C285.006775,906.280396 288.913269,909.276855 293.116119,911.252808 
	C295.626068,912.432800 298.214325,913.921448 300.880280,914.203430 
	C308.247253,914.982666 315.774353,914.590088 323.051697,915.790833 
	C332.810852,917.401062 335.737335,924.116821 332.305389,933.631714 
	C330.874390,937.598999 330.596405,941.983765 329.811401,946.181946 
	C329.189941,949.505493 328.594757,952.834045 327.555634,956.595886 
	C326.368256,958.375793 325.099335,959.669189 324.959747,961.074707 
	C324.615814,964.537231 326.014191,968.730286 324.523895,971.415100 
	C320.313110,979.001099 321.025909,986.963806 320.920166,994.961792 
	C319.769440,996.706543 317.991455,998.315308 317.578247,1000.220032 
	C315.930328,1007.816589 314.707275,1015.505310 312.807251,1023.612732 
	C311.450165,1024.825928 310.117767,1025.446289 309.856689,1026.369751 
	C308.289581,1031.912476 304.039307,1036.552612 304.762299,1042.941162 
	C305.009003,1045.121216 304.139252,1048.729004 302.611755,1049.574463 
	C297.113159,1052.618042 299.430634,1057.410278 299.082550,1061.564941 
	C298.821106,1064.685547 299.005981,1067.843628 298.992157,1070.984985 
	C298.366913,1074.440552 297.780426,1077.903564 297.105743,1081.349487 
	C296.408936,1084.908081 295.923859,1088.545654 294.820801,1091.979858 
	C292.348450,1099.677124 292.632538,1107.319214 294.418549,1115.055176 
	C295.390747,1119.266113 295.999329,1123.569336 297.137482,1127.730957 
	C298.075226,1131.159546 300.489838,1133.000122 304.282043,1132.971924 
	C312.429840,1132.911255 320.578796,1133.010742 328.727325,1133.030396 
	C329.220947,1133.031494 329.849243,1133.079834 330.188812,1132.815552 
	C336.452576,1127.940796 343.960876,1130.205444 350.860352,1128.999268 
	C358.208160,1127.714844 365.341095,1125.204590 372.572113,1123.245117 
	C373.370483,1123.028687 374.191132,1122.874146 375.011078,1122.760864 
	C382.216797,1121.764526 389.524933,1121.229614 396.595642,1119.637939 
	C401.092957,1118.625488 405.286530,1116.153320 409.532349,1114.157227 
	C418.997681,1109.707397 428.414917,1105.154907 437.837128,1100.614014 
	C438.690643,1100.202637 439.438690,1099.572510 440.750671,1099.238770 
	C441.739014,1099.513306 442.335297,1099.818604 442.666626,1099.637939 
	C446.062988,1097.786255 449.554413,1096.057983 452.739349,1093.885010 
	C455.433197,1092.046997 457.758148,1089.668335 460.246368,1087.528931 
	C460.940430,1087.460205 461.634521,1087.391479 462.951294,1087.418945 
	C466.956360,1086.165161 471.484467,1085.755005 473.507263,1083.289429 
	C479.697540,1075.744263 486.666229,1069.460083 495.180237,1064.707642 
	C503.381195,1060.129761 507.368500,1052.133179 509.614075,1043.663696 
	C510.933533,1038.687256 510.719391,1032.884277 509.577179,1027.817871 
	C508.771851,1024.245728 505.247620,1021.286499 502.937347,1018.053589 
	C501.628204,1017.267029 500.303833,1015.774597 499.012268,1015.802490 
	C485.309113,1016.098328 472.429993,1008.999329 458.538788,1011.350952 
	C456.823395,1011.641296 454.939667,1011.876343 453.510620,1012.751892 
	C448.074829,1016.082153 442.102325,1014.683289 436.321960,1015.172241 
	C427.742706,1015.897888 419.210938,1017.233582 410.625305,1017.802979 
	C408.196472,1017.964050 403.721588,1016.684509 403.523163,1015.504395 
	C402.948029,1012.083130 404.001129,1008.366150 404.564819,1004.788818 
	C404.732361,1003.725464 405.338654,1002.711670 405.841492,1001.724915 
	C406.854309,999.737305 407.934052,997.783691 409.400848,995.303833 
	C410.491547,993.689209 411.672150,992.623596 411.755676,991.477905 
	C412.104370,986.697510 412.123230,981.893005 412.620056,977.052612 
	C414.335846,974.306335 416.101349,971.726929 416.958344,968.874634 
	C418.252045,964.568665 418.911835,960.072266 419.978577,955.003235 
	C421.771851,955.003235 423.885010,955.003235 426.046356,955.346802 
	C425.172546,959.730957 428.730713,956.977478 429.876068,958.109680 
	C431.166870,959.385620 432.995880,960.137390 434.636322,961.033936 
	C436.465240,962.033386 438.345367,962.939087 440.203186,963.885620 
	C441.488281,965.051147 443.512634,965.146362 444.147003,966.134094 
	C447.736389,971.723999 454.210693,973.031006 459.135803,976.589600 
	C459.306244,976.712830 460.369507,975.600281 461.016602,975.063721 
	C461.623810,975.110840 462.230988,975.157898 462.954437,975.872437 
	C463.881195,980.007568 465.928741,980.687500 468.959045,979.152710 
	C469.722107,979.159607 470.485199,979.166565 471.609589,979.700073 
	C475.293854,981.495789 478.616791,982.764954 481.939697,984.034180 
	C481.939697,984.034180 481.983643,983.993103 482.010437,984.380005 
	C485.955231,987.506409 488.656891,993.244873 494.993378,990.022095 
	C496.714691,990.070984 498.436035,990.119873 500.553955,990.724854 
	C501.159180,991.723511 501.267242,992.452576 501.591217,992.566284 
	C507.819397,994.751587 514.055359,996.918457 520.329285,998.968079 
	C523.082764,999.867615 526.012268,1000.279907 528.681946,1001.358704 
	C529.715820,1001.776428 530.252075,1003.425598 531.135132,1004.685059 
	C531.793152,1003.382141 532.268005,1002.441833 532.957825,1001.075867 
	C533.796936,1002.554321 534.356506,1003.540283 535.140930,1004.922363 
	C537.946045,997.062012 539.703735,1003.640198 541.802246,1005.174438 
	C542.667847,1003.703003 543.323853,1002.587830 543.595215,1002.126526 
	C545.554321,1003.856262 547.291260,1006.698547 549.032043,1006.700928 
	C556.683228,1006.711304 563.857605,1008.407349 570.955200,1010.968140 
	C573.186096,1011.773132 575.594299,1012.638123 577.895264,1012.571716 
	C581.577820,1012.465454 585.232422,1011.193237 588.909729,1011.137573 
	C601.674561,1010.944458 614.443970,1011.063049 627.712769,1011.063049 
	C626.198853,1014.770813 625.683167,1018.653259 623.475952,1020.781250 
	C620.673584,1023.482849 621.053589,1026.242310 621.039124,1029.243530 
	C620.993469,1038.726440 621.026978,1048.209717 621.005066,1057.692871 
	C620.997192,1061.114380 620.520142,1064.528320 624.369263,1066.711792 
	C625.402893,1067.298096 626.027344,1069.612427 625.901428,1071.051270 
	C625.492737,1075.717896 624.648499,1080.346436 623.935425,1085.402344 
	C623.216980,1087.332886 622.008240,1088.828735 621.943848,1090.372437 
	C621.651306,1097.382446 621.679749,1104.406006 621.612061,1111.424805 
	C621.611145,1111.517578 621.871765,1111.601807 621.994751,1111.708008 
	C625.361877,1114.616089 626.231506,1118.390381 626.075928,1122.669189 
	C625.961975,1125.801147 625.289307,1129.440430 626.578003,1131.987061 
	C629.359192,1137.482788 630.333618,1143.022949 630.043884,1149.018921 
	C629.880188,1152.406250 629.823425,1155.831543 630.153442,1159.197144 
	C630.347351,1161.174194 631.388733,1163.069702 632.059570,1164.998047 
	C632.680359,1166.782349 633.811890,1168.548828 633.858276,1170.345337 
	C634.059875,1178.150635 633.838623,1185.966919 634.049194,1193.771729 
	C634.086792,1195.165771 635.439636,1196.524536 636.532471,1197.932129 
	C637.576538,1197.997681 638.273254,1198.030762 638.969849,1198.063721 
	C640.944458,1206.349731 642.614380,1214.725342 645.014648,1222.886108 
	C646.327148,1227.348511 649.010681,1231.391602 650.804932,1235.735596 
	C651.639099,1237.755249 652.120056,1240.024414 652.246765,1242.210449 
	C652.486572,1246.346680 654.237244,1248.354736 658.564331,1248.262451 
	C665.372009,1248.117188 672.189331,1248.384277 678.994812,1248.195312 
	C681.188416,1248.134521 683.357422,1247.187988 686.243713,1246.430664 
	C692.700745,1246.542969 698.485962,1246.950195 701.119080,1240.078613 
	C708.252502,1237.391724 715.378906,1234.685913 722.522278,1232.025757 
	C726.157898,1230.671875 730.120789,1229.906616 733.410278,1227.978760 
	C739.044678,1224.676880 744.038696,1220.263672 749.729126,1217.081543 
	C754.818176,1214.235596 760.804504,1212.966431 765.817749,1210.019653 
	C772.811279,1205.908936 779.582153,1201.271729 785.878357,1196.157837 
	C794.730774,1188.967651 803.231812,1181.314697 811.519409,1173.475220 
	C814.378540,1170.770752 816.446350,1167.076782 818.357178,1163.553589 
	C822.784424,1155.390747 826.598694,1146.883789 831.263367,1138.866455 
	C833.499329,1135.023193 832.156250,1131.730103 830.241211,1129.452759 
	C824.536377,1122.668701 816.708557,1118.831665 807.944763,1118.329712 
	C797.316772,1117.720947 786.625549,1118.076538 775.965820,1118.259766 
	C773.281067,1118.305908 770.611755,1119.282959 767.936340,1119.836792 
	C764.331604,1120.582764 760.717651,1122.001587 757.125549,1121.947266 
	C748.838867,1121.822021 742.563843,1126.690430 735.697632,1129.920044 
	C731.000916,1132.129395 726.222839,1134.132446 722.093933,1138.000244 
	C719.286804,1140.630005 713.493713,1140.072144 709.035828,1140.939697 
	C708.562683,1140.326782 708.089539,1139.713745 707.616394,1139.100830 
	C708.690674,1136.036377 709.764954,1132.971924 711.155884,1129.004272 
	C711.108948,1128.878296 710.554565,1127.389160 709.999268,1125.030518 
	C710.038513,1122.666016 710.176636,1121.166504 710.103882,1119.677246 
	C709.025146,1097.606567 712.174133,1075.443970 708.159851,1053.400635 
	C706.836365,1046.132935 709.418457,1038.181396 704.192566,1031.550903 
	C703.770386,1031.015137 703.991028,1029.934204 703.995605,1029.106934 
	C704.029175,1023.127380 704.083984,1017.147888 704.587402,1011.122803 
	C712.619812,1011.054443 720.200378,1011.141907 727.770996,1010.908386 
	C729.150269,1010.865784 730.489136,1009.512268 731.882690,1008.473022 
	C731.953369,1007.793030 731.988037,1007.403992 732.022705,1007.014954 
	C732.022705,1007.014954 732.002441,1006.997559 732.417480,1007.058472 
	C737.265503,1006.490662 741.716797,1005.963013 746.117981,1005.160217 
	C747.182922,1004.965942 748.082092,1003.863098 749.057495,1003.178101 
	C753.498413,1001.875610 758.006836,1000.765137 762.366516,999.231873 
	C772.270264,995.748901 783.272339,997.693665 792.919861,991.796570 
	C798.532898,988.365540 805.916626,987.828857 812.508179,986.006104 
	C812.984436,985.874390 813.711609,986.066650 813.961487,985.786560 
	C818.240112,980.989563 824.261841,979.219849 829.798340,976.634583 
	C833.399109,974.953064 837.089233,973.461792 840.750244,971.910889 
	C842.949890,970.978943 845.576782,970.575378 847.309692,969.106323 
	C854.051514,963.391235 860.838562,957.953857 869.263672,954.704163 
	C871.860107,953.702637 873.648560,950.712585 875.946960,948.801514 
	C878.143066,946.975464 880.402771,945.171021 882.843567,943.705322 
	C888.387390,940.376221 894.084229,937.303040 899.670654,934.043213 
	C903.053223,932.069275 906.630615,930.277039 909.585510,927.772095 
	C911.838196,925.862488 913.160950,922.888611 915.075867,920.533264 
	C915.940491,919.469910 917.248413,918.771118 918.338684,917.886536 
	C920.460571,916.164917 922.843994,914.669617 924.626648,912.646606 
	C927.906067,908.925049 930.876221,904.925415 933.883850,900.972046 
	C935.811462,898.438477 937.527710,895.744812 939.433289,893.193481 
	C940.345764,891.971741 941.277344,890.561829 942.543884,889.841248 
	C948.807251,886.278015 952.166077,880.143311 956.754333,875.050232 
	C960.915710,870.431091 963.326355,864.869751 967.312500,860.412659 
	C970.548096,856.794800 975.025513,854.294800 978.306519,850.708313 
	C981.215515,847.528625 983.223877,843.527771 985.655457,839.906616 
	C986.324280,838.910522 986.877136,837.518005 987.835266,837.082947 
	C999.897034,831.606140 1005.214478,820.721497 1010.877930,809.751404 
	C1013.871643,803.952637 1018.808228,799.163391 1022.795776,793.864258 
	C1023.407776,793.051025 1024.091675,791.876953 1023.959656,790.985718 
	C1023.061340,784.921082 1026.466431,781.731506 1030.985718,778.543457 
	C1033.897827,776.489136 1035.989258,773.120483 1038.080566,770.087280 
	C1041.639771,764.924988 1045.141479,759.695190 1048.245117,754.253052 
	C1052.665283,746.502197 1056.609985,738.481323 1060.963379,730.690552 
	C1062.244141,728.398499 1064.380615,726.599670 1065.828125,724.381104 
	C1067.084106,722.455872 1068.498779,720.346375 1068.836670,718.162598 
	C1069.971924,710.824219 1073.132568,704.773865 1078.678467,699.838989 
	C1080.213745,698.472778 1081.151489,696.456543 1082.586914,694.951416 
	C1084.576294,692.865479 1086.725952,690.922546 1088.899536,689.024292 
	C1091.677002,686.598511 1094.209473,684.255981 1094.024292,679.977722 
	C1093.933716,677.883362 1095.133057,675.746521 1095.667358,673.608582 
	C1096.403320,670.663330 1096.863281,667.634399 1097.796265,664.756287 
	C1099.638550,659.072205 1101.544556,653.395386 1103.755859,647.847717 
	C1106.518799,640.915771 1109.719360,634.157715 1112.447388,627.213196 
	C1112.824219,626.253723 1111.936035,624.243896 1111.009888,623.429382 
	C1108.193115,620.952393 1109.860474,618.940857 1110.821655,616.332520 
	C1113.201416,609.874451 1117.148193,603.869568 1116.938232,596.583862 
	C1116.807739,592.067932 1116.306519,587.432739 1119.860474,583.715210 
	C1120.272705,583.284119 1120.569580,582.604370 1120.640869,582.006592 
	C1121.682861,573.281250 1122.677246,564.550354 1124.200317,555.380188 
	C1125.840454,552.408936 1127.168579,549.945801 1128.029541,547.328979 
	C1128.923828,544.611206 1128.492798,540.959839 1130.171509,539.091858 
	C1135.006836,533.711426 1131.561035,526.496216 1135.012085,521.019409 
	C1135.498901,515.808105 1133.883789,510.262329 1138.468018,505.742096 
	C1139.588501,504.637329 1139.077759,501.547821 1138.815552,499.432983 
	C1138.021118,493.026031 1140.994873,488.011108 1144.305542,483.011993 
	C1145.124390,481.775543 1145.843018,480.205200 1145.886597,478.766541 
	C1146.162720,469.633179 1146.236572,460.493744 1146.377197,451.356293 
	C1146.390015,450.525909 1146.097778,449.514984 1146.464233,448.892059 
	C1152.349854,438.887207 1149.450195,427.854187 1150.189087,417.264313 
	C1150.427490,413.847290 1150.125366,410.529175 1153.204346,407.944366 
	C1154.058960,407.226898 1154.049561,405.224304 1154.065796,403.807007 
	C1154.153442,396.158539 1154.553833,388.478729 1154.022095,380.867310 
	C1153.420288,372.252411 1159.783569,367.870911 1164.093750,362.172241 
	C1168.960327,355.738037 1176.945068,351.567230 1178.293213,342.541107 
	C1178.387451,341.910248 1179.529419,341.435822 1180.592041,340.944336 
	C1181.000000,644.301575 1181.000000,947.603210 1181.000000,1250.952393 
	C787.739563,1250.952393 394.479095,1250.952393 1.109313,1250.952393 
	C1.109313,834.449829 1.109313,417.899597 1.109313,1.000000 
	C281.687469,1.000000 562.375061,1.000000 843.512939,1.323404 
	C843.232910,2.671105 842.502502,3.695402 841.329712,4.769813 
	C835.701050,5.526632 829.465332,2.869742 826.105957,9.431732 
	C820.278259,12.511823 814.621887,15.991446 808.583557,18.580111 
	C799.078491,22.654917 788.876587,25.241125 781.197815,32.843929 
	C778.664612,35.352020 775.876953,37.609322 773.144775,39.908913 
	C765.960571,45.955559 758.486755,51.689770 751.653625,58.107731 
	C748.545105,61.027340 746.813843,65.368912 744.215637,68.886520 
	C740.157776,74.380341 734.482727,78.473564 731.585449,85.106499 
	C730.289429,88.073364 725.243591,89.363022 723.843323,92.330902 
	C719.724670,101.060326 711.319031,107.476089 711.227722,118.617599 
	C711.191040,123.101547 706.463318,127.557587 703.819580,131.995987 
	C703.498108,132.535751 702.557495,132.804642 702.413696,133.336853 
	C701.255432,137.623230 699.347107,141.942917 699.348389,146.251923 
	C699.350342,152.909180 696.787048,157.753220 692.709900,162.741913 
	C690.713318,165.184830 690.469177,169.636078 690.610962,173.130508 
	C690.904968,180.375015 689.319763,186.738281 684.832092,192.507797 
	C683.877991,193.734375 683.919922,195.893173 683.866455,197.633667 
	C683.697998,203.115219 684.615540,208.660843 680.451843,213.468201 
	C679.336609,214.755844 680.283325,217.686798 679.911133,219.797684 
	C679.475342,222.268982 678.632751,224.668549 677.519043,227.510132 
	C676.350891,228.938568 675.140320,229.896255 675.007263,230.985519 
	C674.688782,233.594437 674.877136,236.265213 674.860840,238.911026 
	C674.315369,239.413742 673.769958,239.916473 672.698486,240.742706 
	C671.421265,242.254745 670.090698,243.411972 670.024536,244.637497 
	C669.801331,248.767944 670.027710,252.922668 670.082092,257.068115 
	C668.890198,261.370880 667.361633,265.613403 666.578918,269.989410 
	C665.107361,278.216614 665.041565,286.766388 660.404480,294.179565 
	C660.239319,294.443451 660.067383,294.804474 660.113892,295.084503 
	C661.444275,303.100189 657.526428,310.159119 655.968323,317.641266 
	C655.566101,319.572906 654.494446,321.355316 653.903259,323.259979 
	C653.199951,325.525787 652.683289,327.849487 651.671509,330.625183 
	C647.162415,335.245514 646.310913,340.349426 646.881470,345.874603 
	C645.589294,349.594482 643.247925,353.304626 643.213440,357.036133 
	C643.129700,366.096191 637.196533,372.565735 634.236511,380.310211 
	C633.730042,381.635437 632.330505,382.890564 632.399048,384.119171 
	C632.771790,390.796997 629.724487,396.677856 628.551147,402.924316 
	C627.286621,409.656128 624.378540,415.258728 621.284302,421.058075 
	C617.740967,427.699158 613.050903,433.761414 612.684814,441.961487 
	C612.542664,445.144653 609.419434,448.155334 607.805054,451.321472 
	C605.440918,455.958160 603.212891,460.664154 600.926086,465.340271 
	C600.663818,465.876617 600.536621,466.596832 600.110413,466.917603 
	C592.986938,472.278107 590.449097,480.770782 586.096985,487.945068 
	C582.782349,493.409058 581.055420,499.831818 578.569031,505.805939 
	C578.015076,507.136993 577.570557,508.872650 576.512756,509.578094 
	C568.096436,515.190979 567.433350,525.454163 562.222778,532.953613 
	C560.406494,535.567810 558.506226,538.124573 556.599365,540.673950 
	C556.238159,541.156860 555.475037,541.385559 555.218811,541.893616 
	C552.552490,547.180786 548.083923,548.035950 545.716980,542.852051 
	C541.944031,534.588684 535.516663,530.004150 528.039673,525.972839 
	C526.183533,524.972046 523.915283,522.865845 523.687927,521.037476 
	C522.706604,513.147095 515.812439,511.684814 510.767761,508.219666 
	C500.633728,501.258759 488.963440,496.962646 479.187927,489.181580 
	C473.635956,484.762360 466.615662,481.786926 459.815552,479.438538 
	C451.410034,476.535797 442.464996,475.235565 433.909943,472.711304 
	C428.238434,471.037872 422.952637,468.072327 417.295166,466.332214 
	C409.851257,464.042633 402.236694,462.282471 394.646729,460.502899 
	C390.441040,459.516815 386.142181,458.915771 381.871307,458.228271 
	C380.738464,458.045898 379.536865,458.053741 378.395752,458.199890 
	C372.917358,458.901459 367.444519,459.650330 361.978088,460.440552 
	C356.885132,461.176819 351.802734,461.986389 346.867828,462.740479 
	C344.259766,457.843872 341.207611,452.329651 338.408569,446.689819 
	C337.792542,445.448517 337.988281,443.762909 337.960571,442.279114 
	C337.888336,438.409149 338.469604,434.378998 334.881042,431.513123 
	C334.648743,431.327606 334.473602,430.973419 334.422577,430.672150 
	C333.024109,422.413727 331.641144,414.152679 330.265320,405.890411 
	C329.738403,402.725983 329.235352,399.557556 328.509033,395.683594 
	C328.210815,388.014832 328.251251,381.047974 327.950104,374.095886 
	C327.875153,372.366241 326.696106,370.684448 326.024536,368.980652 
	C324.909546,365.852997 322.977356,362.762543 322.832947,359.590729 
	C322.401428,350.112762 322.776001,340.600891 322.594238,331.106873 
	C322.546295,328.602386 321.629730,326.113617 321.103210,323.619476 
	C320.346924,320.037079 318.998932,316.468109 318.926514,312.872833 
	C318.664825,299.881622 319.706909,286.798492 318.482666,273.918701 
	C317.826202,267.012756 319.077087,259.909271 315.622589,252.755585 
	C313.136353,247.607025 315.047302,240.328049 315.023285,233.999268 
	C314.995117,226.578644 308.055573,218.520004 300.827881,216.833130 
	C297.666931,216.095398 294.676575,214.405350 291.767059,212.851303 
	C281.065735,207.135498 269.627808,204.315857 257.628265,205.680283 
	C248.173721,206.755356 238.278839,207.251068 230.652802,214.527267 
	C229.258682,215.857422 226.904327,216.887833 225.012085,216.858032 
	C219.103531,216.765030 216.121338,220.616074 212.810852,224.517105 
	C210.236099,227.551147 207.136978,230.152969 204.178848,232.845779 
	C200.258133,236.414841 195.730515,239.464081 192.426178,243.520706 
	C189.328140,247.324036 187.502274,252.158798 185.081650,256.520264 
	C183.231888,259.853119 181.327637,263.155701 178.840576,266.786163 
	C177.493256,268.290588 176.181381,269.449219 176.113907,270.676270 
	C175.852524,275.428741 175.987488,280.202972 175.974854,284.969116 
	C175.260330,287.845551 174.040985,290.704529 173.940826,293.602203 
	C173.756393,298.937683 173.697754,304.038055 170.558228,308.835602 
	C169.382309,310.632538 169.852081,313.669952 169.976135,316.121277 
	C170.267609,321.881012 170.211243,327.486908 165.953217,332.901398 
	C165.502930,334.377258 164.931641,335.102081 164.929581,335.828583 
	C164.888947,350.210663 164.902405,364.592987 164.952774,378.975098 
	C164.956131,379.933136 165.030045,381.437927 165.598053,381.760406 
	C170.120270,384.328125 168.020462,387.169983 166.155502,390.060455 
	C165.850632,392.569611 165.534592,394.915009 168.566467,396.361847 
	C169.409683,396.764221 169.860733,398.806152 169.830627,400.080261 
	C169.695145,405.811890 170.655487,411.034271 173.304001,416.366089 
	C174.896606,419.572235 173.540100,424.160980 173.898682,428.092804 
	C174.119904,430.518616 175.074265,432.877533 175.770645,436.066132 
	C175.904480,438.572266 175.967148,440.278778 175.978607,442.339874 
	C175.565689,443.887146 175.203995,445.079803 175.232681,444.985229 
	C178.097610,447.772003 181.142349,449.735535 182.763336,452.526093 
	C185.780823,457.720734 187.969177,463.397034 190.566193,469.010101 
	C189.802307,469.010101 188.081680,469.010101 186.361038,469.010101 
	C178.525909,463.883362 170.321625,459.226715 162.984848,453.465332 
	C158.056931,449.595642 151.614471,446.390076 150.879684,438.760468 
	C150.803177,437.965973 149.889236,437.044189 149.124756,436.555511 
	C139.327744,430.293488 128.309875,430.564026 117.839378,432.810669 
	C113.034042,433.841705 107.497818,436.369019 104.338585,442.430115 
	C101.780457,447.337982 96.019875,450.561981 91.747726,454.604645 
	C90.985207,455.326202 90.554558,456.398468 89.787476,457.966980 
	C89.238472,460.690369 88.880722,462.757050 88.504326,464.820374 
	C88.210556,466.430695 88.445381,468.851654 87.488617,469.499542 
	C83.926224,471.911774 84.317032,475.319885 84.297157,478.735199 
	C84.258545,485.369751 84.216141,492.004364 84.209824,498.638977 
	C84.203995,504.766479 83.930382,504.835480 77.774864,505.156464 
	C74.530869,505.325592 71.333618,506.390900 68.115265,507.051544 
	C61.365742,509.721100 54.611423,512.378662 47.875332,515.081726 
	C47.305916,515.310242 46.635033,515.736389 46.389694,516.251160 
	C44.321018,520.591064 41.240353,523.681885 36.560524,525.243774 
	C35.594582,525.566162 34.570400,527.103394 34.403042,528.206604 
	C33.206760,536.092041 26.901436,542.734497 28.889265,551.458984 
	C29.209032,552.862427 27.011415,554.752197 27.170788,556.293701 
	C28.181015,566.065552 29.126045,575.880249 30.990082,585.507019 
	C31.602270,588.668640 34.435593,591.839966 37.053104,594.066589 
	C40.646255,597.123169 41.121906,600.980042 41.893227,605.058044 
	C42.888474,610.319946 44.802097,615.326965 50.433319,617.148376 
	C53.012997,617.982727 56.038136,617.893372 58.801987,617.621216 
	C67.705063,616.744385 74.813271,621.024414 82.281631,624.850159 
	C87.866341,627.710999 92.186707,631.672363 96.383728,636.153687 
	C100.445053,640.489990 107.604744,640.040222 114.384201,637.555847 
	C118.787804,635.942078 123.990410,636.444580 128.845215,636.209595 
	C129.430649,636.181274 130.696411,637.578979 130.599411,638.132141 
	C129.971313,641.713989 129.091782,645.254456 128.217316,648.789368 
	C127.489258,651.732361 126.264854,654.609314 125.961281,657.586975 
	C125.522453,661.891296 125.964180,665.901184 122.809563,669.973206 
	C120.904480,672.432190 121.901176,677.365601 122.089577,681.162598 
	C122.322540,685.857788 120.264275,691.261292 125.556351,694.704224 
	C125.657082,694.769714 125.645592,695.015137 125.677094,695.178528 
	C127.036514,702.225891 128.242493,709.307983 129.829910,716.303589 
	C130.447678,719.026062 131.925201,721.553406 132.937653,724.962524 
	C134.229584,734.398743 141.787598,741.083069 140.707458,750.507141 
	C140.695496,750.611572 140.956100,750.725159 141.034164,750.865295 
	C143.096603,754.569519 145.341476,758.187561 147.159241,762.008606 
	C149.336349,766.585205 150.991745,771.409241 153.154846,775.993225 
	C156.253006,782.558777 159.542099,789.037598 162.913605,795.467529 
	C163.478699,796.545288 164.872467,797.188599 165.883316,798.032654 
z"/>
<path fill="#FDFDFD" opacity="1.000000" stroke="none" 
	d="
M1129.979980,213.010056 
	C1125.734985,207.100876 1123.414673,200.827179 1123.104980,193.248215 
	C1122.927246,188.896698 1119.493164,184.455353 1116.855713,180.500717 
	C1114.895508,177.561310 1113.471558,174.883179 1112.698242,171.261139 
	C1111.568726,165.971191 1108.784058,161.003433 1106.469727,156.007309 
	C1104.560303,151.885513 1101.928955,148.069901 1100.289795,143.857025 
	C1096.924927,135.209946 1092.709106,127.188843 1086.685181,120.032700 
	C1082.700195,115.298897 1079.696899,109.742867 1075.751465,104.970573 
	C1072.954102,101.587067 1069.092285,99.101097 1066.131958,95.828880 
	C1064.087036,93.568802 1062.983765,90.481339 1061.075928,88.066978 
	C1058.398315,84.678604 1055.858765,80.827950 1052.372559,78.510017 
	C1046.352661,74.507454 1042.689941,69.380264 1039.280273,63.023926 
	C1036.527954,57.893208 1030.364258,54.566334 1025.625122,50.543667 
	C1024.223022,49.353519 1022.468750,48.589260 1020.965149,47.505733 
	C1017.548096,45.043354 1014.095276,42.615101 1010.842224,39.947094 
	C1009.295410,38.678452 1008.245605,36.822536 1006.836914,35.361588 
	C1005.403809,33.875374 1004.036743,31.993626 1002.240845,31.247040 
	C994.772278,28.142296 987.202454,25.259848 979.572327,22.572495 
	C973.993958,20.607782 968.321228,18.843967 962.585999,17.408373 
	C955.557495,15.649055 948.419861,14.325440 941.136658,12.068323 
	C939.618408,10.533664 938.325806,9.136006 936.961609,9.062169 
	C931.676880,8.776148 926.369446,8.911693 920.944580,8.537340 
	C919.161621,7.683116 917.533936,6.905699 915.842712,6.726394 
	C906.588379,5.745180 897.324768,4.396853 888.050720,4.283443 
	C884.431519,4.239184 882.156067,3.415505 880.000000,1.000000 
	C980.260498,1.000000 1080.520996,1.000000 1181.000000,1.000000 
	C1181.000000,101.354118 1181.000000,201.708405 1180.792358,302.420746 
	C1180.584717,302.778809 1180.127441,302.889465 1180.127441,302.889465 
	C1179.454346,300.194031 1178.768921,297.501587 1178.113525,294.801819 
	C1177.811523,293.558319 1178.004028,291.783661 1177.229614,291.131195 
	C1171.266479,286.106384 1170.001953,278.440094 1166.175049,272.280060 
	C1162.537476,266.424744 1158.082642,261.007355 1151.564697,257.583405 
	C1149.225830,256.354797 1147.882446,253.180603 1146.187134,250.820786 
	C1145.847778,250.348404 1146.213013,249.187134 1145.849487,248.941589 
	C1137.208618,243.105576 1138.657959,231.182999 1131.497803,224.317780 
	C1132.155273,220.723007 1132.583984,217.499603 1132.682739,214.266129 
	C1132.694702,213.875351 1130.924316,213.430069 1129.979980,213.010056 
z"/>
<path fill="#DADADA" opacity="1.000000" stroke="none" 
	d="
M879.531372,1.000000 
	C882.156067,3.415505 884.431519,4.239184 888.050720,4.283443 
	C897.324768,4.396853 906.588379,5.745180 915.842712,6.726394 
	C917.533936,6.905699 919.161621,7.683116 920.658203,8.678270 
	C919.945068,9.480544 919.392456,9.788978 918.839783,10.097405 
	C908.136841,4.956857 896.271973,9.232756 885.662476,6.471235 
	C874.059937,3.451228 862.700562,4.958462 851.254028,4.281750 
	C849.135315,4.156495 846.977722,4.689978 844.008362,4.904842 
	C842.709778,4.833403 842.240967,4.776546 841.772095,4.719695 
	C842.502502,3.695402 843.232910,2.671105 843.981628,1.323404 
	C855.687561,1.000000 867.375122,1.000000 879.531372,1.000000 
z"/>
<path fill="#7C7C7C" opacity="1.000000" stroke="none" 
	d="
M1180.052856,303.360229 
	C1180.127441,302.889465 1180.584717,302.778809 1180.792358,302.889404 
	C1181.000000,314.354218 1181.000000,325.708466 1181.000000,337.531342 
	C1180.680420,336.495941 1180.099731,334.994629 1180.083984,333.487396 
	C1179.980591,323.602661 1179.999268,313.716583 1180.052856,303.360229 
z"/>
<path fill="#FBFCFB" opacity="1.000000" stroke="none" 
	d="
M541.097229,738.788391 
	C544.686340,729.060486 548.456299,719.531921 554.720398,710.992798 
	C562.496216,700.393005 573.195007,694.289246 584.403259,688.247986 
	C591.734680,684.296326 597.911621,678.250305 604.817383,673.446716 
	C610.389526,669.570862 616.535706,666.378174 619.712585,659.966492 
	C621.865112,655.622192 624.325439,651.283264 625.527283,646.651123 
	C627.122986,640.500488 621.221436,638.596436 617.542297,636.243896 
	C606.635315,629.269531 595.880920,631.437927 585.400452,637.875732 
	C578.394592,642.179260 571.199890,646.176025 564.080383,650.293945 
	C558.350037,653.608459 549.407410,651.980225 545.075012,646.856689 
	C540.235596,641.133423 541.338928,632.874634 547.516602,628.310669 
	C551.898010,625.073792 555.915466,621.162720 560.679321,618.667358 
	C567.879517,614.895813 575.701538,612.332153 583.050842,608.819092 
	C591.299011,604.876404 599.975037,604.868652 608.757568,604.989502 
	C617.736877,605.113037 626.112000,607.814209 634.006470,611.647949 
	C639.711914,614.418579 644.808960,618.424438 650.253906,621.754211 
	C655.339417,624.864197 656.742188,630.413879 657.573181,635.286011 
	C659.234924,645.027588 659.186279,655.139038 655.635559,664.533020 
	C653.927673,669.051392 650.094971,672.743958 647.392883,676.919495 
	C646.169556,678.809875 645.830872,681.492981 644.266663,682.900269 
	C639.988770,686.749146 635.496033,690.454651 630.677551,693.584351 
	C623.773743,698.068481 616.405212,701.831604 609.424988,706.205627 
	C604.039734,709.580261 598.626465,713.043152 593.793274,717.136841 
	C585.127319,724.477112 575.549377,731.421082 575.071594,745.203491 
	C583.578125,744.504211 591.833191,743.505310 600.112549,743.224548 
	C610.931213,742.857727 621.846313,742.258667 632.572205,743.292358 
	C639.948425,744.003296 647.327698,746.722229 654.228760,749.662842 
	C659.523682,751.919067 661.725464,758.926880 659.918457,764.400635 
	C658.299316,769.305298 652.115479,774.023926 647.362427,774.005005 
	C618.371094,773.889343 589.378784,773.970642 560.388062,773.788269 
	C551.226196,773.730652 542.523010,766.769653 541.496460,758.549683 
	C542.032410,751.945251 542.165222,745.806091 542.215515,739.666260 
	C542.217896,739.376709 541.486755,739.081177 541.097229,738.788391 
z"/>
<path fill="#F9FBF9" opacity="1.000000" stroke="none" 
	d="
M762.451416,770.430054 
	C760.679688,775.485962 753.594666,780.492798 748.248657,780.986023 
	C737.212646,782.004272 730.353088,777.559204 725.411011,766.173035 
	C721.993164,758.298706 719.643127,749.941345 717.097046,741.712769 
	C713.435791,729.879639 709.994019,717.977905 706.526062,706.085815 
	C703.264832,694.902405 700.329956,683.617310 696.790771,672.523926 
	C694.612061,665.694824 690.954224,659.310608 689.058350,652.424438 
	C686.191528,642.011353 683.873413,631.401611 682.129456,620.743347 
	C681.187744,614.988342 687.684814,607.727844 693.624329,607.241028 
	C697.592407,606.915771 701.733215,607.472412 705.670166,608.263855 
	C712.649536,609.666992 713.179077,616.269958 714.654724,621.365234 
	C717.935852,632.694885 720.095093,644.346436 723.267395,655.711670 
	C725.228210,662.736816 728.331543,669.435791 730.687073,676.361023 
	C732.018005,680.273865 732.763428,684.381836 733.966064,688.343262 
	C736.329407,696.127747 738.891907,703.851868 741.244568,711.639465 
	C742.487366,715.753296 743.462158,719.948059 744.557983,724.106323 
	C745.090393,724.241272 745.622803,724.376160 746.155273,724.511108 
	C747.810913,721.460205 749.551208,718.451355 751.093933,715.344421 
	C752.220093,713.076660 752.968933,710.621948 754.089661,708.351135 
	C757.583740,701.271301 761.520691,694.387573 764.622803,687.143738 
	C767.299011,680.894348 768.986877,674.227661 771.257080,667.796814 
	C774.465759,658.707825 777.378662,649.479004 781.219971,640.659241 
	C784.738953,632.579651 788.410889,624.264404 793.711975,617.354614 
	C798.322388,611.345093 803.500488,604.835449 812.996216,604.801147 
	C820.224365,604.775085 825.134766,608.453918 828.282837,613.544922 
	C831.047729,618.016235 829.212830,623.657654 826.251953,628.230896 
	C820.519897,637.084473 816.156067,646.508850 812.816223,656.549133 
	C811.326965,661.026306 807.663757,664.735352 805.437622,669.026733 
	C803.680542,672.413879 802.623596,676.162598 801.235779,679.743042 
	C798.675598,686.347961 796.098694,692.946350 793.532898,699.549072 
	C791.020386,706.014832 788.634216,712.533447 785.948547,718.926392 
	C784.735840,721.813293 782.716736,724.356873 781.449097,727.226562 
	C779.802856,730.953552 778.616028,734.880432 777.096680,738.667175 
	C774.575195,744.951599 771.938965,751.189819 769.365662,757.453491 
	C767.837463,761.173279 766.401978,764.933533 764.765198,768.604431 
	C764.464600,769.278503 763.397522,769.610779 762.451416,770.430054 
z"/>
<path fill="#FDFDFC" opacity="1.000000" stroke="none" 
	d="
M472.313080,744.917053 
	C477.402771,745.612976 482.626282,745.811340 487.547272,747.134521 
	C493.302063,748.682068 495.169250,752.517578 495.161987,760.048950 
	C495.155792,766.471863 492.985901,770.199341 487.479462,771.944153 
	C484.022064,773.039734 480.319458,773.874390 476.717224,773.912354 
	C459.732239,774.091248 442.736420,774.231750 425.761108,773.771362 
	C420.259308,773.622192 414.620941,772.036377 411.335510,766.530334 
	C407.069061,759.380188 411.328278,748.725586 419.526733,747.065735 
	C426.332642,745.687683 433.282837,745.022034 440.461792,743.999146 
	C440.461792,712.506226 440.461792,680.627197 440.461792,647.575684 
	C436.364777,650.257690 433.139832,653.204041 429.344147,654.614380 
	C425.679749,655.975891 421.826599,655.214722 418.468140,652.042725 
	C414.716125,648.498962 409.427216,645.954773 410.193268,639.862549 
	C410.550232,637.023560 412.624573,634.260559 414.349915,631.759338 
	C420.197083,623.282593 429.623840,619.803101 438.091003,614.922302 
	C442.508331,612.375916 446.131470,608.382690 450.644836,606.088745 
	C456.879883,602.919800 463.699615,600.679749 470.403656,605.098999 
	C471.988525,606.143738 473.859436,608.299744 473.868317,609.953857 
	C473.970306,628.927551 473.849945,647.904907 473.542786,666.877258 
	C473.407593,675.228577 472.711212,683.570801 471.727112,692.447876 
	C470.458466,694.043091 469.109283,695.101990 469.099701,696.172913 
	C468.963104,711.417297 468.944641,726.664124 469.150543,741.906982 
	C469.164307,742.924377 471.211609,743.914307 472.313080,744.917053 
z"/>
<path fill="#F5F5F5" opacity="1.000000" stroke="none" 
	d="
M847.848755,303.136536 
	C837.588989,299.660309 827.158936,296.606293 817.129395,292.559479 
	C810.442627,289.861450 804.616882,284.955811 797.874878,282.489380 
	C790.990356,279.970856 788.567078,274.437439 785.323608,269.049530 
	C784.190063,267.166656 782.162537,265.826569 780.565613,264.216583 
	C779.480774,263.122833 777.556885,262.024139 777.513062,260.870544 
	C777.222595,253.220154 771.241455,246.678024 773.226135,238.668640 
	C774.319397,234.256882 775.627258,229.898560 776.748291,225.493256 
	C777.028931,224.390564 777.051392,223.198669 777.041016,222.049118 
	C776.952820,212.218979 782.563477,205.775070 790.022888,200.593170 
	C795.962341,196.467239 800.835266,190.528931 808.427246,189.127518 
	C811.611450,188.539749 814.891296,188.139557 818.105042,188.259720 
	C818.979126,188.292389 820.754578,190.942474 820.441406,191.684647 
	C818.324646,196.701645 815.758057,201.528854 812.749756,206.722656 
	C809.414856,209.272903 808.962585,218.967896 811.560669,220.848358 
	C811.903137,221.096207 812.529907,220.951279 813.025024,220.988281 
	C814.324646,224.880661 815.616638,228.775620 816.926758,232.664490 
	C817.720093,235.019653 818.572327,237.355286 819.344238,239.717285 
	C821.120605,245.151978 823.676697,250.493637 824.388794,256.068176 
	C825.080322,261.481781 828.535034,264.846008 830.946350,269.041077 
	C832.520325,271.779480 833.274475,275.166290 835.325317,277.415100 
	C839.139221,281.597412 843.405640,285.454498 847.894714,288.913513 
	C854.822388,294.251556 863.163574,292.906860 871.145996,292.956482 
	C876.284790,292.988403 881.423950,292.962463 887.118103,294.048981 
	C883.909790,296.257629 880.970520,299.201447 877.428284,300.497498 
	C872.482727,302.306976 867.086975,302.885986 861.105591,303.878906 
	C856.167786,303.556366 852.008240,303.346436 847.848755,303.136536 
z"/>
<path fill="#F4F4F4" opacity="1.000000" stroke="none" 
	d="
M1103.961182,347.024323 
	C1097.410034,344.736755 1090.862671,342.437805 1084.305786,340.166809 
	C1081.324219,339.134155 1078.283081,337.208496 1075.338867,337.333649 
	C1066.775757,337.697632 1064.543091,329.834900 1059.263062,326.008667 
	C1056.763550,324.197418 1053.703735,322.930237 1051.727051,320.686157 
	C1049.383179,318.025116 1047.910278,314.590179 1046.108398,311.462708 
	C1045.546509,310.487183 1045.141724,309.421051 1044.414185,307.773621 
	C1042.816895,303.032684 1041.470459,298.914581 1040.124146,294.796448 
	C1039.999023,289.919922 1040.629028,285.802307 1043.403931,281.039337 
	C1046.948486,274.955078 1050.084106,268.835419 1054.862671,263.502808 
	C1058.937378,258.955627 1063.631104,256.243317 1069.611694,255.774979 
	C1072.076172,255.581985 1074.574219,255.818527 1077.453613,256.453827 
	C1077.914307,259.721954 1077.978394,262.395966 1078.042480,265.069946 
	C1077.378662,266.783081 1076.714722,268.496246 1075.583740,270.571960 
	C1070.349609,275.860687 1069.720459,278.675995 1072.192749,284.017822 
	C1072.948608,286.671661 1073.868286,289.292389 1074.412476,291.988953 
	C1074.921997,294.514404 1075.033569,297.120117 1075.535889,300.401733 
	C1076.549683,306.299957 1077.224365,311.511871 1078.260986,316.650757 
	C1078.445190,317.563812 1080.133423,318.173462 1081.127197,318.923248 
	C1087.469849,324.396210 1093.808838,329.873505 1100.161255,335.334991 
	C1100.755615,335.845947 1101.906128,336.173035 1102.004761,336.726990 
	C1103.244507,343.680573 1109.028564,344.325531 1114.538574,346.272644 
	C1111.190674,346.875183 1107.575928,346.949768 1103.961182,347.024323 
z"/>
<path fill="#E1E1E1" opacity="1.000000" stroke="none" 
	d="
M623.972046,1084.989624 
	C624.648499,1080.346436 625.492737,1075.717896 625.901428,1071.051270 
	C626.027344,1069.612427 625.402893,1067.298096 624.369263,1066.711792 
	C620.520142,1064.528320 620.997192,1061.114380 621.005066,1057.692871 
	C621.026978,1048.209717 620.993469,1038.726440 621.039124,1029.243530 
	C621.053589,1026.242310 620.673584,1023.482849 623.475952,1020.781250 
	C625.683167,1018.653259 626.198853,1014.770813 627.712769,1011.063049 
	C614.443970,1011.063049 601.674561,1010.944458 588.909729,1011.137573 
	C585.232422,1011.193237 581.577820,1012.465454 577.895264,1012.571716 
	C575.594299,1012.638123 573.186096,1011.773132 570.955200,1010.968140 
	C563.857605,1008.407349 556.683228,1006.711304 549.032043,1006.700928 
	C547.291260,1006.698547 545.554321,1003.856262 543.595215,1002.126526 
	C543.323853,1002.587830 542.667847,1003.703003 541.802246,1005.174438 
	C539.703735,1003.640198 537.946045,997.062012 535.140930,1004.922363 
	C534.356506,1003.540283 533.796936,1002.554321 532.957825,1001.075867 
	C532.268005,1002.441833 531.793152,1003.382141 531.135132,1004.685059 
	C530.252075,1003.425598 529.715820,1001.776428 528.681946,1001.358704 
	C526.012268,1000.279907 523.082764,999.867615 520.329285,998.968079 
	C514.055359,996.918457 507.819397,994.751587 501.591217,992.566284 
	C501.267242,992.452576 501.159180,991.723511 500.936462,990.923584 
	C509.047150,993.211243 517.088196,996.171570 525.333496,998.363342 
	C529.236389,999.400757 533.553284,999.353516 537.640747,999.106079 
	C542.994324,998.781921 547.389893,1000.327209 551.429443,1003.738525 
	C552.523010,1004.662048 554.424316,1005.111633 555.902588,1005.010986 
	C561.365417,1004.639099 566.366577,1005.673828 571.173828,1008.380005 
	C572.606689,1009.186584 574.703125,1008.953613 576.496277,1008.959045 
	C592.464966,1009.007874 608.433960,1008.975342 624.402588,1009.030579 
	C629.500427,1009.048279 630.701660,1010.484558 628.635986,1014.948730 
	C625.860779,1020.946350 625.159973,1027.077271 625.426514,1033.575562 
	C625.726135,1040.882202 625.228088,1048.224243 625.598633,1055.524414 
	C625.800415,1059.501099 626.935913,1063.459595 627.912659,1067.360718 
	C629.397888,1073.292969 629.070435,1079.016846 625.956543,1084.800415 
	C624.865662,1084.988037 624.418884,1084.988892 623.972046,1084.989624 
z"/>
<path fill="#DADADA" opacity="1.000000" stroke="none" 
	d="
M623.935425,1085.402344 
	C624.418884,1084.988892 624.865662,1084.988037 625.647339,1084.990479 
	C625.901062,1093.293091 625.045837,1101.677612 625.945862,1109.869263 
	C626.941711,1118.933105 629.563843,1127.816284 631.429382,1136.788208 
	C631.798950,1138.565674 631.931091,1140.391602 632.204407,1142.190308 
	C633.278076,1149.253906 634.364258,1156.315674 635.635193,1164.167236 
	C635.944763,1175.937500 636.064941,1186.918457 636.185120,1197.899536 
	C635.439636,1196.524536 634.086792,1195.165771 634.049194,1193.771729 
	C633.838623,1185.966919 634.059875,1178.150635 633.858276,1170.345337 
	C633.811890,1168.548828 632.680359,1166.782349 632.059570,1164.998047 
	C631.388733,1163.069702 630.347351,1161.174194 630.153442,1159.197144 
	C629.823425,1155.831543 629.880188,1152.406250 630.043884,1149.018921 
	C630.333618,1143.022949 629.359192,1137.482788 626.578003,1131.987061 
	C625.289307,1129.440430 625.961975,1125.801147 626.075928,1122.669189 
	C626.231506,1118.390381 625.361877,1114.616089 621.994751,1111.708008 
	C621.871765,1111.601807 621.611145,1111.517578 621.612061,1111.424805 
	C621.679749,1104.406006 621.651306,1097.382446 621.943848,1090.372437 
	C622.008240,1088.828735 623.216980,1087.332886 623.935425,1085.402344 
z"/>
<path fill="#E1E1E1" opacity="1.000000" stroke="none" 
	d="
M704.132080,1011.168396 
	C704.083984,1017.147888 704.029175,1023.127380 703.995605,1029.106934 
	C703.991028,1029.934204 703.770386,1031.015137 704.192566,1031.550903 
	C709.418457,1038.181396 706.836365,1046.132935 708.159851,1053.400635 
	C712.174133,1075.443970 709.025146,1097.606567 710.103882,1119.677246 
	C710.176636,1121.166504 710.038513,1122.666016 709.973389,1124.635986 
	C709.328125,1124.066528 708.180847,1123.027466 708.169006,1121.975952 
	C708.051514,1111.478149 708.259216,1100.976196 708.088684,1090.479980 
	C707.978394,1083.694946 707.324341,1076.920044 707.065002,1070.134888 
	C706.998413,1068.394043 707.731750,1066.625854 707.691040,1064.879883 
	C707.635132,1062.479980 707.809021,1059.780029 706.793945,1057.755371 
	C704.234070,1052.649902 704.105042,1047.345825 704.374023,1041.920410 
	C704.536682,1038.638550 704.122070,1035.669922 701.121826,1032.814819 
	C701.103333,1024.988159 701.072754,1018.033264 701.042236,1011.078308 
	C701.042236,1011.078308 700.997314,1011.023010 701.414917,1011.044189 
	C702.598999,1011.099670 703.365540,1011.134033 704.132080,1011.168396 
z"/>
<path fill="#969696" opacity="1.000000" stroke="none" 
	d="
M502.916901,1018.423767 
	C505.247620,1021.286499 508.771851,1024.245728 509.577179,1027.817871 
	C510.719391,1032.884277 510.933533,1038.687256 509.614075,1043.663696 
	C507.368500,1052.133179 503.381195,1060.129761 495.180237,1064.707642 
	C486.666229,1069.460083 479.697540,1075.744263 473.507263,1083.289429 
	C471.484467,1085.755005 466.956360,1086.165161 463.296844,1087.359863 
	C470.661316,1080.479980 478.280762,1073.729736 485.970062,1067.060059 
	C487.038300,1066.133423 488.377747,1065.396240 489.716064,1064.924316 
	C498.738007,1061.743530 508.840149,1048.811523 508.080353,1037.663208 
	C507.615417,1030.842163 507.676208,1024.265015 502.916901,1018.423767 
z"/>
<path fill="#CCCCCC" opacity="1.000000" stroke="none" 
	d="
M165.884338,797.649414 
	C164.872467,797.188599 163.478699,796.545288 162.913605,795.467529 
	C159.542099,789.037598 156.253006,782.558777 153.154846,775.993225 
	C150.991745,771.409241 149.336349,766.585205 147.159241,762.008606 
	C145.341476,758.187561 143.096603,754.569519 141.034164,750.865295 
	C140.956100,750.725159 140.695496,750.611572 140.707458,750.507141 
	C141.787598,741.083069 134.229584,734.398743 132.950012,725.344971 
	C137.532471,730.227539 141.900162,736.047607 142.601578,742.841797 
	C143.189865,748.540466 146.174652,752.572388 148.393951,757.230164 
	C149.022507,758.549377 150.183929,759.872803 150.181870,761.192871 
	C150.167801,770.197815 156.862366,776.291138 159.851425,783.975891 
	C161.612411,788.503296 163.857803,792.842346 165.884338,797.649414 
z"/>
<path fill="#292929" opacity="1.000000" stroke="none" 
	d="
M68.571320,507.125916 
	C71.333618,506.390900 74.530869,505.325592 77.774864,505.156464 
	C83.930382,504.835480 84.203995,504.766479 84.209824,498.638977 
	C84.216141,492.004364 84.258545,485.369751 84.297157,478.735199 
	C84.317032,475.319885 83.926224,471.911774 87.488617,469.499542 
	C88.445381,468.851654 88.210556,466.430695 88.504326,464.820374 
	C88.880722,462.757050 89.238472,460.690369 89.816193,458.341156 
	C89.427727,462.844971 88.721275,467.622650 88.264725,472.424103 
	C87.967224,475.552826 87.971344,478.715668 87.949165,481.863983 
	C87.905891,488.005371 87.746391,494.155304 88.002014,500.286407 
	C88.202629,505.097961 85.376381,506.700562 81.469643,507.015228 
	C77.344025,507.347626 73.176559,507.160492 68.571320,507.125916 
z"/>
<path fill="#464646" opacity="1.000000" stroke="none" 
	d="
M166.572845,390.052795 
	C168.020462,387.169983 170.120270,384.328125 165.598053,381.760406 
	C165.030045,381.437927 164.956131,379.933136 164.952774,378.975098 
	C164.902405,364.592987 164.888947,350.210663 164.929581,335.828583 
	C164.931641,335.102081 165.502930,334.377258 166.051270,333.281769 
	C166.855698,334.240204 167.890701,335.563110 167.905991,336.897675 
	C168.033859,348.055481 167.800323,359.219452 168.061249,370.372589 
	C168.158524,374.530914 169.623398,378.650299 169.804855,382.816162 
	C169.915665,385.360077 172.503189,389.476990 166.572845,390.052795 
z"/>
<path fill="#FFFFDB" opacity="1.000000" stroke="none" 
	d="
M472.262268,744.454956 
	C471.211609,743.914307 469.164307,742.924377 469.150543,741.906982 
	C468.944641,726.664124 468.963104,711.417297 469.099701,696.172913 
	C469.109283,695.101990 470.458466,694.043091 471.596619,692.887329 
	C472.076202,709.861694 472.143829,726.927307 472.262268,744.454956 
z"/>
<path fill="#CCCCCC" opacity="1.000000" stroke="none" 
	d="
M299.413391,1070.938110 
	C299.005981,1067.843628 298.821106,1064.685547 299.082550,1061.564941 
	C299.430634,1057.410278 297.113159,1052.618042 302.611755,1049.574463 
	C304.139252,1048.729004 305.009003,1045.121216 304.762299,1042.941162 
	C304.039307,1036.552612 308.289581,1031.912476 309.856689,1026.369751 
	C310.117767,1025.446289 311.450165,1024.825928 312.649261,1024.034424 
	C312.408783,1025.587402 312.025391,1027.302612 311.167603,1028.733398 
	C306.700073,1036.185181 307.864166,1045.295166 303.593262,1053.029419 
	C301.615417,1056.611084 303.224823,1062.149292 303.116486,1066.798340 
	C303.067169,1068.916016 303.248749,1071.393799 299.413391,1070.938110 
z"/>
<path fill="#CCCCCC" opacity="1.000000" stroke="none" 
	d="
M460.706116,974.872314 
	C460.369507,975.600281 459.306244,976.712830 459.135803,976.589600 
	C454.210693,973.031006 447.736389,971.723999 444.147003,966.134094 
	C443.512634,965.146362 441.488281,965.051147 440.203186,963.885620 
	C438.345367,962.939087 436.465240,962.033386 434.636322,961.033936 
	C432.995880,960.137390 431.166870,959.385620 429.876068,958.109680 
	C428.730713,956.977478 425.172546,959.730957 426.040771,955.030640 
	C425.988373,953.949280 425.989716,953.527649 425.991089,953.106079 
	C427.351196,953.851868 428.683014,954.656250 430.077545,955.330872 
	C432.735931,956.616638 435.498230,957.702820 438.089722,959.107422 
	C440.540710,960.435913 442.875336,961.997681 445.176422,963.579956 
	C449.125610,966.295471 453.021362,969.089417 456.912354,971.888184 
	C458.118774,972.755981 459.237000,973.746521 460.706116,974.872314 
z"/>
<path fill="#B6B6B6" opacity="1.000000" stroke="none" 
	d="
M186.150253,469.207428 
	C188.081680,469.010101 189.802307,469.010101 190.566193,469.010101 
	C187.969177,463.397034 185.780823,457.720734 182.763336,452.526093 
	C181.142349,449.735535 178.097610,447.772003 175.232681,444.985229 
	C175.203995,445.079803 175.565689,443.887146 176.323578,442.367706 
	C177.412109,442.042786 178.104492,442.044678 178.796875,442.046570 
	C179.490494,443.651306 180.094604,445.302338 180.895508,446.851624 
	C182.856750,450.645691 184.669800,454.549194 186.998917,458.110107 
	C188.914139,461.038177 191.718811,463.379944 193.676895,466.286316 
	C194.824753,467.990021 195.087097,470.290283 195.747772,472.322205 
	C195.149155,472.815125 194.550522,473.308014 193.951904,473.800934 
	C191.281097,472.335541 188.610291,470.870148 186.150253,469.207428 
z"/>
<path fill="#232323" opacity="1.000000" stroke="none" 
	d="
M636.532471,1197.932129 
	C636.064941,1186.918457 635.944763,1175.937500 635.866943,1164.490723 
	C639.321899,1163.730835 638.978271,1166.093750 638.982971,1168.292725 
	C639.003479,1177.903564 639.059021,1187.514282 639.035889,1197.594482 
	C638.273254,1198.030762 637.576538,1197.997681 636.532471,1197.932129 
z"/>
<path fill="#292929" opacity="1.000000" stroke="none" 
	d="
M321.329620,994.904175 
	C321.025909,986.963806 320.313110,979.001099 324.523895,971.415100 
	C326.014191,968.730286 324.615814,964.537231 324.959747,961.074707 
	C325.099335,959.669189 326.368256,958.375793 327.549194,956.990417 
	C327.979370,961.418518 328.268890,965.914124 327.858154,970.344788 
	C327.674805,972.322327 325.662720,974.076538 325.217957,976.094604 
	C324.249817,980.487488 323.800232,984.992249 323.044769,989.435364 
	C322.734436,991.260315 322.181580,993.044006 321.329620,994.904175 
z"/>
<path fill="#B6B6B6" opacity="1.000000" stroke="none" 
	d="
M1134.645264,521.115234 
	C1131.561035,526.496216 1135.006836,533.711426 1130.171509,539.091858 
	C1128.492798,540.959839 1128.923828,544.611206 1128.029541,547.328979 
	C1127.168579,549.945801 1125.840454,552.408936 1124.344727,554.962891 
	C1125.775391,548.455933 1127.595703,541.930237 1129.366821,535.391235 
	C1129.661377,534.303833 1129.991211,533.132385 1129.877563,532.044434 
	C1129.414551,527.610840 1130.389038,523.839966 1134.645264,521.115234 
z"/>
<path fill="#DADADA" opacity="1.000000" stroke="none" 
	d="
M425.698364,952.939758 
	C425.989716,953.527649 425.988373,953.949280 425.992615,954.687012 
	C423.885010,955.003235 421.771851,955.003235 419.978577,955.003235 
	C418.911835,960.072266 418.252045,964.568665 416.958344,968.874634 
	C416.101349,971.726929 414.335846,974.306335 412.558502,976.666870 
	C412.390869,974.838074 412.641815,973.350281 412.892792,971.862427 
	C413.682312,968.626587 415.002838,965.415649 415.155670,962.150024 
	C415.523438,954.289612 417.434021,952.308350 425.698364,952.939758 
z"/>
<path fill="#7C7C7C" opacity="1.000000" stroke="none" 
	d="
M325.776917,369.329865 
	C326.696106,370.684448 327.875153,372.366241 327.950104,374.095886 
	C328.251251,381.047974 328.210815,388.014832 328.205139,395.430939 
	C327.104004,395.095367 325.226471,394.313141 325.219086,393.513580 
	C325.145599,385.570374 325.381134,377.624329 325.776917,369.329865 
z"/>
<path fill="#232323" opacity="1.000000" stroke="none" 
	d="
M748.880371,1002.809448 
	C748.082092,1003.863098 747.182922,1004.965942 746.117981,1005.160217 
	C741.716797,1005.963013 737.265503,1006.490662 732.422607,1007.070068 
	C733.254456,1005.063477 734.362366,1001.559326 735.763123,1001.438049 
	C740.015686,1001.070007 744.381592,1002.010132 748.880371,1002.809448 
z"/>
<path fill="#B6B6B6" opacity="1.000000" stroke="none" 
	d="
M919.064453,10.438984 
	C919.392456,9.788978 919.945068,9.480544 920.784058,9.031180 
	C926.369446,8.911693 931.676880,8.776148 936.961609,9.062169 
	C938.325806,9.136006 939.618408,10.533664 940.911377,11.749951 
	C935.171753,12.112016 929.461975,12.125411 923.759460,11.929963 
	C922.257935,11.878504 920.778625,11.181254 919.064453,10.438984 
z"/>
<path fill="#969696" opacity="1.000000" stroke="none" 
	d="
M459.875061,1087.486572 
	C457.758148,1089.668335 455.433197,1092.046997 452.739349,1093.885010 
	C449.554413,1096.057983 446.062988,1097.786255 442.666626,1099.637939 
	C442.335297,1099.818604 441.739014,1099.513306 441.132263,1099.200195 
	C447.167114,1095.125977 453.335419,1091.285034 459.875061,1087.486572 
z"/>
<path fill="#CCCCCC" opacity="1.000000" stroke="none" 
	d="
M704.587402,1011.122803 
	C703.365540,1011.134033 702.598999,1011.099670 701.450012,1011.050171 
	C701.058899,1010.624756 701.050232,1010.214355 701.531860,1009.528015 
	C711.963623,1009.089294 721.905151,1008.926575 731.846619,1008.763916 
	C730.489136,1009.512268 729.150269,1010.865784 727.770996,1010.908386 
	C720.200378,1011.141907 712.619812,1011.054443 704.587402,1011.122803 
z"/>
<path fill="#232323" opacity="1.000000" stroke="none" 
	d="
M731.882690,1008.473022 
	C721.905151,1008.926575 711.963623,1009.089294 701.559814,1009.221313 
	C702.473816,1008.464172 703.833984,1007.145935 705.229248,1007.107605 
	C713.845093,1006.871155 722.468811,1006.922974 731.556274,1006.946899 
	C731.988037,1007.403992 731.953369,1007.793030 731.882690,1008.473022 
z"/>
<path fill="#464646" opacity="1.000000" stroke="none" 
	d="
M700.715637,1239.983154 
	C698.485962,1246.950195 692.700745,1246.542969 686.494385,1246.140625 
	C686.081726,1244.050903 685.943298,1242.270996 688.971497,1242.011230 
	C692.784424,1241.684326 696.534851,1240.628784 700.715637,1239.983154 
z"/>
<path fill="#969696" opacity="1.000000" stroke="none" 
	d="
M412.533630,972.027588 
	C412.641815,973.350281 412.390869,974.838074 412.201477,976.711670 
	C412.123230,981.893005 412.104370,986.697510 411.755676,991.477905 
	C411.672150,992.623596 410.491547,993.689209 409.441772,994.918335 
	C409.438202,988.855896 409.699951,982.657043 410.257385,976.484863 
	C410.390747,975.008484 411.509125,973.621033 412.533630,972.027588 
z"/>
<path fill="#00499D" opacity="1.000000" stroke="none" 
	d="
M541.058105,739.224609 
	C541.486755,739.081177 542.217896,739.376709 542.215515,739.666260 
	C542.165222,745.806091 542.032410,751.945251 541.474365,758.173218 
	C541.028320,752.061523 541.023621,745.861145 541.058105,739.224609 
z"/>
<path fill="#969696" opacity="1.000000" stroke="none" 
	d="
M176.395905,284.953094 
	C175.987488,280.202972 175.852524,275.428741 176.113907,270.676270 
	C176.181381,269.449219 177.493256,268.290588 178.648895,267.075989 
	C179.056259,271.665558 179.215942,276.289825 178.938538,280.887695 
	C178.854843,282.275116 177.558060,283.589325 176.395905,284.953094 
z"/>
<path fill="#B6B6B6" opacity="1.000000" stroke="none" 
	d="
M1081.211914,318.471771 
	C1080.133423,318.173462 1078.445190,317.563812 1078.260986,316.650757 
	C1077.224365,311.511871 1076.549683,306.299957 1075.819092,300.710083 
	C1081.589233,305.020691 1081.372314,311.542053 1081.211914,318.471771 
z"/>
<path fill="#7C7C7C" opacity="1.000000" stroke="none" 
	d="
M670.475586,257.015656 
	C670.027710,252.922668 669.801331,248.767944 670.024536,244.637497 
	C670.090698,243.411972 671.421265,242.254745 672.593750,241.040680 
	C672.977722,244.992844 673.108887,248.983215 672.811584,252.941406 
	C672.707764,254.322845 671.547058,255.624878 670.475586,257.015656 
z"/>
<path fill="#CCCCCC" opacity="1.000000" stroke="none" 
	d="
M841.329712,4.769808 
	C842.240967,4.776546 842.709778,4.833403 843.530762,4.923536 
	C842.192993,5.636266 840.529663,6.804482 838.808105,6.897740 
	C834.685730,7.121048 830.493103,6.708526 827.687195,10.667846 
	C827.320679,10.342452 826.954102,10.017056 826.346802,9.561696 
	C829.465332,2.869742 835.701050,5.526632 841.329712,4.769808 
z"/>
<path fill="#CCCCCC" opacity="1.000000" stroke="none" 
	d="
M700.724365,1011.271179 
	C701.072754,1018.033264 701.103333,1024.988159 701.094360,1032.401123 
	C700.558533,1031.730835 699.617126,1030.593262 699.640015,1029.475464 
	C699.763184,1023.468994 700.126221,1017.467346 700.724365,1011.271179 
z"/>
<path fill="#E1E1E1" opacity="1.000000" stroke="none" 
	d="
M494.819031,989.714294 
	C488.656891,993.244873 485.955231,987.506409 482.004456,984.409424 
	C486.196045,985.836792 490.420380,987.621643 494.819031,989.714294 
z"/>
<path fill="#7C7C7C" opacity="1.000000" stroke="none" 
	d="
M647.271606,345.777222 
	C646.310913,340.349426 647.162415,335.245514 651.611145,331.034729 
	C651.129211,335.655121 650.325500,340.349518 649.387756,345.016937 
	C649.322693,345.340424 648.260254,345.463531 647.271606,345.777222 
z"/>
<path fill="#CCCCCC" opacity="1.000000" stroke="none" 
	d="
M813.125122,220.533356 
	C812.529907,220.951279 811.903137,221.096207 811.560669,220.848358 
	C808.962585,218.967896 809.414856,209.272903 812.576599,207.011780 
	C813.068909,211.356598 813.147095,215.717514 813.125122,220.533356 
z"/>
<path fill="#7C7C7C" opacity="1.000000" stroke="none" 
	d="
M1072.620239,284.056580 
	C1069.720459,278.675995 1070.349609,275.860687 1075.500000,270.917603 
	C1074.938232,275.298859 1073.993042,279.697083 1072.620239,284.056580 
z"/>
<path fill="#292929" opacity="1.000000" stroke="none" 
	d="
M1039.962158,295.189392 
	C1041.470459,298.914581 1042.816895,303.032684 1044.122803,307.563599 
	C1038.371704,304.913849 1037.836670,303.365326 1039.962158,295.189392 
z"/>
<path fill="#B6B6B6" opacity="1.000000" stroke="none" 
	d="
M1104.162231,347.352661 
	C1107.575928,346.949768 1111.190674,346.875183 1114.893799,346.421936 
	C1116.243774,346.646423 1117.505615,347.249603 1118.767334,347.852783 
	C1117.533691,348.531647 1116.225830,349.889038 1115.080322,349.763641 
	C1111.475220,349.368896 1107.931030,348.417175 1104.162231,347.352661 
z"/>
<path fill="#969696" opacity="1.000000" stroke="none" 
	d="
M847.827271,303.567017 
	C852.008240,303.346436 856.167786,303.556366 860.715454,303.939209 
	C857.801941,307.051483 850.170349,306.985718 847.827271,303.567017 
z"/>
<path fill="#464646" opacity="1.000000" stroke="none" 
	d="
M675.275024,238.884705 
	C674.877136,236.265213 674.688782,233.594437 675.007263,230.985519 
	C675.140320,229.896255 676.350891,228.938568 677.498535,227.902939 
	C677.945007,230.533157 678.185425,233.207504 677.878235,235.817383 
	C677.750610,236.901886 676.454163,237.848862 675.275024,238.884705 
z"/>
<path fill="#B6B6B6" opacity="1.000000" stroke="none" 
	d="
M1129.899902,213.457062 
	C1130.924316,213.430069 1132.694702,213.875351 1132.682739,214.266129 
	C1132.583984,217.499603 1132.155273,220.723007 1131.406494,223.975342 
	C1130.597656,220.635529 1130.208740,217.269806 1129.899902,213.457062 
z"/>
<path fill="#B6B6B6" opacity="1.000000" stroke="none" 
	d="
M1078.465820,265.036438 
	C1077.978394,262.395966 1077.914307,259.721954 1077.893433,256.606964 
	C1078.963501,256.797516 1080.909180,257.515625 1080.859253,258.045746 
	C1080.634521,260.431519 1083.022461,263.738251 1078.465820,265.036438 
z"/>
<path fill="#E1E1E1" opacity="1.000000" stroke="none" 
	d="
M481.829102,983.686157 
	C478.616791,982.764954 475.293854,981.495789 471.950073,979.872559 
	C475.192322,980.791809 478.455383,982.065002 481.829102,983.686157 
z"/>
<path fill="#969696" opacity="1.000000" stroke="none" 
	d="
M178.873444,441.632507 
	C178.104492,442.044678 177.412109,442.042786 176.374771,442.013092 
	C175.967148,440.278778 175.904480,438.572266 175.911713,436.444031 
	C180.291245,435.857666 178.610703,439.115051 178.873444,441.632507 
z"/>
<path fill="#E1E1E1" opacity="1.000000" stroke="none" 
	d="
M468.776886,978.855347 
	C465.928741,980.687500 463.881195,980.007568 463.091248,976.156616 
	C464.939453,976.701599 466.767090,977.629822 468.776886,978.855347 
z"/>
</svg>