<svg version="1.1" id="Layer_1" xmlns="http://www.w3.org/2000/svg" xmlns:xlink="http://www.w3.org/1999/xlink" x="0px" y="0px"
	 width="100%" viewBox="0 0 1180 1250" enable-background="new 0 0 1180 1250" xml:space="preserve">
<path fill="#010101" opacity="1.000000" stroke="none" 
	d="
M1181.000000,555.000000 
	C1181.000000,556.714172 1181.000000,558.428406 1180.633667,560.654175 
	C1179.580566,563.746704 1178.161377,566.377930 1178.334473,568.899841 
	C1179.065063,579.540405 1175.449463,588.452759 1168.647339,596.358826 
	C1167.940063,597.180786 1167.476440,598.311279 1167.189453,599.376648 
	C1166.418213,602.238586 1165.803833,605.142822 1164.917725,608.336182 
	C1162.972046,611.079529 1162.665039,614.485535 1158.230591,614.694946 
	C1150.431274,615.063354 1142.319214,615.173828 1135.002930,617.491028 
	C1128.579712,619.525513 1123.063965,624.430359 1117.170654,628.104797 
	C1116.999512,628.211365 1117.201294,628.807434 1117.044678,629.061340 
	C1112.883789,635.804321 1106.747437,638.575439 1098.991577,636.246521 
	C1091.823853,634.094238 1084.765503,632.977173 1077.223999,634.380493 
	C1077.068604,640.440918 1076.689575,646.237000 1080.845215,651.502563 
	C1080.822388,655.414734 1080.694702,658.885498 1081.019531,662.313354 
	C1081.140015,663.584595 1082.322021,664.755188 1083.009033,665.984253 
	C1082.998169,665.996765 1083.025879,665.982788 1082.969482,666.313416 
	C1082.946899,667.088501 1082.980713,667.533020 1082.964600,668.445435 
	C1082.956665,671.411072 1082.916992,673.913452 1083.059570,676.405396 
	C1083.299927,680.605225 1083.656128,684.798401 1083.881226,689.344116 
	C1083.495361,690.777893 1083.192017,691.861877 1082.500732,693.063110 
	C1080.929077,699.194519 1080.718994,705.469666 1077.318359,710.893921 
	C1077.088379,711.260803 1077.226929,711.873535 1077.233643,712.371399 
	C1077.288574,716.446472 1076.711182,720.006714 1074.036865,723.652893 
	C1071.211548,727.504761 1069.999268,732.539734 1067.686035,737.128540 
	C1066.554443,738.252563 1065.144531,739.342163 1065.198853,740.353210 
	C1065.453369,745.096619 1064.404297,749.279602 1061.652954,753.218262 
	C1060.832275,754.393127 1061.192261,756.392883 1060.925781,758.394043 
	C1058.184326,765.262146 1055.722656,771.839355 1052.819214,778.215393 
	C1049.779907,784.890015 1046.692993,791.597717 1042.924561,797.868835 
	C1039.642456,803.330322 1035.249512,808.111694 1031.591797,813.363770 
	C1028.211304,818.217651 1025.105347,823.266174 1021.972107,828.287354 
	C1019.522156,832.213379 1017.317627,836.294617 1014.812317,840.183411 
	C1012.889526,843.167786 1010.843506,846.111694 1008.525452,848.790771 
	C1006.529358,851.097656 1004.031982,852.964294 1001.834534,855.105957 
	C1000.734863,856.177673 999.763794,857.392761 998.818298,858.608215 
	C997.751465,859.979431 997.083862,862.123413 995.714600,862.720581 
	C988.099609,866.041321 982.908020,872.309143 976.742432,877.426147 
	C968.945557,883.896973 959.986816,888.758362 952.012329,895.176392 
	C946.176208,899.873474 938.309875,903.102051 929.669250,903.342224 
	C925.472839,903.458801 921.346741,907.278259 917.257080,909.544556 
	C915.334229,910.609985 913.716309,912.554138 911.702698,913.046387 
	C909.017029,913.702759 906.069336,913.198059 903.254272,913.432861 
	C897.689453,913.897095 892.077393,914.186646 886.596741,915.171387 
	C879.177124,916.504517 875.588501,921.705200 877.502625,927.863342 
	C878.372742,930.662781 879.860535,933.270203 880.968506,936.426331 
	C880.887939,941.875122 880.920593,946.862305 880.919250,951.849487 
	C880.918762,953.901245 881.301636,955.527222 883.976196,955.390503 
	C884.018799,956.112366 884.024658,956.526123 883.955322,957.403320 
	C884.433105,962.666565 883.971619,967.270874 886.474609,972.184448 
	C888.949341,977.042542 888.142456,983.532654 889.020142,989.269287 
	C889.269531,990.899170 890.375000,992.398132 891.437622,994.087402 
	C893.648376,999.486755 895.806824,1004.674744 897.275085,1010.051086 
	C898.419861,1014.242798 898.005310,1018.937622 899.535095,1022.929260 
	C901.968018,1029.277222 906.030945,1034.968994 905.304871,1042.346436 
	C905.099792,1044.430908 906.458435,1046.669189 906.917358,1049.227783 
	C906.501160,1054.320679 906.128845,1059.024170 906.173767,1063.723511 
	C906.181030,1064.484497 908.040527,1065.227783 909.308228,1066.208252 
	C910.673828,1069.886841 911.935364,1073.295410 912.833191,1076.797119 
	C913.814392,1080.624023 914.451172,1084.538696 915.253418,1088.411987 
	C915.736877,1090.746216 916.749634,1093.094116 916.659424,1095.401978 
	C916.326904,1103.910645 916.153870,1112.487427 914.832947,1120.866943 
	C914.263855,1124.477051 911.036682,1127.668213 908.564209,1130.911987 
	C899.068909,1130.864502 890.026367,1130.954834 880.645020,1130.897217 
	C877.054443,1128.197021 873.538940,1126.908569 869.232483,1127.194946 
	C865.283936,1127.457397 861.179626,1127.346436 857.318726,1126.551392 
	C849.183472,1124.876465 841.173340,1122.600830 833.089111,1120.666870 
	C830.103210,1119.952637 827.041870,1119.560425 824.036011,1118.921875 
	C821.113586,1118.301025 818.227783,1117.508057 815.306152,1116.883057 
	C814.177673,1116.641724 812.843750,1116.970215 811.861755,1116.499878 
	C806.206421,1113.791016 800.644531,1110.887939 795.019592,1108.114502 
	C790.262451,1105.768921 785.620056,1103.055664 780.640991,1101.330078 
	C774.735718,1099.283569 769.372253,1096.667725 765.077271,1092.078613 
	C764.500488,1091.462402 764.107605,1090.585815 763.422546,1090.174805 
	C760.692078,1088.536499 757.848328,1087.088135 755.105164,1085.469849 
	C751.059753,1083.083130 746.941772,1080.788452 743.087341,1078.118652 
	C740.107483,1076.054688 737.555115,1073.384644 734.686157,1071.146362 
	C730.580994,1067.943726 726.772583,1063.299683 722.106567,1062.089600 
	C711.130188,1059.243042 707.346497,1050.172852 705.517334,1041.796265 
	C703.723633,1033.581909 701.254578,1023.175293 710.779236,1016.393188 
	C710.893616,1016.311768 710.910522,1016.093384 711.374817,1015.922607 
	C714.067322,1015.032898 716.298279,1013.700562 718.662537,1013.392944 
	C722.258850,1012.925171 726.791199,1014.515015 729.439514,1012.856873 
	C737.489807,1007.816101 746.061584,1010.043335 754.430481,1009.528931 
	C756.213440,1009.419373 758.936523,1009.284668 759.684875,1010.298950 
	C763.020630,1014.820496 767.605957,1012.922119 771.697510,1013.190979 
	C776.813171,1013.527161 781.956116,1013.448059 787.373291,1013.727295 
	C788.108521,1013.928955 788.557800,1013.951538 789.100708,1014.381104 
	C794.478271,1015.136963 799.759827,1015.555359 805.049622,1015.740479 
	C805.658936,1015.761780 806.613586,1014.590698 806.898743,1013.790894 
	C808.792297,1008.479187 805.599182,997.931580 801.016602,993.505249 
	C800.880859,989.559021 801.070129,986.024170 800.541199,982.600220 
	C799.441833,975.483459 797.557678,968.469177 796.787537,961.327393 
	C796.313416,956.929932 794.148376,954.278748 790.820862,952.193054 
	C790.158142,951.777588 788.671936,952.254028 787.767822,952.715698 
	C782.849609,955.226501 778.793274,959.390991 772.613281,959.440857 
	C770.035095,959.461670 767.248962,960.693115 764.940491,962.033752 
	C758.330994,965.872314 752.015869,970.218079 745.403870,974.052063 
	C735.672607,979.694824 725.566467,984.495056 714.516479,987.135986 
	C710.921204,987.995239 707.532898,989.704102 704.029541,990.967834 
	C697.204224,993.429749 690.222290,998.187134 683.561829,997.781372 
	C671.454895,997.043884 660.746399,1003.709961 648.868713,1002.326416 
	C648.365295,1002.267822 647.815918,1002.895325 647.246643,1003.062744 
	C643.763672,1004.086975 640.283569,1005.866699 636.775391,1005.931763 
	C620.319946,1006.237366 603.855652,1006.067627 585.963013,1006.067627 
	C586.917786,1010.179504 587.732483,1013.641968 588.523743,1017.109680 
	C589.240234,1020.250244 590.439270,1023.380981 590.536438,1026.543335 
	C590.812622,1035.529541 590.870300,1044.538940 590.515320,1053.519531 
	C590.378723,1056.976074 588.556885,1060.335938 588.110107,1063.817627 
	C587.516724,1068.442627 585.840698,1073.923584 587.580505,1077.664551 
	C592.600708,1088.459106 590.859192,1099.036377 589.123474,1109.862183 
	C588.286499,1115.082275 587.659241,1120.337646 586.739197,1125.541992 
	C586.157715,1128.831421 585.245361,1132.065186 584.413391,1135.306396 
	C583.987854,1136.964355 583.149109,1138.552734 582.951904,1140.226318 
	C582.148193,1147.046021 581.520203,1153.886597 580.469360,1160.667236 
	C579.414490,1160.746216 578.717773,1160.877563 577.603638,1161.024170 
	C576.461975,1161.924438 575.330505,1162.718262 575.106873,1163.715576 
	C574.751709,1165.298950 574.963684,1167.019287 575.004028,1168.680054 
	C575.229126,1177.942261 575.474609,1187.203979 575.648071,1196.529541 
	C575.582947,1196.593262 575.449402,1196.717285 575.087158,1196.522705 
	C574.176392,1197.607666 573.627930,1198.887207 573.145264,1200.607422 
	C572.426941,1204.921265 571.852844,1208.851562 570.817261,1212.656250 
	C568.208923,1222.238647 565.554565,1231.816650 562.505127,1241.262939 
	C561.975769,1242.902832 559.382935,1245.051025 557.812927,1244.995361 
	C544.820374,1244.534668 531.844116,1243.612793 518.863647,1242.818237 
	C518.370667,1242.788086 517.838257,1242.731201 517.403564,1242.521973 
	C510.160278,1239.034180 502.935394,1235.508179 495.694641,1232.015015 
	C489.184998,1228.874634 482.566986,1225.943604 476.166779,1222.595215 
	C467.786163,1218.210938 459.564270,1213.522461 451.294556,1208.928101 
	C449.674530,1208.028198 448.105011,1207.021973 446.584290,1205.961426 
	C439.624237,1201.107788 431.853271,1197.050659 425.955811,1191.131104 
	C418.397278,1183.544434 409.214874,1177.280884 404.379608,1167.063721 
	C402.777161,1163.677612 399.078583,1161.320557 397.270447,1157.987305 
	C393.499817,1151.036133 390.243378,1143.795532 387.027283,1136.562012 
	C386.297821,1134.921387 385.933228,1132.577759 386.530396,1130.979858 
	C389.409149,1123.275757 401.537506,1114.736694 409.667786,1115.295776 
	C424.130585,1116.290527 439.089874,1111.758911 453.014160,1118.983887 
	C460.031982,1117.825928 465.297211,1122.029785 471.069305,1124.789795 
	C476.485352,1127.379639 483.309082,1128.454712 487.197540,1132.450073 
	C492.121521,1137.509521 497.439972,1136.913330 503.003204,1137.311401 
	C504.176880,1137.395508 506.158264,1136.494995 506.485748,1135.586060 
	C506.930115,1134.352905 506.421204,1132.541626 505.798798,1131.225342 
	C505.189240,1129.936157 503.924591,1128.956787 503.643860,1128.636230 
	C504.853729,1125.127197 506.646912,1122.251709 506.711975,1119.337402 
	C507.002014,1106.348145 506.112122,1093.300781 507.000122,1080.367188 
	C507.653809,1070.846558 505.708801,1061.299805 509.026062,1051.666748 
	C511.807861,1043.588745 512.227905,1034.632690 513.163269,1026.008057 
	C513.716736,1020.904541 513.072998,1015.682495 513.284241,1010.526672 
	C513.433350,1006.886719 511.804047,1005.938232 508.499115,1006.028564 
	C502.504822,1006.192505 496.502380,1006.127136 490.504547,1006.055725 
	C488.356384,1006.030212 485.610046,1006.488586 484.177307,1005.380554 
	C479.727936,1001.939514 474.801758,1002.088745 469.730255,1002.160583 
	C467.907379,1002.186401 465.859650,1002.434814 464.292023,1001.735596 
	C455.168976,997.665833 445.650269,995.660278 435.696014,995.529602 
	C435.044250,995.521057 434.376984,995.420105 433.746582,995.251343 
	C423.061371,992.390808 414.626404,984.706299 403.460632,982.167786 
	C396.442108,980.572083 390.921173,973.261292 383.984924,970.197754 
	C376.347504,966.824402 367.730408,965.860046 360.436340,961.184875 
	C355.530579,958.040588 349.007843,956.619324 345.336670,952.520935 
	C338.448975,944.831421 330.165466,939.991699 321.058746,935.929688 
	C319.569000,935.265137 318.356018,933.941284 317.080200,932.846252 
	C315.615662,931.589233 314.268494,930.194397 312.792175,928.952271 
	C306.989655,924.069763 300.758209,919.615662 295.463989,914.236694 
	C291.441589,910.149841 290.118164,903.949158 284.955811,900.302490 
	C282.119598,898.298889 280.535706,894.563049 278.258240,891.711182 
	C277.108032,890.270996 275.791229,888.087646 274.343658,887.908813 
	C267.049591,887.007690 265.627960,879.763123 261.326843,875.819824 
	C254.852982,869.884583 250.397949,861.770325 244.943481,854.691284 
	C241.823273,850.641785 238.509460,846.731506 235.116089,842.906494 
	C233.211197,840.759399 231.139053,838.678772 228.834457,836.987732 
	C225.437469,834.495239 221.113419,832.970032 218.371521,829.953613 
	C214.708252,825.923523 212.048004,820.940491 209.209290,816.215149 
	C206.883224,812.343140 205.106689,808.139771 202.761307,804.280945 
	C199.561905,799.017090 195.915070,794.024902 192.723450,788.756653 
	C190.357178,784.850708 188.516205,780.630066 186.241547,776.664062 
	C184.560471,773.733032 182.584351,770.968506 180.692093,768.161865 
	C177.917816,764.047180 175.219803,759.872192 172.249817,755.902100 
	C170.861572,754.046448 168.240021,752.918396 167.330551,750.932434 
	C162.702820,740.827576 159.151031,730.199097 151.587921,721.639954 
	C150.300720,720.183228 149.819916,717.985229 149.070343,716.088684 
	C147.871353,713.054932 147.180054,709.731628 145.517609,706.989441 
	C142.590530,702.161194 139.092651,697.679016 135.912506,692.662109 
	C134.907883,690.174805 134.305679,687.530762 132.655060,686.077515 
	C126.605453,680.751221 125.981819,673.205505 124.542503,666.251648 
	C123.615021,661.770691 123.048248,658.105347 117.995407,656.601685 
	C116.174675,649.389771 114.617935,642.529419 112.413506,635.883850 
	C110.489067,630.082336 105.068764,624.853516 110.573936,618.226318 
	C110.922096,617.807190 109.855576,615.827148 109.057053,614.914795 
	C106.790169,612.324585 104.429405,609.859863 104.966927,605.722900 
	C104.581177,603.839417 103.925011,602.282593 103.694450,600.665100 
	C102.522240,592.441162 101.590469,584.181396 100.321449,575.973328 
	C99.157272,568.443481 97.688194,560.960144 96.294106,553.467346 
	C96.182159,552.865662 95.491730,552.392456 95.271515,551.786377 
	C94.427933,549.464478 93.422928,547.163635 92.919937,544.762451 
	C91.364494,537.336975 90.017418,529.867981 88.559181,522.421753 
	C88.505783,522.149109 88.081154,521.970154 87.920227,521.694580 
	C83.659019,514.397156 83.237976,505.935822 82.031746,498.012573 
	C80.906021,490.618134 78.578957,484.220245 74.915794,477.702515 
	C74.947029,476.894287 74.899345,476.429474 75.018333,475.760071 
	C75.060493,474.387543 74.935989,473.219666 74.857925,471.715332 
	C74.817451,470.941345 74.730537,470.503723 74.732567,469.648193 
	C74.660721,468.116516 74.499939,467.002777 74.446594,465.597870 
	C74.485329,464.904846 74.416626,464.502991 74.518822,463.654419 
	C74.572861,457.101379 74.456001,450.995026 74.425148,444.586975 
	C74.404907,443.892700 74.298660,443.500153 74.291885,442.784668 
	C74.215424,441.353210 74.039482,440.244720 73.916260,438.708557 
	C73.754791,435.247345 74.999199,431.721313 71.002670,429.661560 
	C70.504021,428.955536 70.147675,428.504730 69.887375,427.591248 
	C69.963005,421.450684 69.942589,415.772766 69.986320,409.672668 
	C69.291756,407.868744 68.594727,406.448273 67.757446,405.115875 
	C66.869858,403.703430 65.066093,402.402649 65.016235,401.004791 
	C64.738510,393.217896 65.532990,385.336761 64.608292,377.650604 
	C64.081200,373.269379 60.977844,369.198059 58.878014,364.670959 
	C55.014988,360.573608 51.282410,356.817566 47.611900,353.001801 
	C45.450237,350.754639 42.227066,348.726715 41.503201,346.052856 
	C39.550468,338.839630 38.707714,331.328278 37.376114,323.943970 
	C35.304840,312.457794 40.438435,301.779663 41.109436,290.599670 
	C41.150940,289.908112 41.827877,289.241760 42.246807,288.587769 
	C47.553284,280.304260 53.422050,272.315063 57.955551,263.628754 
	C60.404030,258.937408 62.868687,256.656097 68.127686,256.497406 
	C70.166428,256.435883 73.727211,254.403473 73.877464,252.981735 
	C74.645279,245.716644 81.545921,241.649551 82.407272,234.178879 
	C83.242615,226.933670 90.042259,221.105759 89.042007,212.930527 
	C88.950737,212.184616 89.336258,211.247162 89.782082,210.589661 
	C93.614487,204.937576 96.008659,198.787170 96.699409,191.958252 
	C96.837784,190.590240 97.441422,189.224670 98.037094,187.954880 
	C101.632942,180.289764 105.436798,172.718307 108.862175,164.978821 
	C110.569748,161.120636 111.621330,156.972092 113.322601,152.860596 
	C123.817894,135.620209 133.619400,118.265099 145.217468,101.693848 
	C149.897263,96.313850 154.288025,91.076721 158.652756,85.817993 
	C159.712662,84.540962 160.517838,83.005539 161.730591,81.910660 
	C166.347473,77.742538 171.355530,73.969627 175.666611,69.515900 
	C178.035416,67.068703 178.903778,63.209057 181.163498,60.607067 
	C184.656021,56.585579 188.929764,53.252613 192.561600,49.339394 
	C196.689667,44.891483 200.240158,40.025257 206.314102,37.673038 
	C208.267471,36.916573 209.331284,33.863052 210.998688,31.534946 
	C216.201584,29.769957 221.939926,29.418121 226.052216,26.650358 
	C233.233170,21.817240 241.495911,20.785355 249.230484,18.040789 
	C255.240585,15.908140 261.868469,15.506385 267.862244,13.340382 
	C275.550201,10.562165 283.276428,9.115283 291.357941,9.812289 
	C295.869598,10.201408 299.632935,8.841504 303.498413,6.160649 
	C310.616943,6.199150 317.276733,6.194443 323.934814,6.085011 
	C328.491425,6.010119 333.365997,7.103564 337.411285,2.987834 
	C347.460388,3.043587 357.041107,3.109082 366.618042,2.949115 
	C367.755890,2.930108 368.873169,1.679636 370.000000,0.999996 
	C370.444427,1.000000 370.888885,1.000000 371.695007,1.299837 
	C372.672943,2.089194 373.289215,2.578713 374.088776,3.401109 
	C377.871887,7.845550 382.674622,5.523453 387.128418,6.400423 
	C397.431396,11.483862 407.350220,16.742727 417.708130,20.910448 
	C426.800476,24.568954 433.913177,30.963215 441.602417,36.496635 
	C446.718414,40.178291 450.846619,45.312561 455.114929,50.067741 
	C458.732147,54.097507 461.974304,58.471756 465.265625,62.782730 
	C466.756989,64.736084 467.490814,67.721611 469.389923,68.826111 
	C475.474030,72.364586 480.363373,76.781830 483.999268,82.877960 
	C486.043335,86.305176 489.204498,89.047333 491.602570,92.290237 
	C492.788940,93.894623 492.966034,96.357635 494.322021,97.705681 
	C501.779999,105.120087 502.903351,115.520035 507.174713,124.414673 
	C509.619324,129.505264 511.189758,135.016739 513.134155,140.345856 
	C513.769958,142.088531 514.983337,143.910233 514.834106,145.598740 
	C514.229126,152.447220 518.309998,157.454895 521.024231,163.232361 
	C520.971313,163.469406 521.083130,163.942139 520.875488,164.317261 
	C520.503418,170.079498 520.339111,175.466614 520.156555,181.233932 
	C521.515930,183.571548 522.893494,185.528961 524.475830,187.777222 
	C525.656860,187.846695 527.273438,187.941772 529.030151,188.372940 
	C532.404968,191.675705 533.305847,195.343872 533.300293,199.687592 
	C533.295898,203.121445 534.393677,206.568924 535.110962,209.987503 
	C535.666687,212.636063 536.442322,215.238098 537.017761,217.883118 
	C537.296570,219.164886 536.848938,220.961334 537.573425,221.729065 
	C541.108826,225.475479 540.911865,230.012100 540.928955,234.591614 
	C540.933044,235.695892 541.286438,236.811813 541.566895,237.899796 
	C542.590515,241.870804 543.802246,245.800751 544.639038,249.809647 
	C545.108704,252.059738 544.674744,254.503265 545.177185,256.740814 
	C547.093994,265.276703 549.219666,273.765778 551.280273,282.269196 
	C552.102783,285.663269 552.925354,289.058014 553.818115,292.433899 
	C554.138977,293.647125 555.173401,294.877014 555.018738,295.978088 
	C553.804260,304.624634 557.858521,311.729828 560.932800,319.328949 
	C563.698914,326.166168 564.873108,333.650909 566.707825,340.860596 
	C568.925354,349.575104 571.045776,358.315063 573.375183,366.999176 
	C573.606323,367.860657 574.998291,368.410736 575.875610,369.512634 
	C576.868652,372.414429 577.729492,374.958496 578.842651,377.386932 
	C579.651428,379.151337 581.238281,380.646423 581.713684,382.461792 
	C584.335449,392.473572 586.590271,402.582520 589.286682,412.572937 
	C589.925049,414.938019 592.046021,416.862762 593.018738,419.185303 
	C595.916565,426.104370 598.095825,433.364716 601.446838,440.044708 
	C607.291199,451.695068 613.789795,463.017731 620.039429,474.463928 
	C621.970337,478.000397 623.983215,481.492065 625.992310,485.239197 
	C626.026062,485.474152 626.135071,485.936188 626.048340,486.308197 
	C631.078796,492.456055 635.662048,498.452728 636.031128,506.685577 
	C636.088257,507.960754 637.501831,509.196320 638.345337,510.410461 
	C639.912476,512.666260 641.518005,514.895386 643.114197,517.130920 
	C648.321106,524.423462 649.304688,534.288391 657.031067,540.402100 
	C658.234741,541.870728 660.063477,544.132080 660.598877,543.858887 
	C662.999084,542.634155 665.729492,541.113220 667.063660,538.921692 
	C670.869751,532.669617 674.270630,526.544495 682.741028,525.573303 
	C684.963867,525.318420 687.863281,523.101196 688.824036,521.030029 
	C693.581909,510.772308 703.257080,505.952545 711.738159,500.061127 
	C718.155640,495.603119 725.774963,492.913696 732.646973,489.058502 
	C737.640137,486.257324 742.352600,482.933502 747.072815,479.672668 
	C755.854065,473.606323 766.569641,473.436401 776.195190,469.951111 
	C781.946655,467.868591 787.726379,465.764313 793.644348,464.265686 
	C801.704529,462.224640 809.156433,457.736084 817.924988,458.390930 
	C820.676453,458.596436 823.505615,457.870239 826.289673,457.498932 
	C828.918091,457.148438 831.567566,456.221161 834.148499,456.400482 
	C839.664124,456.783722 845.154541,457.631165 850.630432,458.454071 
	C855.233276,459.145752 859.800842,460.071838 864.774231,460.964172 
	C865.288391,459.397644 865.833252,457.007324 866.839478,454.830231 
	C868.704895,450.794098 870.839905,446.882568 873.273560,442.893311 
	C874.450500,441.695038 875.694641,440.593079 875.880066,439.335083 
	C876.234436,436.930328 875.986084,434.436768 876.046143,431.635162 
	C876.273438,430.168549 876.442505,429.046783 876.743652,427.582092 
	C876.834229,426.508606 876.792603,425.778076 876.875183,424.705627 
	C876.917603,423.892914 876.835754,423.422089 876.823608,422.556458 
	C876.872803,421.094513 876.852417,420.027344 877.080200,418.722473 
	C882.386475,414.106049 880.661865,408.193726 880.845032,402.734711 
	C880.965088,399.155396 880.199097,395.349121 884.361389,392.881073 
	C885.511963,391.592560 886.867065,390.393951 886.908569,389.151459 
	C887.136353,382.334381 887.072144,375.506226 887.004028,368.682922 
	C886.998352,368.115143 886.219604,367.555115 885.830200,366.598938 
	C888.740112,363.597595 889.460327,360.346924 889.384949,356.527283 
	C889.191345,346.707794 889.193787,336.878448 889.427734,327.060394 
	C889.494873,324.244110 890.603821,321.449615 891.261169,318.651245 
	C891.870789,316.055969 892.952026,313.489014 893.072632,310.874817 
	C893.778259,295.576385 894.270630,280.268005 894.805847,264.961975 
	C894.846130,263.808441 894.581421,262.646057 894.595459,261.489441 
	C894.619812,259.488190 894.541077,257.450989 894.887146,255.496445 
	C895.412537,252.529495 896.687134,249.648270 896.883240,246.680405 
	C897.222778,241.541412 896.937805,236.363480 896.992737,231.202713 
	C897.049316,225.881287 902.342834,218.023117 907.104248,216.252594 
	C914.821594,213.382950 922.570312,210.598053 930.307007,207.780518 
	C930.607788,207.670975 931.093140,207.687561 931.201782,207.487488 
	C933.687012,202.912781 938.522705,203.718033 942.159485,203.731857 
	C950.306824,203.762863 958.449463,202.238022 966.517822,207.435349 
	C970.280396,209.859039 975.435364,211.096313 979.462341,214.135574 
	C980.975159,215.277405 983.305054,215.369171 985.283569,215.853485 
	C987.872314,216.487167 991.059814,216.290833 992.966187,217.770416 
	C997.382996,221.198425 1001.235168,225.368271 1005.224304,229.330002 
	C1011.829285,235.889526 1019.406799,241.521439 1022.808105,250.890228 
	C1024.849243,256.512512 1028.207886,261.656494 1030.950928,267.480438 
	C1031.047363,272.103302 1029.697144,277.172699 1031.592529,280.229492 
	C1035.545532,286.604584 1034.780029,293.133850 1034.910889,299.781036 
	C1034.977051,303.134033 1035.177246,306.059418 1038.563965,308.281982 
	C1040.019775,309.237366 1040.369629,312.210571 1040.786255,314.351807 
	C1041.816040,319.644928 1042.579224,324.989563 1043.481079,330.308197 
	C1043.833252,332.384766 1044.584961,334.442352 1044.615967,336.516693 
	C1044.812744,349.668091 1044.858765,362.821686 1044.873535,376.329041 
	C1042.594238,379.573029 1041.897705,382.661194 1042.916138,386.275330 
	C1043.384521,387.937622 1043.199219,389.865906 1042.964478,391.627502 
	C1042.463013,395.389221 1041.802002,399.133636 1041.081299,402.860992 
	C1040.486816,405.934875 1039.712158,408.973938 1038.592041,412.049072 
	C1035.231934,411.576019 1034.996582,413.479218 1034.984741,415.621674 
	C1034.954712,421.051208 1034.905029,426.480682 1034.524658,432.061035 
	C1031.789429,436.944885 1029.410645,441.687103 1026.982300,446.403778 
	C1026.437012,447.462952 1025.081909,448.500610 1025.181030,449.433289 
	C1025.946045,456.631165 1020.659180,460.781250 1017.220032,466.481750 
	C1019.727478,466.748810 1022.277893,466.926422 1024.340576,466.008118 
	C1029.373657,463.767365 1032.634033,459.213593 1038.479492,457.267212 
	C1047.245483,454.348358 1053.266235,446.150024 1057.707520,438.409363 
	C1061.490967,431.815063 1067.223999,431.466003 1072.634399,430.129150 
	C1077.336060,428.967407 1082.730225,429.073822 1087.496826,430.105499 
	C1093.224365,431.345123 1099.424194,432.070068 1103.541504,437.656494 
	C1106.712646,441.959167 1110.799316,445.610565 1114.637329,449.390747 
	C1117.667603,452.375397 1119.714355,455.538910 1119.452271,460.083832 
	C1119.340698,462.015656 1120.465332,464.018799 1120.969971,466.389648 
	C1121.604004,470.581818 1122.660400,474.350891 1122.901123,478.171356 
	C1123.245483,483.636658 1122.997070,489.139557 1122.995361,494.626404 
	C1122.992798,503.009308 1123.497559,503.539429 1132.024170,503.428101 
	C1137.484741,503.356812 1142.854736,503.323334 1147.640137,506.704132 
	C1154.532104,511.573242 1161.343262,516.618835 1168.612915,520.862732 
	C1171.796753,522.721436 1173.692139,524.646118 1174.333618,528.126465 
	C1175.485229,534.373901 1176.594971,540.635315 1178.010132,546.825073 
	C1178.651855,549.631165 1179.982178,552.279846 1181.000000,555.000000 
M104.010170,343.995789 
	C104.010170,343.995789 104.022896,344.033783 103.232956,344.012299 
	C102.420868,345.288116 101.608788,346.563965 100.162285,348.836487 
	C105.308174,348.836487 108.781830,348.914124 112.244583,348.755005 
	C112.780319,348.730377 113.266174,347.620544 114.223495,346.405670 
	C118.637123,344.356262 123.015877,342.226837 127.475769,340.283630 
	C130.850128,338.813416 134.239090,337.240875 137.778778,336.314667 
	C144.753723,334.489624 150.887512,332.013733 155.208893,325.500641 
	C157.540665,321.986237 162.022430,319.969574 165.187515,316.917664 
	C168.656738,313.572510 172.539230,310.256256 174.786346,306.134094 
	C178.452438,299.408936 178.353546,291.666138 176.797501,284.345856 
	C175.940384,280.313507 173.524170,276.507690 171.323395,272.896881 
	C169.324677,269.617554 166.396912,266.906830 164.376144,263.637939 
	C162.469879,260.554291 160.772980,257.703247 156.733627,257.126526 
	C155.406998,256.937103 154.217239,255.788925 152.807846,254.278763 
	C148.887466,253.895676 144.967072,253.512573 140.326233,253.220551 
	C134.055099,257.719635 134.287094,262.095520 141.721909,267.347076 
	C142.984314,270.064850 145.402939,272.829285 145.295502,275.491760 
	C144.953476,283.966736 143.678284,292.404572 142.733658,300.853394 
	C142.681641,301.318665 142.357819,301.753448 142.161072,302.202637 
	C140.483582,306.032135 138.723434,309.827911 137.146515,313.698395 
	C134.139343,321.079346 128.987885,326.391205 122.061020,330.229797 
	C119.556259,331.617828 115.799149,333.356201 115.427063,335.437714 
	C114.658379,339.737823 111.981491,340.670532 108.099899,341.802094 
	C106.745789,342.544159 105.391678,343.286255 104.010170,343.995789 
M578.017883,759.124634 
	C577.968384,755.132935 577.918884,751.141296 577.978760,746.226379 
	C577.978088,744.418884 578.361572,742.495972 577.863708,740.837769 
	C577.407837,739.319275 575.999878,738.086670 574.820312,735.879150 
	C571.613525,719.997009 574.371887,704.138733 575.809204,688.008972 
	C578.778198,685.603943 578.991516,675.634460 575.995361,671.148865 
	C575.994141,669.840393 575.992920,668.531982 576.690857,666.777100 
	C578.477051,661.449219 579.398071,656.149963 576.018372,650.118713 
	C576.066528,648.062256 576.114685,646.005859 577.001770,643.947571 
	C578.212158,643.636902 579.815308,643.702332 580.549438,642.935608 
	C581.981628,641.439941 580.748169,632.034485 579.011230,629.191589 
	C578.953613,628.458801 578.895996,627.726074 578.994324,626.159668 
	C579.740356,623.750244 580.721436,621.385132 581.185547,618.922546 
	C582.296204,613.027893 574.729736,604.947205 567.657349,604.004883 
	C562.538757,603.322876 558.396301,604.962158 555.300659,608.890259 
	C549.238892,616.581970 545.933533,625.551147 545.299255,635.186401 
	C544.525391,646.942200 544.554810,658.753845 544.365417,670.543396 
	C544.306519,674.210938 543.383850,676.029602 539.073181,676.160278 
	C529.600952,676.447388 520.139954,677.339722 510.695587,678.213806 
	C505.816620,678.665344 500.967377,679.515869 496.132477,680.347656 
	C489.491119,681.490295 482.872894,682.769104 476.251556,684.025391 
	C473.858887,684.479492 471.503265,685.148193 469.100311,685.524902 
	C463.935944,686.334595 458.751770,687.018311 453.083954,687.823364 
	C453.790802,682.853882 454.401123,678.562988 455.810699,674.008484 
	C456.532104,672.767639 457.834290,671.545715 457.875519,670.282715 
	C458.064819,664.479492 457.901917,658.664673 457.918518,651.964966 
	C457.332306,647.988342 456.746094,644.011658 456.017853,639.230408 
	C456.014740,637.869141 456.011597,636.507874 456.739441,634.753601 
	C456.917755,628.112793 457.110809,621.472168 457.224854,614.830261 
	C457.229858,614.539368 456.511200,614.236023 455.796295,613.272949 
	C452.121277,606.075806 444.676697,602.492981 436.811310,604.135925 
	C431.760895,605.190979 424.553040,613.057495 424.337219,617.870789 
	C423.982086,625.790771 423.558044,633.711853 423.426941,641.636841 
	C423.201111,655.285828 423.237671,668.939026 423.051758,682.588928 
	C422.893188,694.230957 422.857330,705.885193 422.261719,717.508118 
	C421.449310,733.361633 420.171173,749.191589 419.062225,765.029541 
	C418.708771,770.078064 420.585938,774.063232 424.822784,776.738708 
	C426.627045,777.877991 428.763855,778.516174 430.789734,779.274780 
	C439.523071,782.545288 450.616364,776.943665 450.995544,767.485840 
	C451.563629,753.316772 452.427673,739.159546 453.165649,724.997314 
	C453.259521,723.195679 453.351929,721.393860 453.446472,719.564209 
	C459.511780,718.058533 465.269196,716.003784 471.187042,715.301697 
	C480.931061,714.145691 490.524170,713.513550 500.134888,710.394165 
	C508.988647,707.520569 518.895142,707.889160 528.338562,706.835510 
	C529.493225,706.706604 530.661499,706.674805 531.806824,706.492920 
	C535.585205,705.893066 539.355957,705.244934 544.330872,704.414917 
	C544.330872,716.010193 544.234497,726.430420 544.358948,736.848022 
	C544.474182,746.491699 544.856567,756.131958 545.063416,765.774963 
	C545.229614,773.522400 553.067078,779.784790 559.516785,780.102539 
	C567.367249,780.489258 572.335266,776.779602 576.515137,769.792664 
	C576.970032,766.543396 577.424927,763.294067 578.017883,759.124634 
M604.537964,610.039978 
	C597.154541,615.120728 594.701172,623.236572 597.579224,631.814087 
	C599.563538,637.727661 601.106018,643.789978 602.828247,649.790894 
	C605.044556,657.513428 607.242249,665.241272 609.449707,672.966370 
	C612.667236,684.226624 615.704712,695.542603 619.164734,706.727905 
	C621.719482,714.986511 624.761780,723.097900 627.726135,731.223999 
	C628.599304,733.617554 630.148254,735.763000 631.037598,738.152466 
	C633.032776,743.512207 634.731201,748.981812 636.694885,754.353943 
	C638.694580,759.824829 641.345642,765.104492 642.842834,770.700256 
	C644.696655,777.629089 648.875366,782.213013 655.484192,783.727783 
	C662.513184,785.338928 668.948853,783.530457 673.075195,776.795288 
	C674.435913,774.574158 675.360352,771.391968 677.357849,770.388916 
	C682.684814,767.713989 685.055420,763.222656 686.878357,758.122009 
	C689.090637,751.931763 690.970276,745.612732 693.410767,739.516296 
	C697.022217,730.494995 701.241455,721.714111 704.760681,712.659424 
	C708.958069,701.859802 711.752197,690.553650 716.696350,679.996399 
	C719.175171,674.703308 721.123413,669.129700 722.923767,663.557678 
	C726.470825,652.579590 732.542358,642.979736 738.601685,633.315613 
	C742.078735,627.769958 745.134705,621.503296 742.688660,614.995422 
	C739.016663,605.225830 720.816162,602.553528 714.001221,610.573608 
	C708.194885,617.406677 703.571655,624.957764 700.831909,633.707703 
	C698.096619,642.443542 694.399719,650.873474 691.343506,659.515076 
	C688.721375,666.929504 686.430969,674.460876 683.925964,681.917725 
	C683.666260,682.690857 683.009216,683.369812 682.425781,683.987976 
	C680.132751,686.417542 676.908264,688.412903 675.639282,691.281555 
	C671.690918,700.207275 668.772278,709.590027 664.788757,718.497864 
	C663.679626,720.978027 664.606812,725.863586 659.430115,725.747314 
	C656.444458,715.441956 653.484924,705.300476 650.573120,695.145264 
	C649.119019,690.073669 647.817566,684.957886 646.331055,679.896179 
	C643.943420,671.765747 641.462585,663.662598 639.015381,655.549683 
	C637.259521,649.729065 635.527771,643.901001 633.723206,638.095520 
	C632.209351,633.225464 629.432373,628.404480 629.344604,623.523438 
	C629.239746,617.690613 626.164307,614.518799 622.515625,611.318481 
	C617.937866,607.303284 610.151001,606.734192 604.537964,610.039978 
M432.741638,267.169220 
	C435.391235,262.148834 438.654663,257.558380 440.771332,252.120255 
	C443.300903,245.621201 443.108734,239.245117 442.420807,232.807343 
	C441.925964,228.176376 440.308380,223.628723 438.877045,219.144287 
	C437.305786,214.221451 435.355225,209.420441 433.604553,204.553909 
	C432.073639,200.298340 427.721924,200.619293 424.617737,198.888992 
	C418.207031,195.315582 411.855194,191.632736 405.550262,187.875549 
	C403.521423,186.666534 402.317047,184.686798 399.566010,187.649933 
	C397.030304,190.381149 397.019836,191.997711 398.960693,194.760834 
	C400.762756,197.326340 402.836884,200.148895 403.317047,203.098267 
	C404.218506,208.635284 405.543854,214.841995 403.878662,219.830841 
	C402.477264,224.029495 401.024689,227.926743 401.039246,232.362061 
	C401.042938,233.494980 400.914612,234.702286 400.517242,235.750412 
	C398.209229,241.837982 394.867737,247.706299 393.644531,253.992920 
	C391.717621,263.895996 384.618713,270.471161 379.673309,278.378845 
	C378.121521,280.860138 373.822449,281.450745 371.276031,283.517029 
	C365.243439,288.412140 358.881012,291.664337 350.769196,291.039185 
	C345.143768,290.605591 339.455902,290.944611 333.796692,291.009369 
	C331.981354,291.030121 330.168610,291.277618 327.798065,291.465485 
	C334.666656,296.597900 340.086395,302.734436 348.920044,301.312164 
	C349.402618,301.234467 349.972778,302.166046 350.579376,302.316559 
	C354.177094,303.209045 357.914459,305.026093 361.385895,304.627136 
	C368.366608,303.824921 375.215210,301.835236 382.095154,300.235840 
	C383.135590,299.993988 384.037903,299.189117 385.026978,298.689941 
	C391.538055,295.403900 399.163391,293.310394 404.261932,288.523621 
	C409.453552,283.649536 415.594666,281.308716 421.174194,277.633209 
	C425.246674,274.950409 430.637939,273.322754 432.741638,267.169220 
z"/>
<path fill="#FEFEFE" opacity="1.000000" stroke="none" 
	d="
M884.030579,956.939819 
	C884.024658,956.526123 884.018799,956.112366 884.068298,954.923706 
	C884.085999,949.200745 884.230835,944.239685 883.877625,939.314270 
	C883.793213,938.136658 882.048950,937.078064 881.068115,935.964722 
	C879.860535,933.270203 878.372742,930.662781 877.502625,927.863342 
	C875.588501,921.705200 879.177124,916.504517 886.596741,915.171387 
	C892.077393,914.186646 897.689453,913.897095 903.254272,913.432861 
	C906.069336,913.198059 909.017029,913.702759 911.702698,913.046387 
	C913.716309,912.554138 915.334229,910.609985 917.257080,909.544556 
	C921.346741,907.278259 925.472839,903.458801 929.669250,903.342224 
	C938.309875,903.102051 946.176208,899.873474 952.012329,895.176392 
	C959.986816,888.758362 968.945557,883.896973 976.742432,877.426147 
	C982.908020,872.309143 988.099609,866.041321 995.714600,862.720581 
	C997.083862,862.123413 997.751465,859.979431 998.818298,858.608215 
	C999.763794,857.392761 1000.734863,856.177673 1001.834534,855.105957 
	C1004.031982,852.964294 1006.529358,851.097656 1008.525452,848.790771 
	C1010.843506,846.111694 1012.889526,843.167786 1014.812317,840.183411 
	C1017.317627,836.294617 1019.522156,832.213379 1021.972107,828.287354 
	C1025.105347,823.266174 1028.211304,818.217651 1031.591797,813.363770 
	C1035.249512,808.111694 1039.642456,803.330322 1042.924561,797.868835 
	C1046.692993,791.597717 1049.779907,784.890015 1052.819214,778.215393 
	C1055.722656,771.839355 1058.184326,765.262146 1061.291504,758.344421 
	C1065.828247,751.562439 1069.782837,745.169617 1068.082275,737.057861 
	C1069.999268,732.539734 1071.211548,727.504761 1074.036865,723.652893 
	C1076.711182,720.006714 1077.288574,716.446472 1077.233643,712.371399 
	C1077.226929,711.873535 1077.088379,711.260803 1077.318359,710.893921 
	C1080.718994,705.469666 1080.929077,699.194519 1082.893799,693.084717 
	C1086.204956,691.983459 1088.981079,691.257568 1088.970581,687.678955 
	C1088.954712,682.216125 1089.163818,676.743896 1088.866821,671.298035 
	C1088.805420,670.173096 1086.945312,669.146301 1085.920654,668.097351 
	C1085.927246,668.120361 1085.879761,668.126099 1085.922607,667.753052 
	C1084.985718,666.914307 1084.005737,666.448547 1083.025879,665.982788 
	C1083.025879,665.982788 1082.998169,665.996765 1083.063232,665.522217 
	C1083.093872,661.604614 1083.242554,658.144714 1082.929932,654.727112 
	C1082.813110,653.448853 1081.621582,652.268921 1080.919922,651.044189 
	C1076.689575,646.237000 1077.068604,640.440918 1077.223999,634.380493 
	C1084.765503,632.977173 1091.823853,634.094238 1098.991577,636.246521 
	C1106.747437,638.575439 1112.883789,635.804321 1117.044678,629.061340 
	C1117.201294,628.807434 1116.999512,628.211365 1117.170654,628.104797 
	C1123.063965,624.430359 1128.579712,619.525513 1135.002930,617.491028 
	C1142.319214,615.173828 1150.431274,615.063354 1158.230591,614.694946 
	C1162.665039,614.485535 1162.972046,611.079529 1165.324951,608.373474 
	C1166.943237,607.273071 1168.861450,606.363647 1168.798462,605.622131 
	C1168.364258,600.498413 1170.608154,596.963379 1174.154053,593.514832 
	C1175.848511,591.867004 1175.906982,588.651428 1177.188965,586.423584 
	C1177.998169,585.017029 1179.699097,584.123596 1181.000000,583.000000 
	C1181.000000,805.638367 1181.000000,1028.276733 1181.000000,1250.957520 
	C787.745056,1250.957520 394.490112,1250.957520 1.117585,1250.957520 
	C1.117585,834.333374 1.117585,417.666687 1.111641,1.000005 
	C111.424690,1.000000 221.743683,1.000000 332.492737,1.412733 
	C331.268707,2.216759 329.620117,2.916364 327.959625,2.945807 
	C320.889069,3.071182 313.814758,3.028138 306.742310,2.979857 
	C304.548553,2.964881 302.698730,3.151525 303.038940,6.072803 
	C299.632935,8.841504 295.869598,10.201408 291.357941,9.812289 
	C283.276428,9.115283 275.550201,10.562165 267.862244,13.340382 
	C261.868469,15.506385 255.240585,15.908140 249.230484,18.040789 
	C241.495911,20.785355 233.233170,21.817240 226.052216,26.650358 
	C221.939926,29.418121 216.201584,29.769957 210.668060,31.666458 
	C205.078400,35.716957 199.796432,39.045330 195.028122,42.993980 
	C191.653336,45.788631 188.969788,49.419090 185.984406,52.682613 
	C181.696152,57.370411 176.059387,61.082237 174.925064,68.065056 
	C174.841766,68.577827 174.182693,69.259331 173.665726,69.399651 
	C167.007126,71.206947 163.991669,77.385185 159.206589,81.423508 
	C157.777878,82.629272 156.640991,84.247665 155.597046,85.826836 
	C154.020294,88.211983 152.850632,90.887878 151.123276,93.145943 
	C149.275131,95.561897 146.981033,97.636696 144.528336,99.938202 
	C141.417084,103.825562 138.689240,107.657471 135.889465,111.436089 
	C134.268005,113.624458 132.243088,115.561783 130.900314,117.899590 
	C127.075134,124.559319 124.136269,131.828522 119.632729,137.965622 
	C116.190155,142.656906 113.086716,147.003250 112.969643,152.954895 
	C111.621330,156.972092 110.569748,161.120636 108.862175,164.978821 
	C105.436798,172.718307 101.632942,180.289764 98.037094,187.954880 
	C97.441422,189.224670 96.837784,190.590240 96.699409,191.958252 
	C96.008659,198.787170 93.614487,204.937576 89.782082,210.589661 
	C89.336258,211.247162 88.950737,212.184616 89.042007,212.930527 
	C90.042259,221.105759 83.242615,226.933670 82.407272,234.178879 
	C81.545921,241.649551 74.645279,245.716644 73.877464,252.981735 
	C73.727211,254.403473 70.166428,256.435883 68.127686,256.497406 
	C62.868687,256.656097 60.404030,258.937408 57.955551,263.628754 
	C53.422050,272.315063 47.553284,280.304260 42.246807,288.587769 
	C41.827877,289.241760 41.150940,289.908112 41.109436,290.599670 
	C40.438435,301.779663 35.304840,312.457794 37.376114,323.943970 
	C38.707714,331.328278 39.550468,338.839630 41.503201,346.052856 
	C42.227066,348.726715 45.450237,350.754639 47.611900,353.001801 
	C51.282410,356.817566 55.014988,360.573608 58.806732,365.083954 
	C59.947807,369.523682 61.608440,373.183746 61.923065,376.956085 
	C62.444527,383.208405 61.729015,389.563324 62.240959,395.817169 
	C62.628563,400.552155 64.116577,405.197052 65.042473,410.351257 
	C64.953293,415.525970 64.936531,420.231506 64.570900,425.057526 
	C63.852798,426.010406 63.048901,426.923615 63.186169,427.661774 
	C63.970490,431.879425 64.978760,436.055389 65.982773,440.568268 
	C68.453903,441.332642 71.323158,442.220154 74.192413,443.107635 
	C74.298660,443.500153 74.404907,443.892700 74.037842,444.617340 
	C71.171486,444.835846 69.872391,445.608704 70.023598,448.374084 
	C70.232391,452.192352 70.328362,456.051086 70.010826,459.853882 
	C69.717827,463.362885 71.384308,464.238007 74.347923,464.101166 
	C74.416626,464.502991 74.485329,464.904846 74.080605,465.635742 
	C72.462273,466.732758 71.317375,467.500671 70.172470,468.268585 
	C71.662849,468.867767 73.153244,469.466949 74.643631,470.066132 
	C74.730537,470.503723 74.817451,470.941345 74.615128,471.924255 
	C74.501152,473.634613 74.676407,474.799622 74.851669,475.964661 
	C74.899345,476.429474 74.947029,476.894287 74.651093,477.940063 
	C74.313927,479.494873 73.966179,480.666901 74.382652,481.411346 
	C77.813309,487.543640 79.419769,494.040466 79.123863,501.087006 
	C79.068817,502.397858 80.272675,503.720093 80.689888,505.099304 
	C82.645462,511.564148 84.540672,518.047424 86.410774,524.537537 
	C86.526245,524.938293 86.097565,525.476990 86.166222,525.913025 
	C86.739998,529.557129 87.042305,533.286621 88.055779,536.809387 
	C89.946030,543.379700 92.837799,549.705933 94.243645,556.359680 
	C95.823936,563.838989 96.220200,571.568359 97.141380,579.187744 
	C97.180405,579.510498 97.230331,579.894409 97.423279,580.126953 
	C101.732964,585.321045 100.678993,591.553040 101.181870,597.592224 
	C101.422737,600.484924 103.595177,603.216797 104.892807,606.021545 
	C104.429405,609.859863 106.790169,612.324585 109.057053,614.914795 
	C109.855576,615.827148 110.922096,617.807190 110.573936,618.226318 
	C105.068764,624.853516 110.489067,630.082336 112.413506,635.883850 
	C114.617935,642.529419 116.174675,649.389771 118.034966,656.991089 
	C120.775711,663.865723 122.611801,670.375732 124.467735,676.559448 
	C126.322067,682.737732 131.282700,686.299744 133.249069,691.899231 
	C133.463791,692.510620 134.941742,692.678406 135.833771,693.051941 
	C139.092651,697.679016 142.590530,702.161194 145.517609,706.989441 
	C147.180054,709.731628 147.871353,713.054932 149.070343,716.088684 
	C149.819916,717.985229 150.300720,720.183228 151.587921,721.639954 
	C159.151031,730.199097 162.702820,740.827576 167.330551,750.932434 
	C168.240021,752.918396 170.861572,754.046448 172.249817,755.902100 
	C175.219803,759.872192 177.917816,764.047180 180.692093,768.161865 
	C182.584351,770.968506 184.560471,773.733032 186.241547,776.664062 
	C188.516205,780.630066 190.357178,784.850708 192.723450,788.756653 
	C195.915070,794.024902 199.561905,799.017090 202.761307,804.280945 
	C205.106689,808.139771 206.883224,812.343140 209.209290,816.215149 
	C212.048004,820.940491 214.708252,825.923523 218.371521,829.953613 
	C221.113419,832.970032 225.437469,834.495239 228.834457,836.987732 
	C231.139053,838.678772 233.211197,840.759399 235.116089,842.906494 
	C238.509460,846.731506 241.823273,850.641785 244.943481,854.691284 
	C250.397949,861.770325 254.852982,869.884583 261.326843,875.819824 
	C265.627960,879.763123 267.049591,887.007690 274.343658,887.908813 
	C275.791229,888.087646 277.108032,890.270996 278.258240,891.711182 
	C280.535706,894.563049 282.119598,898.298889 284.955811,900.302490 
	C290.118164,903.949158 291.441589,910.149841 295.463989,914.236694 
	C300.758209,919.615662 306.989655,924.069763 312.792175,928.952271 
	C314.268494,930.194397 315.615662,931.589233 317.080200,932.846252 
	C318.356018,933.941284 319.569000,935.265137 321.058746,935.929688 
	C330.165466,939.991699 338.448975,944.831421 345.336670,952.520935 
	C349.007843,956.619324 355.530579,958.040588 360.436340,961.184875 
	C367.730408,965.860046 376.347504,966.824402 383.984924,970.197754 
	C390.921173,973.261292 396.442108,980.572083 403.460632,982.167786 
	C414.626404,984.706299 423.061371,992.390808 433.746582,995.251343 
	C434.376984,995.420105 435.044250,995.521057 435.696014,995.529602 
	C445.650269,995.660278 455.168976,997.665833 464.292023,1001.735596 
	C465.859650,1002.434814 467.907379,1002.186401 469.730255,1002.160583 
	C474.801758,1002.088745 479.727936,1001.939514 484.177307,1005.380554 
	C485.610046,1006.488586 488.356384,1006.030212 490.504547,1006.055725 
	C496.502380,1006.127136 502.504822,1006.192505 508.499115,1006.028564 
	C511.804047,1005.938232 513.433350,1006.886719 513.284241,1010.526672 
	C513.072998,1015.682495 513.716736,1020.904541 513.163269,1026.008057 
	C512.227905,1034.632690 511.807861,1043.588745 509.026062,1051.666748 
	C505.708801,1061.299805 507.653809,1070.846558 507.000122,1080.367188 
	C506.112122,1093.300781 507.002014,1106.348145 506.711975,1119.337402 
	C506.646912,1122.251709 504.853729,1125.127197 503.643860,1128.636230 
	C503.924591,1128.956787 505.189240,1129.936157 505.798798,1131.225342 
	C506.421204,1132.541626 506.930115,1134.352905 506.485748,1135.586060 
	C506.158264,1136.494995 504.176880,1137.395508 503.003204,1137.311401 
	C497.439972,1136.913330 492.121521,1137.509521 487.197540,1132.450073 
	C483.309082,1128.454712 476.485352,1127.379639 471.069305,1124.789795 
	C465.297211,1122.029785 460.031982,1117.825928 453.014160,1118.983887 
	C439.089874,1111.758911 424.130585,1116.290527 409.667786,1115.295776 
	C401.537506,1114.736694 389.409149,1123.275757 386.530396,1130.979858 
	C385.933228,1132.577759 386.297821,1134.921387 387.027283,1136.562012 
	C390.243378,1143.795532 393.499817,1151.036133 397.270447,1157.987305 
	C399.078583,1161.320557 402.777161,1163.677612 404.379608,1167.063721 
	C409.214874,1177.280884 418.397278,1183.544434 425.955811,1191.131104 
	C431.853271,1197.050659 439.624237,1201.107788 446.584290,1205.961426 
	C448.105011,1207.021973 449.674530,1208.028198 451.294556,1208.928101 
	C459.564270,1213.522461 467.786163,1218.210938 476.166779,1222.595215 
	C482.566986,1225.943604 489.184998,1228.874634 495.694641,1232.015015 
	C502.935394,1235.508179 510.160278,1239.034180 517.403564,1242.521973 
	C517.838257,1242.731201 518.370667,1242.788086 518.863647,1242.818237 
	C531.844116,1243.612793 544.820374,1244.534668 557.812927,1244.995361 
	C559.382935,1245.051025 561.975769,1242.902832 562.505127,1241.262939 
	C565.554565,1231.816650 568.208923,1222.238647 570.817261,1212.656250 
	C571.852844,1208.851562 572.426941,1204.921265 573.444824,1200.486816 
	C574.268860,1198.856079 574.859131,1197.786621 575.449402,1196.717285 
	C575.449402,1196.717285 575.582947,1196.593262 575.876465,1196.387695 
	C576.738770,1195.762207 577.307495,1195.342163 578.302856,1194.955933 
	C579.487366,1193.814941 580.888672,1192.647461 580.902100,1191.464233 
	C581.018799,1181.217529 580.885986,1170.968140 580.827515,1160.719482 
	C581.520203,1153.886597 582.148193,1147.046021 582.951904,1140.226318 
	C583.149109,1138.552734 583.987854,1136.964355 584.413391,1135.306396 
	C585.245361,1132.065186 586.157715,1128.831421 586.739197,1125.541992 
	C587.659241,1120.337646 588.286499,1115.082275 589.123474,1109.862183 
	C590.859192,1099.036377 592.600708,1088.459106 587.580505,1077.664551 
	C585.840698,1073.923584 587.516724,1068.442627 588.110107,1063.817627 
	C588.556885,1060.335938 590.378723,1056.976074 590.515320,1053.519531 
	C590.870300,1044.538940 590.812622,1035.529541 590.536438,1026.543335 
	C590.439270,1023.380981 589.240234,1020.250244 588.523743,1017.109680 
	C587.732483,1013.641968 586.917786,1010.179504 585.963013,1006.067627 
	C603.855652,1006.067627 620.319946,1006.237366 636.775391,1005.931763 
	C640.283569,1005.866699 643.763672,1004.086975 647.246643,1003.062744 
	C647.815918,1002.895325 648.365295,1002.267822 648.868713,1002.326416 
	C660.746399,1003.709961 671.454895,997.043884 683.561829,997.781372 
	C690.222290,998.187134 697.204224,993.429749 704.029541,990.967834 
	C707.532898,989.704102 710.921204,987.995239 714.516479,987.135986 
	C725.566467,984.495056 735.672607,979.694824 745.403870,974.052063 
	C752.015869,970.218079 758.330994,965.872314 764.940491,962.033752 
	C767.248962,960.693115 770.035095,959.461670 772.613281,959.440857 
	C778.793274,959.390991 782.849609,955.226501 787.767822,952.715698 
	C788.671936,952.254028 790.158142,951.777588 790.820862,952.193054 
	C794.148376,954.278748 796.313416,956.929932 796.787537,961.327393 
	C797.557678,968.469177 799.441833,975.483459 800.541199,982.600220 
	C801.070129,986.024170 800.880859,989.559021 800.940735,993.915283 
	C801.372375,996.630676 801.328308,998.995422 802.487915,1000.223938 
	C806.457764,1004.429749 804.662415,1009.014709 804.689880,1013.974121 
	C799.039246,1013.974121 794.023193,1013.974121 789.007080,1013.974121 
	C788.557800,1013.951538 788.108521,1013.928955 787.359741,1013.335815 
	C785.987488,1011.855652 785.015015,1010.364685 783.820923,1010.158752 
	C781.402954,1009.741882 778.838196,1010.252930 776.381653,1009.968933 
	C770.104492,1009.243347 763.872803,1008.093628 757.586914,1007.484863 
	C751.109985,1006.857605 744.311340,1005.347351 738.165283,1006.645996 
	C731.516907,1008.050720 725.154785,1010.671509 718.170166,1009.993835 
	C713.723572,1009.562439 711.626831,1011.845032 710.972961,1015.938904 
	C710.910522,1016.093384 710.893616,1016.311768 710.779236,1016.393188 
	C701.254578,1023.175293 703.723633,1033.581909 705.517334,1041.796265 
	C707.346497,1050.172852 711.130188,1059.243042 722.106567,1062.089600 
	C726.772583,1063.299683 730.580994,1067.943726 734.686157,1071.146362 
	C737.555115,1073.384644 740.107483,1076.054688 743.087341,1078.118652 
	C746.941772,1080.788452 751.059753,1083.083130 755.105164,1085.469849 
	C757.848328,1087.088135 760.692078,1088.536499 763.422546,1090.174805 
	C764.107605,1090.585815 764.500488,1091.462402 765.077271,1092.078613 
	C769.372253,1096.667725 774.735718,1099.283569 780.640991,1101.330078 
	C785.620056,1103.055664 790.262451,1105.768921 795.019592,1108.114502 
	C800.644531,1110.887939 806.206421,1113.791016 811.861755,1116.499878 
	C812.843750,1116.970215 814.177673,1116.641724 815.306152,1116.883057 
	C818.227783,1117.508057 821.113586,1118.301025 824.036011,1118.921875 
	C827.041870,1119.560425 830.103210,1119.952637 833.089111,1120.666870 
	C841.173340,1122.600830 849.183472,1124.876465 857.318726,1126.551392 
	C861.179626,1127.346436 865.283936,1127.457397 869.232483,1127.194946 
	C873.538940,1126.908569 877.054443,1128.197021 880.638733,1131.318115 
	C881.866638,1132.591553 882.749268,1133.887817 883.659607,1133.907471 
	C891.148376,1134.070312 898.645813,1134.104736 906.130493,1133.863281 
	C907.121948,1133.831299 908.056274,1132.031128 909.017090,1131.049805 
	C911.036682,1127.668213 914.263855,1124.477051 914.832947,1120.866943 
	C916.153870,1112.487427 916.326904,1103.910645 916.659424,1095.401978 
	C916.749634,1093.094116 915.736877,1090.746216 915.253418,1088.411987 
	C914.451172,1084.538696 913.814392,1080.624023 912.833191,1076.797119 
	C911.935364,1073.295410 910.673828,1069.886841 909.383179,1065.747803 
	C909.164612,1061.145386 909.316833,1057.218384 909.015869,1053.326416 
	C908.897095,1051.789795 907.768616,1050.331055 907.099915,1048.836914 
	C906.458435,1046.669189 905.099792,1044.430908 905.304871,1042.346436 
	C906.030945,1034.968994 901.968018,1029.277222 899.535095,1022.929260 
	C898.005310,1018.937622 898.419861,1014.242798 897.275085,1010.051086 
	C895.806824,1004.674744 893.648376,999.486755 891.496643,993.624268 
	C891.055908,987.056335 891.962219,980.795837 890.445496,975.191040 
	C889.052063,970.042175 886.764160,965.230042 886.939453,959.677734 
	C886.967285,958.796570 885.049072,957.854004 884.030579,956.939819 
z"/>
<path fill="#FEFEFE" opacity="1.000000" stroke="none" 
	d="
M575.851440,369.105347 
	C574.998291,368.410736 573.606323,367.860657 573.375183,366.999176 
	C571.045776,358.315063 568.925354,349.575104 566.707825,340.860596 
	C564.873108,333.650909 563.698914,326.166168 560.932800,319.328949 
	C557.858521,311.729828 553.804260,304.624634 555.018738,295.978088 
	C555.173401,294.877014 554.138977,293.647125 553.818115,292.433899 
	C552.925354,289.058014 552.102783,285.663269 551.280273,282.269196 
	C549.219666,273.765778 547.093994,265.276703 545.177185,256.740814 
	C544.674744,254.503265 545.108704,252.059738 544.639038,249.809647 
	C543.802246,245.800751 542.590515,241.870804 541.566895,237.899796 
	C541.286438,236.811813 540.933044,235.695892 540.928955,234.591614 
	C540.911865,230.012100 541.108826,225.475479 537.573425,221.729065 
	C536.848938,220.961334 537.296570,219.164886 537.017761,217.883118 
	C536.442322,215.238098 535.666687,212.636063 535.110962,209.987503 
	C534.393677,206.568924 533.295898,203.121445 533.300293,199.687592 
	C533.305847,195.343872 532.404968,191.675705 529.114502,188.015198 
	C528.006470,185.293289 526.954285,183.265182 526.122986,180.897217 
	C526.897522,176.978821 527.796814,173.413132 527.930664,169.818970 
	C528.184021,163.015533 528.001465,163.008728 521.077148,162.995316 
	C518.309998,157.454895 514.229126,152.447220 514.834106,145.598740 
	C514.983337,143.910233 513.769958,142.088531 513.134155,140.345856 
	C511.189758,135.016739 509.619324,129.505264 507.174713,124.414673 
	C502.903351,115.520035 501.779999,105.120087 494.322021,97.705681 
	C492.966034,96.357635 492.788940,93.894623 491.602570,92.290237 
	C489.204498,89.047333 486.043335,86.305176 483.999268,82.877960 
	C480.363373,76.781830 475.474030,72.364586 469.389923,68.826111 
	C467.490814,67.721611 466.756989,64.736084 465.265625,62.782730 
	C461.974304,58.471756 458.732147,54.097507 455.114929,50.067741 
	C450.846619,45.312561 446.718414,40.178291 441.602417,36.496635 
	C433.913177,30.963215 426.800476,24.568954 417.708130,20.910448 
	C407.350220,16.742727 397.431396,11.483862 387.104919,5.988215 
	C385.691315,4.528217 384.545532,3.256503 383.287567,3.133615 
	C380.187653,2.830791 377.036224,3.055573 373.905487,3.068228 
	C373.289215,2.578713 372.672943,2.089194 372.028320,1.299837 
	C641.578979,1.000000 911.157959,1.000000 1181.000000,1.000000 
	C1181.000000,179.354141 1181.000000,357.708405 1180.632080,536.492554 
	C1179.136353,533.646484 1178.071289,530.347168 1176.859497,527.102600 
	C1176.015869,524.844299 1175.583008,521.815491 1173.903442,520.600525 
	C1168.534302,516.716370 1162.804565,513.265808 1156.959106,510.122131 
	C1150.675537,506.742889 1144.265381,503.461334 1137.593140,500.996368 
	C1133.911377,499.636169 1129.578491,500.039001 1125.083618,499.602875 
	C1125.083618,497.567627 1125.089600,495.781128 1125.082520,493.994690 
	C1125.050903,486.030212 1124.969116,478.065491 1125.006836,470.101349 
	C1125.020142,467.298523 1124.223389,465.554840 1121.028076,465.989502 
	C1120.465332,464.018799 1119.340698,462.015656 1119.452271,460.083832 
	C1119.714355,455.538910 1117.667603,452.375397 1114.637329,449.390747 
	C1110.799316,445.610565 1106.712646,441.959167 1103.541504,437.656494 
	C1099.424194,432.070068 1093.224365,431.345123 1087.496826,430.105499 
	C1082.730225,429.073822 1077.336060,428.967407 1072.634399,430.129150 
	C1067.223999,431.466003 1061.490967,431.815063 1057.707520,438.409363 
	C1053.266235,446.150024 1047.245483,454.348358 1038.479492,457.267212 
	C1032.634033,459.213593 1029.373657,463.767365 1024.340576,466.008118 
	C1022.277893,466.926422 1019.727478,466.748810 1017.220032,466.481750 
	C1020.659180,460.781250 1025.946045,456.631165 1025.181030,449.433289 
	C1025.081909,448.500610 1026.437012,447.462952 1026.982300,446.403778 
	C1029.410645,441.687103 1031.789429,436.944885 1034.949341,432.047668 
	C1038.494751,432.232147 1039.013428,430.606537 1038.994263,428.300140 
	C1038.949219,422.876678 1039.003418,417.452393 1039.017456,412.028442 
	C1039.712158,408.973938 1040.486816,405.934875 1041.081299,402.860992 
	C1041.802002,399.133636 1042.463013,395.389221 1042.964478,391.627502 
	C1043.199219,389.865906 1043.384521,387.937622 1042.916138,386.275330 
	C1041.897705,382.661194 1042.594238,379.573029 1045.245239,376.201172 
	C1046.061157,374.534821 1046.733521,373.352539 1046.740112,372.166504 
	C1046.811523,359.366150 1047.638672,346.485443 1046.462891,333.793152 
	C1045.711304,325.680908 1041.856934,317.882904 1042.574585,309.355286 
	C1042.667236,308.253937 1041.350830,307.091797 1040.918823,305.875549 
	C1040.182129,303.801880 1039.256836,301.693420 1039.081055,299.544739 
	C1038.770264,295.745209 1039.011597,291.903229 1038.913574,288.081787 
	C1038.884888,286.960510 1038.828125,285.135590 1038.210815,284.843109 
	C1032.261719,282.024200 1033.303589,276.708160 1033.015991,271.711487 
	C1032.923950,270.112274 1031.687256,268.578918 1030.974365,267.015442 
	C1028.207886,261.656494 1024.849243,256.512512 1022.808105,250.890228 
	C1019.406799,241.521439 1011.829285,235.889526 1005.224304,229.330002 
	C1001.235168,225.368271 997.382996,221.198425 992.966187,217.770416 
	C991.059814,216.290833 987.872314,216.487167 985.283569,215.853485 
	C983.305054,215.369171 980.975159,215.277405 979.462341,214.135574 
	C975.435364,211.096313 970.280396,209.859039 966.517822,207.435349 
	C958.449463,202.238022 950.306824,203.762863 942.159485,203.731857 
	C938.522705,203.718033 933.687012,202.912781 931.201782,207.487488 
	C931.093140,207.687561 930.607788,207.670975 930.307007,207.780518 
	C922.570312,210.598053 914.821594,213.382950 907.104248,216.252594 
	C902.342834,218.023117 897.049316,225.881287 896.992737,231.202713 
	C896.937805,236.363480 897.222778,241.541412 896.883240,246.680405 
	C896.687134,249.648270 895.412537,252.529495 894.887146,255.496445 
	C894.541077,257.450989 894.619812,259.488190 894.595459,261.489441 
	C894.581421,262.646057 894.846130,263.808441 894.805847,264.961975 
	C894.270630,280.268005 893.778259,295.576385 893.072632,310.874817 
	C892.952026,313.489014 891.870789,316.055969 891.261169,318.651245 
	C890.603821,321.449615 889.494873,324.244110 889.427734,327.060394 
	C889.193787,336.878448 889.191345,346.707794 889.384949,356.527283 
	C889.460327,360.346924 888.740112,363.597595 885.563477,366.610046 
	C884.914368,367.395935 884.562012,367.778168 883.789795,368.153198 
	C882.606567,369.485870 881.159790,370.840424 881.188171,372.163330 
	C881.410095,382.513367 880.197083,392.502350 877.666138,402.662720 
	C876.469971,407.464447 878.146362,413.512451 876.831970,418.960175 
	C876.852417,420.027344 876.872803,421.094513 876.479980,422.554321 
	C875.189331,423.241638 874.311890,423.536255 873.434448,423.830902 
	C873.480713,424.081024 873.527039,424.331146 873.573364,424.581268 
	C874.632568,424.736694 875.691833,424.892120 876.750977,425.047546 
	C876.792603,425.778076 876.834229,426.508606 876.365601,427.587402 
	C872.838623,427.991241 872.744812,429.939636 873.062500,432.625916 
	C872.967285,436.352783 872.914978,439.635956 872.862671,442.919159 
	C870.839905,446.882568 868.704895,450.794098 866.839478,454.830231 
	C865.833252,457.007324 865.288391,459.397644 864.774231,460.964172 
	C859.800842,460.071838 855.233276,459.145752 850.630432,458.454071 
	C845.154541,457.631165 839.664124,456.783722 834.148499,456.400482 
	C831.567566,456.221161 828.918091,457.148438 826.289673,457.498932 
	C823.505615,457.870239 820.676453,458.596436 817.924988,458.390930 
	C809.156433,457.736084 801.704529,462.224640 793.644348,464.265686 
	C787.726379,465.764313 781.946655,467.868591 776.195190,469.951111 
	C766.569641,473.436401 755.854065,473.606323 747.072815,479.672668 
	C742.352600,482.933502 737.640137,486.257324 732.646973,489.058502 
	C725.774963,492.913696 718.155640,495.603119 711.738159,500.061127 
	C703.257080,505.952545 693.581909,510.772308 688.824036,521.030029 
	C687.863281,523.101196 684.963867,525.318420 682.741028,525.573303 
	C674.270630,526.544495 670.869751,532.669617 667.063660,538.921692 
	C665.729492,541.113220 662.999084,542.634155 660.598877,543.858887 
	C660.063477,544.132080 658.234741,541.870728 657.291748,540.238953 
	C657.148987,538.304443 657.011414,536.703613 656.218994,535.554138 
	C654.754883,533.430176 651.959290,531.810120 651.390015,529.557678 
	C649.380615,521.606201 645.188782,515.069336 640.011047,508.945831 
	C638.810547,507.526093 637.143250,505.499969 637.387207,504.035431 
	C638.379028,498.079773 633.603210,494.471771 632.126709,489.574371 
	C631.320251,486.899445 629.152466,485.471527 626.135071,485.936188 
	C626.135071,485.936188 626.026062,485.474152 626.367188,485.215210 
	C627.094177,484.344543 627.957947,483.487823 627.789917,483.160065 
	C626.522949,480.688599 625.065979,478.313477 623.644104,475.922668 
	C620.062256,469.900085 616.036438,464.094940 612.980957,457.816986 
	C608.597717,448.811157 604.988647,439.431366 600.906006,430.275055 
	C599.144043,426.323212 596.971680,422.556458 595.079224,418.660248 
	C591.888916,412.091888 589.082703,405.667694 588.109741,398.036194 
	C586.882507,388.409943 582.974609,379.125397 580.150513,369.444244 
	C578.779846,369.336212 577.315613,369.220795 575.851440,369.105347 
z"/>
<path fill="#C4C4C4" opacity="1.000000" stroke="none" 
	d="
M1120.969971,466.389648 
	C1124.223389,465.554840 1125.020142,467.298523 1125.006836,470.101349 
	C1124.969116,478.065491 1125.050903,486.030212 1125.082520,493.994690 
	C1125.089600,495.781128 1125.083618,497.567627 1125.083618,499.602875 
	C1129.578491,500.039001 1133.911377,499.636169 1137.593140,500.996368 
	C1144.265381,503.461334 1150.675537,506.742889 1156.959106,510.122131 
	C1162.804565,513.265808 1168.534302,516.716370 1173.903442,520.600525 
	C1175.583008,521.815491 1176.015869,524.844299 1176.859497,527.102600 
	C1178.071289,530.347168 1179.136353,533.646484 1180.632080,536.961182 
	C1181.000000,542.688049 1181.000000,548.376038 1181.000000,554.532043 
	C1179.982178,552.279846 1178.651855,549.631165 1178.010132,546.825073 
	C1176.594971,540.635315 1175.485229,534.373901 1174.333618,528.126465 
	C1173.692139,524.646118 1171.796753,522.721436 1168.612915,520.862732 
	C1161.343262,516.618835 1154.532104,511.573242 1147.640137,506.704132 
	C1142.854736,503.323334 1137.484741,503.356812 1132.024170,503.428101 
	C1123.497559,503.539429 1122.992798,503.009308 1122.995361,494.626404 
	C1122.997070,489.139557 1123.245483,483.636658 1122.901123,478.171356 
	C1122.660400,474.350891 1121.604004,470.581818 1120.969971,466.389648 
z"/>
<path fill="#D6D6D6" opacity="1.000000" stroke="none" 
	d="
M1181.000000,582.531433 
	C1179.699097,584.123596 1177.998169,585.017029 1177.188965,586.423584 
	C1175.906982,588.651428 1175.848511,591.867004 1174.154053,593.514832 
	C1170.608154,596.963379 1168.364258,600.498413 1168.798462,605.622131 
	C1168.861450,606.363647 1166.943237,607.273071 1165.534424,608.067505 
	C1165.803833,605.142822 1166.418213,602.238586 1167.189453,599.376648 
	C1167.476440,598.311279 1167.940063,597.180786 1168.647339,596.358826 
	C1175.449463,588.452759 1179.065063,579.540405 1178.334473,568.899841 
	C1178.161377,566.377930 1179.580566,563.746704 1180.633667,561.082886 
	C1181.000000,568.020935 1181.000000,575.041931 1181.000000,582.531433 
z"/>
<path fill="#B4B4B4" opacity="1.000000" stroke="none" 
	d="
M303.498413,6.160649 
	C302.698730,3.151525 304.548553,2.964881 306.742310,2.979857 
	C313.814758,3.028138 320.889069,3.071182 327.959625,2.945807 
	C329.620117,2.916364 331.268707,2.216759 332.961395,1.412733 
	C334.066681,1.000000 335.133331,1.000000 336.615112,1.322129 
	C337.000732,2.072756 336.971252,2.501255 336.941742,2.929753 
	C333.365997,7.103564 328.491425,6.010119 323.934814,6.085011 
	C317.276733,6.194443 310.616943,6.199150 303.498413,6.160649 
z"/>
<path fill="#5E5E5E" opacity="1.000000" stroke="none" 
	d="
M337.411285,2.987834 
	C336.971252,2.501255 337.000732,2.072756 337.015137,1.322129 
	C347.687561,1.000000 358.375122,1.000000 369.531342,0.999996 
	C368.873169,1.679636 367.755890,2.930108 366.618042,2.949115 
	C357.041107,3.109082 347.460388,3.043587 337.411285,2.987834 
z"/>
<path fill="#F9FBFB" opacity="1.000000" stroke="none" 
	d="
M575.011414,688.272034 
	C574.371887,704.138733 571.613525,719.997009 574.842651,736.781555 
	C574.944519,740.736633 575.023987,743.789368 575.031860,747.309204 
	C575.030579,751.808289 575.100891,755.840149 575.108154,760.328918 
	C575.333130,763.975769 575.621155,767.165771 575.909241,770.355774 
	C572.335266,776.779602 567.367249,780.489258 559.516785,780.102539 
	C553.067078,779.784790 545.229614,773.522400 545.063416,765.774963 
	C544.856567,756.131958 544.474182,746.491699 544.358948,736.848022 
	C544.234497,726.430420 544.330872,716.010193 544.330872,704.414917 
	C539.355957,705.244934 535.585205,705.893066 531.806824,706.492920 
	C530.661499,706.674805 529.493225,706.706604 528.338562,706.835510 
	C518.895142,707.889160 508.988647,707.520569 500.134888,710.394165 
	C490.524170,713.513550 480.931061,714.145691 471.187042,715.301697 
	C465.269196,716.003784 459.511780,718.058533 453.446472,719.564209 
	C453.351929,721.393860 453.259521,723.195679 453.165649,724.997314 
	C452.427673,739.159546 451.563629,753.316772 450.995544,767.485840 
	C450.616364,776.943665 439.523071,782.545288 430.789734,779.274780 
	C428.763855,778.516174 426.627045,777.877991 424.822784,776.738708 
	C420.585938,774.063232 418.708771,770.078064 419.062225,765.029541 
	C420.171173,749.191589 421.449310,733.361633 422.261719,717.508118 
	C422.857330,705.885193 422.893188,694.230957 423.051758,682.588928 
	C423.237671,668.939026 423.201111,655.285828 423.426941,641.636841 
	C423.558044,633.711853 423.982086,625.790771 424.337219,617.870789 
	C424.553040,613.057495 431.760895,605.190979 436.811310,604.135925 
	C444.676697,602.492981 452.121277,606.075806 455.788757,613.997925 
	C455.856964,621.530762 455.932709,628.338684 456.008484,635.146606 
	C456.011597,636.507874 456.014740,637.869141 455.881409,640.002686 
	C455.530853,644.902710 455.316742,649.030579 455.035034,653.612610 
	C454.982117,660.801880 454.996765,667.536987 455.011414,674.272034 
	C454.401123,678.562988 453.790802,682.853882 453.083954,687.823364 
	C458.751770,687.018311 463.935944,686.334595 469.100311,685.524902 
	C471.503265,685.148193 473.858887,684.479492 476.251556,684.025391 
	C482.872894,682.769104 489.491119,681.490295 496.132477,680.347656 
	C500.967377,679.515869 505.816620,678.665344 510.695587,678.213806 
	C520.139954,677.339722 529.600952,676.447388 539.073181,676.160278 
	C543.383850,676.029602 544.306519,674.210938 544.365417,670.543396 
	C544.554810,658.753845 544.525391,646.942200 545.299255,635.186401 
	C545.933533,625.551147 549.238892,616.581970 555.300659,608.890259 
	C558.396301,604.962158 562.538757,603.322876 567.657349,604.004883 
	C574.729736,604.947205 582.296204,613.027893 581.185547,618.922546 
	C580.721436,621.385132 579.740356,623.750244 578.505920,626.582520 
	C577.033875,627.634766 575.201660,628.272461 575.207764,628.891907 
	C575.241272,632.272522 575.726929,635.648621 576.028687,639.438354 
	C576.054504,641.216675 576.108704,642.583069 576.162842,643.949402 
	C576.114685,646.005859 576.066528,648.062256 576.012329,650.972839 
	C576.001404,656.959167 575.996521,662.091309 575.991699,667.223511 
	C575.992920,668.531982 575.994141,669.840393 575.896362,671.933716 
	C575.535339,677.903076 575.273376,683.087585 575.011414,688.272034 
z"/>
<path fill="#F9FBFA" opacity="1.000000" stroke="none" 
	d="
M604.910156,609.895630 
	C610.151001,606.734192 617.937866,607.303284 622.515625,611.318481 
	C626.164307,614.518799 629.239746,617.690613 629.344604,623.523438 
	C629.432373,628.404480 632.209351,633.225464 633.723206,638.095520 
	C635.527771,643.901001 637.259521,649.729065 639.015381,655.549683 
	C641.462585,663.662598 643.943420,671.765747 646.331055,679.896179 
	C647.817566,684.957886 649.119019,690.073669 650.573120,695.145264 
	C653.484924,705.300476 656.444458,715.441956 659.430115,725.747314 
	C664.606812,725.863586 663.679626,720.978027 664.788757,718.497864 
	C668.772278,709.590027 671.690918,700.207275 675.639282,691.281555 
	C676.908264,688.412903 680.132751,686.417542 682.425781,683.987976 
	C683.009216,683.369812 683.666260,682.690857 683.925964,681.917725 
	C686.430969,674.460876 688.721375,666.929504 691.343506,659.515076 
	C694.399719,650.873474 698.096619,642.443542 700.831909,633.707703 
	C703.571655,624.957764 708.194885,617.406677 714.001221,610.573608 
	C720.816162,602.553528 739.016663,605.225830 742.688660,614.995422 
	C745.134705,621.503296 742.078735,627.769958 738.601685,633.315613 
	C732.542358,642.979736 726.470825,652.579590 722.923767,663.557678 
	C721.123413,669.129700 719.175171,674.703308 716.696350,679.996399 
	C711.752197,690.553650 708.958069,701.859802 704.760681,712.659424 
	C701.241455,721.714111 697.022217,730.494995 693.410767,739.516296 
	C690.970276,745.612732 689.090637,751.931763 686.878357,758.122009 
	C685.055420,763.222656 682.684814,767.713989 677.357849,770.388916 
	C675.360352,771.391968 674.435913,774.574158 673.075195,776.795288 
	C668.948853,783.530457 662.513184,785.338928 655.484192,783.727783 
	C648.875366,782.213013 644.696655,777.629089 642.842834,770.700256 
	C641.345642,765.104492 638.694580,759.824829 636.694885,754.353943 
	C634.731201,748.981812 633.032776,743.512207 631.037598,738.152466 
	C630.148254,735.763000 628.599304,733.617554 627.726135,731.223999 
	C624.761780,723.097900 621.719482,714.986511 619.164734,706.727905 
	C615.704712,695.542603 612.667236,684.226624 609.449707,672.966370 
	C607.242249,665.241272 605.044556,657.513428 602.828247,649.790894 
	C601.106018,643.789978 599.563538,637.727661 597.579224,631.814087 
	C594.701172,623.236572 597.154541,615.120728 604.910156,609.895630 
z"/>
<path fill="#F3F3F3" opacity="1.000000" stroke="none" 
	d="
M432.467621,267.435760 
	C430.637939,273.322754 425.246674,274.950409 421.174194,277.633209 
	C415.594666,281.308716 409.453552,283.649536 404.261932,288.523621 
	C399.163391,293.310394 391.538055,295.403900 385.026978,298.689941 
	C384.037903,299.189117 383.135590,299.993988 382.095154,300.235840 
	C375.215210,301.835236 368.366608,303.824921 361.385895,304.627136 
	C357.914459,305.026093 354.177094,303.209045 350.579376,302.316559 
	C349.972778,302.166046 349.402618,301.234467 348.920044,301.312164 
	C340.086395,302.734436 334.666656,296.597900 327.798065,291.465485 
	C330.168610,291.277618 331.981354,291.030121 333.796692,291.009369 
	C339.455902,290.944611 345.143768,290.605591 350.769196,291.039185 
	C358.881012,291.664337 365.243439,288.412140 371.276031,283.517029 
	C373.822449,281.450745 378.121521,280.860138 379.673309,278.378845 
	C384.618713,270.471161 391.717621,263.895996 393.644531,253.992920 
	C394.867737,247.706299 398.209229,241.837982 400.517242,235.750412 
	C400.914612,234.702286 401.042938,233.494980 401.039246,232.362061 
	C401.024689,227.926743 402.477264,224.029495 403.878662,219.830841 
	C405.543854,214.841995 404.218506,208.635284 403.317047,203.098267 
	C402.836884,200.148895 400.762756,197.326340 398.960693,194.760834 
	C397.019836,191.997711 397.030304,190.381149 399.566010,187.649933 
	C402.317047,184.686798 403.521423,186.666534 405.550262,187.875549 
	C411.855194,191.632736 418.207031,195.315582 424.617737,198.888992 
	C427.721924,200.619293 432.073639,200.298340 433.604553,204.553909 
	C435.355225,209.420441 437.305786,214.221451 438.877045,219.144287 
	C440.308380,223.628723 441.925964,228.176376 442.420807,232.807343 
	C443.108734,239.245117 443.300903,245.621201 440.771332,252.120255 
	C438.654663,257.558380 435.391235,262.148834 432.467621,267.435760 
z"/>
<path fill="#F3F3F3" opacity="1.000000" stroke="none" 
	d="
M108.848267,341.777313 
	C111.981491,340.670532 114.658379,339.737823 115.427063,335.437714 
	C115.799149,333.356201 119.556259,331.617828 122.061020,330.229797 
	C128.987885,326.391205 134.139343,321.079346 137.146515,313.698395 
	C138.723434,309.827911 140.483582,306.032135 142.161072,302.202637 
	C142.357819,301.753448 142.681641,301.318665 142.733658,300.853394 
	C143.678284,292.404572 144.953476,283.966736 145.295502,275.491760 
	C145.402939,272.829285 142.984314,270.064850 141.432373,266.759766 
	C141.002792,262.451996 136.775604,258.782745 141.463104,255.012604 
	C145.603821,255.038162 149.284363,255.058670 152.964905,255.079178 
	C154.217239,255.788925 155.406998,256.937103 156.733627,257.126526 
	C160.772980,257.703247 162.469879,260.554291 164.376144,263.637939 
	C166.396912,266.906830 169.324677,269.617554 171.323395,272.896881 
	C173.524170,276.507690 175.940384,280.313507 176.797501,284.345856 
	C178.353546,291.666138 178.452438,299.408936 174.786346,306.134094 
	C172.539230,310.256256 168.656738,313.572510 165.187515,316.917664 
	C162.022430,319.969574 157.540665,321.986237 155.208893,325.500641 
	C150.887512,332.013733 144.753723,334.489624 137.778778,336.314667 
	C134.239090,337.240875 130.850128,338.813416 127.475769,340.283630 
	C123.015877,342.226837 118.637123,344.356262 113.567764,346.636841 
	C110.925713,346.862183 108.859856,347.184082 106.982727,346.728485 
	C105.845123,346.452393 104.999634,344.972717 104.022903,344.033783 
	C104.022896,344.033783 104.010170,343.995789 104.418182,344.105103 
	C106.166885,343.402069 107.507576,342.589691 108.848267,341.777313 
z"/>
<path fill="#B4B4B4" opacity="1.000000" stroke="none" 
	d="
M575.875610,369.512634 
	C577.315613,369.220795 578.779846,369.336212 580.150513,369.444244 
	C582.974609,379.125397 586.882507,388.409943 588.109741,398.036194 
	C589.082703,405.667694 591.888916,412.091888 595.079224,418.660248 
	C596.971680,422.556458 599.144043,426.323212 600.906006,430.275055 
	C604.988647,439.431366 608.597717,448.811157 612.980957,457.816986 
	C616.036438,464.094940 620.062256,469.900085 623.644104,475.922668 
	C625.065979,478.313477 626.522949,480.688599 627.789917,483.160065 
	C627.957947,483.487823 627.094177,484.344543 626.333374,484.980286 
	C623.983215,481.492065 621.970337,478.000397 620.039429,474.463928 
	C613.789795,463.017731 607.291199,451.695068 601.446838,440.044708 
	C598.095825,433.364716 595.916565,426.104370 593.018738,419.185303 
	C592.046021,416.862762 589.925049,414.938019 589.286682,412.572937 
	C586.590271,402.582520 584.335449,392.473572 581.713684,382.461792 
	C581.238281,380.646423 579.651428,379.151337 578.842651,377.386932 
	C577.729492,374.958496 576.868652,372.414429 575.875610,369.512634 
z"/>
<path fill="#D6D6D6" opacity="1.000000" stroke="none" 
	d="
M104.966919,605.722900 
	C103.595177,603.216797 101.422737,600.484924 101.181870,597.592224 
	C100.678993,591.553040 101.732964,585.321045 97.423279,580.126953 
	C97.230331,579.894409 97.180405,579.510498 97.141380,579.187744 
	C96.220200,571.568359 95.823936,563.838989 94.243645,556.359680 
	C92.837799,549.705933 89.946030,543.379700 88.055779,536.809387 
	C87.042305,533.286621 86.739998,529.557129 86.166222,525.913025 
	C86.097565,525.476990 86.526245,524.938293 86.410774,524.537537 
	C84.540672,518.047424 82.645462,511.564148 80.689888,505.099304 
	C80.272675,503.720093 79.068817,502.397858 79.123863,501.087006 
	C79.419769,494.040466 77.813309,487.543640 74.382652,481.411346 
	C73.966179,480.666901 74.313927,479.494873 74.572174,478.283508 
	C78.578957,484.220245 80.906021,490.618134 82.031746,498.012573 
	C83.237976,505.935822 83.659019,514.397156 87.920227,521.694580 
	C88.081154,521.970154 88.505783,522.149109 88.559181,522.421753 
	C90.017418,529.867981 91.364494,537.336975 92.919937,544.762451 
	C93.422928,547.163635 94.427933,549.464478 95.271515,551.786377 
	C95.491730,552.392456 96.182159,552.865662 96.294106,553.467346 
	C97.688194,560.960144 99.157272,568.443481 100.321449,575.973328 
	C101.590469,584.181396 102.522240,592.441162 103.694450,600.665100 
	C103.925011,602.282593 104.581177,603.839417 104.966919,605.722900 
z"/>
<path fill="#ACACAC" opacity="1.000000" stroke="none" 
	d="
M1030.950928,267.480408 
	C1031.687256,268.578918 1032.923950,270.112274 1033.015991,271.711487 
	C1033.303589,276.708160 1032.261719,282.024200 1038.210815,284.843109 
	C1038.828125,285.135590 1038.884888,286.960510 1038.913574,288.081787 
	C1039.011597,291.903229 1038.770264,295.745209 1039.081055,299.544739 
	C1039.256836,301.693420 1040.182129,303.801880 1040.918823,305.875549 
	C1041.350830,307.091797 1042.667236,308.253937 1042.574585,309.355286 
	C1041.856934,317.882904 1045.711304,325.680908 1046.462891,333.793152 
	C1047.638672,346.485443 1046.811523,359.366150 1046.740112,372.166504 
	C1046.733521,373.352539 1046.061157,374.534821 1045.326172,375.846710 
	C1044.858765,362.821686 1044.812744,349.668091 1044.615967,336.516693 
	C1044.584961,334.442352 1043.833252,332.384766 1043.481079,330.308197 
	C1042.579224,324.989563 1041.816040,319.644928 1040.786255,314.351807 
	C1040.369629,312.210571 1040.019775,309.237366 1038.563965,308.281982 
	C1035.177246,306.059418 1034.977051,303.134033 1034.910889,299.781036 
	C1034.780029,293.133850 1035.545532,286.604584 1031.592529,280.229492 
	C1029.697144,277.172699 1031.047363,272.103302 1030.950928,267.480408 
z"/>
<path fill="#7C7C7C" opacity="1.000000" stroke="none" 
	d="
M144.881561,99.860390 
	C146.981033,97.636696 149.275131,95.561897 151.123276,93.145943 
	C152.850632,90.887878 154.020294,88.211983 155.597046,85.826836 
	C156.640991,84.247665 157.777878,82.629272 159.206589,81.423508 
	C163.991669,77.385185 167.007126,71.206947 173.665726,69.399651 
	C174.182693,69.259331 174.841766,68.577827 174.925064,68.065056 
	C176.059387,61.082237 181.696152,57.370411 185.984406,52.682613 
	C188.969788,49.419090 191.653336,45.788631 195.028122,42.993980 
	C199.796432,39.045330 205.078400,35.716957 210.471436,31.991920 
	C209.331284,33.863052 208.267471,36.916573 206.314102,37.673038 
	C200.240158,40.025257 196.689667,44.891483 192.561600,49.339394 
	C188.929764,53.252613 184.656021,56.585579 181.163498,60.607067 
	C178.903778,63.209057 178.035416,67.068703 175.666611,69.515900 
	C171.355530,73.969627 166.347473,77.742538 161.730591,81.910660 
	C160.517838,83.005539 159.712662,84.540962 158.652756,85.817993 
	C154.288025,91.076721 149.897263,96.313850 145.184219,101.366745 
	C144.862106,100.736511 144.871826,100.298454 144.881561,99.860390 
z"/>
<path fill="#D6D6D6" opacity="1.000000" stroke="none" 
	d="
M711.374817,1015.922607 
	C711.626831,1011.845032 713.723572,1009.562439 718.170166,1009.993835 
	C725.154785,1010.671509 731.516907,1008.050720 738.165283,1006.645996 
	C744.311340,1005.347351 751.109985,1006.857605 757.586914,1007.484863 
	C763.872803,1008.093628 770.104492,1009.243347 776.381653,1009.968933 
	C778.838196,1010.252930 781.402954,1009.741882 783.820923,1010.158752 
	C785.015015,1010.364685 785.987488,1011.855652 787.073730,1013.156738 
	C781.956116,1013.448059 776.813171,1013.527161 771.697510,1013.190979 
	C767.605957,1012.922119 763.020630,1014.820496 759.684875,1010.298950 
	C758.936523,1009.284668 756.213440,1009.419373 754.430481,1009.528931 
	C746.061584,1010.043335 737.489807,1007.816101 729.439514,1012.856873 
	C726.791199,1014.515015 722.258850,1012.925171 718.662537,1013.392944 
	C716.298279,1013.700562 714.067322,1015.032898 711.374817,1015.922607 
z"/>
<path fill="#ACACAC" opacity="1.000000" stroke="none" 
	d="
M626.048340,486.308197 
	C629.152466,485.471527 631.320251,486.899445 632.126709,489.574371 
	C633.603210,494.471771 638.379028,498.079773 637.387207,504.035431 
	C637.143250,505.499969 638.810547,507.526093 640.011047,508.945831 
	C645.188782,515.069336 649.380615,521.606201 651.390015,529.557678 
	C651.959290,531.810120 654.754883,533.430176 656.218994,535.554138 
	C657.011414,536.703613 657.148987,538.304443 657.321289,539.864868 
	C649.304688,534.288391 648.321106,524.423462 643.114197,517.130920 
	C641.518005,514.895386 639.912476,512.666260 638.345337,510.410461 
	C637.501831,509.196320 636.088257,507.960754 636.031128,506.685577 
	C635.662048,498.452728 631.078796,492.456055 626.048340,486.308197 
z"/>
<path fill="#ACACAC" opacity="1.000000" stroke="none" 
	d="
M144.528336,99.938202 
	C144.871826,100.298454 144.862106,100.736511 144.885620,101.501678 
	C133.619400,118.265099 123.817894,135.620209 113.322601,152.860596 
	C113.086716,147.003250 116.190155,142.656906 119.632729,137.965622 
	C124.136269,131.828522 127.075134,124.559319 130.900314,117.899590 
	C132.243088,115.561783 134.268005,113.624458 135.889465,111.436089 
	C138.689240,107.657471 141.417084,103.825562 144.528336,99.938202 
z"/>
<path fill="#3D3D3D" opacity="1.000000" stroke="none" 
	d="
M65.114891,409.882019 
	C64.116577,405.197052 62.628563,400.552155 62.240959,395.817169 
	C61.729015,389.563324 62.444527,383.208405 61.923065,376.956085 
	C61.608440,373.183746 59.947807,369.523682 58.963280,365.400208 
	C60.977844,369.198059 64.081200,373.269379 64.608292,377.650604 
	C65.532990,385.336761 64.738510,393.217896 65.016235,401.004791 
	C65.066093,402.402649 66.869858,403.703430 67.757446,405.115875 
	C68.594727,406.448273 69.291756,407.868744 69.590950,409.600220 
	C67.792587,409.927307 66.453735,409.904663 65.114891,409.882019 
z"/>
<path fill="#D6D6D6" opacity="1.000000" stroke="none" 
	d="
M877.080200,418.722473 
	C878.146362,413.512451 876.469971,407.464447 877.666138,402.662720 
	C880.197083,392.502350 881.410095,382.513367 881.188171,372.163330 
	C881.159790,370.840424 882.606567,369.485870 883.768188,368.609802 
	C884.097412,377.032684 884.028503,384.991699 883.959595,392.950714 
	C880.199097,395.349121 880.965088,399.155396 880.845032,402.734711 
	C880.661865,408.193726 882.386475,414.106049 877.080200,418.722473 
z"/>
<path fill="#C4C4C4" opacity="1.000000" stroke="none" 
	d="
M135.912491,692.662109 
	C134.941742,692.678406 133.463791,692.510620 133.249069,691.899231 
	C131.282700,686.299744 126.322067,682.737732 124.467735,676.559448 
	C122.611801,670.375732 120.775711,663.865723 118.017570,657.436035 
	C123.048248,658.105347 123.615021,661.770691 124.542503,666.251648 
	C125.981819,673.205505 126.605453,680.751221 132.655060,686.077515 
	C134.305679,687.530762 134.907883,690.174805 135.912491,692.662109 
z"/>
<path fill="#1E1E1E" opacity="1.000000" stroke="none" 
	d="
M577.876221,1194.922119 
	C577.307495,1195.342163 576.738770,1195.762207 575.941650,1196.324097 
	C575.474609,1187.203979 575.229126,1177.942261 575.004028,1168.680054 
	C574.963684,1167.019287 574.751709,1165.298950 575.106873,1163.715576 
	C575.330505,1162.718262 576.461975,1161.924438 577.635925,1161.491699 
	C578.015808,1172.936646 577.945984,1183.929321 577.876221,1194.922119 
z"/>
<path fill="#C4C4C4" opacity="1.000000" stroke="none" 
	d="
M578.302856,1194.955933 
	C577.945984,1183.929321 578.015808,1172.936646 578.053345,1161.476440 
	C578.717773,1160.877563 579.414490,1160.746216 580.469360,1160.667236 
	C580.885986,1170.968140 581.018799,1181.217529 580.902100,1191.464233 
	C580.888672,1192.647461 579.487366,1193.814941 578.302856,1194.955933 
z"/>
<path fill="#D6D6D6" opacity="1.000000" stroke="none" 
	d="
M74.291885,442.784668 
	C71.323158,442.220154 68.453903,441.332642 65.982773,440.568268 
	C64.978760,436.055389 63.970490,431.879425 63.186169,427.661774 
	C63.048901,426.923615 63.852798,426.010406 64.628967,425.447601 
	C66.621040,426.496094 68.206184,427.275024 69.791321,428.053955 
	C70.147675,428.504730 70.504021,428.955536 70.944260,430.074005 
	C68.880020,437.095886 69.439034,438.750946 73.863533,439.136261 
	C74.039482,440.244720 74.215424,441.353210 74.291885,442.784668 
z"/>
<path fill="#2D2D2D" opacity="1.000000" stroke="none" 
	d="
M883.955322,957.403320 
	C885.049072,957.854004 886.967285,958.796570 886.939453,959.677734 
	C886.764160,965.230042 889.052063,970.042175 890.445496,975.191040 
	C891.962219,980.795837 891.055908,987.056335 891.146973,993.494019 
	C890.375000,992.398132 889.269531,990.899170 889.020142,989.269287 
	C888.142456,983.532654 888.949341,977.042542 886.474609,972.184448 
	C883.971619,967.270874 884.433105,962.666565 883.955322,957.403320 
z"/>
<path fill="#D6D6D6" opacity="1.000000" stroke="none" 
	d="
M74.518822,463.654419 
	C71.384308,464.238007 69.717827,463.362885 70.010826,459.853882 
	C70.328362,456.051086 70.232391,452.192352 70.023598,448.374084 
	C69.872391,445.608704 71.171486,444.835846 73.951836,444.919067 
	C74.456001,450.995026 74.572861,457.101379 74.518822,463.654419 
z"/>
<path fill="#F3F3F3" opacity="1.000000" stroke="none" 
	d="
M521.024231,163.232361 
	C528.001465,163.008728 528.184021,163.015533 527.930664,169.818970 
	C527.796814,173.413132 526.897522,176.978821 525.814575,180.865356 
	C524.882263,181.096466 524.479309,181.019592 523.906250,180.558685 
	C523.494141,176.470245 523.416077,172.744583 522.938782,169.070770 
	C522.710083,167.310577 521.725403,165.648590 521.083130,163.942139 
	C521.083130,163.942139 520.971313,163.469406 521.024231,163.232361 
z"/>
<path fill="#ACACAC" opacity="1.000000" stroke="none" 
	d="
M69.887375,427.591248 
	C68.206184,427.275024 66.621040,426.496094 64.977837,425.327087 
	C64.936531,420.231506 64.953293,415.525970 65.042473,410.351257 
	C66.453735,409.904663 67.792587,409.927307 69.526802,410.022400 
	C69.942589,415.772766 69.963005,421.450684 69.887375,427.591248 
z"/>
<path fill="#D6D6D6" opacity="1.000000" stroke="none" 
	d="
M789.100708,1014.381104 
	C794.023193,1013.974121 799.039246,1013.974121 804.689880,1013.974121 
	C804.662415,1009.014709 806.457764,1004.429749 802.487915,1000.223938 
	C801.328308,998.995422 801.372375,996.630676 800.940552,994.376770 
	C805.599182,997.931580 808.792297,1008.479187 806.898743,1013.790894 
	C806.613586,1014.590698 805.658936,1015.761780 805.049622,1015.740479 
	C799.759827,1015.555359 794.478271,1015.136963 789.100708,1014.381104 
z"/>
<path fill="#C4C4C4" opacity="1.000000" stroke="none" 
	d="
M908.564270,1130.911987 
	C908.056274,1132.031128 907.121948,1133.831299 906.130493,1133.863281 
	C898.645813,1134.104736 891.148376,1134.070312 883.659607,1133.907471 
	C882.749268,1133.887817 881.866638,1132.591553 880.977539,1131.466064 
	C890.026367,1130.954834 899.068909,1130.864502 908.564270,1130.911987 
z"/>
<path fill="#D6D6D6" opacity="1.000000" stroke="none" 
	d="
M1085.914185,668.074341 
	C1086.945312,669.146301 1088.805420,670.173096 1088.866821,671.298035 
	C1089.163818,676.743896 1088.954712,682.216125 1088.970581,687.678955 
	C1088.981079,691.257568 1086.204956,691.983459 1083.281738,692.967529 
	C1083.192017,691.861877 1083.495361,690.777893 1084.247314,689.173035 
	C1085.140015,687.002747 1085.923218,685.362061 1085.965576,683.702454 
	C1086.098511,678.496887 1085.952271,673.284241 1085.914185,668.074341 
z"/>
<path fill="#B4B4B4" opacity="1.000000" stroke="none" 
	d="
M1038.592041,412.049072 
	C1039.003418,417.452393 1038.949219,422.876678 1038.994263,428.300140 
	C1039.013428,430.606537 1038.494751,432.232147 1035.287842,431.896790 
	C1034.905029,426.480682 1034.954712,421.051208 1034.984741,415.621674 
	C1034.996582,413.479218 1035.231934,411.576019 1038.592041,412.049072 
z"/>
<path fill="#7C7C7C" opacity="1.000000" stroke="none" 
	d="
M884.361389,392.881073 
	C884.028503,384.991699 884.097412,377.032684 884.187988,368.617065 
	C884.562012,367.778168 884.914368,367.395935 885.533447,367.002594 
	C886.219604,367.555115 886.998352,368.115143 887.004028,368.682922 
	C887.072144,375.506226 887.136353,382.334381 886.908569,389.151459 
	C886.867065,390.393951 885.511963,391.592560 884.361389,392.881073 
z"/>
<path fill="#550000" opacity="1.000000" stroke="none" 
	d="
M455.411072,674.140259 
	C454.996765,667.536987 454.982117,660.801880 455.376984,653.542236 
	C456.479492,652.963074 457.172424,652.908569 457.865387,652.854065 
	C457.901917,658.664673 458.064819,664.479492 457.875519,670.282715 
	C457.834290,671.545715 456.532104,672.767639 455.411072,674.140259 
z"/>
<path fill="#3D3D3D" opacity="1.000000" stroke="none" 
	d="
M1085.920654,668.097351 
	C1085.952271,673.284241 1086.098511,678.496887 1085.965576,683.702454 
	C1085.923218,685.362061 1085.140015,687.002747 1084.329834,688.823242 
	C1083.656128,684.798401 1083.299927,680.605225 1083.059570,676.405396 
	C1082.916992,673.913452 1082.956665,671.411072 1083.318359,668.510864 
	C1084.441406,668.114197 1085.160645,668.120178 1085.879761,668.126099 
	C1085.879761,668.126099 1085.927246,668.120361 1085.920654,668.097351 
z"/>
<path fill="#5E5E5E" opacity="1.000000" stroke="none" 
	d="
M1067.686157,737.128540 
	C1069.782837,745.169617 1065.828247,751.562439 1061.376953,757.965088 
	C1061.192261,756.392883 1060.832275,754.393127 1061.652954,753.218262 
	C1064.404297,749.279602 1065.453369,745.096619 1065.198853,740.353210 
	C1065.144531,739.342163 1066.554443,738.252563 1067.686157,737.128540 
z"/>
<path fill="#DB903A" opacity="1.000000" stroke="none" 
	d="
M456.373962,634.950073 
	C455.932709,628.338684 455.856964,621.530762 455.955383,614.330688 
	C456.511200,614.236023 457.229858,614.539368 457.224854,614.830261 
	C457.110809,621.472168 456.917755,628.112793 456.373962,634.950073 
z"/>
<path fill="#ACACAC" opacity="1.000000" stroke="none" 
	d="
M880.968506,936.426331 
	C882.048950,937.078064 883.793213,938.136658 883.877625,939.314270 
	C884.230835,944.239685 884.085999,949.200745 884.031616,954.615540 
	C881.301636,955.527222 880.918762,953.901245 880.919250,951.849487 
	C880.920593,946.862305 880.887939,941.875122 880.968506,936.426331 
z"/>
<path fill="#550000" opacity="1.000000" stroke="none" 
	d="
M576.582275,643.948486 
	C576.108704,642.583069 576.054504,641.216675 576.380737,639.275940 
	C577.562378,635.771484 578.363586,632.841431 579.164856,629.911377 
	C580.748169,632.034485 581.981628,641.439941 580.549438,642.935608 
	C579.815308,643.702332 578.212158,643.636902 576.582275,643.948486 
z"/>
<path fill="#7C7C7C" opacity="1.000000" stroke="none" 
	d="
M520.875488,164.317261 
	C521.725403,165.648590 522.710083,167.310577 522.938782,169.070770 
	C523.416077,172.744583 523.494141,176.470245 523.515381,180.552612 
	C522.254639,180.904968 521.214722,180.879349 520.174805,180.853729 
	C520.339111,175.466614 520.503418,170.079498 520.875488,164.317261 
z"/>
<path fill="#2D2D2D" opacity="1.000000" stroke="none" 
	d="
M906.917358,1049.227783 
	C907.768616,1050.331055 908.897095,1051.789795 909.015869,1053.326416 
	C909.316833,1057.218384 909.164612,1061.145386 909.118896,1065.518799 
	C908.040527,1065.227783 906.181030,1064.484497 906.173767,1063.723511 
	C906.128845,1059.024170 906.501160,1054.320679 906.917358,1049.227783 
z"/>
<path fill="#550000" opacity="1.000000" stroke="none" 
	d="
M575.410278,688.140503 
	C575.273376,683.087585 575.535339,677.903076 575.975403,672.318359 
	C578.991516,675.634460 578.778198,685.603943 575.410278,688.140503 
z"/>
<path fill="#2D2D2D" opacity="1.000000" stroke="none" 
	d="
M141.002945,255.007538 
	C136.775604,258.782745 141.002792,262.451996 141.099335,266.577606 
	C134.287094,262.095520 134.055099,257.719635 140.675385,253.486877 
	C141.017349,254.171310 141.010147,254.589432 141.002945,255.007538 
z"/>
<path fill="#B66600" opacity="1.000000" stroke="none" 
	d="
M576.341309,667.000305 
	C575.996521,662.091309 576.001404,656.959167 576.087402,651.407471 
	C579.398071,656.149963 578.477051,661.449219 576.341309,667.000305 
z"/>
<path fill="#3D3D3D" opacity="1.000000" stroke="none" 
	d="
M520.156494,181.233932 
	C521.214722,180.879349 522.254639,180.904968 523.685486,180.936661 
	C524.479309,181.019592 524.882263,181.096466 525.593628,181.205200 
	C526.954285,183.265182 528.006470,185.293289 528.974365,187.679138 
	C527.273438,187.941772 525.656860,187.846695 524.475830,187.777222 
	C522.893494,185.528961 521.515930,183.571548 520.156494,181.233932 
z"/>
<path fill="#F3F3F3" opacity="1.000000" stroke="none" 
	d="
M579.088013,629.551514 
	C578.363586,632.841431 577.562378,635.771484 576.409058,638.863892 
	C575.726929,635.648621 575.241272,632.272522 575.207764,628.891907 
	C575.201660,628.272461 577.033875,627.634766 578.427979,626.999390 
	C578.895996,627.726074 578.953613,628.458801 579.088013,629.551514 
z"/>
<path fill="#A24E00" opacity="1.000000" stroke="none" 
	d="
M575.171204,759.872070 
	C575.100891,755.840149 575.030579,751.808289 575.374268,747.379517 
	C576.481995,747.038269 577.175659,747.093933 577.869385,747.149597 
	C577.918884,751.141296 577.968384,755.132935 577.611633,759.548523 
	C576.527344,759.938965 575.849243,759.905518 575.171204,759.872070 
z"/>
<path fill="#A24E00" opacity="1.000000" stroke="none" 
	d="
M457.891968,652.409546 
	C457.172424,652.908569 456.479492,652.963074 455.444580,653.088013 
	C455.316742,649.030579 455.530853,644.902710 455.952423,640.404968 
	C456.746094,644.011658 457.332306,647.988342 457.891968,652.409546 
z"/>
<path fill="#B4B4B4" opacity="1.000000" stroke="none" 
	d="
M103.627930,344.023041 
	C104.999634,344.972717 105.845123,346.452393 106.982727,346.728485 
	C108.859856,347.184082 110.925713,346.862183 113.343567,346.940308 
	C113.266174,347.620544 112.780319,348.730377 112.244583,348.755005 
	C108.781830,348.914124 105.308174,348.836487 100.162285,348.836487 
	C101.608788,346.563965 102.420868,345.288116 103.627930,344.023041 
z"/>
<path fill="#B4B4B4" opacity="1.000000" stroke="none" 
	d="
M374.088776,3.401106 
	C377.036224,3.055573 380.187653,2.830791 383.287567,3.133615 
	C384.545532,3.256503 385.691315,4.528217 386.911621,5.689395 
	C382.674622,5.523453 377.871887,7.845550 374.088776,3.401106 
z"/>
<path fill="#3D3D3D" opacity="1.000000" stroke="none" 
	d="
M873.273560,442.893311 
	C872.914978,439.635956 872.967285,436.352783 873.423584,432.606140 
	C874.547668,432.088470 875.267761,432.034241 875.987854,431.980042 
	C875.986084,434.436768 876.234436,436.930328 875.880066,439.335083 
	C875.694641,440.593079 874.450500,441.695038 873.273560,442.893311 
z"/>
<path fill="#5E5E5E" opacity="1.000000" stroke="none" 
	d="
M73.916260,438.708557 
	C69.439034,438.750946 68.880020,437.095886 71.086563,430.329254 
	C74.999199,431.721313 73.754791,435.247345 73.916260,438.708557 
z"/>
<path fill="#C4C4C4" opacity="1.000000" stroke="none" 
	d="
M1080.845215,651.502563 
	C1081.621582,652.268921 1082.813110,653.448853 1082.929932,654.727112 
	C1083.242554,658.144714 1083.093872,661.604614 1083.074219,665.509705 
	C1082.322021,664.755188 1081.140015,663.584595 1081.019531,662.313354 
	C1080.694702,658.885498 1080.822388,655.414734 1080.845215,651.502563 
z"/>
<path fill="#550000" opacity="1.000000" stroke="none" 
	d="
M577.924072,746.687988 
	C577.175659,747.093933 576.481995,747.038269 575.445801,746.912354 
	C575.023987,743.789368 574.944519,740.736633 574.938232,737.206055 
	C575.999878,738.086670 577.407837,739.319275 577.863708,740.837769 
	C578.361572,742.495972 577.978088,744.418884 577.924072,746.687988 
z"/>
<path fill="#DB903A" opacity="1.000000" stroke="none" 
	d="
M575.108154,760.328918 
	C575.849243,759.905518 576.527344,759.938965 577.542603,760.008606 
	C577.424927,763.294067 576.970032,766.543396 576.212158,770.074219 
	C575.621155,767.165771 575.333130,763.975769 575.108154,760.328918 
z"/>
<path fill="#3D3D3D" opacity="1.000000" stroke="none" 
	d="
M141.463104,255.012604 
	C141.010147,254.589432 141.017349,254.171310 141.035614,253.441345 
	C144.967072,253.512573 148.887466,253.895676 152.886383,254.678970 
	C149.284363,255.058670 145.603821,255.038162 141.463104,255.012604 
z"/>
<path fill="#D6D6D6" opacity="1.000000" stroke="none" 
	d="
M74.732567,469.648193 
	C73.153244,469.466949 71.662849,468.867767 70.172470,468.268585 
	C71.317375,467.500671 72.462273,466.732758 73.973175,465.926941 
	C74.499939,467.002777 74.660721,468.116516 74.732567,469.648193 
z"/>
<path fill="#D6D6D6" opacity="1.000000" stroke="none" 
	d="
M876.046143,431.635162 
	C875.267761,432.034241 874.547668,432.088470 873.466492,432.162476 
	C872.744812,429.939636 872.838623,427.991241 876.233521,427.930359 
	C876.442505,429.046783 876.273438,430.168549 876.046143,431.635162 
z"/>
<path fill="#D6D6D6" opacity="1.000000" stroke="none" 
	d="
M75.018326,475.760071 
	C74.676407,474.799622 74.501152,473.634613 74.568680,472.260681 
	C74.935989,473.219666 75.060493,474.387543 75.018326,475.760071 
z"/>
<path fill="#B4B4B4" opacity="1.000000" stroke="none" 
	d="
M108.474083,341.789703 
	C107.507576,342.589691 106.166885,343.402069 104.431885,344.121399 
	C105.391678,343.286255 106.745789,342.544159 108.474083,341.789703 
z"/>
<path fill="#1E1E1E" opacity="1.000000" stroke="none" 
	d="
M575.087158,1196.522705 
	C574.859131,1197.786621 574.268860,1198.856079 573.379028,1200.046021 
	C573.627930,1198.887207 574.176392,1197.607666 575.087158,1196.522705 
z"/>
<path fill="#D6D6D6" opacity="1.000000" stroke="none" 
	d="
M876.875244,424.705627 
	C875.691833,424.892120 874.632568,424.736694 873.573364,424.581268 
	C873.527039,424.331146 873.480713,424.081024 873.434448,423.830902 
	C874.311890,423.536255 875.189331,423.241638 876.410339,422.949127 
	C876.835754,423.422089 876.917603,423.892914 876.875244,424.705627 
z"/>
<path fill="#C4C4C4" opacity="1.000000" stroke="none" 
	d="
M1085.922607,667.753052 
	C1085.160645,668.120178 1084.441406,668.114197 1083.368408,668.042847 
	C1082.980713,667.533020 1082.946899,667.088501 1082.969482,666.313416 
	C1084.005737,666.448547 1084.985718,666.914307 1085.922607,667.753052 
z"/>
</svg>