<svg version="1.1" id="Layer_1" xmlns="http://www.w3.org/2000/svg" xmlns:xlink="http://www.w3.org/1999/xlink" x="0px" y="0px"
	 width="100%" viewBox="0 0 1180 1250" enable-background="new 0 0 1180 1250" xml:space="preserve">
<path fill="#000000" opacity="1.000000" stroke="none" 
	d="
M311.000000,1251.000000 
	C295.979095,1251.000000 280.958221,1251.000000 265.362946,1250.640381 
	C261.125610,1245.570312 255.984039,1245.630249 250.791061,1246.034912 
	C249.190964,1246.159668 247.622910,1246.942627 246.036438,1246.955444 
	C235.376572,1247.040405 224.714218,1247.088135 214.056763,1246.906860 
	C212.363464,1246.877930 209.949036,1246.108887 209.150467,1244.861206 
	C206.932114,1241.395264 204.000290,1240.611206 200.297760,1240.986938 
	C196.992325,1241.322266 194.457886,1240.538696 192.850861,1237.074951 
	C192.193024,1235.657104 189.977066,1234.392334 188.304199,1234.135010 
	C184.906189,1233.611816 180.842224,1235.011108 180.019379,1229.633667 
	C179.917053,1228.965088 178.202179,1228.066162 177.250992,1228.085449 
	C172.653214,1228.178589 168.063858,1228.620728 163.466080,1228.799805 
	C159.469101,1228.955566 154.303925,1230.625000 152.266602,1226.234863 
	C149.914215,1221.166016 146.375443,1221.050171 141.987991,1220.877441 
	C140.252609,1220.809082 138.552521,1219.403076 136.870132,1218.540405 
	C134.633560,1217.393799 132.477676,1216.078979 130.197128,1215.032593 
	C128.373260,1214.195801 125.367027,1214.177124 124.715416,1212.877808 
	C122.852486,1209.162598 120.095581,1208.674805 116.595581,1208.986450 
	C112.734200,1209.330322 109.178925,1209.345825 107.099167,1204.878540 
	C106.555824,1203.711426 103.729301,1203.651245 101.988007,1202.986694 
	C99.901924,1202.190796 96.830002,1201.852539 95.995773,1200.326294 
	C94.006180,1196.686401 91.484764,1195.766479 87.629875,1195.877563 
	C85.035797,1195.952393 81.208572,1195.735718 80.039062,1194.122437 
	C77.397415,1190.478638 74.175209,1190.179565 70.399315,1189.903198 
	C68.889404,1189.792725 66.684677,1188.967163 66.148575,1187.829590 
	C64.934746,1185.254272 63.181156,1185.171631 60.790329,1184.857544 
	C58.121403,1184.506836 54.049660,1183.705444 53.317894,1181.957642 
	C51.567337,1177.776123 48.760593,1177.955811 45.421532,1177.979370 
	C39.131573,1178.023804 37.906933,1176.985474 38.089172,1170.603027 
	C38.201904,1166.654785 36.571243,1165.889282 33.062695,1165.870728 
	C30.840595,1165.858887 27.738100,1165.260742 26.587900,1163.744141 
	C24.042143,1160.387695 21.047005,1159.872314 17.308392,1159.951538 
	C9.981984,1160.106812 9.251925,1159.307739 8.910585,1151.611572 
	C9.611112,1145.180542 3.751437,1146.309204 1.000000,1144.000000 
	C1.000000,1128.979126 1.000000,1113.958130 1.393683,1098.343140 
	C2.189062,1097.075317 2.932515,1096.405518 2.940104,1095.727417 
	C3.025137,1088.129761 3.069482,1080.529297 2.910407,1072.933960 
	C2.889658,1071.943115 1.666296,1070.977417 0.999981,1070.000000 
	C1.000000,1055.979126 1.000000,1041.958130 1.359193,1027.364624 
	C2.853921,1025.865845 3.865444,1024.418945 5.148756,1024.113281 
	C8.674864,1023.273560 9.403815,1021.117798 8.910739,1017.594482 
	C10.020634,1015.257385 10.595555,1012.485474 12.203559,1011.609070 
	C14.128017,1010.560242 16.941837,1010.951416 19.358368,1011.042053 
	C23.046774,1011.180176 25.547211,1009.990723 26.467396,1005.885620 
	C29.267303,1005.152283 31.705399,1004.535095 34.164574,1004.018188 
	C35.416561,1003.755005 37.541687,1004.076538 37.847870,1003.444153 
	C40.446007,998.077637 45.218048,999.027527 49.679291,999.005920 
	C52.906441,998.990295 53.536186,997.091553 53.132351,994.386475 
	C52.676796,991.335022 52.741169,988.477173 56.432449,986.911621 
	C61.211933,987.264832 65.616096,987.725708 66.780571,981.794434 
	C66.906601,981.152466 68.017563,980.144714 68.530571,980.223633 
	C74.231461,981.100647 78.340073,978.431580 82.762062,975.228638 
	C85.039108,973.579285 89.049957,974.169861 92.288712,974.046448 
	C95.367218,973.929260 95.915497,972.487854 95.344139,969.796875 
	C93.932343,963.147644 95.477676,961.384949 102.371559,960.925232 
	C103.941277,960.820557 106.597511,960.018127 106.799385,959.104858 
	C108.294525,952.341248 113.419182,953.169434 118.269417,952.921082 
	C119.851044,952.840088 122.142616,952.281921 122.801079,951.168335 
	C124.885384,947.643188 127.848267,946.941162 131.521652,946.919067 
	C132.991089,946.910278 135.649277,946.129944 135.735336,945.445496 
	C136.534561,939.089111 141.170258,939.893066 145.339279,940.041565 
	C149.302933,940.182800 151.288803,938.668213 151.007812,934.553467 
	C150.678848,929.736267 153.101410,927.906189 157.774734,927.956665 
	C169.605469,928.084229 181.439072,927.934998 193.270157,928.044983 
	C196.188995,928.072144 199.131317,929.091125 202.011597,928.896301 
	C206.053375,928.622986 210.879959,928.749878 210.332642,922.307190 
	C210.078705,919.317810 210.013565,916.304871 210.013428,913.302612 
	C209.999710,628.165588 210.013245,343.028564 209.917908,57.891548 
	C209.915802,51.555248 208.966385,45.174091 207.960205,38.893757 
	C206.405838,29.191957 207.915421,27.119486 217.933746,25.906210 
	C219.368469,25.732458 221.284393,24.611727 221.881668,23.392418 
	C223.486542,20.116089 225.947388,18.851624 229.330276,19.018421 
	C234.749435,19.285622 240.162384,19.866299 245.579224,19.882175 
	C247.271454,19.887136 248.984299,18.532566 250.657806,17.737383 
	C252.499283,16.862383 254.233368,15.696184 256.147919,15.057602 
	C258.260010,14.353121 262.138580,14.603916 262.457550,13.574284 
	C264.408356,7.276822 269.316071,9.456218 273.397003,8.920166 
	C275.177368,8.686305 278.110382,7.878799 278.349060,6.835253 
	C279.539093,1.632649 283.152557,1.823928 287.071960,1.946050 
	C288.037201,1.976125 289.023438,1.333420 290.000000,1.000001 
	C341.354218,1.000000 392.708466,1.000000 444.623657,1.358763 
	C446.322235,3.799393 447.459839,5.881259 448.617493,7.999806 
	C451.551117,7.999806 454.401978,7.791551 457.201752,8.079506 
	C458.828094,8.246772 461.372894,8.823779 461.782471,9.882524 
	C463.666992,14.754156 467.514343,14.978836 471.697418,15.041881 
	C472.588684,15.055313 473.999603,15.364455 474.276459,15.956022 
	C476.834991,21.423559 481.724670,20.833469 486.450165,21.087809 
	C487.991669,21.170778 490.295471,21.885286 490.838165,22.999151 
	C492.572815,26.559435 495.443726,26.910233 498.750244,27.043661 
	C500.641663,27.119987 503.734070,27.071011 504.188873,28.051279 
	C506.312042,32.627579 510.055298,31.978779 513.803467,32.023472 
	C519.147278,32.087181 521.715759,35.411575 521.018677,40.698582 
	C520.208923,46.840122 519.105469,53.014622 519.087402,59.177620 
	C518.934448,111.499603 519.012085,163.822220 518.986206,216.144653 
	C518.982422,223.778717 520.912720,224.085419 526.844177,224.082260 
	C715.304871,223.981979 903.765564,224.007950 1092.226318,223.957947 
	C1097.477539,223.956543 1102.753174,222.902588 1107.968140,223.200729 
	C1110.214966,223.329193 1112.390747,225.577011 1114.493164,227.016388 
	C1115.712524,227.851212 1116.702026,229.819550 1117.829224,229.846512 
	C1121.739380,229.940018 1125.662598,229.376251 1129.584595,229.121735 
	C1133.007568,228.899612 1137.192993,228.088608 1138.800537,231.821198 
	C1140.605835,236.012833 1143.548828,235.887161 1147.033813,236.089981 
	C1149.158691,236.213638 1152.576416,236.683136 1153.075684,237.932022 
	C1154.555664,241.633240 1157.464722,242.359909 1160.502563,242.710419 
	C1164.233643,243.140930 1168.035889,242.756744 1169.897339,247.178299 
	C1170.150757,247.780579 1171.922119,247.919205 1173.003174,247.963165 
	C1175.664917,248.071381 1178.333862,247.999466 1181.000000,248.000000 
	C1181.000000,267.687561 1181.000000,287.375122 1180.542725,307.531342 
	C1175.202271,308.106903 1169.922852,306.597382 1166.745972,312.494110 
	C1166.130981,313.635529 1163.214355,313.860870 1161.339478,313.925293 
	C1158.351807,314.027985 1155.808350,313.818573 1153.932617,317.220032 
	C1153.048462,318.823486 1149.781860,319.861725 1147.596802,319.858032 
	C1141.198364,319.847198 1134.801147,319.184509 1128.343506,318.773407 
	C1127.117188,323.630859 1124.462036,325.667847 1119.631958,325.147980 
	C1118.227173,324.996796 1115.881592,326.250763 1115.263916,327.501190 
	C1113.426636,331.220123 1110.521484,332.132599 1106.836182,332.004791 
	C1096.920166,331.660889 1087.002075,331.367920 1077.087769,330.981720 
	C1073.526733,330.843079 1070.918091,331.801422 1069.174561,335.311584 
	C1067.382446,338.919098 1057.807861,339.484680 1056.164429,335.943451 
	C1053.967651,331.210052 1050.422119,330.962982 1046.137329,330.964264 
	C901.676880,331.007324 757.216431,330.999969 612.755981,331.000153 
	C611.423035,331.000153 609.991211,330.693787 608.781372,331.080597 
	C607.154724,331.600586 604.602112,332.416809 604.360229,333.523895 
	C603.303040,338.362915 599.822571,337.995239 596.365845,337.996307 
	C572.705688,338.003571 549.044922,338.082275 525.385742,337.929779 
	C520.734436,337.899811 518.866943,339.386292 518.923828,344.214508 
	C519.120056,360.874298 518.999756,377.537811 518.999878,394.199921 
	C518.999939,407.362976 519.054443,420.526428 518.965088,433.688873 
	C518.939392,437.467316 520.506958,439.218933 524.290649,439.011566 
	C525.619629,438.938782 526.956177,438.984222 528.288879,439.002350 
	C533.528625,439.073547 534.961365,440.441437 534.988403,445.616730 
	C535.031006,453.780945 535.000061,461.945557 534.999817,470.109985 
	C534.999573,477.999146 534.999329,478.011749 542.775208,477.998138 
	C731.975891,477.667175 921.176636,477.335724 1110.377197,476.963409 
	C1112.133789,476.959961 1113.906006,476.479767 1115.642212,476.093170 
	C1121.551270,474.777649 1127.056885,476.450317 1127.656860,480.564545 
	C1128.258789,484.692474 1130.529663,484.803070 1133.630371,485.107330 
	C1135.378540,485.278839 1137.941040,486.105072 1138.532959,487.380524 
	C1140.124390,490.810547 1142.595459,491.268280 1145.764160,491.011963 
	C1149.462524,490.712830 1152.827759,490.762268 1154.811768,495.018219 
	C1155.366333,496.207977 1158.134399,496.899353 1159.881958,496.889893 
	C1163.669922,496.869446 1167.010132,496.907471 1168.834595,501.142395 
	C1169.250854,502.108582 1171.200684,502.793243 1172.510010,502.917419 
	C1175.317383,503.183624 1178.167480,502.999634 1181.000000,503.000000 
	C1181.000000,520.020874 1181.000000,537.041809 1180.543945,554.531372 
	C1176.423096,555.452637 1171.864502,554.726624 1169.319702,556.656372 
	C1166.139526,559.067749 1163.365967,560.127747 1159.577148,560.120361 
	C1157.863281,560.117065 1155.221680,560.964478 1154.608154,562.214661 
	C1152.886841,565.722107 1150.297485,566.387817 1146.956909,565.991821 
	C1143.076782,565.531738 1139.973267,566.185486 1138.021118,570.239319 
	C1137.497437,571.327026 1134.913452,571.355774 1133.338989,572.021484 
	C1131.428711,572.829163 1128.716919,573.310974 1127.888794,574.792664 
	C1125.975830,578.215759 1123.398804,579.194153 1119.854126,579.010620 
	C1106.518799,578.319885 1093.180664,577.074707 1079.844971,577.090576 
	C915.764038,577.285828 751.683472,577.687500 587.602600,577.955322 
	C576.851990,577.972839 566.101318,577.117981 555.348938,577.073120 
	C547.432556,577.040100 539.514954,577.709656 531.594910,577.980286 
	C528.153870,578.097900 524.705383,578.000061 521.091309,578.000061 
	C520.381165,596.248047 519.438171,613.989929 519.073303,631.743713 
	C518.730957,648.402771 518.999939,665.074463 518.999939,681.740601 
	C518.999939,692.370850 518.999939,692.371338 529.343567,692.998169 
	C529.675781,693.018311 530.153870,692.861938 530.320435,693.029663 
	C531.580078,694.298340 533.716125,695.615173 533.733582,696.941406 
	C533.751221,698.276611 531.884705,700.183533 530.401184,700.840454 
	C528.867371,701.519653 526.779358,701.180176 524.972351,700.963745 
	C520.516846,700.430298 519.208679,702.928772 518.988342,706.730530 
	C518.742981,710.964722 521.003845,712.299438 524.834167,712.015564 
	C526.160217,711.917297 527.500610,712.033508 528.832703,711.993469 
	C533.087341,711.865601 534.965332,713.920715 535.035217,718.163391 
	C535.164246,726.001343 535.255676,725.999939 543.267273,725.999939 
	C725.761597,726.000000 908.255920,726.009155 1090.750244,725.958008 
	C1096.502441,725.956360 1102.280884,724.881409 1107.994019,725.215210 
	C1110.397461,725.355652 1112.678711,727.835510 1114.984253,729.300903 
	C1116.319946,730.149902 1117.565186,731.804749 1118.900879,731.858337 
	C1122.136719,731.988098 1125.396484,731.308167 1128.656128,731.111145 
	C1132.407837,730.884399 1136.862061,729.980896 1139.020752,733.783875 
	C1140.952393,737.186829 1143.520020,736.617188 1146.362915,737.146179 
	C1149.076172,737.651184 1152.320679,738.732117 1153.954346,740.702026 
	C1155.820190,742.951843 1157.273560,744.003967 1160.242554,744.164124 
	C1162.956421,744.310547 1166.743774,745.071899 1168.004395,746.944641 
	C1170.005859,749.917969 1172.180298,750.088379 1175.000488,750.010681 
	C1176.998901,749.955566 1179.000122,750.000000 1181.000000,750.000000 
	C1181.000000,769.354248 1181.000000,788.708435 1180.535278,808.531311 
	C1175.486694,808.668030 1170.904907,808.112610 1166.318481,808.072876 
	C1162.435181,808.039246 1156.830200,807.121704 1155.023926,809.215271 
	C1151.461548,813.344482 1147.639160,813.766663 1143.072021,814.096069 
	C1141.479004,814.210876 1139.944946,815.384399 1138.420044,816.146545 
	C1136.596802,817.057739 1134.907349,818.462524 1132.987915,818.901062 
	C1130.259888,819.524292 1127.128662,819.335144 1127.044922,823.195129 
	C1126.956787,827.253479 1124.674561,828.264404 1121.205688,827.996460 
	C1117.872559,827.738892 1115.551392,828.629150 1113.777588,831.975281 
	C1112.918213,833.596375 1109.834961,834.803040 1107.729004,834.849365 
	C1102.321533,834.968323 1096.897583,834.044006 1091.480103,834.042175 
	C935.022644,833.990051 778.565186,833.947266 622.107788,834.045349 
	C591.363403,834.064636 560.619324,834.669006 529.875061,834.996765 
	C527.285583,835.024353 524.695557,835.000366 522.000000,835.000366 
	C522.000000,847.152954 522.061157,858.640869 521.931274,870.126648 
	C521.912720,871.772766 520.601257,873.392151 520.527771,875.052124 
	C520.322876,879.680542 520.348755,884.327087 520.489929,888.960083 
	C520.583496,892.031555 521.157227,895.088501 521.250061,898.159973 
	C521.280151,899.153687 519.812683,900.693481 520.137329,901.100525 
	C523.700378,905.568542 521.811157,910.712708 521.839722,915.468201 
	C521.865967,919.833374 520.542969,924.206543 519.864380,928.276611 
	C520.599182,928.771973 520.734558,928.943115 520.870483,928.943481 
	C530.034302,928.971130 539.198120,929.003357 548.362000,928.994019 
	C555.356812,928.986877 562.353394,928.827820 569.345215,928.955383 
	C571.146729,928.988220 574.022400,929.339050 574.525513,930.419128 
	C576.133545,933.871033 578.649658,934.248718 581.793579,934.008850 
	C586.025513,933.686035 589.800110,934.019531 592.236755,938.494812 
	C592.851135,939.623169 595.734680,939.445068 597.525391,940.022522 
	C599.613953,940.696167 603.178223,941.193970 603.443909,942.369019 
	C604.685425,947.860596 608.635620,946.709656 612.297852,947.086670 
	C614.765808,947.340698 618.327576,947.683167 619.323242,949.280518 
	C621.354675,952.539429 623.694458,953.224548 627.049805,953.035339 
	C631.036743,952.810364 633.039429,954.860962 633.001709,958.875610 
	C632.986084,960.541687 632.628845,962.329102 633.118774,963.836365 
	C633.517822,965.063904 635.264648,967.018921 635.872742,966.837524 
	C644.574402,964.241638 649.088928,975.653564 657.688293,973.294373 
	C658.244629,973.141785 659.699097,974.664734 660.051575,975.652344 
	C661.374878,979.360535 664.268616,979.064087 667.295349,979.030945 
	C675.273315,978.943481 675.982239,979.521973 675.916382,987.620605 
	C675.886414,991.300903 677.341736,992.302979 680.668823,992.028809 
	C684.590027,991.705688 688.055603,992.230103 690.259644,996.345703 
	C690.844482,997.437805 693.374939,997.841370 695.047668,997.936584 
	C702.372681,998.353088 703.035767,998.773010 702.919006,1006.366821 
	C702.864624,1009.906372 704.417419,1011.014832 707.524536,1011.000732 
	C709.024109,1010.993958 710.524109,1011.022217 712.023254,1010.996216 
	C716.005432,1010.927185 718.173157,1012.793091 717.972839,1016.851013 
	C717.770813,1020.940186 717.327332,1025.016846 717.032471,1029.102173 
	C716.665710,1034.182495 716.179504,1039.264038 716.121094,1044.349365 
	C716.107300,1045.551758 717.360229,1047.483154 718.439087,1047.838623 
	C720.866211,1048.638306 723.580933,1049.088623 726.121460,1048.902344 
	C730.306274,1048.595703 731.251709,1050.385986 731.059082,1054.174561 
	C730.555237,1064.080933 729.923645,1074.009399 730.108826,1083.914795 
	C730.342651,1096.423340 731.482544,1108.912354 731.946106,1121.420288 
	C732.235962,1129.240723 732.000305,1137.080688 731.999634,1144.911865 
	C731.998901,1153.339722 731.603821,1153.854736 723.261353,1153.953857 
	C719.472107,1153.998901 717.820923,1155.560669 717.972168,1159.341431 
	C718.105164,1162.668579 718.000427,1166.005127 718.000122,1169.337524 
	C717.999329,1177.283203 717.317932,1178.019165 709.336182,1177.969971 
	C706.565674,1177.952881 704.531250,1178.301392 702.789185,1181.108643 
	C701.622986,1182.987793 698.734558,1184.584595 696.458191,1184.828491 
	C691.351501,1185.375610 686.140625,1184.870239 680.984192,1185.084351 
	C679.533630,1185.144653 677.352112,1185.835083 676.834045,1186.889282 
	C674.836670,1190.953735 671.440063,1190.863525 667.752563,1191.117798 
	C665.532166,1191.270630 663.343323,1192.475830 661.228394,1193.407959 
	C658.770691,1194.491211 656.510071,1196.427124 653.978943,1196.829712 
	C651.200745,1197.271484 649.289734,1197.625854 647.680908,1200.416748 
	C646.662231,1202.184082 643.747253,1203.768555 641.639465,1203.825317 
	C635.569458,1203.988159 629.480164,1203.220947 623.392395,1203.083618 
	C621.957458,1203.051147 619.318787,1203.923828 619.240173,1204.610107 
	C618.665955,1209.622192 615.120056,1209.107910 611.823669,1208.970703 
	C607.776245,1208.802246 603.928040,1208.619385 601.987976,1213.371338 
	C601.641663,1214.219482 599.809937,1214.968262 598.708191,1214.911011 
	C594.567139,1214.696655 590.840454,1214.817871 588.926636,1219.468384 
	C588.610229,1220.237305 587.051880,1220.948242 586.089050,1220.920776 
	C581.496033,1220.790771 576.904358,1220.095581 572.324219,1220.189331 
	C568.472168,1220.268311 562.952942,1217.700806 561.311951,1222.832275 
	C559.720764,1227.807739 556.882996,1228.168945 552.945190,1227.996826 
	C549.446594,1227.844116 545.885681,1227.383545 544.860840,1232.211792 
	C544.703247,1232.954468 543.178101,1233.918213 542.297302,1233.906250 
	C538.696289,1233.857178 535.101318,1233.282471 531.501526,1233.256348 
	C527.524109,1233.227539 522.409729,1230.961060 520.454834,1236.401245 
	C519.364990,1239.434082 518.033020,1239.892334 515.242004,1240.128540 
	C512.144836,1240.390625 507.393982,1240.779541 506.437622,1242.669312 
	C504.297333,1246.898071 501.383270,1247.069214 497.720612,1247.012573 
	C493.889252,1246.953369 490.048157,1247.156738 486.226044,1246.959717 
	C481.572510,1246.719971 477.161041,1246.874634 474.000000,1251.000000 
	C455.645782,1251.000000 437.291534,1251.000000 418.301575,1250.591064 
	C382.753540,1250.122559 347.841187,1250.057495 312.928802,1250.044678 
	C312.285950,1250.044434 311.642914,1250.667603 311.000000,1251.000000 
z"/>
<path fill="#FFFFFF" opacity="1.000000" stroke="none" 
	d="
M474.468658,1251.000000 
	C477.161041,1246.874634 481.572510,1246.719971 486.226044,1246.959717 
	C490.048157,1247.156738 493.889252,1246.953369 497.720612,1247.012573 
	C501.383270,1247.069214 504.297333,1246.898071 506.437622,1242.669312 
	C507.393982,1240.779541 512.144836,1240.390625 515.242004,1240.128540 
	C518.033020,1239.892334 519.364990,1239.434082 520.454834,1236.401245 
	C522.409729,1230.961060 527.524109,1233.227539 531.501526,1233.256348 
	C535.101318,1233.282471 538.696289,1233.857178 542.297302,1233.906250 
	C543.178101,1233.918213 544.703247,1232.954468 544.860840,1232.211792 
	C545.885681,1227.383545 549.446594,1227.844116 552.945190,1227.996826 
	C556.882996,1228.168945 559.720764,1227.807739 561.311951,1222.832275 
	C562.952942,1217.700806 568.472168,1220.268311 572.324219,1220.189331 
	C576.904358,1220.095581 581.496033,1220.790771 586.089050,1220.920776 
	C587.051880,1220.948242 588.610229,1220.237305 588.926636,1219.468384 
	C590.840454,1214.817871 594.567139,1214.696655 598.708191,1214.911011 
	C599.809937,1214.968262 601.641663,1214.219482 601.987976,1213.371338 
	C603.928040,1208.619385 607.776245,1208.802246 611.823669,1208.970703 
	C615.120056,1209.107910 618.665955,1209.622192 619.240173,1204.610107 
	C619.318787,1203.923828 621.957458,1203.051147 623.392395,1203.083618 
	C629.480164,1203.220947 635.569458,1203.988159 641.639465,1203.825317 
	C643.747253,1203.768555 646.662231,1202.184082 647.680908,1200.416748 
	C649.289734,1197.625854 651.200745,1197.271484 653.978943,1196.829712 
	C656.510071,1196.427124 658.770691,1194.491211 661.228394,1193.407959 
	C663.343323,1192.475830 665.532166,1191.270630 667.752563,1191.117798 
	C671.440063,1190.863525 674.836670,1190.953735 676.834045,1186.889282 
	C677.352112,1185.835083 679.533630,1185.144653 680.984192,1185.084351 
	C686.140625,1184.870239 691.351501,1185.375610 696.458191,1184.828491 
	C698.734558,1184.584595 701.622986,1182.987793 702.789185,1181.108643 
	C704.531250,1178.301392 706.565674,1177.952881 709.336182,1177.969971 
	C717.317932,1178.019165 717.999329,1177.283203 718.000122,1169.337524 
	C718.000427,1166.005127 718.105164,1162.668579 717.972168,1159.341431 
	C717.820923,1155.560669 719.472107,1153.998901 723.261353,1153.953857 
	C731.603821,1153.854736 731.998901,1153.339722 731.999634,1144.911865 
	C732.000305,1137.080688 732.235962,1129.240723 731.946106,1121.420288 
	C731.482544,1108.912354 730.342651,1096.423340 730.108826,1083.914795 
	C729.923645,1074.009399 730.555237,1064.080933 731.059082,1054.174561 
	C731.251709,1050.385986 730.306274,1048.595703 726.121460,1048.902344 
	C723.580933,1049.088623 720.866211,1048.638306 718.439087,1047.838623 
	C717.360229,1047.483154 716.107300,1045.551758 716.121094,1044.349365 
	C716.179504,1039.264038 716.665710,1034.182495 717.032471,1029.102173 
	C717.327332,1025.016846 717.770813,1020.940186 717.972839,1016.851013 
	C718.173157,1012.793091 716.005432,1010.927185 712.023254,1010.996216 
	C710.524109,1011.022217 709.024109,1010.993958 707.524536,1011.000732 
	C704.417419,1011.014832 702.864624,1009.906372 702.919006,1006.366821 
	C703.035767,998.773010 702.372681,998.353088 695.047668,997.936584 
	C693.374939,997.841370 690.844482,997.437805 690.259644,996.345703 
	C688.055603,992.230103 684.590027,991.705688 680.668823,992.028809 
	C677.341736,992.302979 675.886414,991.300903 675.916382,987.620605 
	C675.982239,979.521973 675.273315,978.943481 667.295349,979.030945 
	C664.268616,979.064087 661.374878,979.360535 660.051575,975.652344 
	C659.699097,974.664734 658.244629,973.141785 657.688293,973.294373 
	C649.088928,975.653564 644.574402,964.241638 635.872742,966.837524 
	C635.264648,967.018921 633.517822,965.063904 633.118774,963.836365 
	C632.628845,962.329102 632.986084,960.541687 633.001709,958.875610 
	C633.039429,954.860962 631.036743,952.810364 627.049805,953.035339 
	C623.694458,953.224548 621.354675,952.539429 619.323242,949.280518 
	C618.327576,947.683167 614.765808,947.340698 612.297852,947.086670 
	C608.635620,946.709656 604.685425,947.860596 603.443909,942.369019 
	C603.178223,941.193970 599.613953,940.696167 597.525391,940.022522 
	C595.734680,939.445068 592.851135,939.623169 592.236755,938.494812 
	C589.800110,934.019531 586.025513,933.686035 581.793579,934.008850 
	C578.649658,934.248718 576.133545,933.871033 574.525513,930.419128 
	C574.022400,929.339050 571.146729,928.988220 569.345215,928.955383 
	C562.353394,928.827820 555.356812,928.986877 548.362000,928.994019 
	C539.198120,929.003357 530.034302,928.971130 520.870483,928.943481 
	C520.734558,928.943115 520.599182,928.771973 519.864380,928.276611 
	C520.542969,924.206543 521.865967,919.833374 521.839722,915.468201 
	C521.811157,910.712708 523.700378,905.568542 520.137329,901.100525 
	C519.812683,900.693481 521.280151,899.153687 521.250061,898.159973 
	C521.157227,895.088501 520.583496,892.031555 520.489929,888.960083 
	C520.348755,884.327087 520.322876,879.680542 520.527771,875.052124 
	C520.601257,873.392151 521.912720,871.772766 521.931274,870.126648 
	C522.061157,858.640869 522.000000,847.152954 522.000000,835.000366 
	C524.695557,835.000366 527.285583,835.024353 529.875061,834.996765 
	C560.619324,834.669006 591.363403,834.064636 622.107788,834.045349 
	C778.565186,833.947266 935.022644,833.990051 1091.480103,834.042175 
	C1096.897583,834.044006 1102.321533,834.968323 1107.729004,834.849365 
	C1109.834961,834.803040 1112.918213,833.596375 1113.777588,831.975281 
	C1115.551392,828.629150 1117.872559,827.738892 1121.205688,827.996460 
	C1124.674561,828.264404 1126.956787,827.253479 1127.044922,823.195129 
	C1127.128662,819.335144 1130.259888,819.524292 1132.987915,818.901062 
	C1134.907349,818.462524 1136.596802,817.057739 1138.420044,816.146545 
	C1139.944946,815.384399 1141.479004,814.210876 1143.072021,814.096069 
	C1147.639160,813.766663 1151.461548,813.344482 1155.023926,809.215271 
	C1156.830200,807.121704 1162.435181,808.039246 1166.318481,808.072876 
	C1170.904907,808.112610 1175.486694,808.668030 1180.535278,809.000000 
	C1181.000000,956.277283 1181.000000,1103.554565 1181.000000,1251.000000 
	C945.645813,1251.000000 710.291565,1251.000000 474.468658,1251.000000 
z"/>
<path fill="#FFFFFF" opacity="1.000000" stroke="none" 
	d="
M289.531342,1.000001 
	C289.023438,1.333420 288.037201,1.976125 287.071960,1.946050 
	C283.152557,1.823928 279.539093,1.632649 278.349060,6.835253 
	C278.110382,7.878799 275.177368,8.686305 273.397003,8.920166 
	C269.316071,9.456218 264.408356,7.276822 262.457550,13.574284 
	C262.138580,14.603916 258.260010,14.353121 256.147919,15.057602 
	C254.233368,15.696184 252.499283,16.862383 250.657806,17.737383 
	C248.984299,18.532566 247.271454,19.887136 245.579224,19.882175 
	C240.162384,19.866299 234.749435,19.285622 229.330276,19.018421 
	C225.947388,18.851624 223.486542,20.116089 221.881668,23.392418 
	C221.284393,24.611727 219.368469,25.732458 217.933746,25.906210 
	C207.915421,27.119486 206.405838,29.191957 207.960205,38.893757 
	C208.966385,45.174091 209.915802,51.555248 209.917908,57.891548 
	C210.013245,343.028564 209.999710,628.165588 210.013428,913.302612 
	C210.013565,916.304871 210.078705,919.317810 210.332642,922.307190 
	C210.879959,928.749878 206.053375,928.622986 202.011597,928.896301 
	C199.131317,929.091125 196.188995,928.072144 193.270157,928.044983 
	C181.439072,927.934998 169.605469,928.084229 157.774734,927.956665 
	C153.101410,927.906189 150.678848,929.736267 151.007812,934.553467 
	C151.288803,938.668213 149.302933,940.182800 145.339279,940.041565 
	C141.170258,939.893066 136.534561,939.089111 135.735336,945.445496 
	C135.649277,946.129944 132.991089,946.910278 131.521652,946.919067 
	C127.848267,946.941162 124.885384,947.643188 122.801079,951.168335 
	C122.142616,952.281921 119.851044,952.840088 118.269417,952.921082 
	C113.419182,953.169434 108.294525,952.341248 106.799385,959.104858 
	C106.597511,960.018127 103.941277,960.820557 102.371559,960.925232 
	C95.477676,961.384949 93.932343,963.147644 95.344139,969.796875 
	C95.915497,972.487854 95.367218,973.929260 92.288712,974.046448 
	C89.049957,974.169861 85.039108,973.579285 82.762062,975.228638 
	C78.340073,978.431580 74.231461,981.100647 68.530571,980.223633 
	C68.017563,980.144714 66.906601,981.152466 66.780571,981.794434 
	C65.616096,987.725708 61.211933,987.264832 56.338200,986.546021 
	C54.104885,985.679260 52.398376,985.255493 50.667400,984.825684 
	C49.239452,992.982117 49.231472,993.199341 41.429207,992.912659 
	C37.228371,992.758301 34.611267,994.005798 32.858154,997.942078 
	C32.234280,999.342896 30.146397,1000.296875 28.529329,1001.002075 
	C26.110439,1002.056824 23.476223,1002.691345 26.114311,1006.043274 
	C25.547211,1009.990723 23.046774,1011.180176 19.358368,1011.042053 
	C16.941837,1010.951416 14.128017,1010.560242 12.203559,1011.609070 
	C10.595555,1012.485474 10.020634,1015.257385 8.536073,1017.594177 
	C5.722613,1017.998962 3.361306,1017.999512 1.000000,1018.000000 
	C1.000000,679.113464 1.000000,340.226959 1.000000,1.000000 
	C97.020630,1.000000 193.041656,1.000000 289.531342,1.000001 
z"/>
<path fill="#FFFFFF" opacity="1.000000" stroke="none" 
	d="
M1181.000000,247.531342 
	C1178.333862,247.999466 1175.664917,248.071381 1173.003174,247.963165 
	C1171.922119,247.919205 1170.150757,247.780579 1169.897339,247.178299 
	C1168.035889,242.756744 1164.233643,243.140930 1160.502563,242.710419 
	C1157.464722,242.359909 1154.555664,241.633240 1153.075684,237.932022 
	C1152.576416,236.683136 1149.158691,236.213638 1147.033813,236.089981 
	C1143.548828,235.887161 1140.605835,236.012833 1138.800537,231.821198 
	C1137.192993,228.088608 1133.007568,228.899612 1129.584595,229.121735 
	C1125.662598,229.376251 1121.739380,229.940018 1117.829224,229.846512 
	C1116.702026,229.819550 1115.712524,227.851212 1114.493164,227.016388 
	C1112.390747,225.577011 1110.214966,223.329193 1107.968140,223.200729 
	C1102.753174,222.902588 1097.477539,223.956543 1092.226318,223.957947 
	C903.765564,224.007950 715.304871,223.981979 526.844177,224.082260 
	C520.912720,224.085419 518.982422,223.778717 518.986206,216.144653 
	C519.012085,163.822220 518.934448,111.499603 519.087402,59.177620 
	C519.105469,53.014622 520.208923,46.840122 521.018677,40.698582 
	C521.715759,35.411575 519.147278,32.087181 513.803467,32.023472 
	C510.055298,31.978779 506.312042,32.627579 504.188873,28.051279 
	C503.734070,27.071011 500.641663,27.119987 498.750244,27.043661 
	C495.443726,26.910233 492.572815,26.559435 490.838165,22.999151 
	C490.295471,21.885286 487.991669,21.170778 486.450165,21.087809 
	C481.724670,20.833469 476.834991,21.423559 474.276459,15.956022 
	C473.999603,15.364455 472.588684,15.055313 471.697418,15.041881 
	C467.514343,14.978836 463.666992,14.754156 461.782471,9.882524 
	C461.372894,8.823779 458.828094,8.246772 457.201752,8.079506 
	C454.401978,7.791551 451.551117,7.999806 448.617493,7.999806 
	C447.459839,5.881259 446.322235,3.799393 445.092316,1.358763 
	C690.224182,1.000000 935.448303,1.000000 1181.000000,1.000000 
	C1181.000000,83.020607 1181.000000,165.041641 1181.000000,247.531342 
z"/>
<path fill="#FFFFFF" opacity="1.000000" stroke="none" 
	d="
M1181.000000,749.531372 
	C1179.000122,750.000000 1176.998901,749.955566 1175.000488,750.010681 
	C1172.180298,750.088379 1170.005859,749.917969 1168.004395,746.944641 
	C1166.743774,745.071899 1162.956421,744.310547 1160.242554,744.164124 
	C1157.273560,744.003967 1155.820190,742.951843 1153.954346,740.702026 
	C1152.320679,738.732117 1149.076172,737.651184 1146.362915,737.146179 
	C1143.520020,736.617188 1140.952393,737.186829 1139.020752,733.783875 
	C1136.862061,729.980896 1132.407837,730.884399 1128.656128,731.111145 
	C1125.396484,731.308167 1122.136719,731.988098 1118.900879,731.858337 
	C1117.565186,731.804749 1116.319946,730.149902 1114.984253,729.300903 
	C1112.678711,727.835510 1110.397461,725.355652 1107.994019,725.215210 
	C1102.280884,724.881409 1096.502441,725.956360 1090.750244,725.958008 
	C908.255920,726.009155 725.761597,726.000000 543.267273,725.999939 
	C535.255676,725.999939 535.164246,726.001343 535.035217,718.163391 
	C534.965332,713.920715 533.087341,711.865601 528.832703,711.993469 
	C527.500610,712.033508 526.160217,711.917297 524.834167,712.015564 
	C521.003845,712.299438 518.742981,710.964722 518.988342,706.730530 
	C519.208679,702.928772 520.516846,700.430298 524.972351,700.963745 
	C526.779358,701.180176 528.867371,701.519653 530.401184,700.840454 
	C531.884705,700.183533 533.751221,698.276611 533.733582,696.941406 
	C533.716125,695.615173 531.580078,694.298340 530.320435,693.029663 
	C530.153870,692.861938 529.675781,693.018311 529.343567,692.998169 
	C518.999939,692.371338 518.999939,692.370850 518.999939,681.740601 
	C518.999939,665.074463 518.730957,648.402771 519.073303,631.743713 
	C519.438171,613.989929 520.381165,596.248047 521.091309,578.000061 
	C524.705383,578.000061 528.153870,578.097900 531.594910,577.980286 
	C539.514954,577.709656 547.432556,577.040100 555.348938,577.073120 
	C566.101318,577.117981 576.851990,577.972839 587.602600,577.955322 
	C751.683472,577.687500 915.764038,577.285828 1079.844971,577.090576 
	C1093.180664,577.074707 1106.518799,578.319885 1119.854126,579.010620 
	C1123.398804,579.194153 1125.975830,578.215759 1127.888794,574.792664 
	C1128.716919,573.310974 1131.428711,572.829163 1133.338989,572.021484 
	C1134.913452,571.355774 1137.497437,571.327026 1138.021118,570.239319 
	C1139.973267,566.185486 1143.076782,565.531738 1146.956909,565.991821 
	C1150.297485,566.387817 1152.886841,565.722107 1154.608154,562.214661 
	C1155.221680,560.964478 1157.863281,560.117065 1159.577148,560.120361 
	C1163.365967,560.127747 1166.139526,559.067749 1169.319702,556.656372 
	C1171.864502,554.726624 1176.423096,555.452637 1180.543945,555.000000 
	C1181.000000,619.687561 1181.000000,684.375122 1181.000000,749.531372 
z"/>
<path fill="#FFFFFF" opacity="1.000000" stroke="none" 
	d="
M1181.000000,502.531342 
	C1178.167480,502.999634 1175.317383,503.183624 1172.510010,502.917419 
	C1171.200684,502.793243 1169.250854,502.108582 1168.834595,501.142395 
	C1167.010132,496.907471 1163.669922,496.869446 1159.881958,496.889893 
	C1158.134399,496.899353 1155.366333,496.207977 1154.811768,495.018219 
	C1152.827759,490.762268 1149.462524,490.712830 1145.764160,491.011963 
	C1142.595459,491.268280 1140.124390,490.810547 1138.532959,487.380524 
	C1137.941040,486.105072 1135.378540,485.278839 1133.630371,485.107330 
	C1130.529663,484.803070 1128.258789,484.692474 1127.656860,480.564545 
	C1127.056885,476.450317 1121.551270,474.777649 1115.642212,476.093170 
	C1113.906006,476.479767 1112.133789,476.959961 1110.377197,476.963409 
	C921.176636,477.335724 731.975891,477.667175 542.775208,477.998138 
	C534.999329,478.011749 534.999573,477.999146 534.999817,470.109985 
	C535.000061,461.945557 535.031006,453.780945 534.988403,445.616730 
	C534.961365,440.441437 533.528625,439.073547 528.288879,439.002350 
	C526.956177,438.984222 525.619629,438.938782 524.290649,439.011566 
	C520.506958,439.218933 518.939392,437.467316 518.965088,433.688873 
	C519.054443,420.526428 518.999939,407.362976 518.999878,394.199921 
	C518.999756,377.537811 519.120056,360.874298 518.923828,344.214508 
	C518.866943,339.386292 520.734436,337.899811 525.385742,337.929779 
	C549.044922,338.082275 572.705688,338.003571 596.365845,337.996307 
	C599.822571,337.995239 603.303040,338.362915 604.360229,333.523895 
	C604.602112,332.416809 607.154724,331.600586 608.781372,331.080597 
	C609.991211,330.693787 611.423035,331.000153 612.755981,331.000153 
	C757.216431,330.999969 901.676880,331.007324 1046.137329,330.964264 
	C1050.422119,330.962982 1053.967651,331.210052 1056.164429,335.943451 
	C1057.807861,339.484680 1067.382446,338.919098 1069.174561,335.311584 
	C1070.918091,331.801422 1073.526733,330.843079 1077.087769,330.981720 
	C1087.002075,331.367920 1096.920166,331.660889 1106.836182,332.004791 
	C1110.521484,332.132599 1113.426636,331.220123 1115.263916,327.501190 
	C1115.881592,326.250763 1118.227173,324.996796 1119.631958,325.147980 
	C1124.462036,325.667847 1127.117188,323.630859 1128.343506,318.773407 
	C1134.801147,319.184509 1141.198364,319.847198 1147.596802,319.858032 
	C1149.781860,319.861725 1153.048462,318.823486 1153.932617,317.220032 
	C1155.808350,313.818573 1158.351807,314.027985 1161.339478,313.925293 
	C1163.214355,313.860870 1166.130981,313.635529 1166.745972,312.494110 
	C1169.922852,306.597382 1175.202271,308.106903 1180.542725,308.000000 
	C1181.000000,372.687561 1181.000000,437.375122 1181.000000,502.531342 
z"/>
<path fill="#FFFFFF" opacity="1.000000" stroke="none" 
	d="
M8.833319,1152.000732 
	C9.251925,1159.307739 9.981984,1160.106812 17.308392,1159.951538 
	C21.047005,1159.872314 24.042143,1160.387695 26.587900,1163.744141 
	C27.738100,1165.260742 30.840595,1165.858887 33.062695,1165.870728 
	C36.571243,1165.889282 38.201904,1166.654785 38.089172,1170.603027 
	C37.906933,1176.985474 39.131573,1178.023804 45.421532,1177.979370 
	C48.760593,1177.955811 51.567337,1177.776123 53.317894,1181.957642 
	C54.049660,1183.705444 58.121403,1184.506836 60.790329,1184.857544 
	C63.181156,1185.171631 64.934746,1185.254272 66.148575,1187.829590 
	C66.684677,1188.967163 68.889404,1189.792725 70.399315,1189.903198 
	C74.175209,1190.179565 77.397415,1190.478638 80.039062,1194.122437 
	C81.208572,1195.735718 85.035797,1195.952393 87.629875,1195.877563 
	C91.484764,1195.766479 94.006180,1196.686401 95.995773,1200.326294 
	C96.830002,1201.852539 99.901924,1202.190796 101.988007,1202.986694 
	C103.729301,1203.651245 106.555824,1203.711426 107.099167,1204.878540 
	C109.178925,1209.345825 112.734200,1209.330322 116.595581,1208.986450 
	C120.095581,1208.674805 122.852486,1209.162598 124.715416,1212.877808 
	C125.367027,1214.177124 128.373260,1214.195801 130.197128,1215.032593 
	C132.477676,1216.078979 134.633560,1217.393799 136.870132,1218.540405 
	C138.552521,1219.403076 140.252609,1220.809082 141.987991,1220.877441 
	C146.375443,1221.050171 149.914215,1221.166016 152.266602,1226.234863 
	C154.303925,1230.625000 159.469101,1228.955566 163.466080,1228.799805 
	C168.063858,1228.620728 172.653214,1228.178589 177.250992,1228.085449 
	C178.202179,1228.066162 179.917053,1228.965088 180.019379,1229.633667 
	C180.842224,1235.011108 184.906189,1233.611816 188.304199,1234.135010 
	C189.977066,1234.392334 192.193024,1235.657104 192.850861,1237.074951 
	C194.457886,1240.538696 196.992325,1241.322266 200.297760,1240.986938 
	C204.000290,1240.611206 206.932114,1241.395264 209.150467,1244.861206 
	C209.949036,1246.108887 212.363464,1246.877930 214.056763,1246.906860 
	C224.714218,1247.088135 235.376572,1247.040405 246.036438,1246.955444 
	C247.622910,1246.942627 249.190964,1246.159668 250.791061,1246.034912 
	C255.984039,1245.630249 261.125610,1245.570312 264.894287,1250.640381 
	C177.106140,1251.000000 89.212296,1251.000000 1.000000,1251.000000 
	C1.000000,1218.313110 1.000000,1185.625122 1.358838,1152.504395 
	C4.089557,1152.048096 6.461438,1152.024414 8.833319,1152.000732 
z"/>
<path fill="#FFFFFF" opacity="1.000000" stroke="none" 
	d="
M311.468628,1251.000000 
	C311.642914,1250.667603 312.285950,1250.044434 312.928802,1250.044678 
	C347.841187,1250.057495 382.753540,1250.122559 417.832947,1250.591064 
	C382.645782,1251.000000 347.291534,1251.000000 311.468628,1251.000000 
z"/>
<path fill="#FFFFFF" opacity="1.000000" stroke="none" 
	d="
M0.999981,1070.468628 
	C1.666296,1070.977417 2.889658,1071.943115 2.910407,1072.933960 
	C3.069482,1080.529297 3.025137,1088.129761 2.940104,1095.727417 
	C2.932515,1096.405518 2.189062,1097.075317 1.393683,1097.874512 
	C1.000000,1088.979126 1.000000,1079.958130 0.999981,1070.468628 
z"/>
<path fill="#FEFEFE" opacity="1.000000" stroke="none" 
	d="
M1.000000,1018.449951 
	C3.361306,1017.999512 5.722613,1017.998962 8.458586,1017.998779 
	C9.403815,1021.117798 8.674864,1023.273560 5.148756,1024.113281 
	C3.865444,1024.418945 2.853921,1025.865845 1.359193,1026.895996 
	C1.000000,1024.300049 1.000000,1021.599976 1.000000,1018.449951 
z"/>
<path fill="#FEFEFE" opacity="1.000000" stroke="none" 
	d="
M8.910585,1151.611450 
	C6.461438,1152.024414 4.089557,1152.048096 1.358838,1152.035889 
	C1.000000,1149.629395 1.000000,1147.258911 1.000000,1144.444092 
	C3.751437,1146.309204 9.611112,1145.180542 8.910585,1151.611450 
z"/>
<path fill="#FEFEFE" opacity="1.000000" stroke="none" 
	d="
M26.467396,1005.885620 
	C23.476223,1002.691345 26.110439,1002.056824 28.529329,1001.002075 
	C30.146397,1000.296875 32.234280,999.342896 32.858154,997.942078 
	C34.611267,994.005798 37.228371,992.758301 41.429207,992.912659 
	C49.231472,993.199341 49.239452,992.982117 50.667400,984.825684 
	C52.398376,985.255493 54.104885,985.679260 55.905640,986.468628 
	C52.741169,988.477173 52.676796,991.335022 53.132351,994.386475 
	C53.536186,997.091553 52.906441,998.990295 49.679291,999.005920 
	C45.218048,999.027527 40.446007,998.077637 37.847870,1003.444153 
	C37.541687,1004.076538 35.416561,1003.755005 34.164574,1004.018188 
	C31.705399,1004.535095 29.267303,1005.152283 26.467396,1005.885620 
z"/>
</svg>