<svg version="1.1" id="Layer_1" xmlns="http://www.w3.org/2000/svg" xmlns:xlink="http://www.w3.org/1999/xlink" x="0px" y="0px"
	 width="100%" viewBox="0 0 1180 1250" enable-background="new 0 0 1180 1250" xml:space="preserve">
<path fill="#000000" opacity="1.000000" stroke="none" 
	d="
M579.000000,1.000000 
	C591.687561,1.000000 604.375122,1.000000 617.531372,1.450280 
	C618.000000,3.501874 618.000000,5.103189 618.000000,7.000006 
	C622.240845,7.000006 626.127930,6.526883 629.835144,7.140585 
	C633.166504,7.692080 636.300354,9.437145 640.018188,10.843694 
	C640.018188,12.462438 640.018188,14.553793 640.018188,15.766123 
	C644.450989,17.405157 648.259033,18.813160 652.102905,20.234434 
	C652.102905,22.315231 652.102905,23.947206 652.102905,25.579182 
	C652.579651,25.301208 653.056335,25.023235 653.533081,24.745262 
	C655.771973,28.093407 658.010864,31.441551 660.249695,34.789696 
	C659.895081,35.103394 659.540466,35.417091 659.185791,35.730789 
	C660.405945,35.910606 661.626099,36.090424 663.085022,36.305435 
	C662.431641,39.559517 663.002197,41.815025 666.430603,41.194107 
	C667.541870,44.603256 668.523865,47.615959 669.580688,50.858013 
	C670.486511,50.954342 671.581177,51.070744 672.797241,51.200062 
	C674.232422,55.983028 675.639038,60.670860 677.198792,65.869034 
	C677.859070,65.955276 679.394043,66.155746 681.044922,66.371361 
	C681.044922,69.520042 679.952087,74.050331 681.234985,74.872162 
	C686.655334,78.344490 682.776306,83.186325 683.972656,87.118744 
	C684.343872,88.338913 684.357117,90.761047 684.588989,90.767845 
	C688.547974,90.884010 686.899902,93.862045 686.928040,95.553230 
	C687.080566,104.716637 686.994568,113.883911 687.018066,123.049782 
	C687.019653,123.670616 687.245178,124.290886 687.358276,124.869110 
	C688.984741,124.993385 690.398804,125.101440 692.000000,125.223785 
	C692.000000,156.563538 691.864685,187.542526 692.162903,218.517334 
	C692.202393,222.619156 689.905457,227.080276 694.643677,231.314636 
	C697.227539,233.623688 696.576843,239.552231 697.329285,243.552505 
	C699.965576,243.955231 701.492798,244.188522 701.664429,244.214737 
	C703.670105,248.134308 705.147949,251.022369 706.739258,254.132172 
	C709.027954,254.132172 711.317749,254.132172 713.720154,254.132172 
	C713.952942,255.868744 714.158081,257.399048 714.387329,259.109009 
	C806.670532,259.109009 898.621155,259.109009 990.751770,259.109009 
	C990.956848,260.840973 991.137939,262.370087 991.341431,264.088409 
	C1000.639343,264.088409 1009.597412,264.088409 1018.767517,264.088409 
	C1018.955688,265.822968 1019.121582,267.352478 1019.325073,269.228821 
	C1025.753052,269.228821 1031.849243,269.228821 1037.837891,269.228821 
	C1038.002441,271.384308 1038.135864,273.131622 1038.283936,275.071838 
	C1041.944946,275.071838 1045.240112,275.071838 1048.741577,275.071838 
	C1048.934937,276.462372 1049.102173,277.664734 1049.316284,279.203613 
	C1053.049316,279.203613 1056.478638,279.203613 1059.830933,279.203613 
	C1059.991821,281.359833 1060.123535,283.124023 1060.267700,285.054871 
	C1062.229370,285.054871 1063.861816,285.054871 1065.754150,285.054871 
	C1065.923584,286.424255 1066.073364,287.635895 1066.221191,288.831024 
	C1068.666260,288.978180 1070.754761,289.103851 1072.835327,289.229065 
	C1072.982056,291.321350 1073.104980,293.073334 1073.240967,295.012756 
	C1075.862915,295.012756 1078.158447,295.012756 1080.796997,295.012756 
	C1080.936523,296.376648 1081.061035,297.593262 1081.188721,298.841675 
	C1083.629761,298.978516 1085.722656,299.095825 1087.991943,299.223053 
	C1087.991943,301.156647 1087.991943,302.786469 1087.991943,304.594238 
	C1091.538208,306.104370 1094.980225,307.570038 1099.052979,309.304352 
	C1099.052979,310.538757 1099.052979,312.643646 1099.052979,313.956573 
	C1102.040039,315.860962 1104.396484,317.363251 1106.921509,318.973083 
	C1106.982666,320.346222 1107.054932,321.971954 1107.143188,323.953094 
	C1109.752075,323.953094 1112.186646,323.953094 1114.034668,323.953094 
	C1116.318604,328.926239 1118.362427,333.376495 1120.420654,337.858093 
	C1121.940430,337.964294 1123.363892,338.063782 1123.499634,338.073273 
	C1126.702393,343.709045 1129.391968,348.441895 1132.521606,353.948975 
	C1132.559570,353.956085 1133.764526,354.181885 1135.128540,354.437500 
	C1135.128540,357.711548 1135.128540,360.676788 1135.128540,363.799561 
	C1136.421997,363.935272 1137.512939,364.049713 1138.950684,364.200562 
	C1138.950684,365.741394 1138.950684,367.159973 1138.950684,368.692657 
	C1140.490479,368.944458 1141.718506,369.145294 1142.836182,369.328094 
	C1144.274780,374.146942 1145.630981,378.690186 1147.187866,383.905396 
	C1147.421997,383.931671 1148.626221,384.066803 1150.012695,384.222412 
	C1150.012695,387.533783 1150.012695,390.497589 1150.012695,393.807007 
	C1151.402710,393.941650 1152.605347,394.058136 1154.221191,394.214661 
	C1154.221191,397.508942 1153.279663,402.571686 1154.385620,403.067566 
	C1158.955322,405.116394 1156.002563,408.804535 1157.298462,411.575653 
	C1158.437500,411.874207 1159.740845,412.215820 1161.064697,412.562836 
	C1161.064697,417.716095 1161.064697,422.535583 1161.064697,427.548248 
	C1162.425171,427.886658 1163.728882,428.210938 1165.000122,428.527161 
	C1165.000122,432.197205 1164.935303,435.531921 1165.038452,438.861450 
	C1165.070557,439.898376 1165.433472,440.977020 1165.865967,441.937042 
	C1166.468506,443.275116 1167.866333,444.503387 1167.902466,445.807037 
	C1168.104980,453.094513 1168.000000,460.390564 1168.000000,467.654144 
	C1169.935547,467.949280 1171.464478,468.182404 1172.804199,468.386688 
	C1172.804199,571.404846 1172.804199,674.021484 1172.804199,776.698242 
	C1171.096558,776.948975 1169.569824,777.173157 1168.000000,777.403687 
	C1168.000000,784.576172 1168.016479,791.402893 1167.983643,798.229431 
	C1167.978149,799.364075 1167.954346,801.418091 1167.607178,801.492188 
	C1163.183594,802.436279 1165.327148,805.867615 1165.081665,808.179810 
	C1164.752319,811.282471 1165.000000,814.446411 1165.000000,817.704712 
	C1163.496704,817.944092 1162.296631,818.135132 1160.920776,818.354126 
	C1160.920776,822.967651 1160.920776,827.266113 1160.920776,831.721863 
	C1159.516724,831.937500 1158.311279,832.122620 1157.611450,832.230042 
	C1156.987061,835.463135 1156.574951,838.248474 1155.865356,840.955872 
	C1155.572998,842.071838 1154.239136,842.963806 1154.086060,844.056702 
	C1153.791382,846.160034 1154.000122,848.333862 1154.000122,850.782715 
	C1152.603149,850.932556 1151.388916,851.062805 1149.991455,851.212708 
	C1149.991455,854.528137 1149.991455,857.492004 1149.991455,860.808350 
	C1148.601685,860.942200 1147.399048,861.057983 1147.241211,861.073181 
	C1145.587158,866.478699 1144.159058,871.145813 1142.738525,875.787964 
	C1141.445801,875.956116 1140.353394,876.098206 1138.927490,876.283630 
	C1138.927490,877.868835 1138.927490,879.289856 1138.927490,880.796265 
	C1137.486816,880.956665 1136.394409,881.078308 1134.963135,881.237610 
	C1134.963135,882.827332 1134.963135,884.245911 1134.963135,885.658508 
	C1133.413330,885.959167 1132.214600,886.191772 1130.745239,886.476807 
	C1132.651001,894.459900 1126.997314,899.618591 1124.381104,905.848389 
	C1122.960938,905.990601 1121.542725,906.129028 1121.084106,906.173767 
	C1118.479126,911.700134 1116.206177,916.521667 1113.596680,922.057495 
	C1112.126099,922.057495 1109.690430,922.057495 1107.254761,922.057495 
	C1107.460205,922.434387 1107.665527,922.811340 1107.870972,923.188232 
	C1106.364990,924.517822 1104.859009,925.847351 1102.833984,927.635254 
	C1102.833984,928.431702 1102.833984,930.058472 1102.833984,931.666077 
	C1099.183716,933.181152 1095.715820,934.620483 1091.874634,936.214722 
	C1091.874634,937.660583 1091.874634,939.628967 1091.874634,941.716736 
	C1088.287476,943.197571 1084.823975,944.627319 1081.109375,946.160767 
	C1081.014160,947.360168 1080.874878,949.114075 1080.721680,951.043640 
	C1078.101318,951.043640 1075.804077,951.043640 1073.260376,951.043640 
	C1073.081787,952.410278 1072.922485,953.628906 1072.765137,954.833130 
	C1070.333618,954.978394 1068.244141,955.103271 1066.171753,955.227051 
	C1066.017822,957.324158 1065.888550,959.083130 1065.746826,961.013306 
	C1063.812500,961.013306 1062.181885,961.013306 1060.237671,961.013306 
	C1060.073853,962.380249 1059.928955,963.589905 1059.742920,965.142334 
	C1056.045776,965.142334 1052.615601,965.142334 1049.129517,965.142334 
	C1049.017334,967.274658 1048.925293,969.023987 1048.822632,970.977112 
	C1045.176758,970.977112 1041.883789,970.977112 1038.528076,970.977112 
	C1038.122925,972.466248 1037.771484,973.758423 1037.371582,975.228333 
	C1031.122192,975.228333 1025.172852,975.228333 1018.864990,975.228333 
	C1018.864990,977.242859 1018.864990,978.985046 1018.864990,981.102051 
	C1009.409851,981.102051 1000.314575,981.102051 990.875427,981.102051 
	C990.875427,982.895935 990.875427,984.305054 990.875427,986.078186 
	C898.434143,986.078186 806.348511,986.078186 714.318604,986.078186 
	C714.032166,987.980469 713.803467,989.499573 713.548950,991.189941 
	C710.856079,991.189941 708.566223,991.189941 706.855042,991.189941 
	C705.196411,994.567688 703.762085,997.488831 702.045105,1000.985413 
	C701.226501,1000.985413 699.807068,1000.985413 699.713989,1000.985413 
	C695.918213,1005.612061 694.024536,1010.017822 694.942810,1015.132690 
	C694.964050,1015.251404 694.802185,1015.506836 694.690002,1015.530884 
	C690.166870,1016.499023 692.093018,1020.129761 692.083252,1022.572144 
	C691.957336,1054.069214 692.002747,1085.566772 691.986206,1117.064209 
	C691.985718,1118.013916 691.783020,1118.963501 691.679871,1119.867188 
	C689.999573,1119.993896 688.588745,1120.100342 687.000000,1120.220215 
	C687.000000,1129.910278 687.001282,1139.224365 686.998413,1148.538452 
	C686.998047,1149.704834 687.421631,1151.603760 686.894592,1151.924683 
	C681.290161,1155.338013 685.081543,1160.686279 684.022156,1164.984985 
	C683.713379,1166.237793 683.739868,1168.664185 683.495117,1168.679565 
	C679.312561,1168.941895 681.404297,1172.075439 681.059692,1173.931519 
	C680.769653,1175.493286 681.000000,1177.151733 681.000000,1179.122070 
	C679.098938,1179.122070 677.690491,1179.122070 677.210815,1179.122070 
	C675.607849,1184.401855 674.189880,1189.072266 672.748108,1193.821289 
	C671.514648,1193.951172 670.419067,1194.066528 669.554016,1194.157593 
	C668.495911,1197.456299 667.527466,1200.475464 666.467346,1203.780396 
	C665.520813,1203.930786 664.299866,1204.124756 663.104492,1204.314697 
	C663.022278,1205.927124 662.955994,1207.226074 662.889771,1208.525146 
	C662.428650,1208.276123 661.967590,1208.027100 661.506470,1207.778076 
	C659.294312,1211.475464 657.082153,1215.172729 654.869995,1218.870117 
	C655.064453,1218.940918 655.258911,1219.011719 655.453369,1219.082520 
	C653.061768,1221.081177 650.670227,1223.079956 647.786987,1225.489380 
	C647.786987,1226.511108 647.786987,1228.117676 647.786987,1228.937622 
	C642.978210,1230.567505 638.682251,1232.023682 633.958984,1233.624512 
	C633.958984,1235.494995 633.958984,1237.575439 633.958984,1240.000000 
	C630.291260,1240.000000 626.991455,1239.986084 623.691833,1240.005859 
	C622.034241,1240.015747 619.173645,1239.581055 618.909424,1240.209717 
	C616.736877,1245.379883 612.438477,1242.732788 609.245056,1242.869507 
	C600.428589,1243.246948 591.585327,1243.013306 582.752808,1242.983643 
	C581.619263,1242.979736 579.561951,1242.938599 579.493286,1242.598999 
	C578.580566,1238.086670 575.097351,1240.343628 572.801331,1240.089844 
	C569.586548,1239.734253 566.303162,1240.000000 562.696289,1240.000000 
	C562.696289,1237.216187 562.696289,1235.131104 562.696289,1233.700195 
	C558.208862,1232.020630 554.254395,1230.540527 550.119080,1228.992676 
	C550.009521,1227.618164 549.869934,1225.866943 549.716309,1223.939209 
	C547.073303,1223.939209 544.773376,1223.939209 542.509949,1223.939209 
	C540.958313,1220.656616 539.494141,1217.559082 537.861267,1214.104736 
	C536.370972,1214.021118 534.274841,1213.903442 531.770569,1213.762939 
	C532.575928,1210.491699 532.168579,1208.120117 527.897827,1208.989014 
	C527.897827,1207.106201 527.897827,1205.692871 527.897827,1203.915283 
	C525.442078,1203.915283 523.351318,1203.915283 521.120728,1203.915283 
	C521.026062,1202.126343 520.950439,1200.696289 520.871521,1199.204224 
	C519.481201,1199.043457 518.389954,1198.917236 517.315002,1198.792969 
	C517.050903,1197.053101 516.817993,1195.518433 516.560303,1193.820801 
	C514.242920,1193.820801 512.285522,1193.820801 509.976593,1193.820801 
	C509.976593,1192.186035 509.976593,1190.770386 509.976593,1188.996826 
	C508.201904,1188.996826 506.784454,1188.996826 505.916595,1188.996826 
	C504.179901,1185.381470 502.698822,1182.298218 501.073364,1178.914429 
	C499.371918,1178.914429 497.410553,1178.914429 496.122467,1178.914429 
	C494.568848,1176.103149 493.286987,1173.779175 492.001038,1171.457520 
	C490.714233,1169.134399 489.423431,1166.813477 487.793549,1163.877563 
	C486.063080,1163.877563 483.627502,1163.877563 481.191895,1163.877563 
	C481.470703,1163.500732 481.749542,1163.123901 482.028351,1162.747192 
	C480.531464,1161.043335 479.034546,1159.339478 476.791748,1156.786743 
	C476.791748,1156.502441 476.791748,1154.893188 476.791748,1152.932617 
	C474.441772,1152.932617 472.343567,1152.932617 470.245392,1152.932617 
	C470.514832,1152.482300 470.784271,1152.031860 471.053711,1151.581543 
	C468.164154,1149.362427 465.274597,1147.143311 461.710968,1144.406494 
	C461.710968,1143.204956 461.710968,1141.129395 461.710968,1140.272949 
	C457.630127,1138.476440 454.355194,1137.034790 451.181641,1135.637695 
	C451.017731,1133.630615 450.874786,1131.880615 450.734161,1130.158569 
	C448.292511,1130.020264 446.192993,1129.901245 444.948914,1129.830811 
	C443.133942,1126.246094 441.662384,1123.339600 440.042450,1120.140137 
	C439.397217,1120.049683 438.308136,1119.896973 436.885193,1119.697388 
	C436.885193,1118.091187 436.885193,1116.680054 436.885193,1114.904297 
	C434.433624,1114.904297 432.339447,1114.904297 430.142578,1114.904297 
	C430.030823,1113.111084 429.941620,1111.679321 429.850189,1110.212524 
	C428.467804,1110.042725 427.373077,1109.908203 426.834564,1109.842163 
	C425.144867,1106.309326 423.668518,1103.222656 422.059570,1099.858643 
	C419.958313,1099.858643 417.662598,1099.858643 415.855408,1099.858643 
	C414.185089,1096.392700 412.703003,1093.317261 411.069977,1089.928711 
	C409.053131,1089.928711 406.756775,1089.928711 404.924316,1089.928711 
	C403.219543,1086.474976 401.709320,1083.415283 400.090790,1080.136230 
	C399.019836,1080.033447 397.599304,1079.897217 396.184296,1079.761353 
	C396.036377,1078.040649 395.914581,1076.623779 395.787964,1075.150757 
	C393.379974,1075.021484 391.287140,1074.909180 389.016724,1074.787354 
	C389.016724,1072.857178 389.016724,1071.225098 389.016724,1069.593018 
	C388.710541,1069.777466 388.404358,1069.961792 388.098175,1070.146240 
	C386.665100,1068.521362 385.232056,1066.896606 383.375610,1064.791748 
	C382.489258,1064.791748 380.876801,1064.791748 379.264343,1064.791748 
	C379.614899,1064.465210 379.965424,1064.138794 380.315948,1063.812256 
	C377.933075,1060.367554 375.550201,1056.922729 373.167328,1053.477905 
	C372.727631,1053.732544 372.287964,1053.987183 371.848267,1054.241821 
	C371.848267,1052.619995 371.848267,1050.998047 371.848267,1049.009766 
	C369.549896,1049.009766 367.456879,1049.009766 365.330658,1049.009766 
	C365.041504,1047.443481 364.817078,1046.227905 364.627289,1045.199951 
	C362.866943,1044.992798 361.450653,1044.826172 360.084717,1044.665405 
	C359.923889,1038.228882 358.652679,1037.192261 349.168243,1035.425171 
	C348.793915,1027.686646 347.935822,1026.908203 339.976013,1025.776367 
	C336.930847,1021.366821 334.552399,1017.922791 332.173950,1014.478760 
	C331.731476,1014.734558 331.289032,1014.990295 330.846558,1015.246094 
	C330.846558,1013.620972 330.846558,1011.995850 330.846558,1010.008667 
	C328.879211,1010.008667 327.119324,1010.008667 324.591492,1010.008667 
	C327.193481,1004.989929 322.798737,1006.475403 321.208984,1005.598206 
	C321.002930,1003.889343 320.833160,1002.481567 320.642792,1000.902832 
	C318.359772,1000.902832 316.399902,1000.902832 314.077545,1000.902832 
	C314.077545,999.284546 314.077545,997.871033 314.077545,995.967407 
	C309.640198,996.999634 309.641327,994.292236 310.069855,991.013550 
	C305.319427,992.179260 306.034943,988.654602 305.791962,986.158203 
	C303.339355,986.019775 301.244110,985.901550 298.903046,985.769409 
	C299.550690,982.462219 299.041748,980.169373 295.030914,980.917603 
	C295.030914,978.858948 295.030914,977.225220 295.030914,975.591431 
	C294.720093,975.777893 294.409241,975.964294 294.098419,976.150696 
	C292.665680,974.523438 291.232941,972.896179 289.379211,970.790771 
	C287.821503,970.790771 285.537476,970.790771 284.146301,970.790771 
	C282.375641,967.142456 280.886169,964.073547 279.316711,960.839844 
	C276.925446,960.839844 274.631989,960.839844 272.764374,960.839844 
	C271.761108,957.774841 271.091583,954.958557 269.918304,952.370605 
	C268.832886,949.976440 267.208191,947.826721 266.121246,946.057922 
	C262.305023,944.549561 258.567291,943.072205 254.927399,941.633484 
	C254.927399,939.233093 254.927399,937.415283 254.927399,935.378052 
	C251.471802,933.902649 248.030121,932.433167 243.949158,930.690796 
	C243.949158,929.807983 243.949158,928.046692 243.949158,927.018127 
	C239.126724,924.341736 236.730560,920.916077 236.658127,915.877869 
	C234.336655,915.877869 232.372498,915.877869 230.285477,915.877869 
	C230.050842,914.485046 229.846100,913.269592 229.666534,912.203674 
	C227.917404,912.005066 226.502213,911.844421 225.167343,911.692871 
	C225.008255,909.593201 224.875168,907.836670 224.729706,905.916931 
	C222.736725,905.916931 221.101807,905.916931 220.846848,905.916931 
	C218.602509,903.702087 217.159042,902.277649 215.062546,900.208740 
	C215.018723,899.649536 214.881104,897.893677 214.747147,896.184753 
	C212.652618,896.017395 210.890930,895.876648 209.181564,895.740051 
	C209.016403,894.003967 208.880661,892.577026 208.749786,891.201355 
	C207.012909,891.030029 205.585678,890.889282 204.871674,890.818848 
	C203.921570,888.846863 203.253098,887.417175 202.547348,886.006042 
	C201.784332,884.480347 200.986511,882.971985 199.925293,880.916504 
	C198.104187,880.916504 195.672989,880.916504 193.873108,880.916504 
	C192.126740,877.273254 190.649490,874.191467 189.040802,870.835449 
	C186.927216,870.835449 184.631516,870.835449 182.881577,870.835449 
	C181.232391,867.481384 179.796280,864.560669 178.122742,861.157104 
	C177.504883,861.057678 176.288681,860.862061 175.182800,860.684143 
	C175.007156,858.930420 174.866089,857.521851 174.707336,855.936523 
	C172.061005,855.936523 169.764816,855.936523 168.014297,855.936523 
	C165.056030,850.985962 162.349091,846.455933 159.438095,841.584473 
	C156.806656,840.460632 153.368668,838.992310 149.839020,837.484802 
	C149.839020,835.609619 149.839020,833.988708 149.839020,832.001892 
	C147.539276,832.001892 145.446136,832.001892 143.209091,832.001892 
	C143.059769,830.560669 142.946808,829.470337 142.823349,828.278809 
	C141.127747,828.046997 139.576233,827.834839 139.263779,827.792114 
	C137.364700,823.994873 135.912766,821.091736 134.263382,817.793762 
	C131.957413,817.793762 129.528381,817.793762 127.099342,817.793762 
	C127.463303,817.424561 127.827255,817.055298 128.191208,816.686096 
	C125.936691,813.357910 123.682175,810.029663 121.427658,806.701477 
	C120.910149,806.970642 120.392632,807.239807 119.875122,807.508911 
	C119.875122,805.752441 119.875122,803.995972 119.875122,802.151917 
	C117.410744,802.027771 115.310486,801.921997 113.155922,801.813477 
	C113.034607,800.091797 112.933815,798.661377 112.832504,797.223572 
	C111.450806,797.043823 110.358139,796.901672 108.931068,796.716003 
	C108.931068,795.134644 108.931068,793.714539 108.931068,792.202637 
	C107.491249,792.043640 106.399574,791.923157 105.314163,791.803284 
	C105.051743,790.063965 104.819923,788.527466 104.563965,786.830994 
	C102.591858,786.830994 100.966301,786.830994 99.830757,786.830994 
	C98.169754,783.360413 96.693855,780.276611 95.078018,776.900391 
	C93.014252,776.900391 90.718483,776.900391 88.898994,776.900391 
	C87.208488,773.444763 85.710709,770.383057 83.967293,766.819214 
	C81.972549,766.819214 79.542419,766.819214 77.931702,766.819214 
	C76.146004,763.265381 74.683784,760.355347 73.045265,757.094482 
	C72.077873,757.032593 70.655968,756.941589 68.891541,756.828674 
	C68.891541,755.094482 68.891541,753.684875 68.891541,751.914001 
	C66.096596,751.914001 63.666821,751.914001 61.431046,751.914001 
	C60.066193,748.118774 58.851562,744.708435 57.587132,741.316711 
	C57.519775,741.136108 57.014507,741.147156 56.743149,741.009705 
	C53.961197,739.600159 51.185398,738.178467 48.066513,736.585754 
	C47.926277,731.110474 46.175018,728.591797 41.109310,727.430420 
	C41.015873,725.707764 40.920746,723.953979 40.815292,722.009766 
	C38.162170,722.009766 35.865143,722.009766 33.560020,722.009766 
	C31.988729,718.745850 30.502796,715.659180 28.801037,712.124268 
	C28.356237,712.027527 27.164345,711.768250 25.817974,711.475403 
	C25.817974,708.533081 25.817974,705.901428 25.817974,703.190796 
	C24.505831,703.043884 23.409649,702.921143 22.895016,702.863525 
	C21.211765,699.443909 19.779537,696.534241 18.115553,693.153748 
	C17.491610,693.054016 16.284864,692.861145 14.906736,692.640869 
	C14.906736,689.353516 14.906736,686.391724 14.906736,683.273438 
	C13.507803,683.059448 12.306707,682.875732 11.001322,682.676086 
	C11.001322,679.517700 11.006132,676.696472 10.999500,673.875183 
	C10.995584,672.208923 11.624649,669.535095 10.855283,669.037842 
	C5.371846,665.494202 9.080390,660.227356 8.017204,655.930237 
	C7.789701,655.010681 7.783268,654.036438 7.680305,653.133972 
	C6.004218,653.006592 4.590562,652.899170 3.280576,652.799622 
	C3.280576,632.644348 3.280576,612.888672 3.280576,593.137878 
	C4.977019,593.008728 6.392368,592.900940 7.833403,592.791199 
	C7.833403,587.950073 7.833403,583.475281 7.911165,578.670166 
	C8.047990,577.893372 8.107052,577.446899 8.186874,577.004761 
	C8.207637,577.008972 8.253919,576.941528 8.647927,576.674988 
	C10.016287,571.747070 10.990639,567.085754 12.020278,562.159912 
	C12.598910,562.040955 13.799112,561.794189 15.143594,561.517822 
	C15.143594,558.262573 15.143594,555.296082 15.143594,553.348511 
	C17.733032,551.119629 20.528187,549.812866 21.363091,547.723083 
	C22.462957,544.970093 22.022791,541.601807 22.262388,538.251526 
	C23.436279,538.082642 24.649170,537.908203 26.018047,537.711304 
	C26.018047,535.798523 26.018047,534.169189 26.018047,532.539856 
	C26.502386,532.815369 26.986723,533.090881 27.471062,533.366394 
	C29.766092,529.881165 32.061123,526.395935 34.480461,522.721924 
	C37.505077,521.559326 41.281044,520.107971 44.900955,518.716614 
	C45.095318,511.213562 46.333149,509.985046 53.648590,508.651672 
	C56.670460,503.043976 59.328770,498.110931 62.179008,492.821716 
	C64.098099,492.821716 66.385612,492.821716 69.024345,492.821716 
	C69.024345,491.187286 69.024345,489.773956 69.024345,488.005371 
	C70.790901,488.005371 72.205498,488.005371 73.070297,488.005371 
	C74.812126,484.402008 76.296234,481.331787 77.996010,477.815430 
	C80.061127,477.815430 82.488480,477.815430 85.035110,477.815430 
	C84.955559,476.312378 84.894363,475.156158 84.938553,473.728088 
	C85.362595,473.248566 85.681244,473.040863 86.421898,472.903625 
	C87.473709,471.348083 88.103516,469.722107 88.819199,467.874451 
	C91.033218,467.874451 93.325844,467.874451 95.128723,467.874451 
	C96.810471,464.404236 98.299278,461.332123 99.850792,458.130646 
	C101.386650,458.013916 103.145874,457.880188 104.905090,457.746460 
	C104.610329,457.399475 104.315567,457.052521 104.020798,456.705536 
	C105.354935,455.065796 106.689064,453.426056 108.023193,451.786316 
	C108.426079,449.432465 108.979187,447.172028 112.881973,447.909210 
	C112.977509,445.733215 113.054497,443.979584 113.139748,442.037842 
	C115.467751,442.037842 117.427216,442.037842 120.196541,442.037842 
	C118.003128,437.437042 122.070724,438.356934 124.193420,437.366394 
	C124.193420,435.529266 124.193420,433.918884 124.193420,431.956543 
	C126.866890,431.956543 129.299973,431.956543 131.243103,431.956543 
	C133.896103,427.046326 136.290176,422.615295 138.904388,417.776855 
	C141.064362,417.776855 143.485443,417.776855 146.078949,417.776855 
	C146.078949,415.756073 146.078949,414.119080 146.078949,412.888489 
	C148.814056,411.216675 151.197998,409.759521 153.930130,408.089539 
	C153.976074,407.083130 154.040787,405.665497 154.110550,404.137207 
	C156.578201,404.027496 158.675125,403.934296 159.858246,403.881683 
	C162.814255,398.589020 165.409286,393.942688 168.233978,388.885132 
	C170.004486,388.885132 172.297089,388.885132 174.946167,388.885132 
	C174.946167,387.261566 174.946167,385.848267 174.946167,384.305267 
	C176.494293,384.058319 177.714081,383.863739 178.029770,383.813385 
	C179.863129,380.195526 181.329559,377.301727 183.077896,373.851624 
	C184.984283,373.851624 187.412750,373.851624 189.084152,373.851624 
	C190.841385,370.319824 192.286987,367.414337 194.018982,363.933289 
	C195.869461,363.933289 198.302551,363.933289 200.083862,363.933289 
	C201.805710,360.428162 203.238770,357.510895 204.868546,354.193176 
	C205.879440,354.050262 207.433060,353.830597 208.869919,353.627472 
	C209.008728,351.531982 209.124634,349.782288 209.251282,347.870422 
	C211.328842,347.870422 212.962753,347.870422 213.127869,347.870422 
	C215.463623,345.628784 216.923782,344.227478 218.933121,342.299133 
	C218.989227,341.588104 219.127502,339.835876 219.278717,337.919739 
	C221.263641,337.919739 222.895660,337.919739 225.022003,337.919739 
	C223.639481,333.020966 227.559814,334.236908 228.724731,333.979584 
	C230.665497,330.026459 232.160675,326.980896 233.732819,323.778595 
	C235.863235,323.778595 237.806808,323.778595 239.870255,323.778595 
	C239.969681,321.758698 240.056747,319.990143 240.104980,319.010223 
	C243.059525,317.120148 245.412811,315.614716 248.316330,313.757263 
	C248.316330,312.175842 248.316330,310.104645 248.316330,309.287140 
	C252.404861,307.473907 255.676910,306.022766 258.690247,304.686371 
	C259.004242,302.592987 259.273071,299.306854 259.530884,299.307739 
	C263.046997,299.319550 261.692963,296.671661 262.531799,295.023926 
	C264.635345,294.946259 266.317993,294.889709 268.415192,294.904053 
	C270.068542,291.689026 271.307343,288.403137 272.675507,284.774109 
	C275.070221,284.774109 277.491669,284.774109 278.810211,284.774109 
	C280.627411,281.088989 282.064514,278.174744 283.699402,274.859314 
	C285.950745,274.859314 288.374451,274.859314 290.983276,274.859314 
	C290.983276,272.859283 290.983276,271.229065 290.983276,269.275787 
	C292.342468,269.085907 293.556732,268.916290 294.880798,268.731293 
	C294.971893,267.103729 295.051697,265.677490 295.133881,264.209229 
	C296.536530,264.041931 297.626129,263.911987 298.687469,263.785400 
	C298.951752,262.042328 299.183777,260.512054 299.440308,258.820099 
	C301.762909,258.820099 303.717712,258.820099 306.020111,258.820099 
	C306.020111,257.181641 306.020111,255.762680 306.020111,255.511475 
	C309.061157,252.839935 311.252716,250.914688 313.917511,248.573669 
	C313.994873,247.565643 314.128876,245.819519 314.275665,243.907028 
	C316.627441,243.907028 318.592590,243.907028 319.154053,243.907028 
	C321.412170,241.685349 322.852814,240.267960 324.936005,238.218384 
	C324.981934,237.642426 325.122131,235.883728 325.259155,234.165253 
	C327.355286,234.015488 329.137634,233.888153 330.896790,233.762466 
	C330.977203,232.367813 331.044159,231.206421 331.532837,230.023987 
	C337.496307,230.404800 334.013611,226.070572 335.469604,224.057007 
	C339.012115,222.619995 342.133606,221.233200 345.732666,219.634247 
	C346.425812,212.950607 347.034271,212.398651 355.889709,210.594788 
	C357.644470,207.052322 359.082611,204.149048 360.565063,201.156281 
	C361.964661,201.036270 363.383453,200.914597 364.875397,200.786667 
	C364.982483,198.719101 365.073700,196.957703 365.173798,195.024551 
	C367.479736,195.024551 369.442993,195.024551 371.406219,195.024551 
	C371.223114,194.717896 371.040009,194.411255 370.856903,194.104599 
	C372.476837,192.670334 374.096802,191.236069 374.631622,190.762558 
	C376.680664,186.809036 378.175293,183.925247 379.778381,180.832199 
	C381.404236,180.832199 383.026459,180.832199 385.010803,180.832199 
	C385.010803,178.860626 385.010803,177.102631 385.010803,175.212753 
	C386.451294,175.058990 387.543427,174.942429 388.711578,174.817749 
	C388.949005,173.129044 389.166748,171.580490 389.407257,169.869980 
	C391.679169,169.869980 393.638275,169.869980 395.957703,169.869980 
	C395.957703,168.271027 395.957703,166.845871 395.957703,165.292130 
	C397.838440,165.047791 399.393768,164.845734 400.794312,164.663788 
	C400.997223,162.911346 401.161285,161.494598 401.344055,159.916016 
	C403.279236,159.916016 404.907501,159.916016 406.735474,159.916016 
	C406.939056,158.201660 407.124115,156.643280 407.297028,155.187378 
	C409.046997,155.005280 410.474274,154.856766 411.059662,154.795853 
	C412.861359,151.238663 414.328430,148.342056 416.086182,144.871613 
	C417.957153,144.871613 420.387543,144.871613 422.084503,144.871613 
	C423.841553,141.337326 425.290894,138.421982 426.937347,135.110123 
	C427.518280,135.043549 428.610229,134.918396 429.685760,134.795135 
	C429.949188,133.054886 430.181610,131.519577 430.438568,129.821991 
	C432.752472,129.821991 434.710052,129.821991 437.019440,129.821991 
	C437.019440,128.185440 437.019440,126.766823 437.019440,125.206749 
	C438.450623,125.057739 439.543915,124.943916 440.314545,124.863678 
	C441.933502,121.122025 443.420166,117.686188 444.970703,114.102661 
	C450.733551,113.911346 454.554047,111.494270 455.568207,107.139214 
	C457.637604,107.020927 459.731354,106.901253 462.000275,106.771561 
	C462.000275,104.833160 462.000275,103.202606 462.000275,102.378319 
	C464.940338,99.916161 467.326691,97.917702 470.210327,95.502777 
	C470.210327,94.487892 470.210327,92.874786 470.210327,90.914726 
	C472.556763,90.914726 474.647156,90.914726 476.882660,90.914726 
	C476.974762,89.124557 477.048157,87.697510 477.125092,86.202591 
	C478.515442,86.043625 479.606049,85.918922 480.684326,85.795631 
	C480.948486,84.056931 481.181671,82.522034 481.439056,80.827660 
	C484.085358,80.827660 486.380463,80.827660 487.882477,80.827660 
	C490.757935,75.666656 493.353546,71.007858 496.174866,65.944031 
	C497.589264,65.944031 499.550964,65.944031 501.051666,65.944031 
	C502.764282,62.501656 504.283478,59.448086 505.939911,56.118721 
	C506.953094,56.038803 508.375061,55.926640 509.862518,55.809307 
	C509.968567,54.066406 510.054810,52.648613 510.146027,51.149277 
	C512.595093,51.025799 514.690613,50.920147 516.842285,50.811665 
	C516.964844,49.088600 517.066528,47.658974 517.168640,46.223549 
	C518.548523,46.044434 519.640076,45.902752 520.689148,45.766579 
	C520.955994,44.025379 521.189697,42.500332 521.449280,40.806324 
	C523.793213,40.806324 525.747070,40.806324 528.051819,40.806324 
	C528.051819,39.163528 528.051819,37.739769 528.051819,36.363312 
	C529.601562,36.041424 530.804565,35.791553 532.160461,35.509926 
	C532.160461,33.589405 532.160461,31.963646 532.160461,29.698875 
	C536.690247,31.839371 535.717773,27.950939 536.379272,26.141243 
	C538.477905,25.993378 540.225342,25.870262 541.855774,25.755384 
	C542.008728,23.536032 542.129211,21.787840 542.186523,20.956383 
	C547.565552,19.244331 552.199890,17.769304 556.891479,16.276054 
	C556.991638,14.253942 557.095276,12.161268 557.204590,9.954783 
	C559.118835,9.954783 561.704285,10.421697 561.935303,9.881564 
	C563.941406,5.191311 567.901611,7.382359 571.043579,7.055191 
	C573.638062,6.785029 576.283081,6.999998 579.000000,6.999998 
	C579.000000,4.656693 579.000000,2.828347 579.000000,1.000000 
z"/>
<path fill="#FFFFFF" opacity="1.000000" stroke="none" 
	d="
M7.833395,579.000488 
	C7.833403,583.475281 7.833403,587.950073 7.833403,592.791199 
	C6.392368,592.900940 4.977019,593.008728 3.280576,593.137878 
	C3.280576,612.888672 3.280576,632.644348 3.280576,652.799622 
	C4.590562,652.899170 6.004218,653.006592 7.680305,653.133972 
	C7.783268,654.036438 7.789701,655.010681 8.017204,655.930237 
	C9.080390,660.227356 5.371846,665.494202 10.855283,669.037842 
	C11.624649,669.535095 10.995584,672.208923 10.999500,673.875183 
	C11.006132,676.696472 11.001322,679.517700 11.001322,682.676086 
	C12.306707,682.875732 13.507803,683.059448 14.906736,683.273438 
	C14.906736,686.391724 14.906736,689.353516 14.906736,692.640869 
	C16.284864,692.861145 17.491610,693.054016 18.115553,693.153748 
	C19.779537,696.534241 21.211765,699.443909 22.895016,702.863525 
	C23.409649,702.921143 24.505831,703.043884 25.817974,703.190796 
	C25.817974,705.901428 25.817974,708.533081 25.817974,711.475403 
	C27.164345,711.768250 28.356237,712.027527 28.801037,712.124268 
	C30.502796,715.659180 31.988729,718.745850 33.560020,722.009766 
	C35.865143,722.009766 38.162170,722.009766 40.815292,722.009766 
	C40.920746,723.953979 41.015873,725.707764 41.109310,727.430420 
	C46.175018,728.591797 47.926277,731.110474 48.066513,736.585754 
	C51.185398,738.178467 53.961197,739.600159 56.743149,741.009705 
	C57.014507,741.147156 57.519775,741.136108 57.587132,741.316711 
	C58.851562,744.708435 60.066193,748.118774 61.431046,751.914001 
	C63.666821,751.914001 66.096596,751.914001 68.891541,751.914001 
	C68.891541,753.684875 68.891541,755.094482 68.891541,756.828674 
	C70.655968,756.941589 72.077873,757.032593 73.045265,757.094482 
	C74.683784,760.355347 76.146004,763.265381 77.931702,766.819214 
	C79.542419,766.819214 81.972549,766.819214 83.967293,766.819214 
	C85.710709,770.383057 87.208488,773.444763 88.898994,776.900391 
	C90.718483,776.900391 93.014252,776.900391 95.078018,776.900391 
	C96.693855,780.276611 98.169754,783.360413 99.830757,786.830994 
	C100.966301,786.830994 102.591858,786.830994 104.563965,786.830994 
	C104.819923,788.527466 105.051743,790.063965 105.314163,791.803284 
	C106.399574,791.923157 107.491249,792.043640 108.931068,792.202637 
	C108.931068,793.714539 108.931068,795.134644 108.931068,796.716003 
	C110.358139,796.901672 111.450806,797.043823 112.832504,797.223572 
	C112.933815,798.661377 113.034607,800.091797 113.155922,801.813477 
	C115.310486,801.921997 117.410744,802.027771 119.875122,802.151917 
	C119.875122,803.995972 119.875122,805.752441 119.875122,807.508911 
	C120.392632,807.239807 120.910149,806.970642 121.427658,806.701477 
	C123.682175,810.029663 125.936691,813.357910 128.191208,816.686096 
	C127.827255,817.055298 127.463303,817.424561 127.099342,817.793762 
	C129.528381,817.793762 131.957413,817.793762 134.263382,817.793762 
	C135.912766,821.091736 137.364700,823.994873 139.263779,827.792114 
	C139.576233,827.834839 141.127747,828.046997 142.823349,828.278809 
	C142.946808,829.470337 143.059769,830.560669 143.209091,832.001892 
	C145.446136,832.001892 147.539276,832.001892 149.839020,832.001892 
	C149.839020,833.988708 149.839020,835.609619 149.839020,837.484802 
	C153.368668,838.992310 156.806656,840.460632 159.438095,841.584473 
	C162.349091,846.455933 165.056030,850.985962 168.014297,855.936523 
	C169.764816,855.936523 172.061005,855.936523 174.707336,855.936523 
	C174.866089,857.521851 175.007156,858.930420 175.182800,860.684143 
	C176.288681,860.862061 177.504883,861.057678 178.122742,861.157104 
	C179.796280,864.560669 181.232391,867.481384 182.881577,870.835449 
	C184.631516,870.835449 186.927216,870.835449 189.040802,870.835449 
	C190.649490,874.191467 192.126740,877.273254 193.873108,880.916504 
	C195.672989,880.916504 198.104187,880.916504 199.925293,880.916504 
	C200.986511,882.971985 201.784332,884.480347 202.547348,886.006042 
	C203.253098,887.417175 203.921570,888.846863 204.871674,890.818848 
	C205.585678,890.889282 207.012909,891.030029 208.749786,891.201355 
	C208.880661,892.577026 209.016403,894.003967 209.181564,895.740051 
	C210.890930,895.876648 212.652618,896.017395 214.747147,896.184753 
	C214.881104,897.893677 215.018723,899.649536 215.062546,900.208740 
	C217.159042,902.277649 218.602509,903.702087 220.846848,905.916931 
	C221.101807,905.916931 222.736725,905.916931 224.729706,905.916931 
	C224.875168,907.836670 225.008255,909.593201 225.167343,911.692871 
	C226.502213,911.844421 227.917404,912.005066 229.666534,912.203674 
	C229.846100,913.269592 230.050842,914.485046 230.285477,915.877869 
	C232.372498,915.877869 234.336655,915.877869 236.658127,915.877869 
	C236.730560,920.916077 239.126724,924.341736 243.949158,927.018127 
	C243.949158,928.046692 243.949158,929.807983 243.949158,930.690796 
	C248.030121,932.433167 251.471802,933.902649 254.927399,935.378052 
	C254.927399,937.415283 254.927399,939.233093 254.927399,941.633484 
	C258.567291,943.072205 262.305023,944.549561 266.121246,946.057922 
	C267.208191,947.826721 268.832886,949.976440 269.918304,952.370605 
	C271.091583,954.958557 271.761108,957.774841 272.764374,960.839844 
	C274.631989,960.839844 276.925446,960.839844 279.316711,960.839844 
	C280.886169,964.073547 282.375641,967.142456 284.146301,970.790771 
	C285.537476,970.790771 287.821503,970.790771 289.379211,970.790771 
	C291.232941,972.896179 292.665680,974.523438 294.098419,976.150696 
	C294.409241,975.964294 294.720093,975.777893 295.030914,975.591431 
	C295.030914,977.225220 295.030914,978.858948 295.030914,980.917603 
	C299.041748,980.169373 299.550690,982.462219 298.903046,985.769409 
	C301.244110,985.901550 303.339355,986.019775 305.791962,986.158203 
	C306.034943,988.654602 305.319427,992.179260 310.069855,991.013550 
	C309.641327,994.292236 309.640198,996.999634 314.077545,995.967407 
	C314.077545,997.871033 314.077545,999.284546 314.077545,1000.902832 
	C316.399902,1000.902832 318.359772,1000.902832 320.642792,1000.902832 
	C320.833160,1002.481567 321.002930,1003.889343 321.208984,1005.598206 
	C322.798737,1006.475403 327.193481,1004.989929 324.591492,1010.008667 
	C327.119324,1010.008667 328.879211,1010.008667 330.846558,1010.008667 
	C330.846558,1011.995850 330.846558,1013.620972 330.846558,1015.246094 
	C331.289032,1014.990295 331.731476,1014.734558 332.173950,1014.478760 
	C334.552399,1017.922791 336.930847,1021.366821 339.976013,1025.776367 
	C347.935822,1026.908203 348.793915,1027.686646 349.168243,1035.425171 
	C358.652679,1037.192261 359.923889,1038.228882 360.084717,1044.665405 
	C361.450653,1044.826172 362.866943,1044.992798 364.627289,1045.199951 
	C364.817078,1046.227905 365.041504,1047.443481 365.330658,1049.009766 
	C367.456879,1049.009766 369.549896,1049.009766 371.848267,1049.009766 
	C371.848267,1050.998047 371.848267,1052.619995 371.848267,1054.241821 
	C372.287964,1053.987183 372.727631,1053.732544 373.167328,1053.477905 
	C375.550201,1056.922729 377.933075,1060.367554 380.315948,1063.812256 
	C379.965424,1064.138794 379.614899,1064.465210 379.264343,1064.791748 
	C380.876801,1064.791748 382.489258,1064.791748 383.375610,1064.791748 
	C385.232056,1066.896606 386.665100,1068.521362 388.098175,1070.146240 
	C388.404358,1069.961792 388.710541,1069.777466 389.016724,1069.593018 
	C389.016724,1071.225098 389.016724,1072.857178 389.016724,1074.787354 
	C391.287140,1074.909180 393.379974,1075.021484 395.787964,1075.150757 
	C395.914581,1076.623779 396.036377,1078.040649 396.184296,1079.761353 
	C397.599304,1079.897217 399.019836,1080.033447 400.090790,1080.136230 
	C401.709320,1083.415283 403.219543,1086.474976 404.924316,1089.928711 
	C406.756775,1089.928711 409.053131,1089.928711 411.069977,1089.928711 
	C412.703003,1093.317261 414.185089,1096.392700 415.855408,1099.858643 
	C417.662598,1099.858643 419.958313,1099.858643 422.059570,1099.858643 
	C423.668518,1103.222656 425.144867,1106.309326 426.834564,1109.842163 
	C427.373077,1109.908203 428.467804,1110.042725 429.850189,1110.212524 
	C429.941620,1111.679321 430.030823,1113.111084 430.142578,1114.904297 
	C432.339447,1114.904297 434.433624,1114.904297 436.885193,1114.904297 
	C436.885193,1116.680054 436.885193,1118.091187 436.885193,1119.697388 
	C438.308136,1119.896973 439.397217,1120.049683 440.042450,1120.140137 
	C441.662384,1123.339600 443.133942,1126.246094 444.948914,1129.830811 
	C446.192993,1129.901245 448.292511,1130.020264 450.734161,1130.158569 
	C450.874786,1131.880615 451.017731,1133.630615 451.181641,1135.637695 
	C454.355194,1137.034790 457.630127,1138.476440 461.710968,1140.272949 
	C461.710968,1141.129395 461.710968,1143.204956 461.710968,1144.406494 
	C465.274597,1147.143311 468.164154,1149.362427 471.053711,1151.581543 
	C470.784271,1152.031860 470.514832,1152.482300 470.245392,1152.932617 
	C472.343567,1152.932617 474.441772,1152.932617 476.791748,1152.932617 
	C476.791748,1154.893188 476.791748,1156.502441 476.791748,1156.786743 
	C479.034546,1159.339478 480.531464,1161.043335 482.028351,1162.747192 
	C481.749542,1163.123901 481.470703,1163.500732 481.191895,1163.877563 
	C483.627502,1163.877563 486.063080,1163.877563 487.793549,1163.877563 
	C489.423431,1166.813477 490.714233,1169.134399 492.001038,1171.457520 
	C493.286987,1173.779175 494.568848,1176.103149 496.122467,1178.914429 
	C497.410553,1178.914429 499.371918,1178.914429 501.073364,1178.914429 
	C502.698822,1182.298218 504.179901,1185.381470 505.916595,1188.996826 
	C506.784454,1188.996826 508.201904,1188.996826 509.976593,1188.996826 
	C509.976593,1190.770386 509.976593,1192.186035 509.976593,1193.820801 
	C512.285522,1193.820801 514.242920,1193.820801 516.560303,1193.820801 
	C516.817993,1195.518433 517.050903,1197.053101 517.315002,1198.792969 
	C518.389954,1198.917236 519.481201,1199.043457 520.871521,1199.204224 
	C520.950439,1200.696289 521.026062,1202.126343 521.120728,1203.915283 
	C523.351318,1203.915283 525.442078,1203.915283 527.897827,1203.915283 
	C527.897827,1205.692871 527.897827,1207.106201 527.897827,1208.989014 
	C532.168579,1208.120117 532.575928,1210.491699 531.770569,1213.762939 
	C534.274841,1213.903442 536.370972,1214.021118 537.861267,1214.104736 
	C539.494141,1217.559082 540.958313,1220.656616 542.509949,1223.939209 
	C544.773376,1223.939209 547.073303,1223.939209 549.716309,1223.939209 
	C549.869934,1225.866943 550.009521,1227.618164 550.119080,1228.992676 
	C554.254395,1230.540527 558.208862,1232.020630 562.696289,1233.700195 
	C562.696289,1235.131104 562.696289,1237.216187 562.696289,1240.000000 
	C566.303162,1240.000000 569.586548,1239.734253 572.801331,1240.089844 
	C575.097351,1240.343628 578.580566,1238.086670 579.493286,1242.598999 
	C579.561951,1242.938599 581.619263,1242.979736 582.752808,1242.983643 
	C591.585327,1243.013306 600.428589,1243.246948 609.245056,1242.869507 
	C612.438477,1242.732788 616.736877,1245.379883 618.909424,1240.209717 
	C619.173645,1239.581055 622.034241,1240.015747 623.691833,1240.005859 
	C626.991455,1239.986084 630.291260,1240.000000 633.958984,1240.000000 
	C633.958984,1237.575439 633.958984,1235.494995 633.958984,1233.624512 
	C638.682251,1232.023682 642.978210,1230.567505 647.786987,1228.937622 
	C647.786987,1228.117676 647.786987,1226.511108 647.786987,1225.489380 
	C650.670227,1223.079956 653.061768,1221.081177 655.453369,1219.082520 
	C655.258911,1219.011719 655.064453,1218.940918 654.869995,1218.870117 
	C657.082153,1215.172729 659.294312,1211.475464 661.506470,1207.778076 
	C661.967590,1208.027100 662.428650,1208.276123 662.889771,1208.525146 
	C662.955994,1207.226074 663.022278,1205.927124 663.104492,1204.314697 
	C664.299866,1204.124756 665.520813,1203.930786 666.467346,1203.780396 
	C667.527466,1200.475464 668.495911,1197.456299 669.554016,1194.157593 
	C670.419067,1194.066528 671.514648,1193.951172 672.748108,1193.821289 
	C674.189880,1189.072266 675.607849,1184.401855 677.210815,1179.122070 
	C677.690491,1179.122070 679.098938,1179.122070 681.000000,1179.122070 
	C681.000000,1177.151733 680.769653,1175.493286 681.059692,1173.931519 
	C681.404297,1172.075439 679.312561,1168.941895 683.495117,1168.679565 
	C683.739868,1168.664185 683.713379,1166.237793 684.022156,1164.984985 
	C685.081543,1160.686279 681.290161,1155.338013 686.894592,1151.924683 
	C687.421631,1151.603760 686.998047,1149.704834 686.998413,1148.538452 
	C687.001282,1139.224365 687.000000,1129.910278 687.000000,1120.220215 
	C688.588745,1120.100342 689.999573,1119.993896 691.679871,1119.867188 
	C691.783020,1118.963501 691.985718,1118.013916 691.986206,1117.064209 
	C692.002747,1085.566772 691.957336,1054.069214 692.083252,1022.572144 
	C692.093018,1020.129761 690.166870,1016.499023 694.690002,1015.530884 
	C694.802185,1015.506836 694.964050,1015.251404 694.942810,1015.132690 
	C694.024536,1010.017822 695.918213,1005.612061 699.713989,1000.985413 
	C699.807068,1000.985413 701.226501,1000.985413 702.045105,1000.985413 
	C703.762085,997.488831 705.196411,994.567688 706.855042,991.189941 
	C708.566223,991.189941 710.856079,991.189941 713.548950,991.189941 
	C713.803467,989.499573 714.032166,987.980469 714.318604,986.078186 
	C806.348511,986.078186 898.434143,986.078186 990.875427,986.078186 
	C990.875427,984.305054 990.875427,982.895935 990.875427,981.102051 
	C1000.314575,981.102051 1009.409851,981.102051 1018.864990,981.102051 
	C1018.864990,978.985046 1018.864990,977.242859 1018.864990,975.228333 
	C1025.172852,975.228333 1031.122192,975.228333 1037.371582,975.228333 
	C1037.771484,973.758423 1038.122925,972.466248 1038.528076,970.977112 
	C1041.883789,970.977112 1045.176758,970.977112 1048.822632,970.977112 
	C1048.925293,969.023987 1049.017334,967.274658 1049.129517,965.142334 
	C1052.615601,965.142334 1056.045776,965.142334 1059.742920,965.142334 
	C1059.928955,963.589905 1060.073853,962.380249 1060.237671,961.013306 
	C1062.181885,961.013306 1063.812500,961.013306 1065.746826,961.013306 
	C1065.888550,959.083130 1066.017822,957.324158 1066.171753,955.227051 
	C1068.244141,955.103271 1070.333618,954.978394 1072.765137,954.833130 
	C1072.922485,953.628906 1073.081787,952.410278 1073.260376,951.043640 
	C1075.804077,951.043640 1078.101318,951.043640 1080.721680,951.043640 
	C1080.874878,949.114075 1081.014160,947.360168 1081.109375,946.160767 
	C1084.823975,944.627319 1088.287476,943.197571 1091.874634,941.716736 
	C1091.874634,939.628967 1091.874634,937.660583 1091.874634,936.214722 
	C1095.715820,934.620483 1099.183716,933.181152 1102.833984,931.666077 
	C1102.833984,930.058472 1102.833984,928.431702 1102.833984,927.635254 
	C1104.859009,925.847351 1106.364990,924.517822 1107.870972,923.188232 
	C1107.665527,922.811340 1107.460205,922.434387 1107.254761,922.057495 
	C1109.690430,922.057495 1112.126099,922.057495 1113.596680,922.057495 
	C1116.206177,916.521667 1118.479126,911.700134 1121.084106,906.173767 
	C1121.542725,906.129028 1122.960938,905.990601 1124.381104,905.848389 
	C1126.997314,899.618591 1132.651001,894.459900 1130.745239,886.476807 
	C1132.214600,886.191772 1133.413330,885.959167 1134.963135,885.658508 
	C1134.963135,884.245911 1134.963135,882.827332 1134.963135,881.237610 
	C1136.394409,881.078308 1137.486816,880.956665 1138.927490,880.796265 
	C1138.927490,879.289856 1138.927490,877.868835 1138.927490,876.283630 
	C1140.353394,876.098206 1141.445801,875.956116 1142.738525,875.787964 
	C1144.159058,871.145813 1145.587158,866.478699 1147.241211,861.073181 
	C1147.399048,861.057983 1148.601685,860.942200 1149.991455,860.808350 
	C1149.991455,857.492004 1149.991455,854.528137 1149.991455,851.212708 
	C1151.388916,851.062805 1152.603149,850.932556 1154.000122,850.782715 
	C1154.000122,848.333862 1153.791382,846.160034 1154.086060,844.056702 
	C1154.239136,842.963806 1155.572998,842.071838 1155.865356,840.955872 
	C1156.574951,838.248474 1156.987061,835.463135 1157.611450,832.230042 
	C1158.311279,832.122620 1159.516724,831.937500 1160.920776,831.721863 
	C1160.920776,827.266113 1160.920776,822.967651 1160.920776,818.354126 
	C1162.296631,818.135132 1163.496704,817.944092 1165.000000,817.704712 
	C1165.000000,814.446411 1164.752319,811.282471 1165.081665,808.179810 
	C1165.327148,805.867615 1163.183594,802.436279 1167.607178,801.492188 
	C1167.954346,801.418091 1167.978149,799.364075 1167.983643,798.229431 
	C1168.016479,791.402893 1168.000000,784.576172 1168.000000,777.403687 
	C1169.569824,777.173157 1171.096558,776.948975 1172.804199,776.698242 
	C1172.804199,674.021484 1172.804199,571.404846 1172.804199,468.386688 
	C1171.464478,468.182404 1169.935547,467.949280 1168.000000,467.654144 
	C1168.000000,460.390564 1168.104980,453.094513 1167.902466,445.807037 
	C1167.866333,444.503387 1166.468506,443.275116 1165.865967,441.937042 
	C1165.433472,440.977020 1165.070557,439.898376 1165.038452,438.861450 
	C1164.935303,435.531921 1165.000122,432.197205 1165.000122,428.527161 
	C1163.728882,428.210938 1162.425171,427.886658 1161.064697,427.548248 
	C1161.064697,422.535583 1161.064697,417.716095 1161.064697,412.562836 
	C1159.740845,412.215820 1158.437500,411.874207 1157.298462,411.575653 
	C1156.002563,408.804535 1158.955322,405.116394 1154.385620,403.067566 
	C1153.279663,402.571686 1154.221191,397.508942 1154.221191,394.214661 
	C1152.605347,394.058136 1151.402710,393.941650 1150.012695,393.807007 
	C1150.012695,390.497589 1150.012695,387.533783 1150.012695,384.222412 
	C1148.626221,384.066803 1147.421997,383.931671 1147.187866,383.905396 
	C1145.630981,378.690186 1144.274780,374.146942 1142.836182,369.328094 
	C1141.718506,369.145294 1140.490479,368.944458 1138.950684,368.692657 
	C1138.950684,367.159973 1138.950684,365.741394 1138.950684,364.200562 
	C1137.512939,364.049713 1136.421997,363.935272 1135.128540,363.799561 
	C1135.128540,360.676788 1135.128540,357.711548 1135.128540,354.437500 
	C1133.764526,354.181885 1132.559570,353.956085 1132.521606,353.948975 
	C1129.391968,348.441895 1126.702393,343.709045 1123.499634,338.073273 
	C1123.363892,338.063782 1121.940430,337.964294 1120.420654,337.858093 
	C1118.362427,333.376495 1116.318604,328.926239 1114.034668,323.953094 
	C1112.186646,323.953094 1109.752075,323.953094 1107.143188,323.953094 
	C1107.054932,321.971954 1106.982666,320.346222 1106.921509,318.973083 
	C1104.396484,317.363251 1102.040039,315.860962 1099.052979,313.956573 
	C1099.052979,312.643646 1099.052979,310.538757 1099.052979,309.304352 
	C1094.980225,307.570038 1091.538208,306.104370 1087.991943,304.594238 
	C1087.991943,302.786469 1087.991943,301.156647 1087.991943,299.223053 
	C1085.722656,299.095825 1083.629761,298.978516 1081.188721,298.841675 
	C1081.061035,297.593262 1080.936523,296.376648 1080.796997,295.012756 
	C1078.158447,295.012756 1075.862915,295.012756 1073.240967,295.012756 
	C1073.104980,293.073334 1072.982056,291.321350 1072.835327,289.229065 
	C1070.754761,289.103851 1068.666260,288.978180 1066.221191,288.831024 
	C1066.073364,287.635895 1065.923584,286.424255 1065.754150,285.054871 
	C1063.861816,285.054871 1062.229370,285.054871 1060.267700,285.054871 
	C1060.123535,283.124023 1059.991821,281.359833 1059.830933,279.203613 
	C1056.478638,279.203613 1053.049316,279.203613 1049.316284,279.203613 
	C1049.102173,277.664734 1048.934937,276.462372 1048.741577,275.071838 
	C1045.240112,275.071838 1041.944946,275.071838 1038.283936,275.071838 
	C1038.135864,273.131622 1038.002441,271.384308 1037.837891,269.228821 
	C1031.849243,269.228821 1025.753052,269.228821 1019.325073,269.228821 
	C1019.121582,267.352478 1018.955688,265.822968 1018.767517,264.088409 
	C1009.597412,264.088409 1000.639343,264.088409 991.341431,264.088409 
	C991.137939,262.370087 990.956848,260.840973 990.751770,259.109009 
	C898.621155,259.109009 806.670532,259.109009 714.387329,259.109009 
	C714.158081,257.399048 713.952942,255.868744 713.720154,254.132172 
	C711.317749,254.132172 709.027954,254.132172 706.739258,254.132172 
	C705.147949,251.022369 703.670105,248.134308 701.664429,244.214737 
	C701.492798,244.188522 699.965576,243.955231 697.329285,243.552505 
	C696.576843,239.552231 697.227539,233.623688 694.643677,231.314636 
	C689.905457,227.080276 692.202393,222.619156 692.162903,218.517334 
	C691.864685,187.542526 692.000000,156.563538 692.000000,125.223785 
	C690.398804,125.101440 688.984741,124.993385 687.358276,124.869110 
	C687.245178,124.290886 687.019653,123.670616 687.018066,123.049782 
	C686.994568,113.883911 687.080566,104.716637 686.928040,95.553230 
	C686.899902,93.862045 688.547974,90.884010 684.588989,90.767845 
	C684.357117,90.761047 684.343872,88.338913 683.972656,87.118744 
	C682.776306,83.186325 686.655334,78.344490 681.234985,74.872162 
	C679.952087,74.050331 681.044922,69.520042 681.044922,66.371361 
	C679.394043,66.155746 677.859070,65.955276 677.198792,65.869034 
	C675.639038,60.670860 674.232422,55.983028 672.797241,51.200062 
	C671.581177,51.070744 670.486511,50.954342 669.580688,50.858013 
	C668.523865,47.615959 667.541870,44.603256 666.430603,41.194107 
	C663.002197,41.815025 662.431641,39.559517 663.085022,36.305435 
	C661.626099,36.090424 660.405945,35.910606 659.185791,35.730789 
	C659.540466,35.417091 659.895081,35.103394 660.249695,34.789696 
	C658.010864,31.441551 655.771973,28.093407 653.533081,24.745262 
	C653.056335,25.023235 652.579651,25.301208 652.102905,25.579182 
	C652.102905,23.947206 652.102905,22.315231 652.102905,20.234434 
	C648.259033,18.813160 644.450989,17.405157 640.018188,15.766123 
	C640.018188,14.553793 640.018188,12.462438 640.018188,10.843694 
	C636.300354,9.437145 633.166504,7.692080 629.835144,7.140585 
	C626.127930,6.526883 622.240845,7.000006 618.000000,7.000006 
	C618.000000,5.103189 618.000000,3.501874 618.000000,1.450280 
	C805.644348,1.000000 993.288635,1.000000 1180.966553,1.000000 
	C1180.966553,417.594727 1180.966553,834.189453 1180.966553,1250.892090 
	C787.785461,1250.892090 394.570862,1250.892090 1.000000,1250.892090 
	C1.000000,1026.645874 1.000000,802.291626 1.374999,577.468628 
	C2.499995,577.000000 3.249993,577.000000 4.058541,577.349121 
	C5.355857,578.132263 6.594623,578.566406 7.833395,579.000488 
z"/>
<path fill="#FFFFFF" opacity="1.000000" stroke="none" 
	d="
M578.531372,1.000000 
	C579.000000,2.828347 579.000000,4.656693 579.000000,6.999998 
	C576.283081,6.999998 573.638062,6.785029 571.043579,7.055191 
	C567.901611,7.382359 563.941406,5.191311 561.935303,9.881564 
	C561.704285,10.421697 559.118835,9.954783 557.204590,9.954783 
	C557.095276,12.161268 556.991638,14.253942 556.891479,16.276054 
	C552.199890,17.769304 547.565552,19.244331 542.186523,20.956383 
	C542.129211,21.787840 542.008728,23.536032 541.855774,25.755384 
	C540.225342,25.870262 538.477905,25.993378 536.379272,26.141243 
	C535.717773,27.950939 536.690247,31.839371 532.160461,29.698875 
	C532.160461,31.963646 532.160461,33.589405 532.160461,35.509926 
	C530.804565,35.791553 529.601562,36.041424 528.051819,36.363312 
	C528.051819,37.739769 528.051819,39.163528 528.051819,40.806324 
	C525.747070,40.806324 523.793213,40.806324 521.449280,40.806324 
	C521.189697,42.500332 520.955994,44.025379 520.689148,45.766579 
	C519.640076,45.902752 518.548523,46.044434 517.168640,46.223549 
	C517.066528,47.658974 516.964844,49.088600 516.842285,50.811665 
	C514.690613,50.920147 512.595093,51.025799 510.146027,51.149277 
	C510.054810,52.648613 509.968567,54.066406 509.862518,55.809307 
	C508.375061,55.926640 506.953094,56.038803 505.939911,56.118721 
	C504.283478,59.448086 502.764282,62.501656 501.051666,65.944031 
	C499.550964,65.944031 497.589264,65.944031 496.174866,65.944031 
	C493.353546,71.007858 490.757935,75.666656 487.882477,80.827660 
	C486.380463,80.827660 484.085358,80.827660 481.439056,80.827660 
	C481.181671,82.522034 480.948486,84.056931 480.684326,85.795631 
	C479.606049,85.918922 478.515442,86.043625 477.125092,86.202591 
	C477.048157,87.697510 476.974762,89.124557 476.882660,90.914726 
	C474.647156,90.914726 472.556763,90.914726 470.210327,90.914726 
	C470.210327,92.874786 470.210327,94.487892 470.210327,95.502777 
	C467.326691,97.917702 464.940338,99.916161 462.000275,102.378319 
	C462.000275,103.202606 462.000275,104.833160 462.000275,106.771561 
	C459.731354,106.901253 457.637604,107.020927 455.568207,107.139214 
	C454.554047,111.494270 450.733551,113.911346 444.970703,114.102661 
	C443.420166,117.686188 441.933502,121.122025 440.314545,124.863678 
	C439.543915,124.943916 438.450623,125.057739 437.019440,125.206749 
	C437.019440,126.766823 437.019440,128.185440 437.019440,129.821991 
	C434.710052,129.821991 432.752472,129.821991 430.438568,129.821991 
	C430.181610,131.519577 429.949188,133.054886 429.685760,134.795135 
	C428.610229,134.918396 427.518280,135.043549 426.937347,135.110123 
	C425.290894,138.421982 423.841553,141.337326 422.084503,144.871613 
	C420.387543,144.871613 417.957153,144.871613 416.086182,144.871613 
	C414.328430,148.342056 412.861359,151.238663 411.059662,154.795853 
	C410.474274,154.856766 409.046997,155.005280 407.297028,155.187378 
	C407.124115,156.643280 406.939056,158.201660 406.735474,159.916016 
	C404.907501,159.916016 403.279236,159.916016 401.344055,159.916016 
	C401.161285,161.494598 400.997223,162.911346 400.794312,164.663788 
	C399.393768,164.845734 397.838440,165.047791 395.957703,165.292130 
	C395.957703,166.845871 395.957703,168.271027 395.957703,169.869980 
	C393.638275,169.869980 391.679169,169.869980 389.407257,169.869980 
	C389.166748,171.580490 388.949005,173.129044 388.711578,174.817749 
	C387.543427,174.942429 386.451294,175.058990 385.010803,175.212753 
	C385.010803,177.102631 385.010803,178.860626 385.010803,180.832199 
	C383.026459,180.832199 381.404236,180.832199 379.778381,180.832199 
	C378.175293,183.925247 376.680664,186.809036 374.631622,190.762558 
	C374.096802,191.236069 372.476837,192.670334 370.856903,194.104599 
	C371.040009,194.411255 371.223114,194.717896 371.406219,195.024551 
	C369.442993,195.024551 367.479736,195.024551 365.173798,195.024551 
	C365.073700,196.957703 364.982483,198.719101 364.875397,200.786667 
	C363.383453,200.914597 361.964661,201.036270 360.565063,201.156281 
	C359.082611,204.149048 357.644470,207.052322 355.889709,210.594788 
	C347.034271,212.398651 346.425812,212.950607 345.732666,219.634247 
	C342.133606,221.233200 339.012115,222.619995 335.259827,223.774719 
	C329.989380,223.881927 329.180267,225.377457 331.111145,230.045029 
	C331.044159,231.206421 330.977203,232.367813 330.896790,233.762466 
	C329.137634,233.888153 327.355286,234.015488 325.259155,234.165253 
	C325.122131,235.883728 324.981934,237.642426 324.936005,238.218384 
	C322.852814,240.267960 321.412170,241.685349 319.154053,243.907028 
	C318.592590,243.907028 316.627441,243.907028 314.275665,243.907028 
	C314.128876,245.819519 313.994873,247.565643 313.917511,248.573669 
	C311.252716,250.914688 309.061157,252.839935 306.020111,255.511475 
	C306.020111,255.762680 306.020111,257.181641 306.020111,258.820099 
	C303.717712,258.820099 301.762909,258.820099 299.440308,258.820099 
	C299.183777,260.512054 298.951752,262.042328 298.687469,263.785400 
	C297.626129,263.911987 296.536530,264.041931 295.133881,264.209229 
	C295.051697,265.677490 294.971893,267.103729 294.880798,268.731293 
	C293.556732,268.916290 292.342468,269.085907 290.983276,269.275787 
	C290.983276,271.229065 290.983276,272.859283 290.983276,274.859314 
	C288.374451,274.859314 285.950745,274.859314 283.699402,274.859314 
	C282.064514,278.174744 280.627411,281.088989 278.810211,284.774109 
	C277.491669,284.774109 275.070221,284.774109 272.675507,284.774109 
	C271.307343,288.403137 270.068542,291.689026 268.414856,294.488953 
	C267.411804,292.091614 267.122253,289.984009 266.067383,288.379486 
	C265.715851,287.844788 262.266174,288.375122 262.182190,288.802094 
	C261.787170,290.809998 262.070007,292.951324 262.110931,295.045013 
	C261.692963,296.671661 263.046997,299.319550 259.530884,299.307739 
	C259.273071,299.306854 259.004242,302.592987 258.690247,304.686371 
	C255.676910,306.022766 252.404861,307.473907 248.316330,309.287140 
	C248.316330,310.104645 248.316330,312.175842 248.316330,313.757263 
	C245.412811,315.614716 243.059525,317.120148 240.104980,319.010223 
	C240.056747,319.990143 239.969681,321.758698 239.870255,323.778595 
	C237.806808,323.778595 235.863235,323.778595 233.732819,323.778595 
	C232.160675,326.980896 230.665497,330.026459 228.724731,333.979584 
	C227.559814,334.236908 223.639481,333.020966 225.022003,337.919739 
	C222.895660,337.919739 221.263641,337.919739 219.278717,337.919739 
	C219.127502,339.835876 218.989227,341.588104 218.933121,342.299133 
	C216.923782,344.227478 215.463623,345.628784 213.127869,347.870422 
	C212.962753,347.870422 211.328842,347.870422 209.251282,347.870422 
	C209.124634,349.782288 209.008728,351.531982 208.869919,353.627472 
	C207.433060,353.830597 205.879440,354.050262 204.868546,354.193176 
	C203.238770,357.510895 201.805710,360.428162 200.083862,363.933289 
	C198.302551,363.933289 195.869461,363.933289 194.018982,363.933289 
	C192.286987,367.414337 190.841385,370.319824 189.084152,373.851624 
	C187.412750,373.851624 184.984283,373.851624 183.077896,373.851624 
	C181.329559,377.301727 179.863129,380.195526 178.029770,383.813385 
	C177.714081,383.863739 176.494293,384.058319 174.946167,384.305267 
	C174.946167,385.848267 174.946167,387.261566 174.946167,388.885132 
	C172.297089,388.885132 170.004486,388.885132 168.233978,388.885132 
	C165.409286,393.942688 162.814255,398.589020 159.858246,403.881683 
	C158.675125,403.934296 156.578201,404.027496 154.110550,404.137207 
	C154.040787,405.665497 153.976074,407.083130 153.930130,408.089539 
	C151.197998,409.759521 148.814056,411.216675 146.078949,412.888489 
	C146.078949,414.119080 146.078949,415.756073 146.078949,417.776855 
	C143.485443,417.776855 141.064362,417.776855 138.904388,417.776855 
	C136.290176,422.615295 133.896103,427.046326 131.243103,431.956543 
	C129.299973,431.956543 126.866890,431.956543 124.193420,431.956543 
	C124.193420,433.918884 124.193420,435.529266 124.193420,437.366394 
	C122.070724,438.356934 118.003128,437.437042 120.196541,442.037842 
	C117.427216,442.037842 115.467751,442.037842 113.139748,442.037842 
	C113.054497,443.979584 112.977509,445.733215 112.881973,447.909210 
	C108.979187,447.172028 108.426079,449.432465 108.023193,451.786316 
	C106.689064,453.426056 105.354935,455.065796 104.020798,456.705536 
	C104.315567,457.052521 104.610329,457.399475 104.905090,457.746460 
	C103.145874,457.880188 101.386650,458.013916 99.850792,458.130646 
	C98.299278,461.332123 96.810471,464.404236 95.128723,467.874451 
	C93.325844,467.874451 91.033218,467.874451 88.819199,467.874451 
	C88.103516,469.722107 87.473709,471.348083 86.421844,472.497650 
	C85.996620,471.521301 86.205124,470.822021 85.954117,470.555511 
	C84.785156,469.314362 83.489113,468.192902 82.238525,467.028625 
	C81.165947,468.202637 80.093369,469.376648 79.020798,470.550690 
	C80.291672,471.698456 81.500092,472.930634 82.870094,473.944397 
	C83.301765,474.263855 84.166580,473.997955 84.833168,473.999939 
	C84.894363,475.156158 84.955559,476.312378 85.035110,477.815430 
	C82.488480,477.815430 80.061127,477.815430 77.996010,477.815430 
	C76.296234,481.331787 74.812126,484.402008 73.070297,488.005371 
	C72.205498,488.005371 70.790901,488.005371 69.024345,488.005371 
	C69.024345,489.773956 69.024345,491.187286 69.024345,492.821716 
	C66.385612,492.821716 64.098099,492.821716 62.179008,492.821716 
	C59.328770,498.110931 56.670460,503.043976 53.648590,508.651672 
	C46.333149,509.985046 45.095318,511.213562 44.900955,518.716614 
	C41.281044,520.107971 37.505077,521.559326 34.480461,522.721924 
	C32.061123,526.395935 29.766092,529.881165 27.471062,533.366394 
	C26.986723,533.090881 26.502386,532.815369 26.018047,532.539856 
	C26.018047,534.169189 26.018047,535.798523 26.018047,537.711304 
	C24.649170,537.908203 23.436279,538.082642 22.262388,538.251526 
	C22.022791,541.601807 22.462957,544.970093 21.363091,547.723083 
	C20.528187,549.812866 17.733032,551.119629 15.143594,553.348511 
	C15.143594,555.296082 15.143594,558.262573 15.143594,561.517822 
	C13.799112,561.794189 12.598910,562.040955 12.020278,562.159912 
	C10.990639,567.085754 10.016287,571.747070 8.606416,576.168213 
	C7.942767,571.215271 4.510651,569.076111 1.000000,567.000000 
	C1.000000,557.645752 1.000000,548.291565 1.390420,538.514709 
	C3.953214,538.039368 6.251051,538.366943 8.225868,537.715454 
	C8.865714,537.504333 9.274501,534.466553 8.726282,533.171692 
	C6.946474,528.967834 3.691175,531.830383 1.000000,532.000000 
	C1.000000,355.069824 1.000000,178.139633 1.000000,1.000000 
	C193.354172,1.000000 385.708435,1.000000 578.531372,1.000000 
M196.050415,333.655212 
	C197.920715,333.620483 200.050812,334.092743 201.546173,333.326416 
	C202.241455,332.970093 201.703964,330.208374 201.725296,328.537018 
	C197.568756,328.544525 193.412216,328.552032 189.255676,328.559540 
	C189.286255,330.230927 189.316833,331.902283 189.347412,333.573669 
	C191.363998,333.491425 193.380600,333.409149 196.050415,333.655212 
M444.726501,90.223007 
	C443.295471,90.243851 441.844727,90.125969 440.439026,90.325317 
	C439.086151,90.517174 436.919067,90.715843 436.633759,91.480324 
	C436.054657,93.031914 436.085571,95.138824 436.711945,96.670486 
	C437.012207,97.404716 439.229584,97.468201 440.602081,97.611595 
	C441.543579,97.709961 442.556549,97.536049 443.482056,97.281822 
	C444.966888,96.873924 446.405762,96.298759 447.864075,95.794289 
	C447.078247,93.905479 446.292419,92.016670 444.726501,90.223007 
M150.778793,378.149902 
	C151.707001,373.995209 149.692642,372.786499 145.876709,372.959625 
	C143.164886,373.082642 141.770355,374.156036 142.053024,376.910553 
	C142.483444,381.104858 145.750153,379.833252 148.202805,379.898956 
	C148.916992,379.918091 149.649857,379.239716 150.778793,378.149902 
M261.009644,282.419800 
	C260.961304,285.319672 262.752960,286.566864 265.157471,285.788849 
	C266.382233,285.392548 267.786743,283.313873 267.785767,281.996704 
	C267.784760,280.680298 266.376160,278.605530 265.150513,278.210663 
	C262.742554,277.434875 260.956451,278.687775 261.009644,282.419800 
M282.018646,256.506561 
	C283.398285,257.655792 284.662323,259.053864 286.236267,259.784760 
	C286.645813,259.974945 288.743408,258.108337 288.777863,257.140594 
	C288.824097,255.841766 287.618958,254.498398 286.951050,253.174164 
	C285.317749,254.012436 283.684479,254.850708 282.018646,256.506561 
M401.981354,132.493393 
	C400.601715,131.344177 399.337616,129.946075 397.763702,129.215271 
	C397.354095,129.025085 395.256592,130.891678 395.222137,131.859436 
	C395.175934,133.158264 396.381042,134.501617 397.048981,135.825851 
	C398.682251,134.987564 400.315552,134.149261 401.981354,132.493393 
M232.180679,304.032837 
	C234.469177,306.991455 236.784363,307.059448 237.739990,303.312134 
	C238.110641,301.858643 236.624573,298.581268 235.515549,298.346191 
	C231.717270,297.541046 232.004852,300.680328 232.180679,304.032837 
M376.959656,179.218048 
	C376.277466,177.540665 375.732819,175.777161 374.786163,174.265366 
	C374.615967,173.993515 371.932465,174.640091 371.873352,175.065903 
	C371.597961,177.049469 371.836639,179.104401 371.891418,181.133789 
	C373.535004,180.766327 375.178589,180.398849 376.959656,179.218048 
M286.292328,227.358398 
	C287.619751,228.489731 288.947174,229.621048 290.274597,230.752365 
	C291.085236,229.584457 292.584076,228.383575 292.530090,227.257126 
	C292.464508,225.888885 291.089355,224.583405 290.280762,223.250778 
	C288.951660,224.378891 287.622559,225.507004 286.292328,227.358398 
M350.706116,178.364044 
	C349.890106,175.699142 349.225494,172.120239 345.579712,175.508698 
	C344.692444,176.333344 345.864258,179.373383 346.089264,181.394791 
	C347.542053,180.611359 348.994843,179.827927 350.706116,178.364044 
M459.785370,97.784019 
	C463.320190,97.530022 464.355164,95.431137 463.061554,92.493889 
	C462.607849,91.463730 460.169067,90.187782 459.524597,90.560257 
	C457.053619,91.988388 456.627106,94.300629 458.467712,96.738388 
	C458.662415,96.996277 458.914886,97.210602 459.785370,97.784019 
M387.402588,160.930847 
	C388.206757,159.276855 389.179993,157.671021 389.675995,155.929276 
	C389.778137,155.570496 388.060638,154.152420 387.251740,154.209656 
	C386.193024,154.284576 384.254211,155.591125 384.344238,155.932281 
	C384.804504,157.675964 385.795990,159.279419 387.402588,160.930847 
M92.807899,462.092010 
	C92.184608,460.455719 91.700684,458.733368 90.796974,457.270294 
	C90.651146,457.034180 87.887032,457.693359 87.646294,458.391510 
	C87.178337,459.748535 87.067902,462.138763 87.869942,462.785248 
	C88.797508,463.532959 90.868042,462.862732 92.807899,462.092010 
M92.438522,452.813049 
	C92.040512,450.962982 91.743523,449.076508 91.108253,447.311859 
	C91.034309,447.106445 88.419983,447.242584 88.144234,447.797333 
	C87.490730,449.112183 86.838570,451.293579 87.482780,452.157013 
	C88.203987,453.123535 90.354980,453.023224 92.438522,452.813049 
M496.418518,26.924856 
	C494.900421,26.385929 493.401306,25.602776 491.850677,25.482220 
	C491.469757,25.452604 490.371613,27.718767 490.606567,28.685606 
	C490.831879,29.612627 492.773590,31.048676 493.237671,30.816334 
	C494.583588,30.142530 495.566223,28.743111 496.418518,26.924856 
M295.144684,254.412415 
	C297.476318,255.410782 299.620483,255.210907 299.746155,252.321289 
	C299.791229,251.284393 297.713989,249.207809 296.675995,249.252319 
	C293.786865,249.376205 293.582886,251.518677 295.144684,254.412415 
M143.060837,388.649170 
	C142.715652,389.686584 141.893311,390.860962 142.142166,391.727844 
	C142.477493,392.895905 143.637955,393.827087 144.444321,394.859924 
	C145.289612,393.702362 146.945267,392.402069 146.772995,391.423645 
	C146.562408,390.227722 144.818665,389.301727 143.060837,388.649170 
M482.500549,50.131256 
	C479.271759,50.965977 479.642303,53.354420 480.547455,55.500221 
	C480.823639,56.155029 482.628815,56.164864 483.733765,56.470074 
	C483.847534,54.579117 483.982727,52.688797 484.038605,50.796135 
	C484.043671,50.625252 483.537201,50.439266 482.500549,50.131256 
M51.480755,493.238434 
	C50.232220,493.159424 48.983685,493.080383 47.735146,493.001373 
	C47.641487,494.543335 47.283276,496.141571 47.593033,497.597717 
	C47.706379,498.130585 49.404434,498.326355 50.379566,498.675903 
	C50.861065,497.100037 51.342567,495.524139 51.480755,493.238434 
M76.519218,457.761475 
	C77.767746,457.840515 79.016281,457.919556 80.264809,457.998596 
	C80.358482,456.456635 80.716690,454.858429 80.406982,453.402283 
	C80.293655,452.869446 78.595604,452.673645 77.620483,452.324097 
	C77.138962,453.899963 76.657440,455.475830 76.519218,457.761475 
M142.042770,405.717529 
	C142.820038,407.094269 143.597305,408.470978 144.374573,409.847717 
	C145.198898,409.202484 146.686111,408.581848 146.711105,407.906982 
	C146.765030,406.452148 146.067505,404.969513 145.677475,403.498230 
	C144.510468,403.979645 143.343460,404.461090 142.042770,405.717529 
M415.480713,135.238480 
	C414.232178,135.159470 412.983673,135.080444 411.735138,135.001419 
	C411.641479,136.543381 411.283234,138.141602 411.592957,139.597748 
	C411.706329,140.130585 413.404419,140.326340 414.379547,140.675873 
	C414.861023,139.100021 415.342529,137.524155 415.480713,135.238480 
M396.955627,146.709610 
	C395.829132,145.922974 394.702637,145.136337 393.576141,144.349701 
	C393.063721,145.612732 392.114594,146.899216 392.180786,148.131180 
	C392.231232,149.070435 393.569122,149.940536 394.334290,150.841400 
	C395.217590,149.727600 396.100861,148.613800 396.955627,146.709610 
M375.042694,161.717575 
	C375.819977,163.094299 376.597260,164.471024 377.374573,165.847733 
	C378.198883,165.202499 379.686035,164.581833 379.711060,163.906982 
	C379.764954,162.452148 379.067474,160.969482 378.677460,159.498215 
	C377.510468,159.979660 376.343475,160.461105 375.042694,161.717575 
M112.034233,410.505524 
	C112.215294,413.572144 114.293312,413.410492 116.099876,412.460846 
	C116.732506,412.128326 116.525185,410.197906 116.701416,408.997162 
	C115.162628,409.227356 113.623833,409.457520 112.034233,410.505524 
z"/>
<path fill="#FFFFFF" opacity="1.000000" stroke="none" 
	d="
M1.000000,532.428467 
	C3.691175,531.830383 6.946474,528.967834 8.726282,533.171692 
	C9.274501,534.466553 8.865714,537.504333 8.225868,537.715454 
	C6.251051,538.366943 3.953214,538.039368 1.390420,538.046021 
	C1.000000,536.285645 1.000000,534.571289 1.000000,532.428467 
z"/>
<path fill="#FFFFFF" opacity="1.000000" stroke="none" 
	d="
M1.000000,567.454102 
	C4.510651,569.076111 7.942767,571.215271 8.212407,576.434692 
	C8.253919,576.941528 8.207637,577.008972 7.770209,577.004517 
	C6.221851,577.000000 5.110921,577.000000 3.999990,577.000000 
	C3.249993,577.000000 2.499995,577.000000 1.374999,577.000000 
	C1.000000,573.969421 1.000000,570.938782 1.000000,567.454102 
z"/>
<path fill="#FFFFFF" opacity="1.000000" stroke="none" 
	d="
M262.531799,295.023926 
	C262.070007,292.951324 261.787170,290.809998 262.182190,288.802094 
	C262.266174,288.375122 265.715851,287.844788 266.067383,288.379486 
	C267.122253,289.984009 267.411804,292.091614 268.000305,294.418030 
	C266.317993,294.889709 264.635345,294.946259 262.531799,295.023926 
z"/>
<path fill="#FFFFFF" opacity="1.000000" stroke="none" 
	d="
M84.938553,473.728088 
	C84.166580,473.997955 83.301765,474.263855 82.870094,473.944397 
	C81.500092,472.930634 80.291672,471.698456 79.020798,470.550690 
	C80.093369,469.376648 81.165947,468.202637 82.238525,467.028625 
	C83.489113,468.192902 84.785156,469.314362 85.954117,470.555511 
	C86.205124,470.822021 85.996620,471.521301 85.999847,472.427185 
	C85.681244,473.040863 85.362595,473.248566 84.938553,473.728088 
z"/>
<path fill="#FFFFFF" opacity="1.000000" stroke="none" 
	d="
M331.532837,230.023987 
	C329.180267,225.377457 329.989380,223.881927 334.838806,223.824951 
	C334.013611,226.070572 337.496307,230.404800 331.532837,230.023987 
z"/>
<path fill="#FFFFFF" opacity="1.000000" stroke="none" 
	d="
M4.058541,577.349121 
	C5.110921,577.000000 6.221851,577.000000 7.749447,577.000244 
	C8.107052,577.446899 8.047990,577.893372 7.911159,578.670166 
	C6.594623,578.566406 5.355857,578.132263 4.058541,577.349121 
z"/>
<path fill="#FFFFFF" opacity="1.000000" stroke="none" 
	d="
M195.723801,333.491058 
	C193.380600,333.409149 191.363998,333.491425 189.347412,333.573669 
	C189.316833,331.902283 189.286255,330.230927 189.255676,328.559540 
	C193.412216,328.552032 197.568756,328.544525 201.725296,328.537018 
	C201.703964,330.208374 202.241455,332.970093 201.546173,333.326416 
	C200.050812,334.092743 197.920715,333.620483 195.723801,333.491058 
z"/>
<path fill="#FFFFFF" opacity="1.000000" stroke="none" 
	d="
M445.116547,90.175438 
	C446.292419,92.016670 447.078247,93.905479 447.864075,95.794281 
	C446.405762,96.298759 444.966888,96.873924 443.482056,97.281822 
	C442.556549,97.536049 441.543579,97.709961 440.602081,97.611595 
	C439.229584,97.468201 437.012207,97.404716 436.711945,96.670486 
	C436.085571,95.138824 436.054657,93.031914 436.633759,91.480324 
	C436.919067,90.715843 439.086151,90.517174 440.439026,90.325317 
	C441.844727,90.125969 443.295471,90.243851 445.116547,90.175438 
z"/>
<path fill="#FFFFFF" opacity="1.000000" stroke="none" 
	d="
M150.576477,378.515503 
	C149.649857,379.239716 148.916992,379.918091 148.202805,379.898956 
	C145.750153,379.833252 142.483444,381.104858 142.053024,376.910553 
	C141.770355,374.156036 143.164886,373.082642 145.876709,372.959625 
	C149.692642,372.786499 151.707001,373.995209 150.576477,378.515503 
z"/>
<path fill="#FFFFFF" opacity="1.000000" stroke="none" 
	d="
M261.009430,282.003113 
	C260.956451,278.687775 262.742554,277.434875 265.150513,278.210663 
	C266.376160,278.605530 267.784760,280.680298 267.785767,281.996704 
	C267.786743,283.313873 266.382233,285.392548 265.157471,285.788849 
	C262.752960,286.566864 260.961304,285.319672 261.009430,282.003113 
z"/>
<path fill="#FFFFFF" opacity="1.000000" stroke="none" 
	d="
M282.034912,256.097778 
	C283.684479,254.850708 285.317749,254.012436 286.951050,253.174164 
	C287.618958,254.498398 288.824097,255.841766 288.777863,257.140594 
	C288.743408,258.108337 286.645813,259.974945 286.236267,259.784760 
	C284.662323,259.053864 283.398285,257.655792 282.034912,256.097778 
z"/>
<path fill="#FFFFFF" opacity="1.000000" stroke="none" 
	d="
M401.965088,132.902191 
	C400.315552,134.149261 398.682251,134.987564 397.048981,135.825851 
	C396.381042,134.501617 395.175934,133.158264 395.222137,131.859436 
	C395.256592,130.891678 397.354095,129.025085 397.763702,129.215271 
	C399.337616,129.946075 400.601715,131.344177 401.965088,132.902191 
z"/>
<path fill="#FFFFFF" opacity="1.000000" stroke="none" 
	d="
M232.111267,303.625366 
	C232.004852,300.680328 231.717270,297.541046 235.515549,298.346191 
	C236.624573,298.581268 238.110641,301.858643 237.739990,303.312134 
	C236.784363,307.059448 234.469177,306.991455 232.111267,303.625366 
z"/>
<path fill="#FFFFFF" opacity="1.000000" stroke="none" 
	d="
M376.890930,179.624710 
	C375.178589,180.398849 373.535004,180.766327 371.891418,181.133789 
	C371.836639,179.104401 371.597961,177.049469 371.873352,175.065903 
	C371.932465,174.640091 374.615967,173.993515 374.786163,174.265366 
	C375.732819,175.777161 376.277466,177.540665 376.890930,179.624710 
z"/>
<path fill="#FFFFFF" opacity="1.000000" stroke="none" 
	d="
M286.292877,226.996750 
	C287.622559,225.507004 288.951660,224.378891 290.280762,223.250778 
	C291.089355,224.583405 292.464508,225.888885 292.530090,227.257126 
	C292.584076,228.383575 291.085236,229.584457 290.274597,230.752365 
	C288.947174,229.621048 287.619751,228.489731 286.292877,226.996750 
z"/>
<path fill="#FFFFFF" opacity="1.000000" stroke="none" 
	d="
M350.576874,178.704285 
	C348.994843,179.827927 347.542053,180.611359 346.089264,181.394775 
	C345.864258,179.373383 344.692444,176.333344 345.579712,175.508698 
	C349.225494,172.120239 349.890106,175.699142 350.576874,178.704285 
z"/>
<path fill="#FFFFFF" opacity="1.000000" stroke="none" 
	d="
M459.462952,97.614578 
	C458.914886,97.210602 458.662415,96.996277 458.467712,96.738388 
	C456.627106,94.300629 457.053619,91.988388 459.524597,90.560257 
	C460.169067,90.187782 462.607849,91.463730 463.061554,92.493889 
	C464.355164,95.431137 463.320190,97.530022 459.462952,97.614578 
z"/>
<path fill="#FFFFFF" opacity="1.000000" stroke="none" 
	d="
M387.002136,160.931396 
	C385.795990,159.279419 384.804504,157.675964 384.344238,155.932281 
	C384.254211,155.591125 386.193024,154.284576 387.251740,154.209656 
	C388.060638,154.152420 389.778137,155.570496 389.675995,155.929276 
	C389.179993,157.671021 388.206757,159.276855 387.002136,160.931396 
z"/>
<path fill="#FFFFFF" opacity="1.000000" stroke="none" 
	d="
M92.625122,462.450073 
	C90.868042,462.862732 88.797508,463.532959 87.869942,462.785248 
	C87.067902,462.138763 87.178337,459.748535 87.646294,458.391510 
	C87.887032,457.693359 90.651146,457.034180 90.796974,457.270294 
	C91.700684,458.733368 92.184608,460.455719 92.625122,462.450073 
z"/>
<path fill="#FFFFFF" opacity="1.000000" stroke="none" 
	d="
M92.161163,453.100098 
	C90.354980,453.023224 88.203987,453.123535 87.482780,452.157013 
	C86.838570,451.293579 87.490730,449.112183 88.144234,447.797333 
	C88.419983,447.242584 91.034309,447.106445 91.108253,447.311859 
	C91.743523,449.076508 92.040512,450.962982 92.161163,453.100098 
z"/>
<path fill="#FFFFFF" opacity="1.000000" stroke="none" 
	d="
M496.554993,27.276642 
	C495.566223,28.743111 494.583588,30.142530 493.237671,30.816334 
	C492.773590,31.048676 490.831879,29.612627 490.606567,28.685606 
	C490.371613,27.718767 491.469757,25.452604 491.850677,25.482220 
	C493.401306,25.602776 494.900421,26.385929 496.554993,27.276642 
z"/>
<path fill="#FFFFFF" opacity="1.000000" stroke="none" 
	d="
M294.863800,254.132034 
	C293.582886,251.518677 293.786865,249.376205 296.675995,249.252319 
	C297.713989,249.207809 299.791229,251.284393 299.746155,252.321289 
	C299.620483,255.210907 297.476318,255.410782 294.863800,254.132034 
z"/>
<path fill="#FFFFFF" opacity="1.000000" stroke="none" 
	d="
M143.399368,388.454102 
	C144.818665,389.301727 146.562408,390.227722 146.772995,391.423645 
	C146.945267,392.402069 145.289612,393.702362 144.444305,394.859924 
	C143.637955,393.827087 142.477493,392.895905 142.142166,391.727844 
	C141.893311,390.860962 142.715652,389.686584 143.399368,388.454102 
z"/>
<path fill="#FFFFFF" opacity="1.000000" stroke="none" 
	d="
M482.884399,50.195778 
	C483.537201,50.439266 484.043671,50.625252 484.038605,50.796135 
	C483.982727,52.688797 483.847534,54.579117 483.733765,56.470078 
	C482.628815,56.164864 480.823639,56.155029 480.547455,55.500221 
	C479.642303,53.354420 479.271759,50.965977 482.884399,50.195778 
z"/>
<path fill="#FFFFFF" opacity="1.000000" stroke="none" 
	d="
M51.652412,493.593353 
	C51.342567,495.524139 50.861065,497.100037 50.379566,498.675903 
	C49.404434,498.326355 47.706379,498.130585 47.593033,497.597717 
	C47.283276,496.141571 47.641487,494.543335 47.735146,493.001373 
	C48.983685,493.080383 50.232220,493.159424 51.652412,493.593353 
z"/>
<path fill="#FFFFFF" opacity="1.000000" stroke="none" 
	d="
M76.347572,457.406586 
	C76.657440,455.475830 77.138962,453.899963 77.620483,452.324097 
	C78.595604,452.673645 80.293655,452.869446 80.406982,453.402283 
	C80.716690,454.858429 80.358482,456.456635 80.264809,457.998596 
	C79.016281,457.919556 77.767746,457.840515 76.347572,457.406586 
z"/>
<path fill="#FFFFFF" opacity="1.000000" stroke="none" 
	d="
M142.109619,405.330017 
	C143.343460,404.461090 144.510468,403.979645 145.677475,403.498230 
	C146.067505,404.969513 146.765030,406.452148 146.711105,407.906982 
	C146.686111,408.581848 145.198898,409.202484 144.374573,409.847717 
	C143.597305,408.470978 142.820038,407.094269 142.109619,405.330017 
z"/>
<path fill="#FFFFFF" opacity="1.000000" stroke="none" 
	d="
M415.652344,135.593384 
	C415.342529,137.524155 414.861023,139.100021 414.379547,140.675873 
	C413.404419,140.326340 411.706329,140.130585 411.592957,139.597748 
	C411.283234,138.141602 411.641479,136.543381 411.735138,135.001419 
	C412.983673,135.080444 414.232178,135.159470 415.652344,135.593384 
z"/>
<path fill="#FFFFFF" opacity="1.000000" stroke="none" 
	d="
M396.969879,147.104813 
	C396.100861,148.613800 395.217590,149.727600 394.334290,150.841400 
	C393.569122,149.940536 392.231232,149.070435 392.180786,148.131180 
	C392.114594,146.899216 393.063721,145.612732 393.576141,144.349701 
	C394.702637,145.136337 395.829132,145.922974 396.969879,147.104813 
z"/>
<path fill="#FFFFFF" opacity="1.000000" stroke="none" 
	d="
M375.109558,161.330048 
	C376.343475,160.461105 377.510468,159.979660 378.677460,159.498199 
	C379.067474,160.969482 379.764954,162.452148 379.711060,163.906982 
	C379.686035,164.581833 378.198883,165.202499 377.374573,165.847748 
	C376.597260,164.471024 375.819977,163.094299 375.109558,161.330048 
z"/>
<path fill="#FFFFFF" opacity="1.000000" stroke="none" 
	d="
M112.059631,410.096619 
	C113.623833,409.457520 115.162628,409.227356 116.701416,408.997162 
	C116.525185,410.197906 116.732506,412.128326 116.099876,412.460846 
	C114.293312,413.410492 112.215294,413.572144 112.059631,410.096619 
z"/>
</svg>