<svg version="1.1" id="Layer_1" xmlns="http://www.w3.org/2000/svg" xmlns:xlink="http://www.w3.org/1999/xlink" x="0px" y="0px"
	 width="100%" viewBox="0 0 336 288" enable-background="new 0 0 336 288" xml:space="preserve">
<path fill="#000000" opacity="1.000000" stroke="none" 
	d="
M208.664948,233.045898 
	C195.588303,235.876434 182.734680,237.562683 169.812454,237.187500 
	C159.267471,236.881363 148.695908,235.869064 138.315323,233.492371 
	C135.047012,232.744049 133.016068,231.199707 131.690933,228.211426 
	C126.003395,215.385574 122.958397,201.830948 120.737518,188.084290 
	C118.353729,173.329224 116.983002,158.440842 117.714828,143.496582 
	C118.970261,117.859573 123.193092,92.799080 133.515503,69.045227 
	C134.907135,65.842804 136.915955,64.138542 140.417740,63.436256 
	C157.163757,60.077824 173.978989,59.921013 190.913193,61.525135 
	C210.513489,63.381809 228.936340,69.054504 246.068405,78.614075 
	C265.209412,89.294624 280.774414,103.523415 288.770172,124.613548 
	C296.933868,146.146500 294.552277,166.749466 282.094849,185.901031 
	C265.176270,211.911102 239.638504,225.059326 210.482040,232.450104 
	C210.001236,232.571991 209.536346,232.756668 208.664948,233.045898 
M136.339783,131.615967 
	C135.634750,141.704178 135.236435,151.710831 136.109329,161.900101 
	C137.523026,178.402512 141.056351,194.270935 146.458282,209.839783 
	C147.902954,214.003448 150.791870,216.054535 154.868103,216.511063 
	C159.805710,217.064072 164.774689,217.473053 169.739532,217.615479 
	C177.550217,217.839523 185.289352,216.819672 192.997528,215.669525 
	C220.484909,211.568130 245.499710,202.114868 263.688904,180.025467 
	C274.436859,166.972885 278.763214,151.691605 273.902527,134.768967 
	C268.315979,115.319122 254.246902,103.083160 237.467789,93.826721 
	C212.544449,80.077400 185.317581,76.856758 157.344727,78.560173 
	C153.758743,78.778542 149.514893,79.005402 147.731171,83.479446 
	C141.673187,98.674644 138.156235,114.476418 136.339783,131.615967 
z"/>
<path fill="#000000" opacity="1.000000" stroke="none" 
	d="
M78.999870,82.380295 
	C56.025856,82.379852 33.551350,82.301666 11.078264,82.445168 
	C6.696505,82.473137 4.086581,81.267845 3.671563,76.559212 
	C2.994812,68.881073 4.386593,65.953941 9.683549,64.911011 
	C11.134911,64.625244 12.663628,64.669434 14.156898,64.668739 
	C43.456345,64.655106 72.755791,64.656189 102.055244,64.659943 
	C103.219650,64.660088 104.400368,64.601929 105.545692,64.765541 
	C111.132912,65.563660 111.977730,67.068932 109.872864,72.301437 
	C105.827637,82.357521 105.827644,82.357964 94.981895,82.368355 
	C89.821220,82.373299 84.660553,82.376190 78.999870,82.380295 
z"/>
<path fill="#000000" opacity="1.000000" stroke="none" 
	d="
M36.999893,233.341599 
	C27.844477,233.339066 19.183352,233.147263 10.535936,233.408783 
	C5.814276,233.551575 3.869500,231.576248 3.653004,227.070374 
	C3.278811,219.282364 4.900018,216.258575 10.090913,215.707230 
	C11.244340,215.584717 12.419192,215.652084 13.584181,215.652008 
	C41.214912,215.650070 68.845642,215.643723 96.476372,215.655655 
	C104.434166,215.659088 109.914696,221.779602 109.300560,229.767807 
	C109.020058,233.416306 106.477303,233.331085 103.913376,233.332733 
	C90.763817,233.341156 77.614265,233.339035 64.464706,233.340164 
	C55.476437,233.340942 46.488171,233.340973 36.999893,233.341599 
z"/>
<path fill="#000000" opacity="1.000000" stroke="none" 
	d="
M20.015379,102.647408 
	C44.339649,102.651733 68.166916,102.641037 91.994141,102.670120 
	C99.116402,102.678818 100.472137,104.421417 99.100052,111.526978 
	C97.462540,120.007111 97.065125,120.348930 88.376076,120.352097 
	C63.049210,120.361328 37.722324,120.372665 12.395503,120.338821 
	C9.476101,120.334923 5.915033,121.034714 4.567280,117.504028 
	C3.005093,113.411591 2.816780,109.013100 4.816904,104.939529 
	C5.778485,102.981117 7.944354,102.665688 10.020905,102.665222 
	C13.186723,102.664513 16.352539,102.653984 20.015379,102.647408 
z"/>
<path fill="#000000" opacity="1.000000" stroke="none" 
	d="
M76.999344,178.648575 
	C82.654716,178.658096 87.810379,178.690903 92.965775,178.667465 
	C95.462250,178.656128 97.033249,179.525604 97.428970,182.251724 
	C97.854668,185.184418 98.736923,188.052216 99.135742,190.986954 
	C99.434425,193.184845 98.326744,194.653458 96.133385,195.528168 
	C93.866318,196.432281 91.577667,196.348618 89.265686,196.349670 
	C63.986511,196.361191 38.701843,196.047302 13.430769,196.498947 
	C2.850288,196.688049 2.466762,189.441605 4.463129,181.438538 
	C5.274821,178.184616 8.175274,178.658310 10.640651,178.657043 
	C32.593601,178.645691 54.546562,178.649429 76.999344,178.648575 
z"/>
<path fill="#000000" opacity="1.000000" stroke="none" 
	d="
M3.658134,150.842377 
	C3.698010,148.722229 3.558674,147.029388 3.823200,145.402206 
	C4.292830,142.513397 5.644546,140.626709 9.076547,140.635681 
	C36.045212,140.706253 63.014145,140.674149 89.982994,140.675262 
	C93.712753,140.675415 95.237274,142.570129 95.382866,146.269547 
	C95.843689,157.978394 95.551331,158.368149 83.916290,158.370865 
	C59.777447,158.376495 35.638569,158.404068 11.499785,158.368988 
	C5.328266,158.360016 4.322133,157.358383 3.658134,150.842377 
z"/>
</svg>