<svg version="1.1" id="Layer_1" xmlns="http://www.w3.org/2000/svg" xmlns:xlink="http://www.w3.org/1999/xlink" x="0px" y="0px"
	 width="100%" viewBox="0 0 501 470" enable-background="new 0 0 501 470" xml:space="preserve">
<path fill="#FEFEFE" opacity="1.000000" stroke="none" 
	d="
M276.000000,471.000000 
	C184.000015,471.000000 92.500046,471.000000 1.000049,471.000000 
	C1.000033,314.333405 1.000033,157.666779 1.000016,1.000133 
	C167.999893,1.000089 334.999786,1.000089 501.999756,1.000044 
	C501.999847,157.666534 501.999847,314.333069 501.999939,470.999817 
	C426.833344,471.000000 351.666656,471.000000 276.000000,471.000000 
M389.169708,9.152666 
	C378.937836,6.786647 369.813141,9.788203 361.316650,15.196406 
	C359.603821,16.286659 357.695740,18.233019 357.338165,20.069098 
	C356.309204,25.352781 355.882019,30.771225 355.483246,36.156338 
	C354.693085,46.825508 353.644043,57.502281 353.507843,68.186188 
	C353.345306,80.934410 351.722504,93.447144 349.872498,106.021553 
	C348.356964,116.322777 345.967102,126.202682 341.765869,135.306900 
	C335.996674,134.624725 330.550507,133.092590 325.292999,133.582993 
	C318.660858,134.201584 312.119507,136.248764 305.656006,138.090393 
	C299.337097,139.890793 292.917816,141.677872 286.997650,144.444580 
	C280.892029,147.297958 275.275909,151.232605 269.561401,154.875732 
	C266.363098,156.914719 263.180389,159.080994 260.384430,161.622986 
	C256.685638,164.985764 253.372360,168.772568 249.448303,172.838257 
	C244.651459,167.930542 240.985901,162.434387 235.871918,159.305893 
	C224.699295,152.471100 214.220901,144.475845 201.273529,140.454361 
	C186.742569,135.941040 172.536179,131.330063 156.064224,135.982162 
	C153.137421,123.520226 149.706955,111.710213 147.716949,99.662270 
	C145.685257,87.361862 144.808167,74.846680 143.903671,62.390812 
	C142.973038,49.575222 142.366745,36.722061 142.145737,23.876270 
	C142.064240,19.139297 139.884949,16.451357 136.362457,14.223204 
	C123.006378,5.774818 109.197998,6.361883 96.911652,15.182996 
	C87.164124,22.181335 78.582397,31.145176 77.609642,44.603020 
	C77.293007,48.983482 76.127701,53.305237 75.309853,57.646172 
	C74.251717,63.262558 72.685852,68.828033 72.161568,74.491623 
	C70.755363,89.682106 73.938942,104.563789 76.083557,119.478836 
	C76.528915,122.576149 78.648895,125.418846 79.906517,128.416885 
	C81.302536,131.744888 82.594803,135.116409 83.932243,138.468979 
	C83.325691,138.892303 82.719131,139.315643 82.112572,139.738968 
	C76.346832,134.222076 70.586334,128.699692 64.807358,123.196709 
	C64.219749,122.637161 63.564079,122.121803 62.867447,121.708107 
	C51.589767,115.010803 38.701591,125.475731 35.870167,134.866425 
	C34.148067,140.577927 34.560329,146.913254 33.722424,152.927765 
	C33.556053,154.121994 32.281578,155.657257 31.142483,156.129807 
	C27.379435,157.690857 23.229666,158.410858 19.618746,160.229034 
	C11.358622,164.388153 6.222397,175.114304 6.900828,183.926605 
	C7.602815,193.044846 11.556855,200.863968 15.558527,208.706635 
	C16.230333,210.023270 18.292246,211.577057 19.588736,211.473892 
	C27.595133,210.836853 33.070087,215.526825 38.399239,220.196579 
	C41.371777,222.801331 44.222569,222.821564 47.616642,222.008331 
	C50.213444,221.386124 52.877151,221.043167 56.539219,220.393646 
	C55.641472,224.031387 54.865082,226.348648 54.522205,228.728363 
	C53.635471,234.882721 51.136429,241.509399 52.526688,247.147141 
	C55.886971,260.773651 60.015259,274.438904 65.838051,287.172089 
	C73.074463,302.996552 81.468819,318.314362 93.658981,331.348877 
	C101.913284,340.174896 110.939148,347.462433 121.694412,352.723694 
	C124.792343,354.239136 128.007202,355.537140 131.235428,356.757751 
	C133.906158,357.767578 136.632599,358.717560 139.415970,359.311981 
	C141.336487,359.722168 143.431686,359.260132 145.386536,359.574799 
	C149.930054,360.306152 151.349182,363.046448 150.347092,367.421387 
	C149.001389,373.296600 148.116043,379.275940 146.962524,385.196869 
	C145.962616,390.329376 145.025024,395.482422 143.771729,400.555206 
	C141.928375,408.016174 139.727219,415.388702 137.877380,422.848175 
	C136.816788,427.125061 136.348953,431.550201 135.262726,435.819153 
	C133.098541,444.324646 131.028885,452.864258 133.065094,461.622192 
	C133.535995,463.647522 135.628159,466.408051 137.407242,466.784607 
	C141.062347,467.558197 145.100952,467.461182 148.818954,466.803070 
	C156.880997,465.376007 164.823853,463.289764 172.846359,461.621887 
	C183.718689,459.361481 193.477768,454.503143 202.660889,448.545319 
	C210.802948,443.262909 218.447998,437.218567 226.538223,431.850830 
	C233.883240,426.977478 236.043533,413.558868 229.628082,410.040771 
	C227.175659,408.695892 223.901794,408.939819 221.242004,407.865936 
	C211.600647,403.973267 202.452881,408.579681 193.085327,409.204193 
	C190.218399,409.395325 187.363251,409.762756 183.597076,410.140198 
	C184.164902,406.873749 184.465469,404.657471 184.947144,402.481262 
	C185.794220,398.654205 186.835403,394.869049 187.638992,391.033630 
	C188.377563,387.508453 188.565704,383.821533 189.724136,380.456421 
	C190.119247,379.308685 192.953415,378.033295 194.273712,378.372223 
	C197.044540,379.083527 199.622330,380.702606 202.151108,382.170044 
	C208.433456,385.815674 214.335754,390.312592 220.961746,393.119598 
	C229.096786,396.565857 237.649612,399.596100 246.317184,401.073822 
	C257.700958,403.014587 268.107269,397.821716 278.092133,393.136414 
	C286.988861,388.961731 295.322571,383.580933 303.870239,378.672333 
	C306.482635,377.172150 308.621063,377.665222 309.385040,380.463928 
	C310.372284,384.080444 310.639984,387.887299 311.363983,391.583527 
	C312.023560,394.951019 312.982635,398.260681 313.613525,401.632568 
	C314.080322,404.127045 314.232147,406.680450 314.524261,409.207581 
	C311.939453,409.340088 309.306061,409.854034 306.779175,409.531982 
	C299.797882,408.642212 292.890350,407.075256 285.893433,406.451263 
	C282.752075,406.171082 279.489929,407.716095 276.243103,408.060455 
	C266.332001,409.111603 262.172852,416.103180 267.164703,424.850006 
	C269.326294,428.637512 273.615875,431.162537 276.707153,434.477142 
	C283.966461,442.260895 293.511444,446.697083 302.367096,452.096436 
	C310.742401,457.202850 319.816986,460.711090 329.616333,462.215393 
	C339.494049,463.731689 349.335358,465.483978 359.198456,467.097382 
	C363.468109,467.795807 365.361267,465.186310 366.025208,461.595734 
	C366.564056,458.681732 367.046234,455.589294 366.643219,452.703094 
	C365.716278,446.064941 364.358704,439.477570 362.948273,432.918518 
	C360.959595,423.670410 358.725922,414.475281 356.671295,405.240967 
	C355.072906,398.057159 353.566132,390.852631 352.060059,383.648682 
	C350.959442,378.383881 350.175537,373.038422 348.790192,367.851807 
	C347.499969,363.021332 349.063843,360.133453 354.157074,359.509613 
	C355.965485,359.288116 357.882477,359.708893 359.633118,359.316040 
	C362.411682,358.692535 365.133606,357.739990 367.798981,356.716888 
	C369.489716,356.067963 370.943451,354.719971 372.658966,354.230011 
	C388.125336,349.812805 399.308685,339.052429 409.127441,327.466370 
	C416.931549,318.257538 423.205017,307.409149 428.464783,296.474213 
	C434.852875,283.193573 439.986206,269.229919 444.599396,255.211945 
	C446.604584,249.119003 448.806702,242.510895 445.464966,235.450073 
	C443.490936,231.279053 443.811066,226.022263 442.970093,220.386536 
	C446.228394,220.947784 448.689941,221.105911 450.974823,221.825195 
	C454.778168,223.022537 457.770447,222.658340 461.017822,219.840118 
	C466.091827,215.436676 471.317657,211.082901 478.960114,211.408554 
	C480.768921,211.485657 483.112671,208.838699 484.483002,206.924225 
	C486.251648,204.453201 487.377258,201.497849 488.625031,198.682495 
	C492.527924,189.876511 492.306610,180.785172 489.819763,171.750931 
	C489.153473,169.330414 487.341858,166.994431 485.508881,165.169052 
	C480.008118,159.691132 473.528687,155.929840 465.176422,155.776840 
	C465.176422,152.504684 465.091980,149.695984 465.191803,146.893845 
	C465.530884,137.377670 462.235107,129.662628 454.670135,123.600792 
	C448.486877,118.646111 437.662811,118.480797 433.901154,123.651382 
	C432.059631,126.182693 430.273651,129.049423 427.770233,130.737976 
	C423.576263,133.566833 420.016083,137.961151 414.384674,138.215805 
	C417.143982,132.398071 420.045471,127.073540 422.180481,121.457611 
	C423.315155,118.472961 423.050964,114.972649 423.541809,111.723785 
	C424.629211,104.526802 426.525055,97.362671 426.733185,90.145981 
	C426.964447,82.126328 425.934357,74.034119 424.998291,66.026711 
	C423.972534,57.251968 423.635742,48.128593 420.844330,39.886822 
	C415.778992,24.931107 405.284973,14.477367 389.169708,9.152666 
z"/>
<path fill="#020102" opacity="1.000000" stroke="none" 
	d="
M389.519409,9.363127 
	C405.284973,14.477367 415.778992,24.931107 420.844330,39.886822 
	C423.635742,48.128593 423.972534,57.251968 424.998291,66.026711 
	C425.934357,74.034119 426.964447,82.126328 426.733185,90.145981 
	C426.525055,97.362671 424.629211,104.526802 423.541809,111.723785 
	C423.050964,114.972649 423.315155,118.472961 422.180481,121.457611 
	C420.045471,127.073540 417.143982,132.398071 414.384674,138.215805 
	C420.016083,137.961151 423.576263,133.566833 427.770233,130.737976 
	C430.273651,129.049423 432.059631,126.182693 433.901154,123.651382 
	C437.662811,118.480797 448.486877,118.646111 454.670135,123.600792 
	C462.235107,129.662628 465.530884,137.377670 465.191803,146.893845 
	C465.091980,149.695984 465.176422,152.504684 465.176422,155.776840 
	C473.528687,155.929840 480.008118,159.691132 485.508881,165.169052 
	C487.341858,166.994431 489.153473,169.330414 489.819763,171.750931 
	C492.306610,180.785172 492.527924,189.876511 488.625031,198.682495 
	C487.377258,201.497849 486.251648,204.453201 484.483002,206.924225 
	C483.112671,208.838699 480.768921,211.485657 478.960114,211.408554 
	C471.317657,211.082901 466.091827,215.436676 461.017822,219.840118 
	C457.770447,222.658340 454.778168,223.022537 450.974823,221.825195 
	C448.689941,221.105911 446.228394,220.947784 442.970093,220.386536 
	C443.811066,226.022263 443.490936,231.279053 445.464966,235.450073 
	C448.806702,242.510895 446.604584,249.119003 444.599396,255.211945 
	C439.986206,269.229919 434.852875,283.193573 428.464783,296.474213 
	C423.205017,307.409149 416.931549,318.257538 409.127441,327.466370 
	C399.308685,339.052429 388.125336,349.812805 372.658966,354.230011 
	C370.943451,354.719971 369.489716,356.067963 367.798981,356.716888 
	C365.133606,357.739990 362.411682,358.692535 359.633118,359.316040 
	C357.882477,359.708893 355.965485,359.288116 354.157074,359.509613 
	C349.063843,360.133453 347.499969,363.021332 348.790192,367.851807 
	C350.175537,373.038422 350.959442,378.383881 352.060059,383.648682 
	C353.566132,390.852631 355.072906,398.057159 356.671295,405.240967 
	C358.725922,414.475281 360.959595,423.670410 362.948273,432.918518 
	C364.358704,439.477570 365.716278,446.064941 366.643219,452.703094 
	C367.046234,455.589294 366.564056,458.681732 366.025208,461.595734 
	C365.361267,465.186310 363.468109,467.795807 359.198456,467.097382 
	C349.335358,465.483978 339.494049,463.731689 329.616333,462.215393 
	C319.816986,460.711090 310.742401,457.202850 302.367096,452.096436 
	C293.511444,446.697083 283.966461,442.260895 276.707153,434.477142 
	C273.615875,431.162537 269.326294,428.637512 267.164703,424.850006 
	C262.172852,416.103180 266.332001,409.111603 276.243103,408.060455 
	C279.489929,407.716095 282.752075,406.171082 285.893433,406.451263 
	C292.890350,407.075256 299.797882,408.642212 306.779175,409.531982 
	C309.306061,409.854034 311.939453,409.340088 314.524292,409.207581 
	C314.232147,406.680450 314.080322,404.127045 313.613525,401.632568 
	C312.982635,398.260681 312.023560,394.951019 311.363983,391.583527 
	C310.639984,387.887299 310.372284,384.080444 309.385040,380.463928 
	C308.621063,377.665222 306.482635,377.172150 303.870239,378.672333 
	C295.322571,383.580933 286.988861,388.961731 278.092133,393.136414 
	C268.107269,397.821716 257.700958,403.014587 246.317184,401.073822 
	C237.649612,399.596100 229.096786,396.565857 220.961746,393.119598 
	C214.335754,390.312592 208.433456,385.815674 202.151108,382.170044 
	C199.622330,380.702606 197.044540,379.083527 194.273712,378.372223 
	C192.953415,378.033295 190.119247,379.308685 189.724136,380.456421 
	C188.565704,383.821533 188.377563,387.508453 187.638992,391.033630 
	C186.835403,394.869049 185.794220,398.654205 184.947144,402.481262 
	C184.465469,404.657471 184.164902,406.873749 183.597076,410.140198 
	C187.363251,409.762756 190.218399,409.395325 193.085327,409.204193 
	C202.452881,408.579681 211.600647,403.973267 221.242004,407.865936 
	C223.901794,408.939819 227.175659,408.695892 229.628082,410.040771 
	C236.043533,413.558868 233.883240,426.977478 226.538223,431.850830 
	C218.447998,437.218567 210.802948,443.262909 202.660889,448.545319 
	C193.477768,454.503143 183.718689,459.361481 172.846359,461.621887 
	C164.823853,463.289764 156.880997,465.376007 148.818954,466.803070 
	C145.100952,467.461182 141.062347,467.558197 137.407242,466.784607 
	C135.628159,466.408051 133.535995,463.647522 133.065094,461.622192 
	C131.028885,452.864258 133.098541,444.324646 135.262726,435.819153 
	C136.348953,431.550201 136.816788,427.125061 137.877380,422.848175 
	C139.727219,415.388702 141.928375,408.016174 143.771729,400.555206 
	C145.025024,395.482422 145.962616,390.329376 146.962524,385.196869 
	C148.116043,379.275940 149.001389,373.296600 150.347092,367.421387 
	C151.349182,363.046448 149.930054,360.306152 145.386536,359.574799 
	C143.431686,359.260132 141.336487,359.722168 139.415970,359.311981 
	C136.632599,358.717560 133.906158,357.767578 131.235428,356.757751 
	C128.007202,355.537140 124.792343,354.239136 121.694412,352.723694 
	C110.939148,347.462433 101.913284,340.174896 93.658981,331.348877 
	C81.468819,318.314362 73.074463,302.996552 65.838051,287.172089 
	C60.015259,274.438904 55.886971,260.773651 52.526688,247.147141 
	C51.136429,241.509399 53.635471,234.882721 54.522205,228.728363 
	C54.865082,226.348648 55.641472,224.031387 56.539219,220.393646 
	C52.877151,221.043167 50.213444,221.386124 47.616642,222.008331 
	C44.222569,222.821564 41.371777,222.801331 38.399239,220.196579 
	C33.070087,215.526825 27.595133,210.836853 19.588736,211.473892 
	C18.292246,211.577057 16.230333,210.023270 15.558527,208.706635 
	C11.556855,200.863968 7.602815,193.044846 6.900828,183.926605 
	C6.222397,175.114304 11.358622,164.388153 19.618746,160.229034 
	C23.229666,158.410858 27.379435,157.690857 31.142483,156.129807 
	C32.281578,155.657257 33.556053,154.121994 33.722424,152.927765 
	C34.560329,146.913254 34.148067,140.577927 35.870167,134.866425 
	C38.701591,125.475731 51.589767,115.010803 62.867447,121.708107 
	C63.564079,122.121803 64.219749,122.637161 64.807358,123.196709 
	C70.586334,128.699692 76.346832,134.222076 82.112572,139.738968 
	C82.719131,139.315643 83.325691,138.892303 83.932243,138.468979 
	C82.594803,135.116409 81.302536,131.744888 79.906517,128.416885 
	C78.648895,125.418846 76.528915,122.576149 76.083557,119.478836 
	C73.938942,104.563789 70.755363,89.682106 72.161568,74.491623 
	C72.685852,68.828033 74.251717,63.262558 75.309853,57.646172 
	C76.127701,53.305237 77.293007,48.983482 77.609642,44.603020 
	C78.582397,31.145176 87.164124,22.181335 96.911652,15.182996 
	C109.197998,6.361883 123.006378,5.774818 136.362457,14.223204 
	C139.884949,16.451357 142.064240,19.139297 142.145737,23.876270 
	C142.366745,36.722061 142.973038,49.575222 143.903671,62.390812 
	C144.808167,74.846680 145.685257,87.361862 147.716949,99.662270 
	C149.706955,111.710213 153.137421,123.520226 156.064224,135.982162 
	C172.536179,131.330063 186.742569,135.941040 201.273529,140.454361 
	C214.220901,144.475845 224.699295,152.471100 235.871918,159.305893 
	C240.985901,162.434387 244.651459,167.930542 249.448303,172.838257 
	C253.372360,168.772568 256.685638,164.985764 260.384430,161.622986 
	C263.180389,159.080994 266.363098,156.914719 269.561401,154.875732 
	C275.275909,151.232605 280.892029,147.297958 286.997650,144.444580 
	C292.917816,141.677872 299.337097,139.890793 305.656006,138.090393 
	C312.119507,136.248764 318.660858,134.201584 325.292999,133.582993 
	C330.550507,133.092590 335.996674,134.624725 341.765869,135.306900 
	C345.967102,126.202682 348.356964,116.322777 349.872498,106.021553 
	C351.722504,93.447144 353.345306,80.934410 353.507843,68.186188 
	C353.644043,57.502281 354.693085,46.825508 355.483246,36.156338 
	C355.882019,30.771225 356.309204,25.352781 357.338165,20.069098 
	C357.695740,18.233019 359.603821,16.286659 361.316650,15.196406 
	C369.813141,9.788203 378.937836,6.786647 389.519409,9.363127 
M241.494980,218.948669 
	C238.515427,218.661835 235.541641,218.263641 232.555252,218.108490 
	C222.477646,217.584976 219.471985,220.068924 219.341095,230.185776 
	C219.063019,251.676392 219.126312,273.171539 219.079697,294.664917 
	C219.066360,300.816895 221.852905,304.106201 226.849136,304.004211 
	C231.890106,303.901276 234.326675,300.723206 234.305832,294.326904 
	C234.288773,289.088226 234.302368,283.849518 234.302368,278.281036 
	C247.907425,282.660217 259.310150,290.098083 269.406677,299.760437 
	C273.808380,303.972870 278.265411,304.091248 281.613739,300.420441 
	C284.753296,296.978516 284.492279,292.464447 280.171051,288.596436 
	C274.064423,283.130280 267.569031,278.098358 261.266571,272.902832 
	C263.973602,271.350281 267.102814,269.826416 269.941345,267.878845 
	C280.003052,260.975281 282.683075,249.874176 276.083923,239.524353 
	C268.314026,227.338348 256.695587,220.797073 241.494980,218.948669 
M346.824036,302.983734 
	C350.787598,303.265808 354.275177,301.630798 354.875031,297.891968 
	C355.323425,295.096954 354.398254,290.984497 352.475159,289.109955 
	C346.487274,283.273346 339.733612,278.222382 333.194336,272.798218 
	C334.428467,272.178223 336.035553,271.399902 337.616608,270.571869 
	C348.090179,265.086517 352.506317,257.856720 351.200104,247.992065 
	C350.331207,241.430099 346.758301,236.352661 342.045471,231.879105 
	C329.952057,220.399734 315.028381,217.715988 299.189697,218.074997 
	C294.974518,218.170517 292.743713,221.288651 291.872986,225.110703 
	C291.326263,227.510422 291.237732,230.051590 291.227112,232.530518 
	C291.137970,253.333572 291.098999,274.136902 291.081207,294.940155 
	C291.076233,300.737274 293.824402,303.975616 298.608429,304.004944 
	C303.594147,304.035553 306.255829,300.980164 306.294769,295.083588 
	C306.330994,289.605286 306.302521,284.126556 306.302521,278.405701 
	C316.291565,281.208160 325.061005,286.408600 333.248962,292.688141 
	C337.579498,296.009308 341.787262,299.490540 346.824036,302.983734 
M150.279724,221.142517 
	C150.284943,232.434448 150.336807,243.726608 150.282532,255.018250 
	C150.225845,266.812958 149.467850,278.641113 150.134064,290.391296 
	C150.712814,300.599060 155.323273,305.191986 165.575150,305.887482 
	C176.970184,306.660522 188.464386,306.330505 199.900513,305.985779 
	C205.543884,305.815643 208.213806,302.361145 207.546310,297.693604 
	C206.904068,293.202545 202.685791,291.063385 197.313919,291.366791 
	C187.689011,291.910370 178.030304,291.951721 168.386322,291.930817 
	C167.268219,291.928406 165.224426,290.237823 165.186417,289.268097 
	C164.909943,282.215759 165.037735,275.147614 165.037735,268.120544 
	C177.591202,267.042603 189.526550,266.072662 201.449310,264.966888 
	C206.188995,264.527283 208.362488,261.975555 208.300537,257.429199 
	C208.244064,253.286682 205.446518,250.233917 201.145523,250.051086 
	C198.333572,249.931564 195.492874,250.203369 192.679352,250.457886 
	C183.934219,251.249008 175.195892,252.115494 166.338867,252.963852 
	C166.338867,245.609268 166.338867,238.508820 166.338867,231.282532 
	C177.922287,228.467819 189.272018,228.326324 200.686737,230.496994 
	C201.826065,230.713654 202.979492,230.945251 204.132660,230.984222 
	C208.369186,231.127396 211.194885,229.156326 212.050949,224.983154 
	C212.886673,220.909164 210.938721,218.265854 207.096619,216.960510 
	C196.128815,213.234283 184.844452,213.735062 173.534164,214.416306 
	C168.491409,214.720062 163.436600,214.928787 158.385849,214.960815 
	C154.438370,214.985855 151.611191,216.328384 150.279724,221.142517 
z"/>
<path fill="#F9FBFB" opacity="1.000000" stroke="none" 
	d="
M241.944244,218.968872 
	C256.695587,220.797073 268.314026,227.338348 276.083923,239.524353 
	C282.683075,249.874176 280.003052,260.975281 269.941345,267.878845 
	C267.102814,269.826416 263.973602,271.350281 261.266571,272.902832 
	C267.569031,278.098358 274.064423,283.130280 280.171051,288.596436 
	C284.492279,292.464447 284.753296,296.978516 281.613739,300.420441 
	C278.265411,304.091248 273.808380,303.972870 269.406677,299.760437 
	C259.310150,290.098083 247.907425,282.660217 234.302368,278.281036 
	C234.302368,283.849518 234.288773,289.088226 234.305832,294.326904 
	C234.326675,300.723206 231.890106,303.901276 226.849136,304.004211 
	C221.852905,304.106201 219.066360,300.816895 219.079697,294.664917 
	C219.126312,273.171539 219.063019,251.676392 219.341095,230.185776 
	C219.471985,220.068924 222.477646,217.584976 232.555252,218.108490 
	C235.541641,218.263641 238.515427,218.661835 241.944244,218.968872 
M261.756561,244.928452 
	C254.653046,236.456390 245.394714,233.083420 234.403046,233.090820 
	C234.403046,242.833588 234.403046,252.229630 234.403046,261.594727 
	C244.311356,262.744751 254.140472,260.865997 259.455353,256.883789 
	C264.599884,253.029236 264.978577,251.429993 261.756561,244.928452 
z"/>
<path fill="#F9FBFB" opacity="1.000000" stroke="none" 
	d="
M346.437256,302.941620 
	C341.787262,299.490540 337.579498,296.009308 333.248962,292.688141 
	C325.061005,286.408600 316.291565,281.208160 306.302521,278.405701 
	C306.302521,284.126556 306.330994,289.605286 306.294769,295.083588 
	C306.255829,300.980164 303.594147,304.035553 298.608429,304.004944 
	C293.824402,303.975616 291.076233,300.737274 291.081207,294.940155 
	C291.098999,274.136902 291.137970,253.333572 291.227112,232.530518 
	C291.237732,230.051590 291.326263,227.510422 291.872986,225.110703 
	C292.743713,221.288651 294.974518,218.170517 299.189697,218.074997 
	C315.028381,217.715988 329.952057,220.399734 342.045471,231.879105 
	C346.758301,236.352661 350.331207,241.430099 351.200104,247.992065 
	C352.506317,257.856720 348.090179,265.086517 337.616608,270.571869 
	C336.035553,271.399902 334.428467,272.178223 333.194336,272.798218 
	C339.733612,278.222382 346.487274,283.273346 352.475159,289.109955 
	C354.398254,290.984497 355.323425,295.096954 354.875031,297.891968 
	C354.275177,301.630798 350.787598,303.265808 346.437256,302.941620 
M322.928223,236.385498 
	C317.572968,235.013428 312.217712,233.641373 306.150665,232.086929 
	C306.150665,238.003845 306.150665,242.628021 306.150665,247.252197 
	C306.150665,252.032898 306.150665,256.813599 306.150665,261.956177 
	C315.440948,262.095428 324.218536,262.138031 331.778412,256.581177 
	C336.914032,252.806274 337.496735,249.250168 333.226654,244.480179 
	C330.521484,241.458282 326.820404,239.327927 322.928223,236.385498 
z"/>
<path fill="#FAFBFA" opacity="1.000000" stroke="none" 
	d="
M150.387421,220.743958 
	C151.611191,216.328384 154.438370,214.985855 158.385849,214.960815 
	C163.436600,214.928787 168.491409,214.720062 173.534164,214.416306 
	C184.844452,213.735062 196.128815,213.234283 207.096619,216.960510 
	C210.938721,218.265854 212.886673,220.909164 212.050949,224.983154 
	C211.194885,229.156326 208.369186,231.127396 204.132660,230.984222 
	C202.979492,230.945251 201.826065,230.713654 200.686737,230.496994 
	C189.272018,228.326324 177.922287,228.467819 166.338867,231.282532 
	C166.338867,238.508820 166.338867,245.609268 166.338867,252.963852 
	C175.195892,252.115494 183.934219,251.249008 192.679352,250.457886 
	C195.492874,250.203369 198.333572,249.931564 201.145523,250.051086 
	C205.446518,250.233917 208.244064,253.286682 208.300537,257.429199 
	C208.362488,261.975555 206.188995,264.527283 201.449310,264.966888 
	C189.526550,266.072662 177.591202,267.042603 165.037735,268.120544 
	C165.037735,275.147614 164.909943,282.215759 165.186417,289.268097 
	C165.224426,290.237823 167.268219,291.928406 168.386322,291.930817 
	C178.030304,291.951721 187.689011,291.910370 197.313919,291.366791 
	C202.685791,291.063385 206.904068,293.202545 207.546310,297.693604 
	C208.213806,302.361145 205.543884,305.815643 199.900513,305.985779 
	C188.464386,306.330505 176.970184,306.660522 165.575150,305.887482 
	C155.323273,305.191986 150.712814,300.599060 150.134064,290.391296 
	C149.467850,278.641113 150.225845,266.812958 150.282532,255.018250 
	C150.336807,243.726608 150.284943,232.434448 150.387421,220.743958 
z"/>
<path fill="#070606" opacity="1.000000" stroke="none" 
	d="
M261.944946,245.251709 
	C264.978577,251.429993 264.599884,253.029236 259.455353,256.883789 
	C254.140472,260.865997 244.311356,262.744751 234.403046,261.594727 
	C234.403046,252.229630 234.403046,242.833588 234.403046,233.090820 
	C245.394714,233.083420 254.653046,236.456390 261.944946,245.251709 
z"/>
<path fill="#070606" opacity="1.000000" stroke="none" 
	d="
M323.247101,236.591614 
	C326.820404,239.327927 330.521484,241.458282 333.226654,244.480179 
	C337.496735,249.250168 336.914032,252.806274 331.778412,256.581177 
	C324.218536,262.138031 315.440948,262.095428 306.150665,261.956177 
	C306.150665,256.813599 306.150665,252.032898 306.150665,247.252197 
	C306.150665,242.628021 306.150665,238.003845 306.150665,232.086929 
	C312.217712,233.641373 317.572968,235.013428 323.247101,236.591614 
z"/>
</svg>