<svg version="1.1" id="Layer_1" xmlns="http://www.w3.org/2000/svg" xmlns:xlink="http://www.w3.org/1999/xlink" x="0px" y="0px"
	 width="100%" viewBox="0 0 242 184" enable-background="new 0 0 242 184" xml:space="preserve">
<path fill="#FCFCFC" opacity="1.000000" stroke="none" 
	d="
M146.000000,185.000000 
	C97.333336,185.000000 49.166672,185.000000 1.000006,185.000000 
	C1.000004,123.666672 1.000004,62.333347 1.000002,1.000015 
	C81.666656,1.000010 162.333313,1.000010 242.999969,1.000005 
	C242.999985,62.333317 242.999985,123.666634 243.000000,184.999969 
	C210.833328,185.000000 178.666672,185.000000 146.000000,185.000000 
M53.875099,120.679970 
	C57.585285,126.988182 61.461380,133.207764 64.907234,139.657196 
	C65.978020,141.661331 66.214722,144.282104 66.260651,146.631744 
	C66.417969,154.680511 66.321007,162.734238 66.321007,170.695740 
	C70.293419,170.695740 74.031921,170.695740 78.002701,170.695740 
	C78.002701,168.200851 77.764847,166.023102 78.044937,163.914139 
	C79.111305,155.884735 80.283485,147.867569 81.583199,139.872986 
	C81.774666,138.695343 82.610664,137.086044 83.582298,136.655487 
	C92.348862,132.770782 101.481850,130.196960 109.891167,129.317657 
	C108.547081,143.241043 107.233414,156.849380 105.897888,170.684174 
	C111.286797,170.684174 115.163376,170.684174 119.487198,170.684174 
	C118.190376,156.795944 119.712852,143.684402 126.011337,131.476852 
	C126.698334,130.145340 128.407440,128.292206 129.495605,128.385941 
	C136.862213,129.020508 144.189270,130.113876 150.492157,130.925385 
	C149.383057,144.815735 148.360214,157.625687 147.317383,170.685928 
	C152.495300,170.685928 156.351517,170.685928 160.504684,170.685928 
	C160.368835,158.730377 159.588547,146.998306 165.474121,135.963013 
	C170.458282,138.352234 175.334274,140.689606 180.352203,143.095016 
	C196.427673,114.599365 212.327606,86.414902 228.219894,58.243980 
	C157.385757,16.418613 72.415787,25.033386 18.268143,60.839920 
	C30.007521,80.573303 41.751415,100.314285 53.875099,120.679970 
z"/>
<path fill="#0B0B0B" opacity="1.000000" stroke="none" 
	d="
M53.685204,120.367615 
	C41.751415,100.314285 30.007521,80.573303 18.268143,60.839920 
	C72.415787,25.033386 157.385757,16.418613 228.219894,58.243980 
	C212.327606,86.414902 196.427673,114.599365 180.352203,143.095016 
	C175.334274,140.689606 170.458282,138.352234 165.474121,135.963013 
	C159.588547,146.998306 160.368835,158.730377 160.504684,170.685928 
	C156.351517,170.685928 152.495300,170.685928 147.317383,170.685928 
	C148.360214,157.625687 149.383057,144.815735 150.492157,130.925385 
	C144.189270,130.113876 136.862213,129.020508 129.495605,128.385941 
	C128.407440,128.292206 126.698334,130.145340 126.011337,131.476852 
	C119.712852,143.684402 118.190376,156.795944 119.487198,170.684174 
	C115.163376,170.684174 111.286797,170.684174 105.897888,170.684174 
	C107.233414,156.849380 108.547081,143.241043 109.891167,129.317657 
	C101.481850,130.196960 92.348862,132.770782 83.582298,136.655487 
	C82.610664,137.086044 81.774666,138.695343 81.583199,139.872986 
	C80.283485,147.867569 79.111305,155.884735 78.044937,163.914139 
	C77.764847,166.023102 78.002701,168.200851 78.002701,170.695740 
	C74.031921,170.695740 70.293419,170.695740 66.321007,170.695740 
	C66.321007,162.734238 66.417969,154.680511 66.260651,146.631744 
	C66.214722,144.282104 65.978020,141.661331 64.907234,139.657196 
	C61.461380,133.207764 57.585285,126.988182 53.685204,120.367615 
M74.668739,47.065701 
	C59.910858,51.174881 45.624546,56.428745 32.157413,64.119362 
	C45.009338,85.788345 57.634037,107.074219 70.491035,128.751755 
	C77.446991,117.928040 77.390671,106.533875 76.759880,94.532181 
	C74.278275,95.315102 72.430145,96.134354 70.503624,96.414558 
	C69.404022,96.574478 67.867874,96.165482 67.119484,95.419548 
	C66.650642,94.952217 66.930717,93.147621 67.471336,92.344765 
	C72.454773,84.944054 77.568497,77.631088 83.022911,69.745224 
	C88.580925,77.578331 93.788200,84.833725 98.856178,92.185150 
	C99.378540,92.942871 99.508362,94.594215 99.027809,95.251244 
	C98.511124,95.957664 96.999924,96.369896 96.028671,96.220650 
	C93.991707,95.907654 92.024239,95.142380 90.030159,94.563362 
	C89.309517,104.682472 88.633759,114.171349 87.994301,123.150505 
	C96.529480,121.641602 105.187805,120.204811 113.789375,118.484276 
	C115.013214,118.239464 116.785286,116.707092 116.903664,115.618408 
	C117.666924,108.599319 118.040878,101.537895 118.584892,93.895950 
	C115.782616,94.774948 114.086563,95.557434 112.320343,95.778061 
	C111.015549,95.941048 109.397415,95.690826 108.369606,94.976334 
	C107.940010,94.677704 108.316628,92.457771 108.942207,91.523582 
	C113.824562,84.232635 118.856789,77.042061 124.220314,69.273605 
	C128.769760,75.701881 133.068787,81.559319 137.103806,87.593323 
	C138.551285,89.757904 139.362045,92.348282 140.463409,94.744324 
	C137.856018,94.643738 135.248291,94.550560 132.641510,94.435928 
	C132.156052,94.414581 131.674393,94.306961 131.020004,94.215172 
	C130.673233,102.031532 130.330154,109.765137 129.985504,117.533867 
	C138.690018,118.895447 147.322433,120.245743 157.421661,121.825485 
	C158.285721,112.566757 159.141220,103.399902 160.079453,93.346466 
	C156.756271,94.410545 155.062759,95.159233 153.294403,95.445488 
	C152.141205,95.632172 150.416733,95.549698 149.802383,94.844070 
	C149.242538,94.201035 149.403793,92.268005 149.985733,91.397026 
	C154.963257,83.947479 160.108994,76.610329 165.460464,68.869186 
	C170.857422,76.468513 176.006073,83.617592 180.997833,90.874580 
	C181.620422,91.779686 181.932327,93.584167 181.435867,94.371140 
	C180.983459,95.088242 179.197693,95.312180 178.068848,95.176720 
	C176.157166,94.947327 174.299988,94.263527 172.725983,93.850975 
	C171.684937,104.863266 170.673157,115.565903 169.618805,126.718948 
	C171.397034,127.460938 173.764877,128.448959 176.257996,129.489258 
	C189.047409,106.828926 201.595993,84.595291 214.364929,61.971222 
	C169.498978,39.927685 123.436966,34.755005 74.668739,47.065701 
z"/>
<path fill="#F9F9F9" opacity="1.000000" stroke="none" 
	d="
M75.069092,46.973251 
	C123.436966,34.755005 169.498978,39.927685 214.364929,61.971222 
	C201.595993,84.595291 189.047409,106.828926 176.257996,129.489258 
	C173.764877,128.448959 171.397034,127.460938 169.618805,126.718948 
	C170.673157,115.565903 171.684937,104.863266 172.725983,93.850975 
	C174.299988,94.263527 176.157166,94.947327 178.068848,95.176720 
	C179.197693,95.312180 180.983459,95.088242 181.435867,94.371140 
	C181.932327,93.584167 181.620422,91.779686 180.997833,90.874580 
	C176.006073,83.617592 170.857422,76.468513 165.460464,68.869186 
	C160.108994,76.610329 154.963257,83.947479 149.985733,91.397026 
	C149.403793,92.268005 149.242538,94.201035 149.802383,94.844070 
	C150.416733,95.549698 152.141205,95.632172 153.294403,95.445488 
	C155.062759,95.159233 156.756271,94.410545 160.079453,93.346466 
	C159.141220,103.399902 158.285721,112.566757 157.421661,121.825485 
	C147.322433,120.245743 138.690018,118.895447 129.985504,117.533867 
	C130.330154,109.765137 130.673233,102.031532 131.020004,94.215172 
	C131.674393,94.306961 132.156052,94.414581 132.641510,94.435928 
	C135.248291,94.550560 137.856018,94.643738 140.463409,94.744324 
	C139.362045,92.348282 138.551285,89.757904 137.103806,87.593323 
	C133.068787,81.559319 128.769760,75.701881 124.220314,69.273605 
	C118.856789,77.042061 113.824562,84.232635 108.942207,91.523582 
	C108.316628,92.457771 107.940010,94.677704 108.369606,94.976334 
	C109.397415,95.690826 111.015549,95.941048 112.320343,95.778061 
	C114.086563,95.557434 115.782616,94.774948 118.584892,93.895950 
	C118.040878,101.537895 117.666924,108.599319 116.903664,115.618408 
	C116.785286,116.707092 115.013214,118.239464 113.789375,118.484276 
	C105.187805,120.204811 96.529480,121.641602 87.994301,123.150505 
	C88.633759,114.171349 89.309517,104.682472 90.030159,94.563362 
	C92.024239,95.142380 93.991707,95.907654 96.028671,96.220650 
	C96.999924,96.369896 98.511124,95.957664 99.027809,95.251244 
	C99.508362,94.594215 99.378540,92.942871 98.856178,92.185150 
	C93.788200,84.833725 88.580925,77.578331 83.022911,69.745224 
	C77.568497,77.631088 72.454773,84.944054 67.471336,92.344765 
	C66.930717,93.147621 66.650642,94.952217 67.119484,95.419548 
	C67.867874,96.165482 69.404022,96.574478 70.503624,96.414558 
	C72.430145,96.134354 74.278275,95.315102 76.759880,94.532181 
	C77.390671,106.533875 77.446991,117.928040 70.491035,128.751755 
	C57.634037,107.074219 45.009338,85.788345 32.157413,64.119362 
	C45.624546,56.428745 59.910858,51.174881 75.069092,46.973251 
z"/>
</svg>