<svg version="1.1" id="Layer_1" xmlns="http://www.w3.org/2000/svg" xmlns:xlink="http://www.w3.org/1999/xlink" x="0px" y="0px"
	 width="100%" viewBox="0 0 579 638" enable-background="new 0 0 579 638" xml:space="preserve">
<path fill="#FEFEFE" opacity="1.000000" stroke="none" 
	d="
M320.000000,639.000000 
	C213.333328,639.000000 107.166664,639.000000 1.000000,639.000000 
	C1.000000,426.333344 1.000000,213.666672 1.000000,1.000000 
	C194.000000,1.000000 387.000000,1.000000 580.000000,1.000000 
	C580.000000,213.666672 580.000000,426.333344 580.000000,639.000000 
	C493.500000,639.000000 407.000000,639.000000 320.000000,639.000000 
M240.917130,613.789062 
	C242.351654,614.181885 243.942383,614.300537 245.194473,615.013672 
	C251.633575,618.681458 258.609680,619.401245 265.826721,619.287109 
	C268.612030,619.243103 269.828369,618.539001 271.107971,615.562195 
	C276.816193,602.282715 277.929840,588.231689 279.356537,574.163330 
	C280.035583,567.467651 281.533234,560.848389 282.073486,554.147217 
	C282.538086,548.384338 282.161743,542.554199 282.173035,536.753845 
	C282.177155,534.624451 282.063446,532.477112 282.296814,530.370422 
	C282.584503,527.773010 283.611542,525.200195 283.556702,522.633057 
	C283.406586,515.601746 282.856934,508.578918 282.435486,501.014832 
	C296.032501,501.523010 310.039551,501.316772 323.673706,497.316254 
	C331.548492,495.005615 339.846222,493.683960 347.260284,490.367371 
	C357.127136,485.953583 366.345673,480.077820 375.783386,474.725433 
	C378.401947,473.240387 380.535065,473.601807 381.361938,476.367004 
	C382.387543,479.796722 382.623627,483.454712 383.359619,486.980957 
	C384.160370,490.817169 385.202576,494.602600 386.024628,498.434814 
	C386.514404,500.718201 386.783203,503.048981 387.295898,506.265350 
	C383.429932,505.829590 380.693512,505.539612 377.961914,505.209747 
	C370.143127,504.265594 362.340881,502.779419 354.502899,502.562378 
	C350.271545,502.445221 345.593201,503.742645 341.799133,505.715057 
	C334.526337,509.495850 337.122040,523.646423 344.889160,528.005493 
	C346.323669,528.810608 347.666687,529.786316 349.015961,530.734497 
	C356.694672,536.130676 364.110107,541.955322 372.100922,546.839355 
	C381.142059,552.365295 390.805389,556.662354 401.523682,558.190247 
	C411.577240,559.623474 421.570099,561.479004 431.598480,563.094116 
	C435.735535,563.760315 437.320404,560.962158 438.006012,557.693359 
	C438.579163,554.960510 439.030609,552.024963 438.648560,549.303833 
	C437.693604,542.502441 436.388824,535.738586 434.940063,529.020996 
	C432.912415,519.619141 430.565582,510.286499 428.471375,500.898376 
	C426.903595,493.870209 425.502014,486.804657 424.058533,479.749176 
	C422.980377,474.479431 422.214172,469.129395 420.826721,463.944183 
	C419.565216,459.229675 420.860046,455.684021 425.555878,455.718903 
	C432.601685,455.771210 438.322906,452.827454 444.675568,450.559937 
	C459.783844,445.167145 471.258057,435.150665 481.072296,423.548676 
	C488.869995,414.330597 495.160461,403.496216 500.423248,392.562683 
	C506.814972,379.283844 511.911926,365.309723 516.580078,351.306732 
	C518.619080,345.190399 520.786743,338.609985 517.481628,331.548035 
	C515.516724,327.349731 515.807739,322.095581 514.937134,316.341827 
	C518.319214,316.994019 520.870056,317.338837 523.337524,317.996490 
	C526.953979,318.960419 529.855530,318.588837 532.947510,315.906433 
	C538.021118,311.504944 543.221130,306.998291 550.865051,307.481445 
	C552.418884,307.579681 555.071289,305.781158 555.579834,304.296204 
	C557.984924,297.273804 563.443787,291.702698 563.231995,283.268005 
	C562.993896,273.779327 563.939209,264.511078 554.594971,258.622040 
	C550.720947,256.180542 546.618530,253.196976 542.317566,252.584869 
	C537.777710,251.938721 536.878906,250.563644 537.107849,246.484192 
	C537.659729,236.652008 536.185547,227.714142 527.871582,220.647293 
	C519.849792,213.828796 511.068359,213.938843 504.431885,222.123672 
	C502.969055,223.927826 501.398407,225.764618 499.527039,227.092758 
	C495.498962,229.951645 491.243042,232.489578 487.080383,235.158875 
	C486.335358,233.578888 486.385132,233.011139 486.623352,232.538376 
	C488.965820,227.889771 491.717804,223.402145 493.572937,218.569199 
	C494.833832,215.284378 494.879913,211.526352 495.417114,207.972061 
	C496.603180,200.125320 498.419922,192.299652 498.729248,184.416321 
	C499.017365,177.074081 497.902313,169.642227 497.013031,162.297287 
	C495.950928,153.525131 495.563995,144.457870 492.930511,136.136902 
	C488.431793,121.922417 478.445984,111.935478 464.509583,106.325867 
	C453.688568,101.970222 443.639862,105.000450 434.198608,110.576691 
	C432.080627,111.827614 429.843811,114.221527 429.283966,116.489655 
	C428.076416,121.381966 427.732422,126.520844 427.375275,131.582825 
	C426.587646,142.746796 425.589233,153.920792 425.460938,165.099686 
	C425.320312,177.354858 423.647614,189.355804 421.909729,201.440857 
	C420.402649,211.921051 418.037292,221.969528 414.248230,230.316544 
	C404.775909,230.446045 395.696045,228.857559 387.665527,231.072861 
	C374.944519,234.582062 361.996429,237.988708 350.421570,245.237000 
	C340.749786,251.293564 331.940033,258.191559 323.837616,266.107330 
	C322.799225,267.121796 322.186066,268.559265 321.291901,269.737000 
	C320.350708,270.976685 319.308655,272.139801 317.462280,274.353668 
	C312.752655,265.273529 308.488678,257.188263 304.349670,249.039505 
	C298.735931,237.987213 293.557556,226.698624 287.567200,215.856827 
	C281.028412,204.022308 279.186279,190.694305 274.707184,178.214203 
	C271.232727,168.533401 269.236237,158.307632 266.810638,148.269043 
	C264.351624,138.092178 262.168518,127.848602 259.871674,117.632645 
	C258.436951,111.251076 257.249146,104.802620 255.525650,98.500359 
	C253.588272,91.415924 251.253830,84.435387 248.942978,77.459053 
	C246.516876,70.134758 245.006912,62.214825 241.127426,55.733929 
	C235.573593,46.455971 228.538330,37.992500 221.574722,29.649403 
	C213.224884,19.645418 202.176849,13.083531 190.304047,8.146379 
	C185.379333,6.098500 179.898239,4.857155 174.578049,4.448728 
	C169.736908,4.077076 164.764130,5.274792 159.861572,5.879560 
	C150.248947,7.065349 140.539383,7.789450 131.062393,9.672985 
	C117.574013,12.353782 104.911980,17.510397 95.225052,27.664511 
	C87.253967,36.020042 80.011414,45.079342 72.600853,53.956020 
	C70.077652,56.978409 67.624626,60.189327 65.843384,63.673893 
	C62.228477,70.745583 59.096348,78.063927 55.759739,85.278053 
	C53.704376,89.721977 51.354454,94.055183 49.649395,98.629189 
	C47.481594,104.444519 46.110218,110.560135 43.881657,116.348465 
	C41.672157,122.087273 38.444752,127.006790 34.057213,131.769135 
	C29.069218,137.183212 24.424603,143.794113 23.317627,151.886841 
	C21.883745,162.369492 20.401278,172.552124 29.835773,180.757736 
	C32.332191,182.928986 34.209572,186.780457 34.696011,190.105469 
	C35.956566,198.721939 35.438217,207.650787 37.201073,216.128250 
	C39.342464,226.426102 37.552246,237.040344 41.802406,247.297058 
	C45.627403,256.527771 46.795101,266.869690 49.031837,276.744843 
	C50.480946,283.142639 52.367188,289.530273 52.911064,296.018524 
	C53.421932,302.113037 56.190063,307.505524 56.306999,313.939575 
	C56.440994,321.312347 60.093124,328.857574 63.225880,335.877563 
	C66.864250,344.030640 71.476395,351.763733 75.885139,359.555023 
	C82.437668,371.134918 88.884674,382.792145 95.933136,394.068604 
	C102.419411,404.445618 108.996269,414.774017 117.677887,423.656921 
	C124.207504,430.337921 129.639252,438.078094 135.941040,444.999573 
	C142.128860,451.795807 148.597687,458.369934 155.336761,464.617004 
	C158.935455,467.952911 163.214951,470.642578 167.450378,473.185577 
	C177.028168,478.936096 186.542282,484.871033 196.527023,489.836700 
	C202.763947,492.938477 209.718033,494.773132 216.519180,496.518311 
	C223.967438,498.429565 231.555115,500.308746 239.181686,500.886536 
	C249.075592,501.636108 249.520020,501.517365 248.238327,511.372223 
	C248.113525,512.331787 247.535873,513.226868 247.364883,514.186890 
	C246.533829,518.852966 245.264359,523.511047 245.079559,528.208557 
	C244.585022,540.779846 244.565842,553.369873 244.346878,566.613098 
	C241.882599,566.160706 239.176468,566.437256 237.554916,565.242188 
	C226.005722,556.730713 212.971100,553.824646 199.077957,555.419922 
	C195.048325,555.882690 191.242615,559.033081 187.577316,561.338013 
	C186.801239,561.826050 186.518738,564.228455 186.970688,565.367004 
	C192.128311,578.360107 200.627106,589.096680 211.808350,597.106934 
	C220.645615,603.437927 230.720184,608.041809 240.917130,613.789062 
z"/>
<path fill="#010101" opacity="1.000000" stroke="none" 
	d="
M240.581192,613.600891 
	C230.720184,608.041809 220.645615,603.437927 211.808350,597.106934 
	C200.627106,589.096680 192.128311,578.360107 186.970688,565.367004 
	C186.518738,564.228455 186.801239,561.826050 187.577316,561.338013 
	C191.242615,559.033081 195.048325,555.882690 199.077957,555.419922 
	C212.971100,553.824646 226.005722,556.730713 237.554916,565.242188 
	C239.176468,566.437256 241.882599,566.160706 244.346878,566.613098 
	C244.565842,553.369873 244.585022,540.779846 245.079559,528.208557 
	C245.264359,523.511047 246.533829,518.852966 247.364883,514.186890 
	C247.535873,513.226868 248.113525,512.331787 248.238327,511.372223 
	C249.520020,501.517365 249.075592,501.636108 239.181686,500.886536 
	C231.555115,500.308746 223.967438,498.429565 216.519180,496.518311 
	C209.718033,494.773132 202.763947,492.938477 196.527023,489.836700 
	C186.542282,484.871033 177.028168,478.936096 167.450378,473.185577 
	C163.214951,470.642578 158.935455,467.952911 155.336761,464.617004 
	C148.597687,458.369934 142.128860,451.795807 135.941040,444.999573 
	C129.639252,438.078094 124.207504,430.337921 117.677887,423.656921 
	C108.996269,414.774017 102.419411,404.445618 95.933136,394.068604 
	C88.884674,382.792145 82.437668,371.134918 75.885139,359.555023 
	C71.476395,351.763733 66.864250,344.030640 63.225880,335.877563 
	C60.093124,328.857574 56.440994,321.312347 56.306999,313.939575 
	C56.190063,307.505524 53.421932,302.113037 52.911064,296.018524 
	C52.367188,289.530273 50.480946,283.142639 49.031837,276.744843 
	C46.795101,266.869690 45.627403,256.527771 41.802406,247.297058 
	C37.552246,237.040344 39.342464,226.426102 37.201073,216.128250 
	C35.438217,207.650787 35.956566,198.721939 34.696011,190.105469 
	C34.209572,186.780457 32.332191,182.928986 29.835773,180.757736 
	C20.401278,172.552124 21.883745,162.369492 23.317627,151.886841 
	C24.424603,143.794113 29.069218,137.183212 34.057213,131.769135 
	C38.444752,127.006790 41.672157,122.087273 43.881657,116.348465 
	C46.110218,110.560135 47.481594,104.444519 49.649395,98.629189 
	C51.354454,94.055183 53.704376,89.721977 55.759739,85.278053 
	C59.096348,78.063927 62.228477,70.745583 65.843384,63.673893 
	C67.624626,60.189327 70.077652,56.978409 72.600853,53.956020 
	C80.011414,45.079342 87.253967,36.020042 95.225052,27.664511 
	C104.911980,17.510397 117.574013,12.353782 131.062393,9.672985 
	C140.539383,7.789450 150.248947,7.065349 159.861572,5.879560 
	C164.764130,5.274792 169.736908,4.077076 174.578049,4.448728 
	C179.898239,4.857155 185.379333,6.098500 190.304047,8.146379 
	C202.176849,13.083531 213.224884,19.645418 221.574722,29.649403 
	C228.538330,37.992500 235.573593,46.455971 241.127426,55.733929 
	C245.006912,62.214825 246.516876,70.134758 248.942978,77.459053 
	C251.253830,84.435387 253.588272,91.415924 255.525650,98.500359 
	C257.249146,104.802620 258.436951,111.251076 259.871674,117.632645 
	C262.168518,127.848602 264.351624,138.092178 266.810638,148.269043 
	C269.236237,158.307632 271.232727,168.533401 274.707184,178.214203 
	C279.186279,190.694305 281.028412,204.022308 287.567200,215.856827 
	C293.557556,226.698624 298.735931,237.987213 304.349670,249.039505 
	C308.488678,257.188263 312.752655,265.273529 317.462280,274.353668 
	C319.308655,272.139801 320.350708,270.976685 321.291901,269.737000 
	C322.186066,268.559265 322.799225,267.121796 323.837616,266.107330 
	C331.940033,258.191559 340.749786,251.293564 350.421570,245.237000 
	C361.996429,237.988708 374.944519,234.582062 387.665527,231.072861 
	C395.696045,228.857559 404.775909,230.446045 414.248230,230.316544 
	C418.037292,221.969528 420.402649,211.921051 421.909729,201.440857 
	C423.647614,189.355804 425.320312,177.354858 425.460938,165.099686 
	C425.589233,153.920792 426.587646,142.746796 427.375275,131.582825 
	C427.732422,126.520844 428.076416,121.381966 429.283966,116.489655 
	C429.843811,114.221527 432.080627,111.827614 434.198608,110.576691 
	C443.639862,105.000450 453.688568,101.970222 464.509583,106.325867 
	C478.445984,111.935478 488.431793,121.922417 492.930511,136.136902 
	C495.563995,144.457870 495.950928,153.525131 497.013031,162.297287 
	C497.902313,169.642227 499.017365,177.074081 498.729248,184.416321 
	C498.419922,192.299652 496.603180,200.125320 495.417114,207.972061 
	C494.879913,211.526352 494.833832,215.284378 493.572937,218.569199 
	C491.717804,223.402145 488.965820,227.889771 486.623352,232.538376 
	C486.385132,233.011139 486.335358,233.578888 487.080383,235.158875 
	C491.243042,232.489578 495.498962,229.951645 499.527039,227.092758 
	C501.398407,225.764618 502.969055,223.927826 504.431885,222.123672 
	C511.068359,213.938843 519.849792,213.828796 527.871582,220.647293 
	C536.185547,227.714142 537.659729,236.652008 537.107849,246.484192 
	C536.878906,250.563644 537.777710,251.938721 542.317566,252.584869 
	C546.618530,253.196976 550.720947,256.180542 554.594971,258.622040 
	C563.939209,264.511078 562.993896,273.779327 563.231995,283.268005 
	C563.443787,291.702698 557.984924,297.273804 555.579834,304.296204 
	C555.071289,305.781158 552.418884,307.579681 550.865051,307.481445 
	C543.221130,306.998291 538.021118,311.504944 532.947510,315.906433 
	C529.855530,318.588837 526.953979,318.960419 523.337524,317.996490 
	C520.870056,317.338837 518.319214,316.994019 514.937134,316.341827 
	C515.807739,322.095581 515.516724,327.349731 517.481628,331.548035 
	C520.786743,338.609985 518.619080,345.190399 516.580078,351.306732 
	C511.911926,365.309723 506.814972,379.283844 500.423248,392.562683 
	C495.160461,403.496216 488.869995,414.330597 481.072296,423.548676 
	C471.258057,435.150665 459.783844,445.167145 444.675568,450.559937 
	C438.322906,452.827454 432.601685,455.771210 425.555878,455.718903 
	C420.860046,455.684021 419.565216,459.229675 420.826721,463.944183 
	C422.214172,469.129395 422.980377,474.479431 424.058533,479.749176 
	C425.502014,486.804657 426.903595,493.870209 428.471375,500.898376 
	C430.565582,510.286499 432.912415,519.619141 434.940063,529.020996 
	C436.388824,535.738586 437.693604,542.502441 438.648560,549.303833 
	C439.030609,552.024963 438.579163,554.960510 438.006012,557.693359 
	C437.320404,560.962158 435.735535,563.760315 431.598480,563.094116 
	C421.570099,561.479004 411.577240,559.623474 401.523682,558.190247 
	C390.805389,556.662354 381.142059,552.365295 372.100922,546.839355 
	C364.110107,541.955322 356.694672,536.130676 349.015961,530.734497 
	C347.666687,529.786316 346.323669,528.810608 344.889160,528.005493 
	C337.122040,523.646423 334.526337,509.495850 341.799133,505.715057 
	C345.593201,503.742645 350.271545,502.445221 354.502899,502.562378 
	C362.340881,502.779419 370.143127,504.265594 377.961914,505.209747 
	C380.693512,505.539612 383.429932,505.829590 387.295898,506.265350 
	C386.783203,503.048981 386.514404,500.718201 386.024628,498.434814 
	C385.202576,494.602600 384.160370,490.817169 383.359619,486.980957 
	C382.623627,483.454712 382.387543,479.796722 381.361938,476.367004 
	C380.535065,473.601807 378.401947,473.240387 375.783386,474.725433 
	C366.345673,480.077820 357.127136,485.953583 347.260284,490.367371 
	C339.846222,493.683960 331.548492,495.005615 323.673706,497.316254 
	C310.039551,501.316772 296.032501,501.523010 282.435486,501.014832 
	C282.856934,508.578918 283.406586,515.601746 283.556702,522.633057 
	C283.611542,525.200195 282.584503,527.773010 282.296814,530.370422 
	C282.063446,532.477112 282.177155,534.624451 282.173035,536.753845 
	C282.161743,542.554199 282.538086,548.384338 282.073486,554.147217 
	C281.533234,560.848389 280.035583,567.467651 279.356537,574.163330 
	C277.929840,588.231689 276.816193,602.282715 271.107971,615.562195 
	C269.828369,618.539001 268.612030,619.243103 265.826721,619.287109 
	C258.609680,619.401245 251.633575,618.681458 245.194473,615.013672 
	C243.942383,614.300537 242.351654,614.181885 240.581192,613.600891 
M266.565735,388.251923 
	C273.700714,390.063812 278.081848,386.954590 277.553223,380.075256 
	C275.751923,356.633240 276.310516,333.263397 279.231659,309.941193 
	C279.695557,306.237671 277.793793,303.902863 274.594391,302.521149 
	C271.338470,301.114960 268.253143,302.038971 266.948669,305.086487 
	C264.896393,309.881104 262.957642,314.926392 262.252869,320.042175 
	C261.454163,325.839600 262.068573,331.831726 262.068573,337.208679 
	C247.148621,339.461945 233.443604,341.531708 220.606537,343.470428 
	C220.606537,332.438141 220.654236,321.517273 220.586868,310.597107 
	C220.552032,304.949951 217.956573,302.055237 213.168625,301.994049 
	C208.307510,301.931946 205.805420,304.788208 205.686279,310.492279 
	C205.571655,315.979156 205.506058,321.468506 205.286285,326.951477 
	C204.579956,344.572510 203.750763,362.188812 203.102631,379.811859 
	C202.883774,385.762634 205.532104,388.863708 210.397018,389.006561 
	C215.368393,389.152527 217.789627,386.233826 218.064011,380.220032 
	C218.381912,373.252533 218.920746,366.295135 219.397842,358.796082 
	C233.299408,356.353394 247.085175,353.931030 262.038666,351.303497 
	C262.038666,361.792694 261.769257,371.090881 262.212769,380.354889 
	C262.336121,382.931885 264.570526,385.407867 266.565735,388.251923 
M304.914734,320.454102 
	C304.214355,317.553345 303.519867,314.651123 302.812408,311.752106 
	C301.389404,305.921204 297.860535,303.137695 293.077850,304.063995 
	C288.277649,304.993683 285.968384,309.002411 287.347809,314.949463 
	C288.733002,320.921387 290.414764,326.839050 292.265991,332.685638 
	C297.777100,350.090759 303.405121,367.459106 309.059662,384.818298 
	C310.304352,388.639465 312.946320,390.884094 317.154572,391.017914 
	C321.229340,391.147522 323.660309,388.892029 325.199280,385.472107 
	C327.853210,379.574432 330.479095,373.661560 332.973267,367.695068 
	C340.452087,349.804321 347.838928,331.875122 355.316772,313.983948 
	C356.855530,310.302399 356.514832,307.128052 353.229645,304.665497 
	C349.848907,302.131226 346.028412,301.988678 343.350800,305.169495 
	C340.407471,308.665955 337.830414,312.695343 336.047668,316.897308 
	C332.356537,325.597504 329.341064,334.582520 325.963715,343.418335 
	C323.509094,349.840027 320.919617,356.210144 318.390259,362.603271 
	C318.015808,362.571991 317.641357,362.540741 317.266907,362.509491 
	C313.215576,348.754211 309.164215,334.998901 304.914734,320.454102 
M191.610382,125.840523 
	C191.181656,127.080490 190.869141,128.376129 190.306000,129.551712 
	C185.364410,139.867477 180.937241,148.494995 167.644974,146.994965 
	C165.347137,146.735657 162.994934,146.958267 160.667831,146.958267 
	C160.649338,147.487350 160.630829,148.016449 160.612320,148.545532 
	C167.109787,152.171143 173.619125,155.944748 181.564133,152.110901 
	C187.784912,149.109085 193.968353,146.022064 200.084473,142.813004 
	C210.781754,137.200226 214.892380,127.605614 213.152817,115.796310 
	C211.739227,106.199974 206.372070,100.461899 198.032532,96.856529 
	C196.379105,96.141716 194.331543,96.338531 191.572815,96.007950 
	C192.938766,99.035286 194.049667,100.614723 194.343231,102.333755 
	C194.934662,105.797043 195.678741,109.409821 195.258438,112.825401 
	C194.745392,116.994705 193.100479,121.024734 191.610382,125.840523 
M81.530991,161.953598 
	C88.141968,156.995804 90.312096,147.043564 86.056458,139.238892 
	C81.630264,131.121445 77.851906,126.769958 69.775162,129.922119 
	C78.275215,150.064240 69.523903,164.166519 52.974751,175.773666 
	C62.996593,172.319595 73.615067,170.858353 81.530991,161.953598 
z"/>
<path fill="#F9FBFA" opacity="1.000000" stroke="none" 
	d="
M266.201111,388.091064 
	C264.570526,385.407867 262.336121,382.931885 262.212769,380.354889 
	C261.769257,371.090881 262.038666,361.792694 262.038666,351.303497 
	C247.085175,353.931030 233.299408,356.353394 219.397842,358.796082 
	C218.920746,366.295135 218.381912,373.252533 218.064011,380.220032 
	C217.789627,386.233826 215.368393,389.152527 210.397018,389.006561 
	C205.532104,388.863708 202.883774,385.762634 203.102631,379.811859 
	C203.750763,362.188812 204.579956,344.572510 205.286285,326.951477 
	C205.506058,321.468506 205.571655,315.979156 205.686279,310.492279 
	C205.805420,304.788208 208.307510,301.931946 213.168625,301.994049 
	C217.956573,302.055237 220.552032,304.949951 220.586868,310.597107 
	C220.654236,321.517273 220.606537,332.438141 220.606537,343.470428 
	C233.443604,341.531708 247.148621,339.461945 262.068573,337.208679 
	C262.068573,331.831726 261.454163,325.839600 262.252869,320.042175 
	C262.957642,314.926392 264.896393,309.881104 266.948669,305.086487 
	C268.253143,302.038971 271.338470,301.114960 274.594391,302.521149 
	C277.793793,303.902863 279.695557,306.237671 279.231659,309.941193 
	C276.310516,333.263397 275.751923,356.633240 277.553223,380.075256 
	C278.081848,386.954590 273.700714,390.063812 266.201111,388.091064 
z"/>
<path fill="#F9FBF9" opacity="1.000000" stroke="none" 
	d="
M305.013794,320.848877 
	C309.164215,334.998901 313.215576,348.754211 317.266907,362.509491 
	C317.641357,362.540741 318.015808,362.571991 318.390259,362.603271 
	C320.919617,356.210144 323.509094,349.840027 325.963715,343.418335 
	C329.341064,334.582520 332.356537,325.597504 336.047668,316.897308 
	C337.830414,312.695343 340.407471,308.665955 343.350800,305.169495 
	C346.028412,301.988678 349.848907,302.131226 353.229645,304.665497 
	C356.514832,307.128052 356.855530,310.302399 355.316772,313.983948 
	C347.838928,331.875122 340.452087,349.804321 332.973267,367.695068 
	C330.479095,373.661560 327.853210,379.574432 325.199280,385.472107 
	C323.660309,388.892029 321.229340,391.147522 317.154572,391.017914 
	C312.946320,390.884094 310.304352,388.639465 309.059662,384.818298 
	C303.405121,367.459106 297.777100,350.090759 292.265991,332.685638 
	C290.414764,326.839050 288.733002,320.921387 287.347809,314.949463 
	C285.968384,309.002411 288.277649,304.993683 293.077850,304.063995 
	C297.860535,303.137695 301.389404,305.921204 302.812408,311.752106 
	C303.519867,314.651123 304.214355,317.553345 305.013794,320.848877 
z"/>
<path fill="#F3F3F3" opacity="1.000000" stroke="none" 
	d="
M191.777710,125.477753 
	C193.100479,121.024734 194.745392,116.994705 195.258438,112.825401 
	C195.678741,109.409821 194.934662,105.797043 194.343231,102.333755 
	C194.049667,100.614723 192.938766,99.035286 191.572815,96.007950 
	C194.331543,96.338531 196.379105,96.141716 198.032532,96.856529 
	C206.372070,100.461899 211.739227,106.199974 213.152817,115.796310 
	C214.892380,127.605614 210.781754,137.200226 200.084473,142.813004 
	C193.968353,146.022064 187.784912,149.109085 181.564133,152.110901 
	C173.619125,155.944748 167.109787,152.171143 160.612320,148.545532 
	C160.630829,148.016449 160.649338,147.487350 160.667831,146.958267 
	C162.994934,146.958267 165.347137,146.735657 167.644974,146.994965 
	C180.937241,148.494995 185.364410,139.867477 190.306000,129.551712 
	C190.869141,128.376129 191.181656,127.080490 191.777710,125.477753 
z"/>
<path fill="#F2F2F2" opacity="1.000000" stroke="none" 
	d="
M81.241913,162.164230 
	C73.615067,170.858353 62.996593,172.319595 52.974751,175.773666 
	C69.523903,164.166519 78.275215,150.064240 69.775162,129.922119 
	C77.851906,126.769958 81.630264,131.121445 86.056458,139.238892 
	C90.312096,147.043564 88.141968,156.995804 81.241913,162.164230 
z"/>
</svg>