<svg version="1.1" id="Layer_1" xmlns="http://www.w3.org/2000/svg" xmlns:xlink="http://www.w3.org/1999/xlink" x="0px" y="0px"
	 width="100%" viewBox="0 0 579 638" enable-background="new 0 0 579 638" xml:space="preserve">
<path fill="#FEFEFE" opacity="1.000000" stroke="none" 
	d="
M308.000000,639.000000 
	C205.333328,639.000000 103.166664,639.000000 1.000000,639.000000 
	C1.000000,426.333344 1.000000,213.666672 1.000000,1.000000 
	C194.000000,1.000000 387.000000,1.000000 580.000000,1.000000 
	C580.000000,213.666672 580.000000,426.333344 580.000000,639.000000 
	C489.500000,639.000000 399.000000,639.000000 308.000000,639.000000 
M144.044449,560.345215 
	C148.151459,565.802002 153.977646,563.206726 158.749710,562.677795 
	C167.014053,561.761597 175.351868,560.048279 183.218491,557.373901 
	C193.018906,554.042175 202.790253,550.144226 211.801529,545.108276 
	C220.662521,540.156311 228.520630,533.422729 236.885864,527.566711 
	C244.043213,522.556152 246.383972,509.168579 238.897919,505.483276 
	C234.641129,503.387665 229.360291,502.351837 224.603073,502.527802 
	C217.117661,502.804718 209.700058,504.631165 202.221527,505.535004 
	C199.689560,505.841003 197.059952,505.339050 194.474976,505.206299 
	C194.768036,502.678833 194.911667,500.122498 195.392380,497.631256 
	C195.979965,494.586121 196.976273,491.619995 197.566605,488.575226 
	C198.314774,484.716461 198.520233,480.721222 199.620407,476.979034 
	C200.000320,475.686768 202.750946,473.857056 203.742477,474.204193 
	C207.076294,475.371399 210.101288,477.416473 213.252182,479.111237 
	C221.246246,483.410980 228.962997,488.398376 237.327576,491.784363 
	C244.404373,494.649109 252.386749,495.189575 259.693085,497.594849 
	C270.622742,501.192902 281.770111,501.251984 293.014191,501.072083 
	C295.076843,501.039093 297.140472,501.067383 299.032013,501.067383 
	C299.227356,502.258789 299.393311,502.610168 299.316071,502.895752 
	C296.674713,512.659424 296.196686,522.398987 299.076874,532.245972 
	C299.535614,533.814392 298.528381,535.766846 298.417297,537.555298 
	C298.121765,542.313110 297.257050,547.168335 297.865784,551.821716 
	C299.116058,561.379333 302.557892,570.828308 302.572479,580.325928 
	C302.592072,593.108643 306.328064,604.672241 310.290131,616.364136 
	C310.693359,617.554077 312.414703,619.025940 313.604401,619.101196 
	C320.753204,619.553284 327.808044,619.142212 334.409973,615.749390 
	C343.081848,611.292908 351.803375,606.928223 360.578491,602.678894 
	C370.263794,597.988647 377.531189,590.341309 384.312561,582.439636 
	C388.328918,577.759827 390.805511,571.704468 393.625641,566.092346 
	C394.281036,564.788147 394.179718,562.005127 393.279663,561.223816 
	C390.585907,558.885376 387.481079,555.874329 384.256531,555.492432 
	C370.454315,553.857971 357.227478,555.994751 345.233551,563.742065 
	C342.828979,565.295227 339.838715,565.941650 337.118530,567.006165 
	C336.786560,566.554260 336.454620,566.102417 336.122650,565.650513 
	C336.594055,564.116821 337.516235,562.566345 337.459839,561.052307 
	C337.197845,554.020081 336.770599,546.989319 336.201385,539.974365 
	C335.510925,531.464783 334.635406,522.969849 333.806580,514.471863 
	C333.386841,510.168121 332.893616,505.871490 332.349792,500.787964 
	C338.052155,500.787964 342.619232,501.397186 346.951080,500.647400 
	C353.711853,499.477264 360.228210,496.817535 367.000061,495.804810 
	C380.454010,493.792816 391.132904,485.706848 402.917145,480.114929 
	C408.662964,477.388397 413.698792,473.105591 418.906525,469.321564 
	C424.646576,465.150696 430.731750,461.264740 435.728119,456.308594 
	C442.014099,450.073303 447.448090,442.959869 453.062775,436.072906 
	C457.740143,430.335632 461.334198,423.395233 466.899536,418.790192 
	C472.675354,414.010956 476.066864,408.188293 479.462402,401.992737 
	C481.889740,397.563690 484.445404,393.200378 487.074860,388.887665 
	C491.367798,381.846619 495.936920,374.968994 500.073914,367.839264 
	C504.104492,360.892853 507.688446,353.688721 511.568359,346.652893 
	C513.602966,342.963348 516.081055,339.503479 517.918640,335.725739 
	C519.041321,333.417847 519.182922,330.654175 520.020447,328.181671 
	C521.767090,323.025391 525.735962,317.631561 525.052124,312.872711 
	C524.007751,305.604584 528.971069,300.168396 528.430359,293.343811 
	C528.160706,289.939636 529.911438,286.373901 530.756409,282.883209 
	C532.874268,274.133972 535.029175,265.393463 537.102173,256.633606 
	C538.006348,252.813065 538.760193,248.956543 539.557617,245.111237 
	C540.518494,240.477890 541.613831,235.863968 542.336060,231.192932 
	C542.739258,228.585251 542.297058,225.855652 542.592590,223.221008 
	C543.690491,213.433716 545.446411,203.688522 545.936707,193.876648 
	C546.233582,187.934708 547.906860,183.358505 552.176575,179.353210 
	C554.148438,177.503448 556.188721,175.194153 556.979126,172.706024 
	C561.301636,159.098221 558.076904,146.749130 549.899048,135.429642 
	C548.650696,133.701797 547.303467,132.045731 546.045044,130.324905 
	C543.605957,126.989334 540.662659,123.887932 538.903748,120.221550 
	C536.358582,114.916229 534.781799,109.154739 532.601929,103.663269 
	C530.564392,98.530441 527.876404,93.626526 526.180237,88.393166 
	C521.475830,73.878181 514.730103,60.631588 504.167694,49.431644 
	C500.436707,45.475502 496.782684,41.341034 493.766235,36.837402 
	C485.942078,25.155819 474.956360,17.918341 462.042664,13.225616 
	C453.813629,10.235258 445.541748,7.823010 436.572266,7.518848 
	C428.751251,7.253631 421.018768,4.969634 413.185944,4.343588 
	C393.856812,2.798681 378.587463,12.332232 365.027527,24.286833 
	C357.055603,31.314960 350.686340,40.259209 344.137054,48.758366 
	C341.186554,52.587326 339.255310,57.310898 337.400787,61.848904 
	C334.796387,68.221886 332.515900,74.743408 330.427826,81.306679 
	C328.349945,87.837715 326.590851,94.475380 324.863953,101.111046 
	C323.673157,105.686829 322.757965,110.335068 321.750549,114.957672 
	C320.319214,121.525452 318.865967,128.089096 317.515198,134.673599 
	C316.100830,141.567810 315.239838,148.608994 313.344330,155.363495 
	C310.205383,166.548798 306.016663,177.445496 303.029388,188.665894 
	C299.277405,202.758698 294.036438,216.207916 287.441132,229.150421 
	C281.148712,241.498520 274.679382,253.757706 268.162964,265.989471 
	C266.806091,268.536346 264.901764,270.791595 263.091461,273.410156 
	C262.145569,272.641510 261.443115,272.213348 260.921906,271.624664 
	C256.619232,266.764923 252.376923,261.851501 248.048492,257.015015 
	C247.176239,256.040405 246.084396,255.216980 244.976715,254.506317 
	C240.384552,251.560120 235.812286,248.573471 231.108673,245.813034 
	C226.410019,243.055527 221.695602,240.255035 216.737122,238.033585 
	C213.177246,236.438736 209.098831,236.040146 205.435272,234.630814 
	C193.044174,229.864014 180.419739,228.461426 166.803543,231.672546 
	C165.410294,227.006012 163.708649,222.547974 162.773300,217.934555 
	C160.239777,205.438583 157.790863,192.914917 155.788025,180.325943 
	C154.653351,173.193863 154.298172,165.921127 153.882034,158.695023 
	C153.143036,145.862350 152.362915,133.021286 152.152130,120.174667 
	C152.075470,115.503197 150.184647,112.609589 146.624390,110.363998 
	C133.138092,101.857719 119.326378,102.362221 106.680801,111.217941 
	C93.928345,120.148506 86.800194,133.010208 85.769020,148.935837 
	C85.441574,153.992981 84.948685,159.152863 83.601883,164.007858 
	C80.427345,175.451584 82.290291,186.801300 83.475067,198.173386 
	C83.897324,202.226425 85.491440,206.181427 85.706680,210.226089 
	C85.994751,215.639328 87.152641,220.440475 90.268951,225.032120 
	C92.183983,227.853806 92.816193,231.546112 94.024429,234.847488 
	C93.577713,235.197922 93.130989,235.548370 92.684265,235.898804 
	C86.798965,230.458069 80.915901,225.014908 75.025452,219.579758 
	C74.312233,218.921677 73.634232,218.180847 72.813034,217.691132 
	C61.595097,211.001694 48.573952,221.585785 45.859573,230.919418 
	C44.190487,236.658722 44.561417,242.972702 43.718937,248.986984 
	C43.553947,250.164825 42.232086,251.656738 41.082859,252.133194 
	C37.317661,253.694153 33.169773,254.426727 29.562191,256.254028 
	C21.332588,260.422485 16.181467,271.280945 16.901508,279.991241 
	C17.639919,288.923706 21.380058,296.650757 25.385876,304.307220 
	C26.186844,305.838165 28.597374,307.581299 30.155251,307.482605 
	C37.592678,307.011444 42.763096,311.273102 47.697628,315.585938 
	C51.045101,318.511627 54.090244,319.119354 58.138176,317.792725 
	C60.493572,317.020813 63.114571,317.059387 66.058647,316.675537 
	C65.760513,319.420593 65.706268,321.246307 65.346054,323.009521 
	C63.695087,331.090851 60.217720,338.793518 63.684662,347.510590 
	C67.175858,356.288635 68.822617,365.806091 72.384369,374.548645 
	C76.233055,383.995453 81.294159,392.955444 85.949753,402.064758 
	C93.839371,417.501923 104.152908,431.141296 118.623085,440.815277 
	C129.440155,448.047028 140.451675,455.515228 154.486084,455.547150 
	C159.919891,455.559509 161.530014,458.898590 160.166092,463.984192 
	C158.733994,469.323975 157.924316,474.836945 156.968155,480.296234 
	C156.119522,485.141693 155.846024,490.123901 154.595169,494.854431 
	C152.755875,501.810333 150.161911,508.563110 148.112869,515.468750 
	C147.138168,518.753662 146.577805,522.174744 146.010971,525.564392 
	C145.199631,530.416321 145.285065,535.556274 143.665421,540.102173 
	C141.282242,546.791077 142.368378,553.102295 144.044449,560.345215 
z"/>
<path fill="#010101" opacity="1.000000" stroke="none" 
	d="
M143.862366,559.966675 
	C142.368378,553.102295 141.282242,546.791077 143.665421,540.102173 
	C145.285065,535.556274 145.199631,530.416321 146.010971,525.564392 
	C146.577805,522.174744 147.138168,518.753662 148.112869,515.468750 
	C150.161911,508.563110 152.755875,501.810333 154.595169,494.854431 
	C155.846024,490.123901 156.119522,485.141693 156.968155,480.296234 
	C157.924316,474.836945 158.733994,469.323975 160.166092,463.984192 
	C161.530014,458.898590 159.919891,455.559509 154.486084,455.547150 
	C140.451675,455.515228 129.440155,448.047028 118.623085,440.815277 
	C104.152908,431.141296 93.839371,417.501923 85.949753,402.064758 
	C81.294159,392.955444 76.233055,383.995453 72.384369,374.548645 
	C68.822617,365.806091 67.175858,356.288635 63.684662,347.510590 
	C60.217720,338.793518 63.695087,331.090851 65.346054,323.009521 
	C65.706268,321.246307 65.760513,319.420593 66.058647,316.675537 
	C63.114571,317.059387 60.493572,317.020813 58.138176,317.792725 
	C54.090244,319.119354 51.045101,318.511627 47.697628,315.585938 
	C42.763096,311.273102 37.592678,307.011444 30.155251,307.482605 
	C28.597374,307.581299 26.186844,305.838165 25.385876,304.307220 
	C21.380058,296.650757 17.639919,288.923706 16.901508,279.991241 
	C16.181467,271.280945 21.332588,260.422485 29.562191,256.254028 
	C33.169773,254.426727 37.317661,253.694153 41.082859,252.133194 
	C42.232086,251.656738 43.553947,250.164825 43.718937,248.986984 
	C44.561417,242.972702 44.190487,236.658722 45.859573,230.919418 
	C48.573952,221.585785 61.595097,211.001694 72.813034,217.691132 
	C73.634232,218.180847 74.312233,218.921677 75.025452,219.579758 
	C80.915901,225.014908 86.798965,230.458069 92.684265,235.898804 
	C93.130989,235.548370 93.577713,235.197922 94.024429,234.847488 
	C92.816193,231.546112 92.183983,227.853806 90.268951,225.032120 
	C87.152641,220.440475 85.994751,215.639328 85.706680,210.226089 
	C85.491440,206.181427 83.897324,202.226425 83.475067,198.173386 
	C82.290291,186.801300 80.427345,175.451584 83.601883,164.007858 
	C84.948685,159.152863 85.441574,153.992981 85.769020,148.935837 
	C86.800194,133.010208 93.928345,120.148506 106.680801,111.217941 
	C119.326378,102.362221 133.138092,101.857719 146.624390,110.363998 
	C150.184647,112.609589 152.075470,115.503197 152.152130,120.174667 
	C152.362915,133.021286 153.143036,145.862350 153.882034,158.695023 
	C154.298172,165.921127 154.653351,173.193863 155.788025,180.325943 
	C157.790863,192.914917 160.239777,205.438583 162.773300,217.934555 
	C163.708649,222.547974 165.410294,227.006012 166.803543,231.672546 
	C180.419739,228.461426 193.044174,229.864014 205.435272,234.630814 
	C209.098831,236.040146 213.177246,236.438736 216.737122,238.033585 
	C221.695602,240.255035 226.410019,243.055527 231.108673,245.813034 
	C235.812286,248.573471 240.384552,251.560120 244.976715,254.506317 
	C246.084396,255.216980 247.176239,256.040405 248.048492,257.015015 
	C252.376923,261.851501 256.619232,266.764923 260.921906,271.624664 
	C261.443115,272.213348 262.145569,272.641510 263.091461,273.410156 
	C264.901764,270.791595 266.806091,268.536346 268.162964,265.989471 
	C274.679382,253.757706 281.148712,241.498520 287.441132,229.150421 
	C294.036438,216.207916 299.277405,202.758698 303.029388,188.665894 
	C306.016663,177.445496 310.205383,166.548798 313.344330,155.363495 
	C315.239838,148.608994 316.100830,141.567810 317.515198,134.673599 
	C318.865967,128.089096 320.319214,121.525452 321.750549,114.957672 
	C322.757965,110.335068 323.673157,105.686829 324.863953,101.111046 
	C326.590851,94.475380 328.349945,87.837715 330.427826,81.306679 
	C332.515900,74.743408 334.796387,68.221886 337.400787,61.848904 
	C339.255310,57.310898 341.186554,52.587326 344.137054,48.758366 
	C350.686340,40.259209 357.055603,31.314960 365.027527,24.286833 
	C378.587463,12.332232 393.856812,2.798681 413.185944,4.343588 
	C421.018768,4.969634 428.751251,7.253631 436.572266,7.518848 
	C445.541748,7.823010 453.813629,10.235258 462.042664,13.225616 
	C474.956360,17.918341 485.942078,25.155819 493.766235,36.837402 
	C496.782684,41.341034 500.436707,45.475502 504.167694,49.431644 
	C514.730103,60.631588 521.475830,73.878181 526.180237,88.393166 
	C527.876404,93.626526 530.564392,98.530441 532.601929,103.663269 
	C534.781799,109.154739 536.358582,114.916229 538.903748,120.221550 
	C540.662659,123.887932 543.605957,126.989334 546.045044,130.324905 
	C547.303467,132.045731 548.650696,133.701797 549.899048,135.429642 
	C558.076904,146.749130 561.301636,159.098221 556.979126,172.706024 
	C556.188721,175.194153 554.148438,177.503448 552.176575,179.353210 
	C547.906860,183.358505 546.233582,187.934708 545.936707,193.876648 
	C545.446411,203.688522 543.690491,213.433716 542.592590,223.221008 
	C542.297058,225.855652 542.739258,228.585251 542.336060,231.192932 
	C541.613831,235.863968 540.518494,240.477890 539.557617,245.111237 
	C538.760193,248.956543 538.006348,252.813065 537.102173,256.633606 
	C535.029175,265.393463 532.874268,274.133972 530.756409,282.883209 
	C529.911438,286.373901 528.160706,289.939636 528.430359,293.343811 
	C528.971069,300.168396 524.007751,305.604584 525.052124,312.872711 
	C525.735962,317.631561 521.767090,323.025391 520.020447,328.181671 
	C519.182922,330.654175 519.041321,333.417847 517.918640,335.725739 
	C516.081055,339.503479 513.602966,342.963348 511.568359,346.652893 
	C507.688446,353.688721 504.104492,360.892853 500.073914,367.839264 
	C495.936920,374.968994 491.367798,381.846619 487.074860,388.887665 
	C484.445404,393.200378 481.889740,397.563690 479.462402,401.992737 
	C476.066864,408.188293 472.675354,414.010956 466.899536,418.790192 
	C461.334198,423.395233 457.740143,430.335632 453.062775,436.072906 
	C447.448090,442.959869 442.014099,450.073303 435.728119,456.308594 
	C430.731750,461.264740 424.646576,465.150696 418.906525,469.321564 
	C413.698792,473.105591 408.662964,477.388397 402.917145,480.114929 
	C391.132904,485.706848 380.454010,493.792816 367.000061,495.804810 
	C360.228210,496.817535 353.711853,499.477264 346.951080,500.647400 
	C342.619232,501.397186 338.052155,500.787964 332.349792,500.787964 
	C332.893616,505.871490 333.386841,510.168121 333.806580,514.471863 
	C334.635406,522.969849 335.510925,531.464783 336.201385,539.974365 
	C336.770599,546.989319 337.197845,554.020081 337.459839,561.052307 
	C337.516235,562.566345 336.594055,564.116821 336.122650,565.650513 
	C336.454620,566.102417 336.786560,566.554260 337.118530,567.006165 
	C339.838715,565.941650 342.828979,565.295227 345.233551,563.742065 
	C357.227478,555.994751 370.454315,553.857971 384.256531,555.492432 
	C387.481079,555.874329 390.585907,558.885376 393.279663,561.223816 
	C394.179718,562.005127 394.281036,564.788147 393.625641,566.092346 
	C390.805511,571.704468 388.328918,577.759827 384.312561,582.439636 
	C377.531189,590.341309 370.263794,597.988647 360.578491,602.678894 
	C351.803375,606.928223 343.081848,611.292908 334.409973,615.749390 
	C327.808044,619.142212 320.753204,619.553284 313.604401,619.101196 
	C312.414703,619.025940 310.693359,617.554077 310.290131,616.364136 
	C306.328064,604.672241 302.592072,593.108643 302.572479,580.325928 
	C302.557892,570.828308 299.116058,561.379333 297.865784,551.821716 
	C297.257050,547.168335 298.121765,542.313110 298.417297,537.555298 
	C298.528381,535.766846 299.535614,533.814392 299.076874,532.245972 
	C296.196686,522.398987 296.674713,512.659424 299.316071,502.895752 
	C299.393311,502.610168 299.227356,502.258789 299.032013,501.067383 
	C297.140472,501.067383 295.076843,501.039093 293.014191,501.072083 
	C281.770111,501.251984 270.622742,501.192902 259.693085,497.594849 
	C252.386749,495.189575 244.404373,494.649109 237.327576,491.784363 
	C228.962997,488.398376 221.246246,483.410980 213.252182,479.111237 
	C210.101288,477.416473 207.076294,475.371399 203.742477,474.204193 
	C202.750946,473.857056 200.000320,475.686768 199.620407,476.979034 
	C198.520233,480.721222 198.314774,484.716461 197.566605,488.575226 
	C196.976273,491.619995 195.979965,494.586121 195.392380,497.631256 
	C194.911667,500.122498 194.768036,502.678833 194.474976,505.206299 
	C197.059952,505.339050 199.689560,505.841003 202.221527,505.535004 
	C209.700058,504.631165 217.117661,502.804718 224.603073,502.527802 
	C229.360291,502.351837 234.641129,503.387665 238.897919,505.483276 
	C246.383972,509.168579 244.043213,522.556152 236.885864,527.566711 
	C228.520630,533.422729 220.662521,540.156311 211.801529,545.108276 
	C202.790253,550.144226 193.018906,554.042175 183.218491,557.373901 
	C175.351868,560.048279 167.014053,561.761597 158.749710,562.677795 
	C153.977646,563.206726 148.151459,565.802002 143.862366,559.966675 
M345.812805,331.595795 
	C343.789764,324.238312 341.722870,316.892548 339.757812,309.519623 
	C338.240448,303.826416 334.571869,301.017975 329.841949,302.098846 
	C325.256104,303.146790 323.012909,307.017700 324.308899,312.692352 
	C325.673553,318.667999 327.363068,324.584625 329.212555,330.431519 
	C334.718628,347.838074 340.363922,365.200684 345.976318,382.573486 
	C347.214081,386.404938 349.702301,388.758270 353.895966,389.011505 
	C358.202637,389.271545 360.741852,386.867645 362.314026,383.260864 
	C365.626984,375.660553 368.844116,368.018127 372.054901,360.373779 
	C378.857666,344.177460 385.627228,327.967163 392.419708,311.766510 
	C393.970825,308.066956 393.359253,304.868256 390.042511,302.513336 
	C386.593872,300.064789 382.714691,300.071472 380.176178,303.328278 
	C377.057159,307.329865 374.273529,311.808014 372.363739,316.495300 
	C367.292175,328.942566 362.783661,341.618835 358.011993,354.189148 
	C357.174011,356.396637 356.146027,358.532043 354.670502,361.935272 
	C351.498077,351.109039 348.754059,341.744843 345.812805,331.595795 
M258.910492,377.000854 
	C259.303864,381.635559 261.737610,384.635468 266.429169,384.719025 
	C280.244568,384.964966 294.072815,385.156158 307.875854,384.723511 
	C309.989502,384.657257 312.951477,381.490601 313.718689,379.163605 
	C314.235992,377.594574 312.091461,374.019348 310.241516,373.047485 
	C306.992493,371.340698 303.087585,370.304443 299.401764,370.124084 
	C291.029816,369.714447 282.624115,369.994995 274.144775,369.994995 
	C274.996552,364.169067 278.701965,359.841766 283.664856,356.478302 
	C288.201752,353.403503 293.150787,350.885864 297.446564,347.520630 
	C301.712585,344.178802 306.432495,340.709412 309.127228,336.203796 
	C316.651459,323.623016 315.501129,308.648712 297.823364,302.621246 
	C282.874054,297.524048 269.982727,304.397095 260.413483,314.715515 
	C259.083893,316.149200 259.055511,320.961090 260.330292,322.128662 
	C262.233002,323.871338 265.929901,324.555084 268.674316,324.205261 
	C271.039490,323.903778 273.071594,321.407471 275.375031,320.100250 
	C278.386414,318.391205 281.375854,316.432800 284.635284,315.421753 
	C289.319641,313.968781 294.420654,315.358917 296.466278,319.404297 
	C297.764374,321.971436 296.183655,326.670715 294.637726,329.791504 
	C293.336029,332.419342 290.396332,334.390106 287.870514,336.222839 
	C283.570709,339.342896 279.056091,342.172302 274.579224,345.041870 
	C263.225616,352.319244 257.465515,362.401031 258.910492,377.000854 
M232.330093,371.865356 
	C230.095612,371.425262 227.861115,370.985168 225.199387,370.460907 
	C225.199387,362.203461 225.084259,353.749420 225.226013,345.299683 
	C225.446304,332.167206 225.924713,319.038971 226.119751,305.906311 
	C226.193848,300.917267 223.440094,298.895660 218.702576,300.281067 
	C216.838028,300.826355 215.018341,301.825073 213.434280,302.971191 
	C209.261765,305.990234 205.180786,309.142059 201.154816,312.355621 
	C196.825455,315.811310 195.937836,319.161377 198.235901,322.595032 
	C200.716492,326.301453 203.793274,326.678497 209.014984,323.967224 
	C209.407822,323.763214 209.947815,323.842621 210.480377,323.783539 
	C210.480377,339.470276 210.480377,355.040161 210.480377,370.999756 
	C208.803848,370.999756 207.334839,370.933685 205.873459,371.011414 
	C200.211105,371.312683 196.924957,374.004456 196.880753,378.316742 
	C196.837204,382.565063 200.005951,384.918976 206.158386,384.983917 
	C213.480164,385.061249 220.834885,385.390686 228.109451,384.799713 
	C230.775162,384.583160 234.151932,382.629791 235.586761,380.418945 
	C237.360703,377.685486 236.152542,374.285126 232.330093,371.865356 
M394.650421,136.774887 
	C388.658783,124.128777 380.952423,111.748245 389.258148,95.998497 
	C386.630280,96.300293 384.690948,96.112701 383.102753,96.771530 
	C372.196106,101.295853 365.599854,112.208504 367.306732,123.971207 
	C368.234467,130.364777 370.969849,136.612915 376.442657,140.371124 
	C382.414917,144.472321 389.013580,147.736008 395.560272,150.908554 
	C405.104584,155.533783 413.817444,154.174072 420.770782,146.954346 
	C417.122681,146.954346 414.042297,146.816879 410.978149,146.981522 
	C403.447388,147.386169 398.324554,143.976074 394.650421,136.774887 
M507.134735,168.510727 
	C513.904724,170.119186 519.516296,175.393723 527.180054,176.121277 
	C524.266357,172.640121 522.610779,169.075836 519.858704,167.691437 
	C513.346252,164.415375 510.588684,158.988220 509.535614,152.508453 
	C508.538757,146.374496 505.544830,140.050720 510.172791,133.945389 
	C510.996796,132.858353 510.699707,130.921524 510.939972,129.238968 
	C503.761536,127.615669 500.124969,131.107346 496.675842,136.201111 
	C492.361359,142.572861 490.865784,149.182037 494.930267,155.632706 
	C497.909546,160.361008 502.565918,164.032578 507.134735,168.510727 
z"/>
<path fill="#F9FBF9" opacity="1.000000" stroke="none" 
	d="
M345.911438,331.988220 
	C348.754059,341.744843 351.498077,351.109039 354.670502,361.935272 
	C356.146027,358.532043 357.174011,356.396637 358.011993,354.189148 
	C362.783661,341.618835 367.292175,328.942566 372.363739,316.495300 
	C374.273529,311.808014 377.057159,307.329865 380.176178,303.328278 
	C382.714691,300.071472 386.593872,300.064789 390.042511,302.513336 
	C393.359253,304.868256 393.970825,308.066956 392.419708,311.766510 
	C385.627228,327.967163 378.857666,344.177460 372.054901,360.373779 
	C368.844116,368.018127 365.626984,375.660553 362.314026,383.260864 
	C360.741852,386.867645 358.202637,389.271545 353.895966,389.011505 
	C349.702301,388.758270 347.214081,386.404938 345.976318,382.573486 
	C340.363922,365.200684 334.718628,347.838074 329.212555,330.431519 
	C327.363068,324.584625 325.673553,318.667999 324.308899,312.692352 
	C323.012909,307.017700 325.256104,303.146790 329.841949,302.098846 
	C334.571869,301.017975 338.240448,303.826416 339.757812,309.519623 
	C341.722870,316.892548 343.789764,324.238312 345.911438,331.988220 
z"/>
<path fill="#FBFCFB" opacity="1.000000" stroke="none" 
	d="
M258.875946,376.556458 
	C257.465515,362.401031 263.225616,352.319244 274.579224,345.041870 
	C279.056091,342.172302 283.570709,339.342896 287.870514,336.222839 
	C290.396332,334.390106 293.336029,332.419342 294.637726,329.791504 
	C296.183655,326.670715 297.764374,321.971436 296.466278,319.404297 
	C294.420654,315.358917 289.319641,313.968781 284.635284,315.421753 
	C281.375854,316.432800 278.386414,318.391205 275.375031,320.100250 
	C273.071594,321.407471 271.039490,323.903778 268.674316,324.205261 
	C265.929901,324.555084 262.233002,323.871338 260.330292,322.128662 
	C259.055511,320.961090 259.083893,316.149200 260.413483,314.715515 
	C269.982727,304.397095 282.874054,297.524048 297.823364,302.621246 
	C315.501129,308.648712 316.651459,323.623016 309.127228,336.203796 
	C306.432495,340.709412 301.712585,344.178802 297.446564,347.520630 
	C293.150787,350.885864 288.201752,353.403503 283.664856,356.478302 
	C278.701965,359.841766 274.996552,364.169067 274.144775,369.994995 
	C282.624115,369.994995 291.029816,369.714447 299.401764,370.124084 
	C303.087585,370.304443 306.992493,371.340698 310.241516,373.047485 
	C312.091461,374.019348 314.235992,377.594574 313.718689,379.163605 
	C312.951477,381.490601 309.989502,384.657257 307.875854,384.723511 
	C294.072815,385.156158 280.244568,384.964966 266.429169,384.719025 
	C261.737610,384.635468 259.303864,381.635559 258.875946,376.556458 
z"/>
<path fill="#FDFDFB" opacity="1.000000" stroke="none" 
	d="
M232.701599,372.037537 
	C236.152542,374.285126 237.360703,377.685486 235.586761,380.418945 
	C234.151932,382.629791 230.775162,384.583160 228.109451,384.799713 
	C220.834885,385.390686 213.480164,385.061249 206.158386,384.983917 
	C200.005951,384.918976 196.837204,382.565063 196.880753,378.316742 
	C196.924957,374.004456 200.211105,371.312683 205.873459,371.011414 
	C207.334839,370.933685 208.803848,370.999756 210.480377,370.999756 
	C210.480377,355.040161 210.480377,339.470276 210.480377,323.783539 
	C209.947815,323.842621 209.407822,323.763214 209.014984,323.967224 
	C203.793274,326.678497 200.716492,326.301453 198.235901,322.595032 
	C195.937836,319.161377 196.825455,315.811310 201.154816,312.355621 
	C205.180786,309.142059 209.261765,305.990234 213.434280,302.971191 
	C215.018341,301.825073 216.838028,300.826355 218.702576,300.281067 
	C223.440094,298.895660 226.193848,300.917267 226.119751,305.906311 
	C225.924713,319.038971 225.446304,332.167206 225.226013,345.299683 
	C225.084259,353.749420 225.199387,362.203461 225.199387,370.460907 
	C227.861115,370.985168 230.095612,371.425262 232.701599,372.037537 
z"/>
<path fill="#F3F3F3" opacity="1.000000" stroke="none" 
	d="
M394.889282,137.053497 
	C398.324554,143.976074 403.447388,147.386169 410.978149,146.981522 
	C414.042297,146.816879 417.122681,146.954346 420.770782,146.954346 
	C413.817444,154.174072 405.104584,155.533783 395.560272,150.908554 
	C389.013580,147.736008 382.414917,144.472321 376.442657,140.371124 
	C370.969849,136.612915 368.234467,130.364777 367.306732,123.971207 
	C365.599854,112.208504 372.196106,101.295853 383.102753,96.771530 
	C384.690948,96.112701 386.630280,96.300293 389.258148,95.998497 
	C380.952423,111.748245 388.658783,124.128777 394.889282,137.053497 
z"/>
<path fill="#F2F2F2" opacity="1.000000" stroke="none" 
	d="
M506.804779,168.342926 
	C502.565918,164.032578 497.909546,160.361008 494.930267,155.632706 
	C490.865784,149.182037 492.361359,142.572861 496.675842,136.201111 
	C500.124969,131.107346 503.761536,127.615669 510.939972,129.238968 
	C510.699707,130.921524 510.996796,132.858353 510.172791,133.945389 
	C505.544830,140.050720 508.538757,146.374496 509.535614,152.508453 
	C510.588684,158.988220 513.346252,164.415375 519.858704,167.691437 
	C522.610779,169.075836 524.266357,172.640121 527.180054,176.121277 
	C519.516296,175.393723 513.904724,170.119186 506.804779,168.342926 
z"/>
</svg>