<svg version="1.1" id="Layer_1" xmlns="http://www.w3.org/2000/svg" xmlns:xlink="http://www.w3.org/1999/xlink" x="0px" y="0px"
	 width="100%" viewBox="0 0 336 288" enable-background="new 0 0 336 288" xml:space="preserve">
<path fill="#000000" opacity="1.000000" stroke="none" 
	d="
M135.009903,232.370743 
	C130.004730,227.676285 128.748917,221.483215 127.045013,215.690552 
	C122.412735,199.942398 119.854340,183.850128 118.468346,167.424438 
	C116.074028,139.049072 119.704948,111.529915 127.698402,84.422539 
	C129.100571,79.667511 131.305893,75.153015 132.792862,70.418312 
	C134.371643,65.391273 138.037445,63.496952 142.775620,62.786434 
	C179.012436,57.352509 213.975327,60.675285 246.479095,78.819855 
	C265.443848,89.406548 280.841492,103.642403 288.760162,124.581772 
	C296.906097,146.122284 294.516541,166.688644 282.124420,185.884933 
	C265.474518,211.676819 240.141174,224.631104 211.491302,232.295303 
	C197.810623,235.955063 183.756882,237.567123 169.680222,237.157410 
	C158.169159,236.822357 146.539459,236.058380 135.009903,232.370743 
M213.552750,84.183525 
	C195.127014,77.827721 176.033356,77.882126 156.934479,78.609001 
	C152.791855,78.766663 148.992371,79.920624 147.065460,85.246643 
	C138.087341,110.062325 133.967346,135.353531 136.176254,161.806824 
	C137.553589,178.301590 141.029846,194.157791 146.421936,209.717804 
	C148.017151,214.321182 151.279495,216.042709 155.720367,216.638199 
	C170.672638,218.643143 185.530060,217.568924 200.183624,214.574844 
	C224.546219,209.596985 246.831223,200.311310 263.250427,180.609543 
	C270.497681,171.913437 275.123047,161.847183 275.640808,150.276474 
	C276.541229,130.153885 266.493713,115.529694 251.787537,103.366905 
	C240.749115,94.237556 227.981827,88.404427 213.552750,84.183525 
z"/>
<path fill="#000000" opacity="1.000000" stroke="none" 
	d="
M5.969614,119.288742 
	C2.408827,115.097610 3.346674,110.490059 4.190639,106.201065 
	C4.839302,102.904587 8.079717,102.633934 11.055820,102.638428 
	C29.017998,102.665535 46.980240,102.648857 64.942459,102.651215 
	C74.422508,102.652466 83.903221,102.731041 93.382301,102.638390 
	C97.786705,102.595352 99.932976,104.368378 99.338409,108.918198 
	C97.854134,120.276413 97.344406,120.428276 87.542526,120.390823 
	C62.761681,120.296120 37.980202,120.375168 13.199029,120.344208 
	C10.906157,120.341347 8.519032,120.782982 5.969614,119.288742 
z"/>
<path fill="#000000" opacity="1.000000" stroke="none" 
	d="
M37.000107,178.649048 
	C55.292156,178.650406 73.086441,178.806702 90.874718,178.548508 
	C95.522331,178.481049 97.343636,180.315002 98.177879,184.540543 
	C100.225792,194.913467 99.122490,196.347382 88.342400,196.346817 
	C63.400284,196.345490 38.453270,196.055679 13.518363,196.478928 
	C2.883595,196.659439 2.494841,189.701202 4.419293,181.506409 
	C5.036623,178.877655 7.252068,178.632309 9.562772,178.641907 
	C18.541737,178.679184 27.520967,178.652283 37.000107,178.649048 
z"/>
<path fill="#000000" opacity="1.000000" stroke="none" 
	d="
M57.000122,140.657227 
	C67.817139,140.657257 78.134300,140.625046 88.451111,140.670059 
	C94.418198,140.696091 95.285416,141.642227 95.346840,147.733948 
	C95.348518,147.900330 95.346703,148.066757 95.347572,148.233154 
	C95.399948,158.276001 95.313461,158.368286 85.452446,158.371552 
	C61.323948,158.379532 37.195446,158.392899 13.066954,158.384705 
	C4.433420,158.381775 0.373817,150.890732 4.561322,143.029572 
	C5.882559,140.549240 7.919333,140.671158 10.073564,140.669571 
	C25.549072,140.658203 41.024593,140.659866 57.000122,140.657227 
z"/>
</svg>