<svg version="1.1" id="Layer_1" xmlns="http://www.w3.org/2000/svg" xmlns:xlink="http://www.w3.org/1999/xlink" x="0px" y="0px"
	 width="100%" viewBox="0 0 400 352" enable-background="new 0 0 400 352" xml:space="preserve">
<path fill="#000000" opacity="1.000000" stroke="none" 
	d="
M65.378326,133.337799 
	C81.263451,121.793312 96.821175,110.416725 112.459656,99.152245 
	C132.673721,84.591965 152.920792,70.076950 173.219849,55.635517 
	C180.510773,50.448509 187.280945,44.487587 195.533463,40.702118 
	C209.672379,34.216526 227.266968,42.194355 230.922913,57.082924 
	C232.715256,64.382126 232.414581,71.922768 232.367401,79.404709 
	C232.316605,87.459595 235.482925,90.633118 243.469635,90.640251 
	C264.965485,90.659439 286.464569,90.420898 307.956085,90.726097 
	C322.112335,90.927132 335.403931,94.020569 346.902008,103.323410 
	C358.009247,112.310036 363.742462,123.841492 364.201691,137.705627 
	C364.758575,154.517242 364.330139,171.361420 364.331421,188.191513 
	C364.333191,212.192215 347.521027,229.986359 325.250458,235.269241 
	C318.158295,236.951614 310.852570,237.458725 303.505829,237.413071 
	C283.510437,237.288803 263.513763,237.346985 243.517685,237.368484 
	C235.545059,237.377060 232.491806,240.582001 232.320953,248.601959 
	C232.193878,254.567383 232.093979,260.510498 231.568634,266.497467 
	C230.009338,284.267761 211.628281,294.624481 195.062424,287.018097 
	C185.794693,282.762726 178.167450,275.901917 169.939972,270.031616 
	C146.980286,253.649933 124.151283,237.084686 101.306137,220.542953 
	C84.500908,208.374603 67.573761,196.363846 51.036640,183.839600 
	C39.033199,174.748871 39.840263,152.485016 51.987938,143.474869 
	C56.386723,140.212219 60.722370,136.864471 65.378326,133.337799 
z"/>
</svg>