<svg version="1.1" id="Layer_1" xmlns="http://www.w3.org/2000/svg" xmlns:xlink="http://www.w3.org/1999/xlink" x="0px" y="0px"
	 width="100%" viewBox="0 0 277 217" enable-background="new 0 0 277 217" xml:space="preserve">
<path fill="#FFFFFF" opacity="1.000000" stroke="none" 
	d="
M171.000000,218.000000 
	C114.000008,218.000000 57.500015,218.000000 1.000015,218.000000 
	C1.000010,145.666687 1.000010,73.333366 1.000005,1.000035 
	C93.333305,1.000023 185.666611,1.000023 277.999939,1.000012 
	C277.999939,73.333298 277.999939,145.666595 277.999969,217.999939 
	C242.500000,218.000000 207.000000,218.000000 171.000000,218.000000 
M190.254471,165.240448 
	C187.140396,168.913467 183.484604,172.258698 181.023209,176.326630 
	C175.630432,185.239304 178.705627,198.158035 187.546585,207.087738 
	C199.034332,218.690765 216.627396,215.654984 226.284149,203.169357 
	C228.321121,200.535660 230.619171,197.285278 230.808853,194.196945 
	C231.349548,185.393845 231.604538,176.329086 224.206863,169.499496 
	C222.451401,167.878830 220.709778,166.236847 219.059952,164.510834 
	C218.261383,163.675400 217.163315,162.652496 217.107529,161.663315 
	C216.873352,157.510559 216.981812,153.338470 217.827133,149.011993 
	C220.710846,148.674103 223.591080,148.084915 226.478912,148.044907 
	C235.560822,147.919098 244.646057,148.045837 253.728806,147.954269 
	C255.216232,147.939270 256.697510,147.314697 258.807129,146.671478 
	C265.697174,140.285706 264.700714,134.956879 255.610840,131.169846 
	C244.174026,131.112976 232.736679,131.097366 221.300934,130.955078 
	C219.570175,130.933548 217.846756,130.322601 216.026749,129.053452 
	C216.035873,122.409142 216.045013,115.764832 216.761658,109.009933 
	C220.557404,108.672516 224.348953,108.113350 228.149734,108.041199 
	C237.767914,107.858612 247.390228,107.894775 257.728790,107.960739 
	C265.346558,102.772003 265.438568,99.349312 257.667236,92.207825 
	C244.793076,92.201248 231.918915,92.194679 218.233521,91.992294 
	C217.832077,91.395477 217.114685,90.817535 217.077728,90.198944 
	C216.676910,83.490303 216.382874,76.775291 216.931473,70.003593 
	C229.444580,69.864159 241.958694,69.772766 254.469360,69.514648 
	C255.793106,69.487335 257.096680,68.481163 258.984650,67.599327 
	C262.495178,66.283089 264.435211,63.150902 263.763489,60.057728 
	C262.995758,56.522457 260.634155,53.158413 255.628723,52.197025 
	C242.450821,52.112106 229.272919,52.027187 216.018173,51.015041 
	C215.818008,42.914806 215.641510,34.813889 215.408600,26.714594 
	C215.274109,22.037859 211.765808,17.326794 207.462540,15.756696 
	C202.715363,14.024641 199.763306,16.714333 196.165192,19.983740 
	C195.445831,21.990141 194.117462,23.991686 194.101425,26.003687 
	C193.943405,45.829788 193.978668,65.657661 194.007599,85.484962 
	C194.044785,110.973717 194.126450,136.462402 193.968781,162.492538 
	C193.633453,162.960785 193.298111,163.429031 192.331192,163.976776 
	C191.846558,164.305084 191.361923,164.633392 190.254471,165.240448 
M133.368973,141.017532 
	C136.228455,137.690659 140.022003,134.964401 140.016968,129.879456 
	C139.990524,103.220665 139.932449,76.561401 140.086349,49.903469 
	C140.108200,46.118767 138.742874,44.888000 135.227478,44.966137 
	C130.064880,45.080883 124.857750,45.359280 119.754585,44.796795 
	C117.986473,44.601910 115.473602,42.341362 115.070953,40.612164 
	C114.439240,37.899223 116.675613,36.662380 119.523636,36.976009 
	C121.005203,37.139160 122.524414,37.081917 124.018211,36.989040 
	C127.969147,36.743404 130.596680,35.413876 130.076813,30.623234 
	C129.701538,27.164955 130.090927,23.630512 129.982849,20.134874 
	C129.809830,14.538830 125.074387,10.007496 119.456573,10.001335 
	C103.294685,9.983610 87.132751,9.990034 70.970840,9.997561 
	C64.072495,10.000773 60.041508,13.997566 59.999233,20.866993 
	C59.978725,24.199221 60.325737,27.572861 59.916370,30.854145 
	C59.337612,35.493191 62.041607,36.579472 65.647949,36.978577 
	C66.964867,37.124325 68.321945,37.112617 69.642021,36.982784 
	C72.662346,36.685726 75.117325,37.355324 74.932098,40.927624 
	C74.760300,44.241085 72.459755,45.149868 69.342545,45.040222 
	C64.516594,44.870464 59.670921,45.182346 54.851124,44.940742 
	C50.402847,44.717754 48.916092,46.839691 48.997589,50.916523 
	C49.094143,55.746506 49.097942,60.581940 48.970673,65.410500 
	C48.934566,66.780251 48.711788,68.506500 47.872375,69.433090 
	C43.485477,74.275566 38.663456,78.735649 34.439396,83.708138 
	C32.712650,85.740837 31.464071,88.649605 31.141256,91.299118 
	C30.606127,95.691223 30.995668,100.195984 30.995668,104.632462 
	C27.869432,104.632462 25.175072,104.632462 22.263275,104.632462 
	C22.263275,97.124344 22.252815,89.977242 22.268717,82.830208 
	C22.274605,80.183472 21.088938,77.826248 18.479685,78.237366 
	C16.817753,78.499229 15.229064,80.779083 14.136723,82.491623 
	C13.529266,83.443977 13.997724,85.088707 13.997589,86.421394 
	C13.995523,106.915367 13.995422,127.409348 13.996521,147.903320 
	C13.996914,155.228958 13.998928,155.228958 22.217781,154.772858 
	C22.217781,146.282852 22.217781,137.732346 22.217781,129.257950 
	C25.534328,129.257950 28.129837,129.257950 30.995556,129.257950 
	C30.995556,131.979172 31.307028,134.498260 30.936707,136.912750 
	C29.858734,143.941116 31.852140,149.826706 37.549400,153.974792 
	C47.420910,161.162094 50.716225,170.597519 49.165146,182.521957 
	C48.430244,188.171799 50.517509,189.646286 56.438442,189.696548 
	C62.201363,189.745453 67.965019,189.707169 73.822342,189.707169 
	C73.822342,192.365891 73.822342,194.461945 73.822342,196.994568 
	C66.206863,196.994568 58.755795,197.017151 51.304981,196.982788 
	C48.553425,196.970108 45.903854,196.675964 45.823269,200.784882 
	C45.741917,204.932648 48.200058,205.917252 51.509544,205.922699 
	C75.002571,205.961227 98.497330,206.060272 121.985878,205.733765 
	C124.007339,205.705673 127.418907,202.932434 127.670166,201.091232 
	C128.105713,197.899582 125.188858,196.832962 121.868607,196.926727 
	C114.282249,197.140915 106.685715,196.994400 99.263016,196.994400 
	C99.263016,194.212784 99.263016,192.105026 99.263016,189.704315 
	C105.477386,189.704315 111.446075,189.628311 117.411812,189.728577 
	C122.110077,189.807526 124.173019,187.781921 124.060143,182.966400 
	C123.861069,174.473572 123.791634,165.964096 124.135422,157.480530 
	C124.237373,154.964691 125.599892,152.331650 126.932259,150.075638 
	C128.682831,147.111481 130.974899,144.467133 133.368973,141.017532 
z"/>
<path fill="#F67D23" opacity="1.000000" stroke="none" 
	d="
M196.972733,19.881956 
	C199.763306,16.714333 202.715363,14.024641 207.462540,15.756696 
	C211.765808,17.326794 215.274109,22.037859 215.408600,26.714594 
	C215.641510,34.813889 215.818008,42.914806 216.302734,51.809784 
	C229.754120,52.716656 242.920959,52.828789 256.087799,52.940922 
	C260.634155,53.158413 262.995758,56.522457 263.763489,60.057728 
	C264.435211,63.150902 262.495178,66.283089 258.194275,67.728271 
	C245.000900,67.910744 232.596817,67.900482 220.196365,68.106812 
	C218.807007,68.129921 217.438095,69.380608 216.059692,70.062012 
	C216.382874,76.775291 216.676910,83.490303 217.077728,90.198944 
	C217.114685,90.817535 217.832077,91.395477 218.958679,92.346878 
	C232.499924,92.787254 245.316025,92.873055 258.132111,92.958847 
	C265.438568,99.349312 265.346558,102.772003 257.054321,107.629501 
	C243.833313,107.202805 231.286652,107.063805 218.740570,107.103539 
	C217.842972,107.106384 216.949524,108.417641 216.054138,109.120522 
	C216.045013,115.764832 216.035873,122.409142 216.114349,129.923508 
	C217.515747,131.196060 218.827728,131.940613 220.143661,131.947662 
	C232.111664,132.011856 244.080338,131.947418 256.048828,131.920593 
	C264.700714,134.956879 265.697174,140.285706 258.011658,146.800446 
	C244.795792,146.955688 232.375366,146.973602 219.955017,147.015015 
	C217.333588,147.023758 217.333725,147.063431 216.964798,149.173462 
	C216.981812,153.338470 216.873352,157.510559 217.107529,161.663315 
	C217.163315,162.652496 218.261383,163.675400 219.059952,164.510834 
	C220.709778,166.236847 222.451401,167.878830 224.206863,169.499496 
	C231.604538,176.329086 231.349548,185.393845 230.808853,194.196945 
	C230.619171,197.285278 228.321121,200.535660 226.284149,203.169357 
	C216.627396,215.654984 199.034332,218.690765 187.546585,207.087738 
	C178.705627,198.158035 175.630432,185.239304 181.023209,176.326630 
	C183.484604,172.258698 187.140396,168.913467 190.885712,165.094513 
	C191.998901,164.598129 192.480835,164.247681 192.962769,163.897247 
	C193.298111,163.429031 193.633453,162.960785 194.334808,161.902237 
	C194.800140,159.494263 194.985428,157.676620 194.986145,155.858917 
	C195.002731,114.083267 194.951553,72.307457 195.085037,30.532228 
	C195.096390,26.980164 196.314987,23.431957 196.972733,19.881956 
z"/>
<path fill="#020202" opacity="1.000000" stroke="none" 
	d="
M133.201538,141.351379 
	C130.974899,144.467133 128.682831,147.111481 126.932259,150.075638 
	C125.599892,152.331650 124.237373,154.964691 124.135422,157.480530 
	C123.791634,165.964096 123.861069,174.473572 124.060143,182.966400 
	C124.173019,187.781921 122.110077,189.807526 117.411812,189.728577 
	C111.446075,189.628311 105.477386,189.704315 99.263016,189.704315 
	C99.263016,192.105026 99.263016,194.212784 99.263016,196.994400 
	C106.685715,196.994400 114.282249,197.140915 121.868607,196.926727 
	C125.188858,196.832962 128.105713,197.899582 127.670166,201.091232 
	C127.418907,202.932434 124.007339,205.705673 121.985878,205.733765 
	C98.497330,206.060272 75.002571,205.961227 51.509544,205.922699 
	C48.200058,205.917252 45.741917,204.932648 45.823269,200.784882 
	C45.903854,196.675964 48.553425,196.970108 51.304981,196.982788 
	C58.755795,197.017151 66.206863,196.994568 73.822342,196.994568 
	C73.822342,194.461945 73.822342,192.365891 73.822342,189.707169 
	C67.965019,189.707169 62.201363,189.745453 56.438442,189.696548 
	C50.517509,189.646286 48.430244,188.171799 49.165146,182.521957 
	C50.716225,170.597519 47.420910,161.162094 37.549400,153.974792 
	C31.852140,149.826706 29.858734,143.941116 30.936707,136.912750 
	C31.307028,134.498260 30.995556,131.979172 30.995556,129.257950 
	C28.129837,129.257950 25.534328,129.257950 22.217781,129.257950 
	C22.217781,137.732346 22.217781,146.282852 22.217781,154.772858 
	C13.998928,155.228958 13.996914,155.228958 13.996521,147.903320 
	C13.995422,127.409348 13.995523,106.915367 13.997589,86.421394 
	C13.997724,85.088707 13.529266,83.443977 14.136723,82.491623 
	C15.229064,80.779083 16.817753,78.499229 18.479685,78.237366 
	C21.088938,77.826248 22.274605,80.183472 22.268717,82.830208 
	C22.252815,89.977242 22.263275,97.124344 22.263275,104.632462 
	C25.175072,104.632462 27.869432,104.632462 30.995668,104.632462 
	C30.995668,100.195984 30.606127,95.691223 31.141256,91.299118 
	C31.464071,88.649605 32.712650,85.740837 34.439396,83.708138 
	C38.663456,78.735649 43.485477,74.275566 47.872375,69.433090 
	C48.711788,68.506500 48.934566,66.780251 48.970673,65.410500 
	C49.097942,60.581940 49.094143,55.746506 48.997589,50.916523 
	C48.916092,46.839691 50.402847,44.717754 54.851124,44.940742 
	C59.670921,45.182346 64.516594,44.870464 69.342545,45.040222 
	C72.459755,45.149868 74.760300,44.241085 74.932098,40.927624 
	C75.117325,37.355324 72.662346,36.685726 69.642021,36.982784 
	C68.321945,37.112617 66.964867,37.124325 65.647949,36.978577 
	C62.041607,36.579472 59.337612,35.493191 59.916370,30.854145 
	C60.325737,27.572861 59.978725,24.199221 59.999233,20.866993 
	C60.041508,13.997566 64.072495,10.000773 70.970840,9.997561 
	C87.132751,9.990034 103.294685,9.983610 119.456573,10.001335 
	C125.074387,10.007496 129.809830,14.538830 129.982849,20.134874 
	C130.090927,23.630512 129.701538,27.164955 130.076813,30.623234 
	C130.596680,35.413876 127.969147,36.743404 124.018211,36.989040 
	C122.524414,37.081917 121.005203,37.139160 119.523636,36.976009 
	C116.675613,36.662380 114.439240,37.899223 115.070953,40.612164 
	C115.473602,42.341362 117.986473,44.601910 119.754585,44.796795 
	C124.857750,45.359280 130.064880,45.080883 135.227478,44.966137 
	C138.742874,44.888000 140.108200,46.118767 140.086349,49.903469 
	C139.932449,76.561401 139.990524,103.220665 140.016968,129.879456 
	C140.022003,134.964401 136.228455,137.690659 133.201538,141.351379 
M50.931847,78.508873 
	C48.089993,81.560272 45.050282,84.456039 42.481304,87.722076 
	C40.966576,89.647804 39.283409,92.143555 39.241516,94.411858 
	C38.958447,109.738533 39.085182,125.072960 39.111584,140.404816 
	C39.113483,141.509018 38.973431,142.957092 39.579205,143.656281 
	C42.013123,146.465515 44.694542,149.062912 47.320824,151.702438 
	C57.834698,162.269348 57.840202,162.264343 57.938324,177.202927 
	C57.945702,178.326401 57.939293,179.449982 57.939293,180.660934 
	C77.347168,180.660934 96.380959,180.660934 115.687881,180.660934 
	C115.687881,172.018616 115.644264,163.708389 115.722733,155.399323 
	C115.739510,153.623688 115.646744,151.476715 116.551880,150.144547 
	C120.262367,144.683502 124.595985,139.637299 128.174911,134.098938 
	C130.018372,131.246216 131.785370,127.694954 131.831451,124.434517 
	C132.146912,102.107727 132.001282,79.774361 131.986740,57.443119 
	C131.985809,56.011837 131.838852,54.580654 131.751663,53.001537 
	C127.226540,53.001537 123.065804,53.181034 118.926895,52.957115 
	C113.479675,52.662418 108.374825,50.549412 106.416763,45.413910 
	C104.815834,41.215088 105.000137,35.835941 109.124893,32.724503 
	C112.195473,30.408260 116.293396,29.453959 120.587006,27.613007 
	C120.415909,24.946552 120.192528,21.465204 119.968285,17.970415 
	C105.644859,17.970415 92.146378,17.888906 78.649406,17.996122 
	C67.785194,18.082422 69.041138,16.052204 69.047340,27.871370 
	C69.047501,28.171019 69.281929,28.470545 69.458893,28.894115 
	C70.048286,28.926405 70.689713,28.946974 71.328606,28.998783 
	C78.121681,29.549675 84.295555,34.612362 84.891464,40.114990 
	C85.390572,44.723675 80.104126,51.111752 73.765366,52.306667 
	C68.655876,53.269855 63.320683,53.035748 57.939663,53.341110 
	C57.939663,58.104759 57.647739,62.614025 58.014378,67.069092 
	C58.461533,72.502556 54.266590,74.740242 50.931847,78.508873 
M22.254917,119.256378 
	C25.029800,120.034081 27.804686,120.811783 30.723969,121.629959 
	C30.723969,117.980751 30.723969,115.569061 30.723969,113.237686 
	C27.838465,113.237686 25.247812,113.237686 22.250416,113.237686 
	C22.250416,115.107559 22.250416,116.730965 22.254917,119.256378 
M88.398796,196.998718 
	C93.645729,195.870850 90.028168,192.296860 90.766510,189.870773 
	C87.759254,189.870773 85.139732,189.870773 82.303833,189.870773 
	C82.303833,192.259338 82.303833,194.473770 82.303833,196.998901 
	C84.195122,196.998901 85.827621,196.998901 88.398796,196.998718 
z"/>
<path fill="#EA7721" opacity="1.000000" stroke="none" 
	d="
M196.568970,19.932848 
	C196.314987,23.431957 195.096390,26.980164 195.085037,30.532228 
	C194.951553,72.307457 195.002731,114.083267 194.986145,155.858917 
	C194.985428,157.676620 194.800140,159.494263 194.444885,161.631531 
	C194.126450,136.462402 194.044785,110.973717 194.007599,85.484962 
	C193.978668,65.657661 193.943405,45.829788 194.101425,26.003687 
	C194.117462,23.991686 195.445831,21.990141 196.568970,19.932848 
z"/>
<path fill="#824211" opacity="1.000000" stroke="none" 
	d="
M216.495575,70.032806 
	C217.438095,69.380608 218.807007,68.129921 220.196365,68.106812 
	C232.596817,67.900482 245.000900,67.910744 257.906738,67.893166 
	C257.096680,68.481163 255.793106,69.487335 254.469360,69.514648 
	C241.958694,69.772766 229.444580,69.864159 216.495575,70.032806 
z"/>
<path fill="#A8561A" opacity="1.000000" stroke="none" 
	d="
M217.395966,149.092728 
	C217.333725,147.063431 217.333588,147.023758 219.955017,147.015015 
	C232.375366,146.973602 244.795792,146.955688 257.698914,146.950653 
	C256.697510,147.314697 255.216232,147.939270 253.728806,147.954269 
	C244.646057,148.045837 235.560822,147.919098 226.478912,148.044907 
	C223.591080,148.084915 220.710846,148.674103 217.395966,149.092728 
z"/>
<path fill="#E07527" opacity="1.000000" stroke="none" 
	d="
M216.407898,109.065231 
	C216.949524,108.417641 217.842972,107.106384 218.740570,107.103539 
	C231.286652,107.063805 243.833313,107.202805 256.695374,107.570793 
	C247.390228,107.894775 237.767914,107.858612 228.149734,108.041199 
	C224.348953,108.113350 220.557404,108.672516 216.407898,109.065231 
z"/>
<path fill="#9E5720" opacity="1.000000" stroke="none" 
	d="
M255.829834,131.545227 
	C244.080338,131.947418 232.111664,132.011856 220.143661,131.947662 
	C218.827728,131.940613 217.515747,131.196060 216.160934,130.388916 
	C217.846756,130.322601 219.570175,130.933548 221.300934,130.955078 
	C232.736679,131.097366 244.174026,131.112976 255.829834,131.545227 
z"/>
<path fill="#AE591B" opacity="1.000000" stroke="none" 
	d="
M255.858261,52.568974 
	C242.920959,52.828789 229.754120,52.716656 216.341156,52.273396 
	C229.272919,52.027187 242.450821,52.112106 255.858261,52.568974 
z"/>
<path fill="#E67722" opacity="1.000000" stroke="none" 
	d="
M257.899658,92.583344 
	C245.316025,92.873055 232.499924,92.787254 219.364288,92.444778 
	C231.918915,92.194679 244.793076,92.201248 257.899658,92.583344 
z"/>
<path fill="#EA7721" opacity="1.000000" stroke="none" 
	d="
M192.646973,163.937012 
	C192.480835,164.247681 191.998901,164.598129 191.197113,164.955124 
	C191.361923,164.633392 191.846558,164.305084 192.646973,163.937012 
z"/>
<path fill="#FEFEFE" opacity="1.000000" stroke="none" 
	d="
M51.146553,78.216782 
	C54.266590,74.740242 58.461533,72.502556 58.014378,67.069092 
	C57.647739,62.614025 57.939663,58.104759 57.939663,53.341110 
	C63.320683,53.035748 68.655876,53.269855 73.765366,52.306667 
	C80.104126,51.111752 85.390572,44.723675 84.891464,40.114990 
	C84.295555,34.612362 78.121681,29.549675 71.328606,28.998783 
	C70.689713,28.946974 70.048286,28.926405 69.458893,28.894115 
	C69.281929,28.470545 69.047501,28.171019 69.047340,27.871370 
	C69.041138,16.052204 67.785194,18.082422 78.649406,17.996122 
	C92.146378,17.888906 105.644859,17.970415 119.968285,17.970415 
	C120.192528,21.465204 120.415909,24.946552 120.587006,27.613007 
	C116.293396,29.453959 112.195473,30.408260 109.124893,32.724503 
	C105.000137,35.835941 104.815834,41.215088 106.416763,45.413910 
	C108.374825,50.549412 113.479675,52.662418 118.926895,52.957115 
	C123.065804,53.181034 127.226540,53.001537 131.751663,53.001537 
	C131.838852,54.580654 131.985809,56.011837 131.986740,57.443119 
	C132.001282,79.774361 132.146912,102.107727 131.831451,124.434517 
	C131.785370,127.694954 130.018372,131.246216 128.174911,134.098938 
	C124.595985,139.637299 120.262367,144.683502 116.551880,150.144547 
	C115.646744,151.476715 115.739510,153.623688 115.722733,155.399323 
	C115.644264,163.708389 115.687881,172.018616 115.687881,180.660934 
	C96.380959,180.660934 77.347168,180.660934 57.939293,180.660934 
	C57.939293,179.449982 57.945702,178.326401 57.938324,177.202927 
	C57.840202,162.264343 57.834698,162.269348 47.320824,151.702438 
	C44.694542,149.062912 42.013123,146.465515 39.579205,143.656281 
	C38.973431,142.957092 39.113483,141.509018 39.111584,140.404816 
	C39.085182,125.072960 38.958447,109.738533 39.241516,94.411858 
	C39.283409,92.143555 40.966576,89.647804 42.481304,87.722076 
	C45.050282,84.456039 48.089993,81.560272 51.146553,78.216782 
M74.337769,134.018112 
	C85.112099,138.439819 85.224472,138.367523 86.101532,126.497284 
	C86.113228,126.338913 86.218445,126.187454 86.387154,125.763573 
	C94.558922,128.206314 102.710518,130.843323 110.988907,132.991806 
	C113.376015,133.611343 117.431320,133.814590 118.444740,132.479828 
	C120.638496,129.590469 118.412086,126.808151 115.608070,124.836754 
	C105.758858,117.912186 96.123283,110.663925 86.041763,104.098801 
	C81.665894,101.249214 77.925690,95.665741 71.109489,98.513618 
	C71.018753,99.886902 70.922729,101.340279 70.755096,103.877480 
	C67.975311,102.148338 65.897179,100.307388 63.474163,99.494598 
	C60.768650,98.587044 57.568298,97.899292 54.952412,98.565392 
	C53.823166,98.852936 53.208790,102.756889 53.081722,105.057846 
	C52.806744,110.037170 53.265812,115.061310 52.912094,120.030640 
	C52.628250,124.018349 54.502392,126.323753 57.720692,127.712646 
	C62.930267,129.960876 68.265015,131.919098 74.337769,134.018112 
z"/>
<path fill="#F5F5F5" opacity="1.000000" stroke="none" 
	d="
M22.252666,118.805374 
	C22.250416,116.730965 22.250416,115.107559 22.250416,113.237686 
	C25.247812,113.237686 27.838465,113.237686 30.723969,113.237686 
	C30.723969,115.569061 30.723969,117.980751 30.723969,121.629959 
	C27.804686,120.811783 25.029800,120.034081 22.252666,118.805374 
z"/>
<path fill="#FCFCFC" opacity="1.000000" stroke="none" 
	d="
M87.929459,196.998810 
	C85.827621,196.998901 84.195122,196.998901 82.303833,196.998901 
	C82.303833,194.473770 82.303833,192.259338 82.303833,189.870773 
	C85.139732,189.870773 87.759254,189.870773 90.766510,189.870773 
	C90.028168,192.296860 93.645729,195.870850 87.929459,196.998810 
z"/>
<path fill="#020202" opacity="1.000000" stroke="none" 
	d="
M73.942337,134.008942 
	C68.265015,131.919098 62.930267,129.960876 57.720692,127.712646 
	C54.502392,126.323753 52.628250,124.018349 52.912094,120.030640 
	C53.265812,115.061310 52.806744,110.037170 53.081722,105.057846 
	C53.208790,102.756889 53.823166,98.852936 54.952412,98.565392 
	C57.568298,97.899292 60.768650,98.587044 63.474163,99.494598 
	C65.897179,100.307388 67.975311,102.148338 70.755096,103.877480 
	C70.922729,101.340279 71.018753,99.886902 71.109489,98.513618 
	C77.925690,95.665741 81.665894,101.249214 86.041763,104.098801 
	C96.123283,110.663925 105.758858,117.912186 115.608070,124.836754 
	C118.412086,126.808151 120.638496,129.590469 118.444740,132.479828 
	C117.431320,133.814590 113.376015,133.611343 110.988907,132.991806 
	C102.710518,130.843323 94.558922,128.206314 86.387154,125.763573 
	C86.218445,126.187454 86.113228,126.338913 86.101532,126.497284 
	C85.224472,138.367523 85.112099,138.439819 73.942337,134.008942 
M81.138802,111.239868 
	C80.422295,111.344872 79.213638,111.240555 79.066055,111.587532 
	C77.716408,114.760757 75.848770,115.946472 72.524841,114.090469 
	C69.335732,112.309761 66.006271,110.780388 62.705372,109.123940 
	C61.726669,122.794937 60.216633,119.751213 76.207497,125.636276 
	C77.111031,122.627831 77.162384,118.560844 79.193047,116.867592 
	C80.975136,115.381630 84.976524,116.557205 87.997665,116.557205 
	C88.150261,116.313889 88.302849,116.070580 88.455444,115.827263 
	C86.179810,114.496323 83.904175,113.165375 81.138802,111.239868 
z"/>
<path fill="#F8F8F8" opacity="1.000000" stroke="none" 
	d="
M81.383667,111.537148 
	C83.904175,113.165375 86.179810,114.496323 88.455444,115.827263 
	C88.302849,116.070580 88.150261,116.313889 87.997665,116.557205 
	C84.976524,116.557205 80.975136,115.381630 79.193047,116.867592 
	C77.162384,118.560844 77.111031,122.627831 76.207497,125.636276 
	C60.216633,119.751213 61.726669,122.794937 62.705372,109.123940 
	C66.006271,110.780388 69.335732,112.309761 72.524841,114.090469 
	C75.848770,115.946472 77.716408,114.760757 79.066055,111.587532 
	C79.213638,111.240555 80.422295,111.344872 81.383667,111.537148 
z"/>
</svg>