<svg version="1.1" id="Layer_1" xmlns="http://www.w3.org/2000/svg" xmlns:xlink="http://www.w3.org/1999/xlink" x="0px" y="0px"
	 width="100%" viewBox="0 0 464 288" enable-background="new 0 0 464 288" xml:space="preserve">
<path fill="#000000" opacity="1.000000" stroke="none" 
	d="
M358.331909,149.027145 
	C359.707245,174.126495 352.881683,196.519547 339.393433,216.848145 
	C329.190826,232.224884 315.999695,244.649063 300.028107,254.105133 
	C284.785980,263.129333 268.323425,268.687164 250.817474,270.181213 
	C229.560638,271.995392 208.688400,269.553009 189.030075,260.462677 
	C151.012421,242.882614 127.326767,213.874283 119.581718,172.467148 
	C114.192902,143.656998 119.764961,116.821922 134.890869,91.795059 
	C151.851822,63.731983 176.749268,46.094841 208.045334,38.175392 
	C236.730515,30.916622 264.928345,33.770313 291.888947,46.829498 
	C312.814026,56.965187 329.569489,71.736305 341.568512,91.508972 
	C352.134186,108.919678 358.483978,127.838112 358.331909,149.027145 
M210.462204,60.299679 
	C195.729523,63.784958 182.900223,71.176559 172.002518,81.279892 
	C148.786301,102.803787 137.545059,129.386215 140.265762,161.425278 
	C141.954590,181.313110 149.391357,198.948013 162.281128,213.772095 
	C183.742874,238.454498 210.928833,250.802444 244.123245,248.706375 
	C272.255249,246.929993 295.521088,235.574402 313.737671,214.019791 
	C332.104126,192.287872 339.805847,167.318710 335.653534,139.092270 
	C330.681549,105.293999 311.637054,81.255150 281.759247,66.145950 
	C259.369781,54.823597 235.449005,53.020748 210.462204,60.299679 
z"/>
<path fill="#000000" opacity="1.000000" stroke="none" 
	d="
M80.934250,203.720215 
	C73.689819,181.863190 72.079193,159.621063 73.883629,137.383148 
	C76.520782,104.882965 88.045471,75.529129 108.683769,49.937527 
	C115.268799,41.772057 122.172943,34.021866 130.281845,27.320808 
	C137.652740,21.229633 147.264999,23.539289 149.633530,32.394043 
	C150.940811,37.281216 148.529465,41.086613 144.914322,44.107822 
	C118.539688,66.149429 103.400238,94.607658 97.387184,128.088043 
	C92.104790,157.500137 95.839745,186.029572 108.246635,213.115448 
	C116.915833,232.041412 129.371979,248.418869 145.528305,261.781494 
	C150.230392,265.670502 151.262894,272.010956 147.929245,276.848175 
	C144.877365,281.276550 138.889526,282.603394 133.718567,279.715881 
	C125.723923,275.251587 119.764877,268.345825 113.892052,261.637268 
	C103.926483,250.253571 95.294434,237.811890 89.009056,223.954468 
	C86.067764,217.469772 83.708344,210.721146 80.934250,203.720215 
z"/>
<path fill="#000000" opacity="1.000000" stroke="none" 
	d="
M347.871582,244.877869 
	C365.367157,223.614395 375.920929,199.801819 379.849823,172.765442 
	C382.543732,154.227676 381.487305,136.001190 377.305786,118.043335 
	C372.781860,98.614845 363.935791,80.962746 351.805084,65.030800 
	C345.551178,56.817173 338.056305,49.800610 330.634521,42.698311 
	C326.235748,38.488884 325.347046,32.996662 328.170807,28.840954 
	C331.073669,24.568937 337.151428,22.893721 342.285370,25.210512 
	C344.377502,26.154629 346.439911,27.416084 348.133698,28.954037 
	C375.819763,54.092964 393.608063,84.794945 400.429596,121.748573 
	C402.792267,134.547653 404.016113,147.426468 403.238800,160.359940 
	C401.340393,191.947220 392.199158,221.166626 373.793701,247.244446 
	C366.010925,258.271515 357.078369,268.208313 346.975372,277.114075 
	C341.359375,282.064545 335.400818,282.623596 330.747772,278.783997 
	C325.465210,274.424927 324.848785,267.907196 329.763489,263.135651 
	C335.832001,257.243927 342.642059,252.104294 347.871582,244.877869 
z"/>
<path fill="#000000" opacity="1.000000" stroke="none" 
	d="
M286.526703,113.857071 
	C289.625244,128.430679 290.396118,142.336792 280.738586,154.610672 
	C273.652618,163.616333 263.974548,168.225662 252.925903,170.447159 
	C245.332062,171.973984 237.684311,171.335052 230.065872,171.268799 
	C225.665634,171.230515 224.230392,172.910950 224.280472,177.172409 
	C224.442841,190.992584 224.205368,204.817902 224.411514,218.636902 
	C224.473984,222.824753 223.481491,224.574158 218.883423,224.453339 
	C206.363235,224.124374 207.671646,225.388138 207.661346,213.045547 
	C207.629791,175.242859 207.677856,137.440094 207.632492,99.637421 
	C207.619461,88.775444 208.573639,90.994698 216.718811,89.873947 
	C229.533569,88.110680 242.566330,87.477692 255.412018,89.740440 
	C269.697815,92.256859 281.558868,98.405571 286.526703,113.857071 
M224.330460,125.500160 
	C224.336121,134.320953 224.328445,143.141800 224.355118,151.962524 
	C224.363724,154.809372 224.829453,157.376266 228.477264,157.610001 
	C234.719284,158.009964 240.869064,159.089828 247.222031,157.702637 
	C258.291718,155.285492 267.083954,150.425385 270.867462,138.963776 
	C275.260712,125.654900 271.348083,110.143982 256.852783,104.540947 
	C248.446350,101.291512 239.603882,100.766380 230.483139,102.153976 
	C225.723541,102.878098 224.109528,104.513969 224.284119,109.024071 
	C224.483536,114.175705 224.330688,119.340973 224.330460,125.500160 
z"/>
</svg>