<svg version="1.1" id="Layer_1" xmlns="http://www.w3.org/2000/svg" xmlns:xlink="http://www.w3.org/1999/xlink" x="0px" y="0px"
	 width="100%" viewBox="0 0 464 352" enable-background="new 0 0 464 352" xml:space="preserve">
<path fill="#000000" opacity="1.000000" stroke="none" 
	d="
M315.929993,150.994171 
	C328.131958,159.932953 340.059875,168.641464 351.927795,177.431030 
	C365.016235,187.124527 364.160278,209.658936 352.182831,218.358932 
	C308.728333,249.922775 265.275330,281.488800 221.772446,312.985901 
	C214.104828,318.537445 206.399170,323.564728 196.077698,323.537933 
	C185.184952,323.509644 173.133255,311.695526 172.446136,301.693298 
	C171.990051,295.054138 171.757965,288.438599 171.654694,281.802246 
	C171.547241,274.897949 168.117538,271.398804 161.175400,271.386841 
	C139.011276,271.348633 116.842896,271.623718 94.684311,271.268890 
	C78.977470,271.017426 64.522697,266.662872 53.044041,255.184601 
	C44.433895,246.574753 39.933640,235.991150 39.723030,223.896179 
	C39.430038,207.069824 39.650455,190.234573 39.649868,173.403122 
	C39.649036,149.402496 57.127808,131.520142 79.134621,126.686554 
	C87.261444,124.901588 95.540627,124.546814 103.871124,124.610367 
	C122.701241,124.754036 141.533234,124.675499 160.364410,124.643539 
	C168.155975,124.630310 171.473343,121.144333 171.685242,113.357269 
	C171.843002,107.559692 171.906067,101.775391 172.344330,95.957024 
	C173.959976,74.507889 197.838730,66.132072 214.178391,77.898094 
	C236.391479,93.893509 258.669525,109.798691 280.904846,125.763336 
	C292.496246,134.085800 304.055664,142.452759 315.929993,150.994171 
z"/>
</svg>